<!-- Generator: Adobe Illustrator 19.2.0, SVG Export Plug-In  -->
<svg version="1.1"
	 xmlns="http://www.w3.org/2000/svg" xmlns:xlink="http://www.w3.org/1999/xlink" xmlns:a="http://ns.adobe.com/AdobeSVGViewerExtensions/3.0/"
	 x="0px" y="0px" width="182px" height="42.3px" viewBox="0 0 182 42.3" style="enable-background:new 0 0 182 42.3;"
	 xml:space="preserve">
<style type="text/css">
	.st0{fill:#0095D3;}
</style>
<defs>
</defs>
<g>
	<path class="st0" d="M9.5,42.3h163.1c5.2,0,9.5-4.3,9.5-9.5V9.5c0-5.2-4.3-9.5-9.5-9.5H9.5C4.3,0,0,4.3,0,9.5v23.3
		C0,38,4.3,42.3,9.5,42.3z"/>
	<g>
		<g>
			<path d="M53.8,12.7L53.8,12.7c0-2.6,1.9-4.7,4.7-4.7c1.7,0,2.7,0.6,3.6,1.4l-1,1.2c-0.7-0.7-1.5-1.1-2.5-1.1c-1.7,0-3,1.4-3,3.2
				v0c0,1.8,1.3,3.2,3,3.2c1.1,0,1.8-0.4,2.6-1.2l1,1c-0.9,1-2,1.6-3.7,1.6C55.7,17.4,53.8,15.4,53.8,12.7z"/>
			<path d="M63.6,10.4h1.6V12c0.4-1,1.2-1.7,2.4-1.7v1.7h-0.1c-1.4,0-2.3,0.9-2.3,2.7v2.6h-1.6V10.4z"/>
			<path d="M68.3,13.9L68.3,13.9c0-2,1.6-3.6,3.7-3.6c2.1,0,3.7,1.6,3.7,3.6v0c0,1.9-1.6,3.6-3.7,3.6C69.9,17.4,68.3,15.8,68.3,13.9
				z M74.1,13.9L74.1,13.9c0-1.2-0.9-2.2-2.1-2.2c-1.3,0-2.1,1-2.1,2.2v0c0,1.2,0.9,2.2,2.1,2.2C73.3,16,74.1,15.1,74.1,13.9z"/>
			<path d="M76.7,16.4l0.7-1.1c0.8,0.6,1.5,0.8,2.2,0.8c0.7,0,1.1-0.3,1.1-0.7v0c0-0.5-0.7-0.7-1.5-1c-1-0.3-2.1-0.7-2.1-2v0
				c0-1.3,1.1-2.1,2.4-2.1c0.9,0,1.8,0.3,2.5,0.8l-0.6,1.1c-0.7-0.4-1.4-0.7-1.9-0.7c-0.6,0-1,0.3-1,0.7v0c0,0.5,0.7,0.7,1.5,1
				c1,0.3,2.1,0.8,2.1,2v0c0,1.4-1.1,2.2-2.5,2.2C78.6,17.4,77.6,17,76.7,16.4z"/>
			<path d="M83.1,16.4l0.7-1.1c0.8,0.6,1.5,0.8,2.2,0.8c0.7,0,1.1-0.3,1.1-0.7v0c0-0.5-0.7-0.7-1.5-1c-1-0.3-2.1-0.7-2.1-2v0
				c0-1.3,1.1-2.1,2.4-2.1c0.9,0,1.8,0.3,2.5,0.8l-0.6,1.1c-0.7-0.4-1.4-0.7-1.9-0.7c-0.6,0-1,0.3-1,0.7v0c0,0.5,0.7,0.7,1.5,1
				c1,0.3,2.1,0.8,2.1,2v0c0,1.4-1.1,2.2-2.5,2.2C85,17.4,83.9,17,83.1,16.4z"/>
			<path d="M89.9,12.5h3.8v1.5h-3.8V12.5z"/>
			<path d="M95.5,10.4H97v1.1c0.5-0.7,1.2-1.3,2.3-1.3c1.6,0,3.2,1.3,3.2,3.6v0c0,2.3-1.6,3.6-3.2,3.6c-1.1,0-1.9-0.6-2.3-1.2v3.1
				h-1.6V10.4z M101,13.9L101,13.9c0-1.4-0.9-2.2-2-2.2c-1.1,0-2,0.9-2,2.2v0c0,1.3,0.9,2.2,2,2.2C100.1,16,101,15.2,101,13.9z"/>
			<path d="M103.8,13.9L103.8,13.9c0-2,1.6-3.6,3.7-3.6c2.1,0,3.7,1.6,3.7,3.6v0c0,1.9-1.6,3.6-3.7,3.6
				C105.4,17.4,103.8,15.8,103.8,13.9z M109.5,13.9L109.5,13.9c0-1.2-0.9-2.2-2.1-2.2c-1.3,0-2.1,1-2.1,2.2v0c0,1.2,0.9,2.2,2.1,2.2
				C108.7,16,109.5,15.1,109.5,13.9z"/>
			<path d="M112.4,13.9L112.4,13.9c0-2.3,1.5-3.6,3.2-3.6c1.1,0,1.8,0.6,2.3,1.2V7.8h1.6v9.5h-1.6v-1.1c-0.5,0.7-1.2,1.3-2.3,1.3
				C113.9,17.4,112.4,16.1,112.4,13.9z M117.9,13.9L117.9,13.9c0-1.4-0.9-2.2-2-2.2c-1.1,0-2,0.8-2,2.2v0c0,1.3,0.9,2.2,2,2.2
				C117,16,117.9,15.2,117.9,13.9z"/>
			<path d="M53.8,28.3L53.8,28.3c0-2.6,1.9-4.7,4.7-4.7c1.7,0,2.7,0.6,3.6,1.4l-1,1.2c-0.7-0.7-1.5-1.1-2.5-1.1c-1.7,0-3,1.4-3,3.2
				v0c0,1.8,1.3,3.2,3,3.2c1.1,0,1.8-0.4,2.6-1.2l1,1c-0.9,1-2,1.6-3.7,1.6C55.7,33,53.8,31,53.8,28.3z"/>
			<path d="M63.1,29.5L63.1,29.5c0-2,1.6-3.6,3.7-3.6c2.1,0,3.7,1.6,3.7,3.6v0c0,1.9-1.6,3.6-3.7,3.6C64.6,33,63.1,31.4,63.1,29.5z
				 M68.8,29.5L68.8,29.5c0-1.2-0.9-2.2-2.1-2.2c-1.3,0-2.1,1-2.1,2.2v0c0,1.2,0.9,2.2,2.1,2.2C68,31.6,68.8,30.7,68.8,29.5z"/>
			<path d="M72,26h1.6v1c0.4-0.6,1-1.2,2.1-1.2c1,0,1.7,0.5,2.1,1.2c0.5-0.7,1.3-1.2,2.3-1.2c1.5,0,2.4,0.9,2.4,2.6v4.4h-1.6V29
				c0-1.1-0.5-1.7-1.4-1.7c-0.9,0-1.5,0.6-1.5,1.7v3.9h-1.6V29c0-1.1-0.5-1.7-1.4-1.7s-1.5,0.6-1.5,1.7v3.9H72V26z"/>
			<path d="M84.3,26h1.6v1c0.4-0.6,1-1.2,2.1-1.2c1,0,1.7,0.5,2.1,1.2c0.5-0.7,1.3-1.2,2.3-1.2c1.5,0,2.4,0.9,2.4,2.6v4.4h-1.6V29
				c0-1.1-0.5-1.7-1.4-1.7c-0.9,0-1.5,0.6-1.5,1.7v3.9h-1.6V29c0-1.1-0.5-1.7-1.4-1.7s-1.5,0.6-1.5,1.7v3.9h-1.6V26z"/>
			<path d="M96.6,30.4V26h1.6v3.9c0,1.1,0.5,1.7,1.5,1.7c0.9,0,1.5-0.6,1.5-1.7V26h1.6v6.9h-1.6v-1.1c-0.4,0.6-1.1,1.2-2.1,1.2
				C97.5,33,96.6,32,96.6,30.4z"/>
			<path d="M104.8,26h1.6v1.1c0.4-0.6,1.1-1.2,2.1-1.2c1.5,0,2.4,1,2.4,2.6v4.4h-1.6V29c0-1.1-0.5-1.7-1.5-1.7
				c-0.9,0-1.5,0.6-1.5,1.7v3.9h-1.6V26z"/>
			<path d="M112.8,23.5h1.7V25h-1.7V23.5z M112.9,26h1.6v6.9h-1.6V26z"/>
			<path d="M116.2,29.5L116.2,29.5c0-2,1.5-3.6,3.6-3.6c1.3,0,2.1,0.5,2.7,1.2l-1,1.1c-0.5-0.5-1-0.9-1.8-0.9c-1.1,0-2,1-2,2.2v0
				c0,1.2,0.8,2.2,2.1,2.2c0.7,0,1.3-0.3,1.8-0.8l0.9,0.9c-0.7,0.8-1.5,1.3-2.8,1.3C117.7,33,116.2,31.4,116.2,29.5z"/>
			<path d="M123.5,30.9L123.5,30.9c0-1.5,1.2-2.2,2.8-2.2c0.8,0,1.3,0.1,1.8,0.3v-0.2c0-1-0.6-1.5-1.7-1.5c-0.8,0-1.3,0.2-2,0.4
				l-0.4-1.2c0.8-0.3,1.5-0.6,2.6-0.6c1,0,1.8,0.3,2.3,0.8c0.5,0.5,0.7,1.2,0.7,2.1v4.1h-1.5V32c-0.5,0.6-1.2,1-2.2,1
				C124.6,33,123.5,32.3,123.5,30.9z M128.2,30.4v-0.5c-0.4-0.2-0.9-0.3-1.6-0.3c-1,0-1.6,0.4-1.6,1.1v0c0,0.7,0.6,1,1.3,1
				C127.4,31.9,128.2,31.3,128.2,30.4z"/>
			<path d="M131.8,31v-3.6H131V26h0.9v-1.9h1.6V26h1.8v1.4h-1.8v3.4c0,0.6,0.3,0.9,0.8,0.9c0.4,0,0.7-0.1,1-0.2v1.3
				c-0.4,0.2-0.8,0.4-1.4,0.4C132.7,33,131.8,32.5,131.8,31z"/>
			<path d="M136.9,23.5h1.7V25h-1.7V23.5z M137,26h1.6v6.9H137V26z"/>
			<path d="M140.2,29.5L140.2,29.5c0-2,1.6-3.6,3.7-3.6c2.1,0,3.7,1.6,3.7,3.6v0c0,1.9-1.6,3.6-3.7,3.6
				C141.8,33,140.2,31.4,140.2,29.5z M145.9,29.5L145.9,29.5c0-1.2-0.9-2.2-2.1-2.2c-1.3,0-2.1,1-2.1,2.2v0c0,1.2,0.9,2.2,2.1,2.2
				C145.1,31.6,145.9,30.7,145.9,29.5z"/>
			<path d="M149.1,26h1.6v1.1c0.4-0.6,1.1-1.2,2.1-1.2c1.5,0,2.4,1,2.4,2.6v4.4h-1.6V29c0-1.1-0.5-1.7-1.5-1.7
				c-0.9,0-1.5,0.6-1.5,1.7v3.9h-1.6V26z"/>
		</g>
	</g>
</g>
</svg>
