<!-- Generator: Adobe Illustrator 19.2.0, SVG Export Plug-In  -->
<svg version="1.1"
	 xmlns="http://www.w3.org/2000/svg" xmlns:xlink="http://www.w3.org/1999/xlink" xmlns:a="http://ns.adobe.com/AdobeSVGViewerExtensions/3.0/"
	 x="0px" y="0px" width="1474.5px" height="87px" viewBox="0 0 1474.5 87" style="enable-background:new 0 0 1474.5 87;"
	 xml:space="preserve">
<style type="text/css">
	.st0{fill:#6D6F70;}
</style>
<defs>
</defs>
<path class="st0" d="M1474.5,87h-5v-2h3v-2h2V87z M1465.5,87h-4v-2h4V87z M1457.5,87h-4v-2h4V87z M1449.5,87h-4v-2h4V87z M1441.5,87
	h-4v-2h4V87z M1433.5,87h-4v-2h4V87z M1425.5,87h-4v-2h4V87z M1417.5,87h-4v-2h4V87z M1409.5,87h-4v-2h4V87z M1401.5,87h-4v-2h4V87z
	 M1393.5,87h-4v-2h4V87z M1385.5,87h-4v-2h4V87z M1377.5,87h-4v-2h4V87z M1369.5,87h-4v-2h4V87z M1361.5,87h-4v-2h4V87z M1353.5,87
	h-4v-2h4V87z M1345.5,87h-4v-2h4V87z M1337.5,87h-4v-2h4V87z M1329.5,87h-4v-2h4V87z M1321.5,87h-4v-2h4V87z M1313.5,87h-4v-2h4V87z
	 M1305.5,87h-4v-2h4V87z M1297.5,87h-4v-2h4V87z M1289.5,87h-4v-2h4V87z M1281.5,87h-4v-2h4V87z M1273.5,87h-4v-2h4V87z M1265.5,87
	h-4v-2h4V87z M1257.5,87h-4v-2h4V87z M1249.5,87h-4v-2h4V87z M1241.5,87h-4v-2h4V87z M1233.5,87h-4v-2h4V87z M1225.5,87h-4v-2h4V87z
	 M1217.5,87h-4v-2h4V87z M1209.5,87h-4v-2h4V87z M1201.5,87h-4v-2h4V87z M1193.5,87h-4v-2h4V87z M1185.5,87h-4v-2h4V87z M1177.5,87
	h-4v-2h4V87z M1169.5,87h-4v-2h4V87z M1161.5,87h-4v-2h4V87z M1153.5,87h-4v-2h4V87z M1145.5,87h-4v-2h4V87z M1137.5,87h-4v-2h4V87z
	 M1129.5,87h-4v-2h4V87z M1121.5,87h-4v-2h4V87z M1113.5,87h-4v-2h4V87z M1105.5,87h-4v-2h4V87z M1097.5,87h-4v-2h4V87z M1089.5,87
	h-4v-2h4V87z M1081.5,87h-4v-2h4V87z M1073.5,87h-4v-2h4V87z M1065.5,87h-4v-2h4V87z M1057.5,87h-4v-2h4V87z M1049.5,87h-4v-2h4V87z
	 M1041.5,87h-4v-2h4V87z M1033.5,87h-4v-2h4V87z M1025.5,87h-4v-2h4V87z M1017.5,87h-4v-2h4V87z M1009.5,87h-4v-2h4V87z M1001.5,87
	h-4v-2h4V87z M993.5,87h-4v-2h4V87z M985.5,87h-4v-2h4V87z M977.5,87h-4v-2h4V87z M969.5,87h-4v-2h4V87z M961.5,87h-4v-2h4V87z
	 M953.5,87h-4v-2h4V87z M945.5,87h-4v-2h4V87z M937.5,87h-4v-2h4V87z M929.5,87h-4v-2h4V87z M921.5,87h-4v-2h4V87z M913.5,87h-4v-2
	h4V87z M905.5,87h-4v-2h4V87z M897.5,87h-4v-2h4V87z M889.5,87h-4v-2h4V87z M881.5,87h-4v-2h4V87z M873.5,87h-4v-2h4V87z M865.5,87
	h-4v-2h4V87z M857.5,87h-4v-2h4V87z M849.5,87h-4v-2h4V87z M841.5,87h-4v-2h4V87z M833.5,87h-4v-2h4V87z M825.5,87h-4v-2h4V87z
	 M817.5,87h-4v-2h4V87z M809.5,87h-4v-2h4V87z M801.5,87h-4v-2h4V87z M793.5,87h-4v-2h4V87z M785.5,87h-4v-2h4V87z M777.5,87h-4v-2
	h4V87z M769.5,87h-4v-2h4V87z M761.5,87h-4v-2h4V87z M753.5,87h-4v-2h4V87z M745.5,87h-4v-2h4V87z M737.5,87h-4v-2h4V87z M729.5,87
	h-4v-2h4V87z M721.5,87h-4v-2h4V87z M713.5,87h-4v-2h4V87z M705.5,87h-4v-2h4V87z M697.5,87h-4v-2h4V87z M689.5,87h-4v-2h4V87z
	 M681.5,87h-4v-2h4V87z M673.5,87h-4v-2h4V87z M665.5,87h-4v-2h4V87z M657.5,87h-4v-2h4V87z M649.5,87h-4v-2h4V87z M641.5,87h-4v-2
	h4V87z M633.5,87h-4v-2h4V87z M625.5,87h-4v-2h4V87z M617.5,87h-4v-2h4V87z M609.5,87h-4v-2h4V87z M601.5,87h-4v-2h4V87z M593.5,87
	h-4v-2h4V87z M585.5,87h-4v-2h4V87z M577.5,87h-4v-2h4V87z M569.5,87h-4v-2h4V87z M561.5,87h-4v-2h4V87z M553.5,87h-4v-2h4V87z
	 M545.5,87h-4v-2h4V87z M537.5,87h-4v-2h4V87z M529.5,87h-4v-2h4V87z M521.5,87h-4v-2h4V87z M513.5,87h-4v-2h4V87z M505.5,87h-4v-2
	h4V87z M497.5,87h-4v-2h4V87z M489.5,87h-4v-2h4V87z M481.5,87h-4v-2h4V87z M473.5,87h-4v-2h4V87z M465.5,87h-4v-2h4V87z M457.5,87
	h-4v-2h4V87z M449.5,87h-4v-2h4V87z M441.5,87h-4v-2h4V87z M433.5,87h-4v-2h4V87z M425.5,87h-4v-2h4V87z M417.5,87h-4v-2h4V87z
	 M409.5,87h-4v-2h4V87z M401.5,87h-4v-2h4V87z M393.5,87h-4v-2h4V87z M385.5,87h-4v-2h4V87z M377.5,87h-4v-2h4V87z M369.5,87h-4v-2
	h4V87z M361.5,87h-4v-2h4V87z M353.5,87h-4v-2h4V87z M345.5,87h-4v-2h4V87z M337.5,87h-4v-2h4V87z M329.5,87h-4v-2h4V87z M321.5,87
	h-4v-2h4V87z M313.5,87h-4v-2h4V87z M305.5,87h-4v-2h4V87z M297.5,87h-4v-2h4V87z M289.5,87h-4v-2h4V87z M281.5,87h-4v-2h4V87z
	 M273.5,87h-4v-2h4V87z M265.5,87h-4v-2h4V87z M257.5,87h-4v-2h4V87z M249.5,87h-4v-2h4V87z M241.5,87h-4v-2h4V87z M233.5,87h-4v-2
	h4V87z M225.5,87h-4v-2h4V87z M217.5,87h-4v-2h4V87z M209.5,87h-4v-2h4V87z M201.5,87h-4v-2h4V87z M193.5,87h-4v-2h4V87z M185.5,87
	h-4v-2h4V87z M177.5,87h-4v-2h4V87z M169.5,87h-4v-2h4V87z M161.5,87h-4v-2h4V87z M153.5,87h-4v-2h4V87z M145.5,87h-4v-2h4V87z
	 M137.5,87h-4v-2h4V87z M129.5,87h-4v-2h4V87z M121.5,87h-4v-2h4V87z M113.5,87h-4v-2h4V87z M105.5,87h-4v-2h4V87z M97.5,87h-4v-2h4
	V87z M89.5,87h-4v-2h4V87z M81.5,87h-4v-2h4V87z M73.5,87h-4v-2h4V87z M65.5,87h-4v-2h4V87z M57.5,87h-4v-2h4V87z M49.5,87h-4v-2h4
	V87z M41.5,87h-4v-2h4V87z M33.5,87h-4v-2h4V87z M25.5,87h-4v-2h4V87z M17.5,87h-4v-2h4V87z M9.5,87h-4v-2h4V87z M1.5,87H0v-4.5h2
	V86H1.5V87z M1474.5,79h-2v-4h2V79z M2,78.5H0v-4h2V78.5z M1474.5,71h-2v-4h2V71z M2,70.5H0v-4h2V70.5z M1474.5,63h-2v-4h2V63z
	 M2,62.5H0v-4h2V62.5z M1474.5,55h-2v-4h2V55z M2,54.5H0v-4h2V54.5z M1474.5,47h-2v-4h2V47z M2,46.5H0v-4h2V46.5z M1474.5,39h-2v-4
	h2V39z M2,38.5H0v-4h2V38.5z M1474.5,31h-2v-4h2V31z M2,30.5H0v-4h2V30.5z M1474.5,23h-2v-4h2V23z M2,22.5H0v-4h2V22.5z M1474.5,15
	h-2v-4h2V15z M2,14.5H0v-4h2V14.5z M1474.5,7h-2V3h2V7z M2,6.5H0v-4h2V6.5z M1471.5,2h-4V0h4V2z M1463.5,2h-4V0h4V2z M1455.5,2h-4V0
	h4V2z M1447.5,2h-4V0h4V2z M1439.5,2h-4V0h4V2z M1431.5,2h-4V0h4V2z M1423.5,2h-4V0h4V2z M1415.5,2h-4V0h4V2z M1407.5,2h-4V0h4V2z
	 M1399.5,2h-4V0h4V2z M1391.5,2h-4V0h4V2z M1383.5,2h-4V0h4V2z M1375.5,2h-4V0h4V2z M1367.5,2h-4V0h4V2z M1359.5,2h-4V0h4V2z
	 M1351.5,2h-4V0h4V2z M1343.5,2h-4V0h4V2z M1335.5,2h-4V0h4V2z M1327.5,2h-4V0h4V2z M1319.5,2h-4V0h4V2z M1311.5,2h-4V0h4V2z
	 M1303.5,2h-4V0h4V2z M1295.5,2h-4V0h4V2z M1287.5,2h-4V0h4V2z M1279.5,2h-4V0h4V2z M1271.5,2h-4V0h4V2z M1263.5,2h-4V0h4V2z
	 M1255.5,2h-4V0h4V2z M1247.5,2h-4V0h4V2z M1239.5,2h-4V0h4V2z M1231.5,2h-4V0h4V2z M1223.5,2h-4V0h4V2z M1215.5,2h-4V0h4V2z
	 M1207.5,2h-4V0h4V2z M1199.5,2h-4V0h4V2z M1191.5,2h-4V0h4V2z M1183.5,2h-4V0h4V2z M1175.5,2h-4V0h4V2z M1167.5,2h-4V0h4V2z
	 M1159.5,2h-4V0h4V2z M1151.5,2h-4V0h4V2z M1143.5,2h-4V0h4V2z M1135.5,2h-4V0h4V2z M1127.5,2h-4V0h4V2z M1119.5,2h-4V0h4V2z
	 M1111.5,2h-4V0h4V2z M1103.5,2h-4V0h4V2z M1095.5,2h-4V0h4V2z M1087.5,2h-4V0h4V2z M1079.5,2h-4V0h4V2z M1071.5,2h-4V0h4V2z
	 M1063.5,2h-4V0h4V2z M1055.5,2h-4V0h4V2z M1047.5,2h-4V0h4V2z M1039.5,2h-4V0h4V2z M1031.5,2h-4V0h4V2z M1023.5,2h-4V0h4V2z
	 M1015.5,2h-4V0h4V2z M1007.5,2h-4V0h4V2z M999.5,2h-4V0h4V2z M991.5,2h-4V0h4V2z M983.5,2h-4V0h4V2z M975.5,2h-4V0h4V2z M967.5,2
	h-4V0h4V2z M959.5,2h-4V0h4V2z M951.5,2h-4V0h4V2z M943.5,2h-4V0h4V2z M935.5,2h-4V0h4V2z M927.5,2h-4V0h4V2z M919.5,2h-4V0h4V2z
	 M911.5,2h-4V0h4V2z M903.5,2h-4V0h4V2z M895.5,2h-4V0h4V2z M887.5,2h-4V0h4V2z M879.5,2h-4V0h4V2z M871.5,2h-4V0h4V2z M863.5,2h-4
	V0h4V2z M855.5,2h-4V0h4V2z M847.5,2h-4V0h4V2z M839.5,2h-4V0h4V2z M831.5,2h-4V0h4V2z M823.5,2h-4V0h4V2z M815.5,2h-4V0h4V2z
	 M807.5,2h-4V0h4V2z M799.5,2h-4V0h4V2z M791.5,2h-4V0h4V2z M783.5,2h-4V0h4V2z M775.5,2h-4V0h4V2z M767.5,2h-4V0h4V2z M759.5,2h-4
	V0h4V2z M751.5,2h-4V0h4V2z M743.5,2h-4V0h4V2z M735.5,2h-4V0h4V2z M727.5,2h-4V0h4V2z M719.5,2h-4V0h4V2z M711.5,2h-4V0h4V2z
	 M703.5,2h-4V0h4V2z M695.5,2h-4V0h4V2z M687.5,2h-4V0h4V2z M679.5,2h-4V0h4V2z M671.5,2h-4V0h4V2z M663.5,2h-4V0h4V2z M655.5,2h-4
	V0h4V2z M647.5,2h-4V0h4V2z M639.5,2h-4V0h4V2z M631.5,2h-4V0h4V2z M623.5,2h-4V0h4V2z M615.5,2h-4V0h4V2z M607.5,2h-4V0h4V2z
	 M599.5,2h-4V0h4V2z M591.5,2h-4V0h4V2z M583.5,2h-4V0h4V2z M575.5,2h-4V0h4V2z M567.5,2h-4V0h4V2z M559.5,2h-4V0h4V2z M551.5,2h-4
	V0h4V2z M543.5,2h-4V0h4V2z M535.5,2h-4V0h4V2z M527.5,2h-4V0h4V2z M519.5,2h-4V0h4V2z M511.5,2h-4V0h4V2z M503.5,2h-4V0h4V2z
	 M495.5,2h-4V0h4V2z M487.5,2h-4V0h4V2z M479.5,2h-4V0h4V2z M471.5,2h-4V0h4V2z M463.5,2h-4V0h4V2z M455.5,2h-4V0h4V2z M447.5,2h-4
	V0h4V2z M439.5,2h-4V0h4V2z M431.5,2h-4V0h4V2z M423.5,2h-4V0h4V2z M415.5,2h-4V0h4V2z M407.5,2h-4V0h4V2z M399.5,2h-4V0h4V2z
	 M391.5,2h-4V0h4V2z M383.5,2h-4V0h4V2z M375.5,2h-4V0h4V2z M367.5,2h-4V0h4V2z M359.5,2h-4V0h4V2z M351.5,2h-4V0h4V2z M343.5,2h-4
	V0h4V2z M335.5,2h-4V0h4V2z M327.5,2h-4V0h4V2z M319.5,2h-4V0h4V2z M311.5,2h-4V0h4V2z M303.5,2h-4V0h4V2z M295.5,2h-4V0h4V2z
	 M287.5,2h-4V0h4V2z M279.5,2h-4V0h4V2z M271.5,2h-4V0h4V2z M263.5,2h-4V0h4V2z M255.5,2h-4V0h4V2z M247.5,2h-4V0h4V2z M239.5,2h-4
	V0h4V2z M231.5,2h-4V0h4V2z M223.5,2h-4V0h4V2z M215.5,2h-4V0h4V2z M207.5,2h-4V0h4V2z M199.5,2h-4V0h4V2z M191.5,2h-4V0h4V2z
	 M183.5,2h-4V0h4V2z M175.5,2h-4V0h4V2z M167.5,2h-4V0h4V2z M159.5,2h-4V0h4V2z M151.5,2h-4V0h4V2z M143.5,2h-4V0h4V2z M135.5,2h-4
	V0h4V2z M127.5,2h-4V0h4V2z M119.5,2h-4V0h4V2z M111.5,2h-4V0h4V2z M103.5,2h-4V0h4V2z M95.5,2h-4V0h4V2z M87.5,2h-4V0h4V2z M79.5,2
	h-4V0h4V2z M71.5,2h-4V0h4V2z M63.5,2h-4V0h4V2z M55.5,2h-4V0h4V2z M47.5,2h-4V0h4V2z M39.5,2h-4V0h4V2z M31.5,2h-4V0h4V2z M23.5,2
	h-4V0h4V2z M15.5,2h-4V0h4V2z M7.5,2h-4V0h4V2z"/>
</svg>
