<!-- Generator: Adobe Illustrator 19.2.0, SVG Export Plug-In  -->
<svg version="1.1"
	 xmlns="http://www.w3.org/2000/svg" xmlns:xlink="http://www.w3.org/1999/xlink" xmlns:a="http://ns.adobe.com/AdobeSVGViewerExtensions/3.0/"
	 x="0px" y="0px" width="462.8px" height="493.2px" viewBox="0 0 462.8 493.2" style="enable-background:new 0 0 462.8 493.2;"
	 xml:space="preserve">
<style type="text/css">
	.st0{fill:#1D4077;}
	.st1{fill:#F1F1F2;stroke:#1D4077;stroke-width:2;stroke-miterlimit:10;}
	.st2{fill:#FFFFFF;}
	.st3{fill:#476277;}
	.st4{fill:#35495E;}
	.st5{fill:#BCC1C6;}
	.st6{fill:#2C3E50;}
	.st7{fill:#93A3A4;}
	.st8{fill:#3B96D2;}
	.st9{fill:#457093;}
	.st10{opacity:0.9;fill:#47B2D7;}
	.st11{fill:#006990;}
</style>
<defs>
</defs>
<polygon class="st0" points="244.7,0.4 236.7,10.9 236.7,435.2 244.7,443.2 "/>
<rect x="245.5" y="1" class="st1" width="216.3" height="441.4"/>
<polygon class="st0" points="8,0.4 0,10.9 0,435.2 8,443.2 "/>
<rect x="8.7" y="1" class="st1" width="216.3" height="441.4"/>
<g>
	<rect x="123.6" y="460.7" class="st0" width="216.3" height="32.5"/>
	<g>
		<path class="st2" d="M168.8,476.9L168.8,476.9c0-3.6,2.6-6.5,6.4-6.5c2.3,0,3.7,0.8,4.9,1.9l-1.4,1.6c-1-0.9-2.1-1.5-3.5-1.5
			c-2.4,0-4.1,2-4.1,4.4v0c0,2.4,1.7,4.4,4.1,4.4c1.5,0,2.5-0.6,3.6-1.6l1.4,1.4c-1.3,1.3-2.7,2.2-5,2.2
			C171.5,483.3,168.8,480.5,168.8,476.9z"/>
		<path class="st2" d="M181.5,476.9L181.5,476.9c0-3.5,2.7-6.5,6.5-6.5s6.5,2.9,6.5,6.4v0c0,3.5-2.7,6.4-6.5,6.4
			S181.5,480.4,181.5,476.9z M192.2,476.9L192.2,476.9c0-2.4-1.8-4.5-4.2-4.5s-4.2,2-4.2,4.4v0c0,2.4,1.8,4.4,4.2,4.4
			S192.2,479.3,192.2,476.9z"/>
		<path class="st2" d="M197.1,470.6h2.3l3.8,5.9l3.8-5.9h2.3v12.4h-2.2v-8.9l-3.9,5.9h-0.1l-3.9-5.8v8.9h-2.1V470.6z"/>
		<path class="st2" d="M212.6,470.6h4.9c2.9,0,4.7,1.7,4.7,4.2v0c0,2.8-2.2,4.2-5,4.2h-2.5v4h-2.2V470.6z M217.3,477.1
			c1.7,0,2.7-0.9,2.7-2.2v0c0-1.5-1-2.2-2.7-2.2h-2.5v4.5H217.3z"/>
		<path class="st2" d="M224.2,477.8v-7.2h2.2v7.1c0,2.3,1.2,3.5,3.1,3.5c1.9,0,3.1-1.2,3.1-3.4v-7.2h2.2v7c0,3.7-2.1,5.6-5.3,5.6
			C226.3,483.3,224.2,481.4,224.2,477.8z"/>
		<path class="st2" d="M240.9,472.7H237v-2H247v2h-3.9v10.4h-2.2V472.7z"/>
		<path class="st2" d="M249.4,470.6h9.2v2h-7v3.2h6.2v2h-6.2v3.3h7.1v2h-9.3V470.6z"/>
		<path class="st2" d="M266.6,470.6h4.9c2.9,0,4.7,1.7,4.7,4.2v0c0,2.8-2.2,4.2-5,4.2h-2.5v4h-2.2V470.6z M271.3,477.1
			c1.7,0,2.7-0.9,2.7-2.2v0c0-1.5-1-2.2-2.7-2.2h-2.5v4.5H271.3z"/>
		<path class="st2" d="M277.9,476.9L277.9,476.9c0-3.5,2.7-6.5,6.5-6.5s6.5,2.9,6.5,6.4v0c0,3.5-2.7,6.4-6.5,6.4
			S277.9,480.4,277.9,476.9z M288.6,476.9L288.6,476.9c0-2.4-1.8-4.5-4.2-4.5s-4.2,2-4.2,4.4v0c0,2.4,1.8,4.4,4.2,4.4
			S288.6,479.3,288.6,476.9z"/>
		<path class="st2" d="M293.5,470.6h4.6c3.9,0,6.6,2.7,6.6,6.2v0c0,3.5-2.7,6.2-6.6,6.2h-4.6V470.6z M295.7,472.6v8.4h2.4
			c2.6,0,4.3-1.8,4.3-4.2v0c0-2.4-1.7-4.2-4.3-4.2H295.7z"/>
	</g>
</g>
<g>
	<g>
		<g>
			<rect x="40.2" y="187" class="st3" width="159.1" height="36"/>
		</g>
		<rect x="44" y="191.9" class="st4" width="151" height="26.2"/>
		<g>
			<g>
				<ellipse class="st5" cx="119.7" cy="205" rx="5" ry="5.1"/>
				<ellipse class="st6" cx="119.7" cy="205" rx="3.7" ry="3.7"/>
			</g>
			<g>
				<rect x="54.6" y="194.3" class="st7" width="51.7" height="10.1"/>
				<rect x="54.6" y="205.7" class="st7" width="51.7" height="10.1"/>
			</g>
			<g>
				<rect x="133.1" y="194.3" class="st7" width="51.7" height="10.1"/>
				<rect x="133.1" y="205.7" class="st7" width="51.7" height="10.1"/>
			</g>
		</g>
		<g>
			<rect x="44.9" y="203.3" class="st5" width="8.4" height="3.4"/>
			<rect x="45.4" y="203.7" class="st6" width="7.3" height="2.7"/>
		</g>
		<ellipse class="st8" cx="190" cy="205" rx="1.9" ry="1.9"/>
	</g>
	<g>
		<g>
			<rect x="40.2" y="223" class="st3" width="159.1" height="36"/>
		</g>
		<rect x="44" y="227.9" class="st4" width="151" height="26.2"/>
		<g>
			<g>
				<ellipse class="st5" cx="119.7" cy="241" rx="5" ry="5.1"/>
				<ellipse class="st6" cx="119.7" cy="241" rx="3.7" ry="3.7"/>
			</g>
			<g>
				<rect x="54.6" y="230.3" class="st7" width="51.7" height="10.1"/>
				<rect x="54.6" y="241.7" class="st7" width="51.7" height="10.1"/>
			</g>
			<g>
				<rect x="133.1" y="230.3" class="st7" width="51.7" height="10.1"/>
				<rect x="133.1" y="241.7" class="st7" width="51.7" height="10.1"/>
			</g>
		</g>
		<g>
			<rect x="44.9" y="239.3" class="st5" width="8.4" height="3.4"/>
			<rect x="45.4" y="239.7" class="st6" width="7.3" height="2.7"/>
		</g>
		<ellipse class="st8" cx="190" cy="241" rx="1.9" ry="1.9"/>
	</g>
	<g>
		<g>
			<rect x="40.2" y="259" class="st3" width="159.1" height="36"/>
		</g>
		<rect x="44" y="263.9" class="st4" width="151" height="26.2"/>
		<g>
			<g>
				<ellipse class="st5" cx="119.7" cy="277" rx="5" ry="5.1"/>
				<ellipse class="st6" cx="119.7" cy="277" rx="3.7" ry="3.7"/>
			</g>
			<g>
				<rect x="54.6" y="266.3" class="st7" width="51.7" height="10.1"/>
				<rect x="54.6" y="277.8" class="st7" width="51.7" height="10.1"/>
			</g>
			<g>
				<rect x="133.1" y="266.3" class="st7" width="51.7" height="10.1"/>
				<rect x="133.1" y="277.8" class="st7" width="51.7" height="10.1"/>
			</g>
		</g>
		<g>
			<rect x="44.9" y="275.3" class="st5" width="8.4" height="3.4"/>
			<rect x="45.4" y="275.7" class="st6" width="7.3" height="2.7"/>
		</g>
		<ellipse class="st8" cx="190" cy="277" rx="1.9" ry="1.9"/>
	</g>
	<g>
		<g>
			<rect x="40.2" y="295" class="st3" width="159.1" height="36"/>
		</g>
		<rect x="44" y="299.9" class="st4" width="151" height="26.2"/>
		<g>
			<g>
				<ellipse class="st5" cx="119.7" cy="313.1" rx="5" ry="5.1"/>
				<ellipse class="st6" cx="119.7" cy="313.1" rx="3.7" ry="3.7"/>
			</g>
			<g>
				<rect x="54.6" y="302.4" class="st7" width="51.7" height="10.1"/>
				<rect x="54.6" y="313.8" class="st7" width="51.7" height="10.1"/>
			</g>
			<g>
				<rect x="133.1" y="302.4" class="st7" width="51.7" height="10.1"/>
				<rect x="133.1" y="313.8" class="st7" width="51.7" height="10.1"/>
			</g>
		</g>
		<g>
			<rect x="44.9" y="311.3" class="st5" width="8.4" height="3.4"/>
			<rect x="45.4" y="311.7" class="st6" width="7.3" height="2.7"/>
		</g>
		<ellipse class="st8" cx="190" cy="313.1" rx="1.9" ry="1.9"/>
	</g>
</g>
<g>
	<g>
		<path class="st9" d="M123.5,349.8l0.8-1.9c0.2-0.5,0.7-0.9,1.2-0.9h29.9c0.5,0,1,0.3,1.2,0.9l0.8,1.9H123.5z"/>
		<path class="st10" d="M154.9,358.4h-28.9c-2.2,0-4-1.8-4-4v-2.2c0-2.2,1.8-4,4-4h28.9c2.2,0,4,1.8,4,4v2.2
			C158.9,356.6,157.1,358.4,154.9,358.4z"/>
		<path class="st10" d="M154.9,370.8h-28.9c-2.2,0-4-1.8-4-4v-2.2c0-2.2,1.8-4,4-4h28.9c2.2,0,4,1.8,4,4v2.2
			C158.9,369,157.1,370.8,154.9,370.8z"/>
		<path class="st10" d="M154.9,383.2h-28.9c-2.2,0-4-1.8-4-4V377c0-2.2,1.8-4,4-4h28.9c2.2,0,4,1.8,4,4v2.2
			C158.9,381.4,157.1,383.2,154.9,383.2z"/>
		<rect x="123.5" y="358" class="st9" width="33.9" height="2.7"/>
		<rect x="123.5" y="370.5" class="st9" width="33.9" height="2.7"/>
		<path class="st9" d="M123.5,382.7l0.8,1.9c0.2,0.5,0.7,0.9,1.2,0.9h29.9c0.5,0,1-0.3,1.2-0.9l0.8-1.9H123.5z"/>
	</g>
	<g>
		<path class="st9" d="M167.7,349.8l0.8-1.9c0.2-0.5,0.7-0.9,1.2-0.9h29.9c0.5,0,1,0.3,1.2,0.9l0.8,1.9H167.7z"/>
		<path class="st10" d="M199.1,358.4h-28.9c-2.2,0-4-1.8-4-4v-2.2c0-2.2,1.8-4,4-4h28.9c2.2,0,4,1.8,4,4v2.2
			C203.1,356.6,201.3,358.4,199.1,358.4z"/>
		<path class="st10" d="M199.1,370.8h-28.9c-2.2,0-4-1.8-4-4v-2.2c0-2.2,1.8-4,4-4h28.9c2.2,0,4,1.8,4,4v2.2
			C203.1,369,201.3,370.8,199.1,370.8z"/>
		<path class="st10" d="M199.1,383.2h-28.9c-2.2,0-4-1.8-4-4V377c0-2.2,1.8-4,4-4h28.9c2.2,0,4,1.8,4,4v2.2
			C203.1,381.4,201.3,383.2,199.1,383.2z"/>
		<rect x="167.7" y="358" class="st9" width="33.9" height="2.7"/>
		<rect x="167.7" y="370.6" class="st9" width="33.9" height="2.7"/>
		<path class="st9" d="M167.7,382.7l0.8,1.9c0.2,0.5,0.7,0.9,1.2,0.9h29.9c0.5,0,1-0.3,1.2-0.9l0.8-1.9H167.7z"/>
	</g>
	<g>
		<path class="st9" d="M79.3,349.5l0.8-1.9c0.2-0.5,0.7-0.9,1.2-0.9h29.9c0.5,0,1,0.3,1.2,0.9l0.8,1.9H79.3z"/>
		<path class="st10" d="M110.7,358.1H81.9c-2.2,0-4-1.8-4-4v-2.2c0-2.2,1.8-4,4-4h28.9c2.2,0,4,1.8,4,4v2.2
			C114.7,356.3,112.9,358.1,110.7,358.1z"/>
		<path class="st10" d="M110.7,370.4H81.9c-2.2,0-4-1.8-4-4v-2.2c0-2.2,1.8-4,4-4h28.9c2.2,0,4,1.8,4,4v2.2
			C114.7,368.6,112.9,370.4,110.7,370.4z"/>
		<path class="st10" d="M110.7,382.8H81.9c-2.2,0-4-1.8-4-4v-2.2c0-2.2,1.8-4,4-4h28.9c2.2,0,4,1.8,4,4v2.2
			C114.7,381,112.9,382.8,110.7,382.8z"/>
		<rect x="79.3" y="357.6" class="st9" width="33.9" height="2.7"/>
		<rect x="79.3" y="370.2" class="st9" width="33.9" height="2.7"/>
		<path class="st9" d="M79.3,382.4l0.8,1.9c0.2,0.5,0.7,0.9,1.2,0.9h29.9c0.5,0,1-0.3,1.2-0.9l0.8-1.9H79.3z"/>
	</g>
	<g>
		<path class="st9" d="M35.1,349.8l0.8-1.9c0.2-0.5,0.7-0.9,1.2-0.9H67c0.5,0,1,0.3,1.2,0.9l0.8,1.9H35.1z"/>
		<path class="st10" d="M66.5,358.4H37.6c-2.2,0-4-1.8-4-4v-2.2c0-2.2,1.8-4,4-4h28.9c2.2,0,4,1.8,4,4v2.2
			C70.5,356.6,68.7,358.4,66.5,358.4z"/>
		<path class="st10" d="M66.5,370.7H37.6c-2.2,0-4-1.8-4-4v-2.2c0-2.2,1.8-4,4-4h28.9c2.2,0,4,1.8,4,4v2.2
			C70.5,368.9,68.7,370.7,66.5,370.7z"/>
		<path class="st10" d="M66.5,383.2H37.6c-2.2,0-4-1.8-4-4V377c0-2.2,1.8-4,4-4h28.9c2.2,0,4,1.8,4,4v2.2
			C70.5,381.4,68.7,383.2,66.5,383.2z"/>
		<rect x="35.1" y="357.9" class="st9" width="33.9" height="2.7"/>
		<rect x="35.1" y="370.5" class="st9" width="33.9" height="2.7"/>
		<path class="st9" d="M35.1,382.7l0.8,1.9c0.2,0.5,0.7,0.9,1.2,0.9H67c0.5,0,1-0.3,1.2-0.9l0.8-1.9H35.1z"/>
	</g>
	<rect x="38.7" y="396.7" class="st11" width="163.3" height="28.7"/>
	<g>
		<path class="st2" d="M69.4,403.7h2.4l3.7,9.5l3.7-9.5h2.3l-5.1,12.5h-1.9L69.4,403.7z"/>
		<path class="st2" d="M83.1,403.3h2.3v2h-2.3V403.3z M83.2,406.8h2.1v9.4h-2.1V406.8z"/>
		<path class="st2" d="M88.1,406.8h2.1v2.1c0.6-1.4,1.7-2.4,3.3-2.3v2.3h-0.1c-1.9,0-3.2,1.2-3.2,3.7v3.6h-2.1V406.8z"/>
		<path class="st2" d="M95.8,413.6v-4.9h-1.2v-1.8h1.2v-2.6H98v2.6h2.5v1.8H98v4.6c0,0.8,0.4,1.2,1.1,1.2c0.5,0,0.9-0.1,1.3-0.3v1.8
			c-0.5,0.3-1.1,0.5-1.9,0.5C96.9,416.3,95.8,415.6,95.8,413.6z"/>
		<path class="st2" d="M102.5,412.8v-6h2.1v5.3c0,1.5,0.7,2.3,2,2.3c1.2,0,2.1-0.9,2.1-2.3v-5.3h2.1v9.4h-2.1v-1.5
			c-0.6,0.9-1.5,1.7-2.9,1.7C103.7,416.4,102.5,414.9,102.5,412.8z"/>
		<path class="st2" d="M112.9,413.5L112.9,413.5c0-2.1,1.6-3.1,3.8-3.1c1,0,1.8,0.2,2.5,0.4v-0.2c0-1.3-0.8-2-2.3-2
			c-1,0-1.8,0.2-2.7,0.6l-0.6-1.7c1-0.5,2-0.8,3.5-0.8c1.4,0,2.4,0.4,3.1,1c0.7,0.7,1,1.7,1,2.9v5.6h-2.1V415
			c-0.6,0.8-1.6,1.4-3,1.4C114.5,416.4,112.9,415.3,112.9,413.5z M119.3,412.8v-0.6c-0.5-0.2-1.3-0.4-2.1-0.4
			c-1.4,0-2.2,0.6-2.2,1.6v0c0,0.9,0.8,1.4,1.8,1.4C118.2,414.8,119.3,414,119.3,412.8z"/>
		<path class="st2" d="M124,403.2h2.1v13H124V403.2z"/>
		<path class="st2" d="M133.6,414.3l1.3-1.6c1.2,1,2.4,1.6,3.9,1.6c1.3,0,2.2-0.6,2.2-1.6v0c0-0.9-0.5-1.4-2.8-1.9
			c-2.6-0.6-4.1-1.4-4.1-3.7v0c0-2.1,1.8-3.6,4.2-3.6c1.8,0,3.2,0.6,4.5,1.6l-1.2,1.7c-1.1-0.8-2.2-1.3-3.3-1.3c-1.3,0-2,0.7-2,1.5
			v0c0,1,0.6,1.4,2.9,2c2.6,0.6,3.9,1.6,3.9,3.6v0c0,2.3-1.8,3.7-4.4,3.7C136.9,416.3,135.1,415.7,133.6,414.3z"/>
		<path class="st2" d="M149.8,403.6h2l5.4,12.5H155l-1.3-3h-5.8l-1.3,3h-2.2L149.8,403.6z M152.9,411.2l-2.1-5l-2.1,5H152.9z"/>
		<path class="st2" d="M159.4,403.7h2l6.6,8.6v-8.6h2.1v12.4h-1.8l-6.8-8.8v8.8h-2.1V403.7z"/>
	</g>
</g>
<g>
	<g>
		<g>
			<rect x="272.2" y="187" class="st3" width="159.1" height="36"/>
		</g>
		<rect x="276" y="191.9" class="st4" width="151" height="26.2"/>
		<g>
			<g>
				<ellipse class="st5" cx="351.7" cy="205" rx="5" ry="5.1"/>
				<ellipse class="st6" cx="351.7" cy="205" rx="3.7" ry="3.7"/>
			</g>
			<g>
				<rect x="286.6" y="194.3" class="st7" width="51.7" height="10.1"/>
				<rect x="286.6" y="205.7" class="st7" width="51.7" height="10.1"/>
			</g>
			<g>
				<rect x="365.1" y="194.3" class="st7" width="51.7" height="10.1"/>
				<rect x="365.1" y="205.7" class="st7" width="51.7" height="10.1"/>
			</g>
		</g>
		<g>
			<rect x="276.9" y="203.3" class="st5" width="8.4" height="3.4"/>
			<rect x="277.4" y="203.7" class="st6" width="7.3" height="2.7"/>
		</g>
		<ellipse class="st8" cx="422" cy="205" rx="1.9" ry="1.9"/>
	</g>
	<g>
		<g>
			<rect x="272.2" y="223" class="st3" width="159.1" height="36"/>
		</g>
		<rect x="276" y="227.9" class="st4" width="151" height="26.2"/>
		<g>
			<g>
				<ellipse class="st5" cx="351.7" cy="241" rx="5" ry="5.1"/>
				<ellipse class="st6" cx="351.7" cy="241" rx="3.7" ry="3.7"/>
			</g>
			<g>
				<rect x="286.6" y="230.3" class="st7" width="51.7" height="10.1"/>
				<rect x="286.6" y="241.7" class="st7" width="51.7" height="10.1"/>
			</g>
			<g>
				<rect x="365.1" y="230.3" class="st7" width="51.7" height="10.1"/>
				<rect x="365.1" y="241.7" class="st7" width="51.7" height="10.1"/>
			</g>
		</g>
		<g>
			<rect x="276.9" y="239.3" class="st5" width="8.4" height="3.4"/>
			<rect x="277.4" y="239.7" class="st6" width="7.3" height="2.7"/>
		</g>
		<ellipse class="st8" cx="422" cy="241" rx="1.9" ry="1.9"/>
	</g>
	<g>
		<g>
			<rect x="272.2" y="259" class="st3" width="159.1" height="36"/>
		</g>
		<rect x="276" y="263.9" class="st4" width="151" height="26.2"/>
		<g>
			<g>
				<ellipse class="st5" cx="351.7" cy="277" rx="5" ry="5.1"/>
				<ellipse class="st6" cx="351.7" cy="277" rx="3.7" ry="3.7"/>
			</g>
			<g>
				<rect x="286.6" y="266.3" class="st7" width="51.7" height="10.1"/>
				<rect x="286.6" y="277.8" class="st7" width="51.7" height="10.1"/>
			</g>
			<g>
				<rect x="365.1" y="266.3" class="st7" width="51.7" height="10.1"/>
				<rect x="365.1" y="277.8" class="st7" width="51.7" height="10.1"/>
			</g>
		</g>
		<g>
			<rect x="276.9" y="275.3" class="st5" width="8.4" height="3.4"/>
			<rect x="277.4" y="275.7" class="st6" width="7.3" height="2.7"/>
		</g>
		<ellipse class="st8" cx="422" cy="277" rx="1.9" ry="1.9"/>
	</g>
	<g>
		<g>
			<rect x="272.2" y="295" class="st3" width="159.1" height="36"/>
		</g>
		<rect x="276" y="299.9" class="st4" width="151" height="26.2"/>
		<g>
			<g>
				<ellipse class="st5" cx="351.7" cy="313.1" rx="5" ry="5.1"/>
				<ellipse class="st6" cx="351.7" cy="313.1" rx="3.7" ry="3.7"/>
			</g>
			<g>
				<rect x="286.6" y="302.4" class="st7" width="51.7" height="10.1"/>
				<rect x="286.6" y="313.8" class="st7" width="51.7" height="10.1"/>
			</g>
			<g>
				<rect x="365.1" y="302.4" class="st7" width="51.7" height="10.1"/>
				<rect x="365.1" y="313.8" class="st7" width="51.7" height="10.1"/>
			</g>
		</g>
		<g>
			<rect x="276.9" y="311.3" class="st5" width="8.4" height="3.4"/>
			<rect x="277.4" y="311.7" class="st6" width="7.3" height="2.7"/>
		</g>
		<ellipse class="st8" cx="422" cy="313.1" rx="1.9" ry="1.9"/>
	</g>
</g>
<g>
	<g>
		<path class="st9" d="M355.5,349.8l0.8-1.9c0.2-0.5,0.7-0.9,1.2-0.9h29.9c0.5,0,1,0.3,1.2,0.9l0.8,1.9H355.5z"/>
		<path class="st10" d="M386.9,358.4h-28.9c-2.2,0-4-1.8-4-4v-2.2c0-2.2,1.8-4,4-4h28.9c2.2,0,4,1.8,4,4v2.2
			C390.9,356.6,389.1,358.4,386.9,358.4z"/>
		<path class="st10" d="M386.9,370.8h-28.9c-2.2,0-4-1.8-4-4v-2.2c0-2.2,1.8-4,4-4h28.9c2.2,0,4,1.8,4,4v2.2
			C390.9,369,389.1,370.8,386.9,370.8z"/>
		<path class="st10" d="M386.9,383.2h-28.9c-2.2,0-4-1.8-4-4V377c0-2.2,1.8-4,4-4h28.9c2.2,0,4,1.8,4,4v2.2
			C390.9,381.4,389.1,383.2,386.9,383.2z"/>
		<rect x="355.5" y="358" class="st9" width="33.9" height="2.7"/>
		<rect x="355.5" y="370.5" class="st9" width="33.9" height="2.7"/>
		<path class="st9" d="M355.5,382.7l0.8,1.9c0.2,0.5,0.7,0.9,1.2,0.9h29.9c0.5,0,1-0.3,1.2-0.9l0.8-1.9H355.5z"/>
	</g>
	<g>
		<path class="st9" d="M399.7,349.8l0.8-1.9c0.2-0.5,0.7-0.9,1.2-0.9h29.9c0.5,0,1,0.3,1.2,0.9l0.8,1.9H399.7z"/>
		<path class="st10" d="M431.1,358.4h-28.9c-2.2,0-4-1.8-4-4v-2.2c0-2.2,1.8-4,4-4h28.9c2.2,0,4,1.8,4,4v2.2
			C435.1,356.6,433.3,358.4,431.1,358.4z"/>
		<path class="st10" d="M431.1,370.8h-28.9c-2.2,0-4-1.8-4-4v-2.2c0-2.2,1.8-4,4-4h28.9c2.2,0,4,1.8,4,4v2.2
			C435.1,369,433.3,370.8,431.1,370.8z"/>
		<path class="st10" d="M431.1,383.2h-28.9c-2.2,0-4-1.8-4-4V377c0-2.2,1.8-4,4-4h28.9c2.2,0,4,1.8,4,4v2.2
			C435.1,381.4,433.3,383.2,431.1,383.2z"/>
		<rect x="399.7" y="358" class="st9" width="33.9" height="2.7"/>
		<rect x="399.7" y="370.6" class="st9" width="33.9" height="2.7"/>
		<path class="st9" d="M399.7,382.7l0.8,1.9c0.2,0.5,0.7,0.9,1.2,0.9h29.9c0.5,0,1-0.3,1.2-0.9l0.8-1.9H399.7z"/>
	</g>
	<g>
		<path class="st9" d="M311.3,349.5l0.8-1.9c0.2-0.5,0.7-0.9,1.2-0.9h29.9c0.5,0,1,0.3,1.2,0.9l0.8,1.9H311.3z"/>
		<path class="st10" d="M342.7,358.1h-28.9c-2.2,0-4-1.8-4-4v-2.2c0-2.2,1.8-4,4-4h28.9c2.2,0,4,1.8,4,4v2.2
			C346.7,356.3,344.9,358.1,342.7,358.1z"/>
		<path class="st10" d="M342.7,370.4h-28.9c-2.2,0-4-1.8-4-4v-2.2c0-2.2,1.8-4,4-4h28.9c2.2,0,4,1.8,4,4v2.2
			C346.7,368.6,344.9,370.4,342.7,370.4z"/>
		<path class="st10" d="M342.7,382.8h-28.9c-2.2,0-4-1.8-4-4v-2.2c0-2.2,1.8-4,4-4h28.9c2.2,0,4,1.8,4,4v2.2
			C346.7,381,344.9,382.8,342.7,382.8z"/>
		<rect x="311.3" y="357.6" class="st9" width="33.9" height="2.7"/>
		<rect x="311.3" y="370.2" class="st9" width="33.9" height="2.7"/>
		<path class="st9" d="M311.3,382.4l0.8,1.9c0.2,0.5,0.7,0.9,1.2,0.9h29.9c0.5,0,1-0.3,1.2-0.9l0.8-1.9H311.3z"/>
	</g>
	<g>
		<path class="st9" d="M267.1,349.8l0.8-1.9c0.2-0.5,0.7-0.9,1.2-0.9H299c0.5,0,1,0.3,1.2,0.9l0.8,1.9H267.1z"/>
		<path class="st10" d="M298.5,358.4h-28.9c-2.2,0-4-1.8-4-4v-2.2c0-2.2,1.8-4,4-4h28.9c2.2,0,4,1.8,4,4v2.2
			C302.5,356.6,300.7,358.4,298.5,358.4z"/>
		<path class="st10" d="M298.5,370.7h-28.9c-2.2,0-4-1.8-4-4v-2.2c0-2.2,1.8-4,4-4h28.9c2.2,0,4,1.8,4,4v2.2
			C302.5,368.9,300.7,370.7,298.5,370.7z"/>
		<path class="st10" d="M298.5,383.2h-28.9c-2.2,0-4-1.8-4-4V377c0-2.2,1.8-4,4-4h28.9c2.2,0,4,1.8,4,4v2.2
			C302.5,381.4,300.7,383.2,298.5,383.2z"/>
		<rect x="267.1" y="357.9" class="st9" width="33.9" height="2.7"/>
		<rect x="267.1" y="370.5" class="st9" width="33.9" height="2.7"/>
		<path class="st9" d="M267.1,382.7l0.8,1.9c0.2,0.5,0.7,0.9,1.2,0.9H299c0.5,0,1-0.3,1.2-0.9l0.8-1.9H267.1z"/>
	</g>
	<rect x="270.7" y="396.7" class="st11" width="163.3" height="28.7"/>
	<g>
		<path class="st2" d="M301.4,403.7h2.4l3.7,9.5l3.7-9.5h2.3l-5.1,12.5h-1.9L301.4,403.7z"/>
		<path class="st2" d="M315.1,403.3h2.3v2h-2.3V403.3z M315.2,406.8h2.1v9.4h-2.1V406.8z"/>
		<path class="st2" d="M320.1,406.8h2.1v2.1c0.6-1.4,1.7-2.4,3.3-2.3v2.3h-0.1c-1.9,0-3.2,1.2-3.2,3.7v3.6h-2.1V406.8z"/>
		<path class="st2" d="M327.8,413.6v-4.9h-1.2v-1.8h1.2v-2.6h2.1v2.6h2.5v1.8H330v4.6c0,0.8,0.4,1.2,1.1,1.2c0.5,0,0.9-0.1,1.3-0.3
			v1.8c-0.5,0.3-1.1,0.5-1.9,0.5C328.9,416.3,327.8,415.6,327.8,413.6z"/>
		<path class="st2" d="M334.5,412.8v-6h2.1v5.3c0,1.5,0.7,2.3,2,2.3c1.2,0,2.1-0.9,2.1-2.3v-5.3h2.1v9.4h-2.1v-1.5
			c-0.6,0.9-1.5,1.7-2.9,1.7C335.7,416.4,334.5,414.9,334.5,412.8z"/>
		<path class="st2" d="M344.9,413.5L344.9,413.5c0-2.1,1.6-3.1,3.8-3.1c1,0,1.8,0.2,2.5,0.4v-0.2c0-1.3-0.8-2-2.3-2
			c-1,0-1.8,0.2-2.7,0.6l-0.6-1.7c1-0.5,2-0.8,3.5-0.8c1.4,0,2.4,0.4,3.1,1c0.7,0.7,1,1.7,1,2.9v5.6h-2.1V415
			c-0.6,0.8-1.6,1.4-3,1.4C346.5,416.4,344.9,415.3,344.9,413.5z M351.3,412.8v-0.6c-0.5-0.2-1.3-0.4-2.1-0.4
			c-1.4,0-2.2,0.6-2.2,1.6v0c0,0.9,0.8,1.4,1.8,1.4C350.2,414.8,351.3,414,351.3,412.8z"/>
		<path class="st2" d="M356,403.2h2.1v13H356V403.2z"/>
		<path class="st2" d="M365.6,414.3l1.3-1.6c1.2,1,2.4,1.6,3.9,1.6c1.3,0,2.2-0.6,2.2-1.6v0c0-0.9-0.5-1.4-2.8-1.9
			c-2.6-0.6-4.1-1.4-4.1-3.7v0c0-2.1,1.8-3.6,4.2-3.6c1.8,0,3.2,0.6,4.5,1.6l-1.2,1.7c-1.1-0.8-2.2-1.3-3.3-1.3c-1.3,0-2,0.7-2,1.5
			v0c0,1,0.6,1.4,2.9,2c2.6,0.6,3.9,1.6,3.9,3.6v0c0,2.3-1.8,3.7-4.4,3.7C368.9,416.3,367.1,415.7,365.6,414.3z"/>
		<path class="st2" d="M381.8,403.6h2l5.4,12.5H387l-1.3-3h-5.8l-1.3,3h-2.2L381.8,403.6z M384.9,411.2l-2.1-5l-2.1,5H384.9z"/>
		<path class="st2" d="M391.4,403.7h2l6.6,8.6v-8.6h2.1v12.4h-1.8l-6.8-8.8v8.8h-2.1V403.7z"/>
	</g>
</g>
</svg>
