<!-- Generator: Adobe Illustrator 19.2.0, SVG Export Plug-In  -->
<svg version="1.1"
	 xmlns="http://www.w3.org/2000/svg" xmlns:xlink="http://www.w3.org/1999/xlink" xmlns:a="http://ns.adobe.com/AdobeSVGViewerExtensions/3.0/"
	 x="0px" y="0px" width="222.8px" height="493.3px" viewBox="0 0 222.8 493.3" style="enable-background:new 0 0 222.8 493.3;"
	 xml:space="preserve">
<style type="text/css">
	.st0{fill:#949937;}
	.st1{fill:#F1F1F1;stroke:#949937;stroke-width:2;stroke-miterlimit:10;}
	.st2{fill:#FFFFFF;}
	.st3{fill:#476277;}
	.st4{fill:#35495E;}
	.st5{fill:#BCC1C6;}
	.st6{fill:#2C3E50;}
	.st7{fill:#93A3A4;}
	.st8{fill:#3B96D2;}
	.st9{fill:#457093;}
	.st10{opacity:0.9;fill:#47B2D7;}
	.st11{fill:#006990;}
</style>
<defs>
</defs>
<g>
	<polygon class="st0" points="8,0.4 0,10.9 0,435.2 8,443.2 	"/>
	<rect x="8.7" y="1" class="st1" width="213" height="441.4"/>
	<g>
		<rect x="12.3" y="460.7" class="st0" width="210.5" height="32.5"/>
		<g>
			<path class="st2" d="M72,471.7h9.2v2h-7v3.2h6.2v2h-6.2v3.3h7.1v2H72V471.7z"/>
			<path class="st2" d="M83.9,471.7h4.6c3.9,0,6.6,2.7,6.6,6.2v0c0,3.5-2.7,6.2-6.6,6.2h-4.6V471.7z M86.1,473.7v8.4h2.4
				c2.6,0,4.3-1.8,4.3-4.2v0c0-2.4-1.7-4.2-4.3-4.2H86.1z"/>
			<path class="st2" d="M97.3,477.9L97.3,477.9c0-3.5,2.7-6.5,6.4-6.5c2.2,0,3.5,0.6,4.8,1.7l-1.4,1.7c-1-0.8-1.9-1.3-3.5-1.3
				c-2.3,0-4,2-4,4.4v0c0,2.6,1.7,4.4,4.2,4.4c1.2,0,2.2-0.4,3-0.9v-2.3h-3.2v-1.9h5.3v5.2c-1.2,1-3,1.9-5.2,1.9
				C99.8,484.3,97.3,481.5,97.3,477.9z"/>
			<path class="st2" d="M111.7,471.7h9.2v2h-7v3.2h6.2v2h-6.2v3.3h7.1v2h-9.3V471.7z"/>
			<path class="st2" d="M128.9,471.7h4.9c2.9,0,4.7,1.7,4.7,4.2v0c0,2.8-2.2,4.2-5,4.2h-2.5v4h-2.2V471.7z M133.7,478.1
				c1.7,0,2.7-0.9,2.7-2.2v0c0-1.5-1-2.2-2.7-2.2h-2.5v4.5H133.7z"/>
			<path class="st2" d="M140.2,477.9L140.2,477.9c0-3.5,2.7-6.5,6.5-6.5c3.8,0,6.5,2.9,6.5,6.4v0c0,3.5-2.7,6.4-6.5,6.4
				S140.2,481.4,140.2,477.9z M151,477.9L151,477.9c0-2.4-1.8-4.5-4.2-4.5s-4.2,2-4.2,4.4v0c0,2.4,1.8,4.4,4.2,4.4
				C149.2,482.3,151,480.3,151,477.9z"/>
			<path class="st2" d="M155.9,471.7h4.6c3.9,0,6.6,2.7,6.6,6.2v0c0,3.5-2.7,6.2-6.6,6.2h-4.6V471.7z M158.1,473.7v8.4h2.4
				c2.6,0,4.3-1.8,4.3-4.2v0c0-2.4-1.7-4.2-4.3-4.2H158.1z"/>
		</g>
	</g>
	<g>
		<g>
			<g>
				<g>
					<rect x="31.6" y="184.9" class="st3" width="164.1" height="37.2"/>
				</g>
				<rect x="35.5" y="189.9" class="st4" width="155.7" height="27.1"/>
				<g>
					<g>
						<ellipse class="st5" cx="113.7" cy="203.5" rx="5.2" ry="5.2"/>
						<ellipse class="st6" cx="113.7" cy="203.5" rx="3.8" ry="3.8"/>
					</g>
					<g>
						<rect x="46.5" y="192.5" class="st7" width="53.3" height="10.4"/>
						<rect x="46.5" y="204.2" class="st7" width="53.3" height="10.4"/>
					</g>
					<g>
						<rect x="127.5" y="192.5" class="st7" width="53.3" height="10.4"/>
						<rect x="127.5" y="204.2" class="st7" width="53.3" height="10.4"/>
					</g>
				</g>
				<g>
					<rect x="36.5" y="201.7" class="st5" width="8.7" height="3.5"/>
					<rect x="37" y="202.1" class="st6" width="7.6" height="2.7"/>
				</g>
				<ellipse class="st8" cx="186.1" cy="203.5" rx="2" ry="2"/>
			</g>
			<g>
				<g>
					<rect x="31.6" y="222.1" class="st3" width="164.1" height="37.2"/>
				</g>
				<rect x="35.5" y="227.1" class="st4" width="155.7" height="27.1"/>
				<g>
					<g>
						<ellipse class="st5" cx="113.7" cy="240.6" rx="5.2" ry="5.2"/>
						<ellipse class="st6" cx="113.7" cy="240.6" rx="3.8" ry="3.8"/>
					</g>
					<g>
						<rect x="46.5" y="229.6" class="st7" width="53.3" height="10.4"/>
						<rect x="46.5" y="241.4" class="st7" width="53.3" height="10.4"/>
					</g>
					<g>
						<rect x="127.5" y="229.6" class="st7" width="53.3" height="10.4"/>
						<rect x="127.5" y="241.4" class="st7" width="53.3" height="10.4"/>
					</g>
				</g>
				<g>
					<rect x="36.5" y="238.9" class="st5" width="8.7" height="3.5"/>
					<rect x="37" y="239.3" class="st6" width="7.6" height="2.7"/>
				</g>
				<ellipse class="st8" cx="186.1" cy="240.6" rx="2" ry="2"/>
			</g>
			<g>
				<g>
					<rect x="31.6" y="259.2" class="st3" width="164.1" height="37.2"/>
				</g>
				<rect x="35.5" y="264.3" class="st4" width="155.7" height="27.1"/>
				<g>
					<g>
						<ellipse class="st5" cx="113.7" cy="277.8" rx="5.2" ry="5.2"/>
						<ellipse class="st6" cx="113.7" cy="277.8" rx="3.8" ry="3.8"/>
					</g>
					<g>
						<rect x="46.5" y="266.8" class="st7" width="53.3" height="10.4"/>
						<rect x="46.5" y="278.6" class="st7" width="53.3" height="10.4"/>
					</g>
					<g>
						<rect x="127.5" y="266.8" class="st7" width="53.3" height="10.4"/>
						<rect x="127.5" y="278.6" class="st7" width="53.3" height="10.4"/>
					</g>
				</g>
				<g>
					<rect x="36.5" y="276" class="st5" width="8.7" height="3.5"/>
					<rect x="37" y="276.4" class="st6" width="7.6" height="2.7"/>
				</g>
				<ellipse class="st8" cx="186.1" cy="277.8" rx="2" ry="2"/>
			</g>
			<g>
				<g>
					<rect x="31.6" y="296.2" class="st3" width="164.1" height="37.2"/>
				</g>
				<rect x="35.5" y="301.3" class="st4" width="155.7" height="27.1"/>
				<g>
					<g>
						<ellipse class="st5" cx="113.7" cy="314.8" rx="5.2" ry="5.2"/>
						<ellipse class="st6" cx="113.7" cy="314.8" rx="3.8" ry="3.8"/>
					</g>
					<g>
						<rect x="46.5" y="303.8" class="st7" width="53.3" height="10.4"/>
						<rect x="46.5" y="315.6" class="st7" width="53.3" height="10.4"/>
					</g>
					<g>
						<rect x="127.5" y="303.8" class="st7" width="53.3" height="10.4"/>
						<rect x="127.5" y="315.6" class="st7" width="53.3" height="10.4"/>
					</g>
				</g>
				<g>
					<rect x="36.5" y="313" class="st5" width="8.7" height="3.5"/>
					<rect x="37" y="313.4" class="st6" width="7.6" height="2.7"/>
				</g>
				<ellipse class="st8" cx="186.1" cy="314.8" rx="2" ry="2"/>
			</g>
		</g>
		<g>
			<g>
				<path class="st9" d="M119.5,349.9l0.8-1.9c0.2-0.5,0.7-0.9,1.2-0.9h29.9c0.5,0,1,0.3,1.2,0.9l0.8,1.9H119.5z"/>
				<path class="st10" d="M150.9,358.5H122c-2.2,0-4-1.8-4-4v-2.2c0-2.2,1.8-4,4-4h28.9c2.2,0,4,1.8,4,4v2.2
					C154.9,356.7,153.1,358.5,150.9,358.5z"/>
				<path class="st10" d="M150.9,370.8H122c-2.2,0-4-1.8-4-4v-2.2c0-2.2,1.8-4,4-4h28.9c2.2,0,4,1.8,4,4v2.2
					C154.9,369,153.1,370.8,150.9,370.8z"/>
				<path class="st10" d="M150.9,383.2H122c-2.2,0-4-1.8-4-4V377c0-2.2,1.8-4,4-4h28.9c2.2,0,4,1.8,4,4v2.2
					C154.9,381.4,153.1,383.2,150.9,383.2z"/>
				<rect x="119.5" y="358" class="st9" width="33.9" height="2.7"/>
				<rect x="119.5" y="370.6" class="st9" width="33.9" height="2.7"/>
				<path class="st9" d="M119.5,382.8l0.8,1.9c0.2,0.5,0.7,0.9,1.2,0.9h29.9c0.5,0,1-0.3,1.2-0.9l0.8-1.9H119.5z"/>
			</g>
			<g>
				<path class="st9" d="M163.7,349.9l0.8-1.9c0.2-0.5,0.7-0.9,1.2-0.9h29.9c0.5,0,1,0.3,1.2,0.9l0.8,1.9H163.7z"/>
				<path class="st10" d="M195.1,358.5h-28.9c-2.2,0-4-1.8-4-4v-2.2c0-2.2,1.8-4,4-4h28.9c2.2,0,4,1.8,4,4v2.2
					C199.1,356.7,197.3,358.5,195.1,358.5z"/>
				<path class="st10" d="M195.1,370.8h-28.9c-2.2,0-4-1.8-4-4v-2.2c0-2.2,1.8-4,4-4h28.9c2.2,0,4,1.8,4,4v2.2
					C199.1,369,197.3,370.8,195.1,370.8z"/>
				<path class="st10" d="M195.1,383.2h-28.9c-2.2,0-4-1.8-4-4V377c0-2.2,1.8-4,4-4h28.9c2.2,0,4,1.8,4,4v2.2
					C199.1,381.4,197.3,383.2,195.1,383.2z"/>
				<rect x="163.7" y="358" class="st9" width="33.9" height="2.7"/>
				<rect x="163.7" y="370.6" class="st9" width="33.9" height="2.7"/>
				<path class="st9" d="M163.7,382.8l0.8,1.9c0.2,0.5,0.7,0.9,1.2,0.9h29.9c0.5,0,1-0.3,1.2-0.9l0.8-1.9H163.7z"/>
			</g>
			<g>
				<path class="st9" d="M75.3,349.5l0.8-1.9c0.2-0.5,0.7-0.9,1.2-0.9h29.9c0.5,0,1,0.3,1.2,0.9l0.8,1.9H75.3z"/>
				<path class="st10" d="M106.7,358.1H77.8c-2.2,0-4-1.8-4-4v-2.2c0-2.2,1.8-4,4-4h28.9c2.2,0,4,1.8,4,4v2.2
					C110.7,356.3,108.9,358.1,106.7,358.1z"/>
				<path class="st10" d="M106.7,370.4H77.8c-2.2,0-4-1.8-4-4v-2.2c0-2.2,1.8-4,4-4h28.9c2.2,0,4,1.8,4,4v2.2
					C110.7,368.6,108.9,370.4,106.7,370.4z"/>
				<path class="st10" d="M106.7,382.9H77.8c-2.2,0-4-1.8-4-4v-2.2c0-2.2,1.8-4,4-4h28.9c2.2,0,4,1.8,4,4v2.2
					C110.7,381.1,108.9,382.9,106.7,382.9z"/>
				<rect x="75.3" y="357.7" class="st9" width="33.9" height="2.7"/>
				<rect x="75.3" y="370.2" class="st9" width="33.9" height="2.7"/>
				<path class="st9" d="M75.3,382.4l0.8,1.9c0.2,0.5,0.7,0.9,1.2,0.9h29.9c0.5,0,1-0.3,1.2-0.9l0.8-1.9H75.3z"/>
			</g>
			<g>
				<path class="st9" d="M31.1,349.8l0.8-1.9c0.2-0.5,0.7-0.9,1.2-0.9H63c0.5,0,1,0.3,1.2,0.9l0.8,1.9H31.1z"/>
				<path class="st10" d="M62.4,358.4H33.6c-2.2,0-4-1.8-4-4v-2.2c0-2.2,1.8-4,4-4h28.9c2.2,0,4,1.8,4,4v2.2
					C66.4,356.6,64.6,358.4,62.4,358.4z"/>
				<path class="st10" d="M62.4,370.8H33.6c-2.2,0-4-1.8-4-4v-2.2c0-2.2,1.8-4,4-4h28.9c2.2,0,4,1.8,4,4v2.2
					C66.4,369,64.6,370.8,62.4,370.8z"/>
				<path class="st10" d="M62.4,383.2H33.6c-2.2,0-4-1.8-4-4V377c0-2.2,1.8-4,4-4h28.9c2.2,0,4,1.8,4,4v2.2
					C66.4,381.4,64.6,383.2,62.4,383.2z"/>
				<rect x="31.1" y="358" class="st9" width="33.9" height="2.7"/>
				<rect x="31.1" y="370.6" class="st9" width="33.9" height="2.7"/>
				<path class="st9" d="M31.1,382.8l0.8,1.9c0.2,0.5,0.7,0.9,1.2,0.9H63c0.5,0,1-0.3,1.2-0.9l0.8-1.9H31.1z"/>
			</g>
			<rect x="34.6" y="396.7" class="st11" width="163.3" height="28.7"/>
			<g>
				<path class="st2" d="M65.4,403.8h2.4l3.7,9.5l3.7-9.5h2.3l-5.1,12.5h-1.9L65.4,403.8z"/>
				<path class="st2" d="M79.1,403.4h2.3v2h-2.3V403.4z M79.1,406.8h2.1v9.4h-2.1V406.8z"/>
				<path class="st2" d="M84.1,406.8h2.1v2.1c0.6-1.4,1.7-2.4,3.3-2.3v2.3h-0.1c-1.9,0-3.2,1.2-3.2,3.7v3.6h-2.1V406.8z"/>
				<path class="st2" d="M91.8,413.6v-4.9h-1.2v-1.8h1.2v-2.6h2.1v2.6h2.5v1.8h-2.5v4.6c0,0.8,0.4,1.2,1.1,1.2
					c0.5,0,0.9-0.1,1.3-0.3v1.8c-0.5,0.3-1.1,0.5-1.9,0.5C92.9,416.4,91.8,415.7,91.8,413.6z"/>
				<path class="st2" d="M98.5,412.8v-6h2.1v5.3c0,1.5,0.7,2.3,2,2.3c1.2,0,2.1-0.9,2.1-2.3v-5.3h2.1v9.4h-2.1v-1.5
					c-0.6,0.9-1.5,1.7-2.9,1.7C99.7,416.4,98.5,415,98.5,412.8z"/>
				<path class="st2" d="M108.9,413.5L108.9,413.5c0-2.1,1.6-3.1,3.8-3.1c1,0,1.8,0.2,2.5,0.4v-0.2c0-1.3-0.8-2-2.3-2
					c-1,0-1.8,0.2-2.7,0.6l-0.6-1.7c1-0.5,2-0.8,3.5-0.8c1.4,0,2.4,0.4,3.1,1c0.7,0.7,1,1.7,1,2.9v5.6h-2.1V415
					c-0.6,0.8-1.6,1.4-3,1.4C110.4,416.4,108.9,415.4,108.9,413.5z M115.3,412.8v-0.6c-0.5-0.2-1.3-0.4-2.1-0.4
					c-1.4,0-2.2,0.6-2.2,1.6v0c0,0.9,0.8,1.4,1.8,1.4C114.2,414.8,115.3,414,115.3,412.8z"/>
				<path class="st2" d="M120,403.2h2.1v13H120V403.2z"/>
				<path class="st2" d="M129.6,414.4l1.3-1.6c1.2,1,2.4,1.6,3.9,1.6c1.3,0,2.2-0.6,2.2-1.6v0c0-0.9-0.5-1.4-2.8-1.9
					c-2.6-0.6-4.1-1.4-4.1-3.7v0c0-2.1,1.8-3.6,4.2-3.6c1.8,0,3.2,0.6,4.5,1.6l-1.2,1.7c-1.1-0.8-2.2-1.3-3.3-1.3
					c-1.3,0-2,0.7-2,1.5v0c0,1,0.6,1.4,2.9,2c2.6,0.6,3.9,1.6,3.9,3.6v0c0,2.3-1.8,3.7-4.4,3.7C132.8,416.4,131,415.7,129.6,414.4z"
					/>
				<path class="st2" d="M145.8,403.7h2l5.4,12.5h-2.3l-1.3-3h-5.8l-1.3,3h-2.2L145.8,403.7z M148.9,411.3l-2.1-5l-2.1,5H148.9z"/>
				<path class="st2" d="M155.3,403.8h2l6.6,8.6v-8.6h2.1v12.4h-1.8l-6.8-8.8v8.8h-2.1V403.8z"/>
			</g>
		</g>
	</g>
</g>
</svg>
