<!-- Generator: Adobe Illustrator 19.1.0, SVG Export Plug-In  -->
<svg version="1.1"
	 xmlns="http://www.w3.org/2000/svg" xmlns:xlink="http://www.w3.org/1999/xlink" xmlns:a="http://ns.adobe.com/AdobeSVGViewerExtensions/3.0/"
	 x="0px" y="0px" width="43.5px" height="43.7px" viewBox="0 0 43.5 43.7"
	 style="overflow:scroll;enable-background:new 0 0 43.5 43.7;" xml:space="preserve">
<style type="text/css">
	.st0{fill:#FFFFFF;}
</style>
<defs>
</defs>
<g>
	<path class="st0" d="M16.3,43.3c-2-1.9-4.1-3.9-6.3-6c-1.9,2.1-3.8,4.3-5.8,6.4C2.6,42.1,1.4,41,0,39.6c2.2-2,4.3-3.9,6.4-5.9
		c-2.2-2.3-4.2-4.4-6.1-6.5c5.3,0,10.7,0,16,0C16.3,32.6,16.3,38,16.3,43.3z"/>
	<path class="st0" d="M16.2,16C11,16,5.8,16,0.6,16c-0.1-0.1-0.2-0.3-0.2-0.4c2-1.8,4.1-3.6,6.4-5.7C4.2,7.6,2.1,5.7,0,3.7
		c1.5-1.3,2.7-2.4,4-3.6C5.7,2,7.7,4,9.7,6.2C12,3.9,14.1,2,16.2,0C16.2,5.3,16.2,10.7,16.2,16z"/>
	<path class="st0" d="M43.2,27.5c-1.9,2-3.9,4.1-5.9,6.2c2.1,2,4.1,3.9,6.2,5.8c-1.5,1.5-2.7,2.7-4,4.1c-1.8-2-3.7-4.1-5.7-6.3
		c-2.1,2.3-4,4.3-5.8,6.2c-0.2-0.1-0.4-0.2-0.7-0.3c0-5.2,0-10.5,0-15.7C32.5,27.5,37.9,27.5,43.2,27.5z"/>
	<path class="st0" d="M43.5,4.4c-2,1.8-4.1,3.6-6.6,5.9c2.3,2,4.4,3.8,6.4,5.6c-0.1,0.1-0.2,0.3-0.3,0.4c-5.1,0-10.3,0-15.5,0
		c0-5.2,0-10.3,0-15.7c1.9,2.1,3.7,4.1,5.7,6.2c2.3-2.5,4.2-4.6,6.2-6.7C40.9,1.6,42.1,2.9,43.5,4.4z"/>
</g>
</svg>
