<!-- Generator: Adobe Illustrator 19.2.0, SVG Export Plug-In  -->
<svg version="1.1"
	 xmlns="http://www.w3.org/2000/svg" xmlns:xlink="http://www.w3.org/1999/xlink" xmlns:a="http://ns.adobe.com/AdobeSVGViewerExtensions/3.0/"
	 x="0px" y="0px" width="1529.5px" height="25.4px" viewBox="0 0 1529.5 25.4" style="enable-background:new 0 0 1529.5 25.4;"
	 xml:space="preserve">
<style type="text/css">
	.st0{fill:none;stroke:#A7A9AC;stroke-miterlimit:10;}
	.st1{fill:#808285;}
</style>
<defs>
</defs>
<line class="st0" x1="0" y1="0.5" x2="1529.5" y2="0.5"/>
<g>
	<path class="st1" d="M0.9,18.7L0.9,18.7c0-2.6,1.9-4.7,4.5-4.7c1.6,0,2.6,0.6,3.5,1.5l-0.5,0.5c-0.8-0.8-1.7-1.3-3.1-1.3
		c-2.2,0-3.8,1.8-3.8,4.1v0c0,2.3,1.7,4.1,3.8,4.1c1.3,0,2.2-0.5,3.1-1.4l0.5,0.4c-1,0.9-2,1.6-3.6,1.6C2.9,23.4,0.9,21.3,0.9,18.7z
		"/>
	<path class="st1" d="M10.2,20L10.2,20c0-1.9,1.4-3.5,3.4-3.5c2,0,3.4,1.6,3.4,3.4v0c0,1.9-1.4,3.5-3.4,3.5
		C11.6,23.4,10.2,21.8,10.2,20z M16.3,20L16.3,20c0-1.6-1.2-2.9-2.7-2.9c-1.6,0-2.7,1.3-2.7,2.8v0c0,1.6,1.2,2.9,2.7,2.9
		C15.2,22.8,16.3,21.5,16.3,20z"/>
	<path class="st1" d="M19,16.6h0.6v1.5c0.6-0.9,1.4-1.6,2.7-1.6c1.6,0,3.2,1.3,3.2,3.4v0c0,2.2-1.6,3.5-3.2,3.5
		c-1.3,0-2.2-0.8-2.7-1.6v3.5H19V16.6z M24.9,20L24.9,20c0-1.8-1.2-2.9-2.6-2.9c-1.4,0-2.7,1.2-2.7,2.8v0c0,1.7,1.3,2.8,2.7,2.8
		C23.7,22.8,24.9,21.7,24.9,20z"/>
	<path class="st1" d="M32.4,16.6h0.7l-2.9,6.9c-0.6,1.4-1.3,1.9-2.2,1.9c-0.5,0-0.9-0.1-1.3-0.3l0.2-0.6c0.4,0.2,0.6,0.2,1.1,0.2
		c0.7,0,1.1-0.4,1.6-1.6l-3.2-6.6h0.7l2.8,5.9L32.4,16.6z"/>
	<path class="st1" d="M34.9,16.6h0.6v1.9c0.5-1.2,1.6-2,2.9-2v0.7h-0.1c-1.5,0-2.9,1.2-2.9,3.3v2.7h-0.6V16.6z"/>
	<path class="st1" d="M40.1,14h0.8v0.9h-0.8V14z M40.2,16.6h0.6v6.6h-0.6V16.6z"/>
	<path class="st1" d="M43.2,24.3l0.4-0.5c0.8,0.6,1.7,0.9,2.7,0.9c1.5,0,2.6-0.9,2.6-2.6v-1c-0.6,0.8-1.5,1.5-2.8,1.5
		c-1.6,0-3.2-1.2-3.2-3.1v0c0-1.9,1.6-3.1,3.2-3.1c1.3,0,2.2,0.7,2.8,1.5v-1.3h0.6v5.6c0,1-0.3,1.7-0.8,2.2
		c-0.6,0.6-1.4,0.9-2.4,0.9C45.1,25.3,44.1,25,43.2,24.3z M48.9,19.6L48.9,19.6c0-1.6-1.4-2.5-2.7-2.5c-1.4,0-2.6,1-2.6,2.5v0
		c0,1.5,1.2,2.5,2.6,2.5C47.5,22.1,48.9,21.1,48.9,19.6z"/>
	<path class="st1" d="M51.9,13.8h0.6v4.1c0.4-0.8,1.2-1.4,2.4-1.4c1.7,0,2.7,1.1,2.7,2.7v4.1H57v-3.9c0-1.4-0.8-2.3-2.1-2.3
		c-1.3,0-2.3,1-2.3,2.4v3.8h-0.6V13.8z"/>
	<path class="st1" d="M60.2,21.5v-4.3h-1v-0.6h1v-2.1h0.6v2.1h2.3v0.6h-2.3v4.3c0,0.9,0.6,1.3,1.3,1.3c0.3,0,0.6-0.1,1-0.2v0.6
		c-0.3,0.2-0.7,0.2-1.1,0.2C61.1,23.4,60.2,22.8,60.2,21.5z"/>
	<path class="st1" d="M68.5,18.7L68.5,18.7c0-2.6,2.1-4.7,4.7-4.7s4.7,2.1,4.7,4.7v0c0,2.6-2.1,4.7-4.7,4.7S68.5,21.3,68.5,18.7z
		 M77.5,18.7L77.5,18.7c0-2.4-1.8-4.3-4.3-4.3c-2.5,0-4.3,2-4.3,4.3v0c0,2.4,1.8,4.3,4.3,4.3C75.6,23,77.5,21.1,77.5,18.7z
		 M70.8,18.6L70.8,18.6c0-1.4,1-2.5,2.4-2.5c0.8,0,1.4,0.3,1.8,0.8l-0.4,0.4c-0.4-0.4-0.8-0.7-1.5-0.7c-1,0-1.8,0.9-1.8,1.9v0
		c0,1.1,0.8,1.9,1.8,1.9c0.6,0,1-0.2,1.5-0.7l0.4,0.4c-0.5,0.5-1,0.8-1.9,0.8C71.9,21.1,70.8,20,70.8,18.6z"/>
	<path class="st1" d="M83.1,22.7l3.4-3.1c1.5-1.4,2-2.1,2-3.1c0-1.2-1-1.9-2.1-1.9c-1.2,0-1.9,0.6-2.7,1.7L83.3,16
		c0.8-1.2,1.6-2,3.2-2c1.5,0,2.7,1.1,2.7,2.5v0c0,1.2-0.7,2.1-2.3,3.5l-2.8,2.5h5.1v0.7h-6.2V22.7z"/>
	<path class="st1" d="M91,18.7L91,18.7c0-2.5,1.5-4.7,3.8-4.7c2.3,0,3.8,2.2,3.8,4.7v0c0,2.5-1.5,4.7-3.8,4.7S91,21.2,91,18.7z
		 M97.8,18.7L97.8,18.7c0-2.1-1.2-4.1-3.1-4.1c-1.9,0-3.1,2-3.1,4.1v0c0,2.1,1.2,4.1,3.1,4.1C96.6,22.8,97.8,20.8,97.8,18.7z"/>
	<path class="st1" d="M101.6,14.8l-1.8,0.6l-0.2-0.5l2.1-0.8h0.5v9.2h-0.7V14.8z"/>
	<path class="st1" d="M104.4,21.9l0.5-0.5c0.8,0.8,1.8,1.3,2.7,1.3c1.4,0,2.4-1,2.4-2.3v0c0-1.3-1-2.2-2.5-2.2
		c-0.8,0-1.5,0.3-2.1,0.6l-0.5-0.3l0.3-4.4h5.1v0.7h-4.5l-0.2,3.4c0.6-0.3,1.2-0.5,2-0.5c1.8,0,3.1,1.1,3.1,2.7v0
		c0,1.7-1.3,2.9-3.2,2.9C106.3,23.4,105.2,22.7,104.4,21.9z"/>
	<path class="st1" d="M116,14.1h0.8l3.6,8.4l3.6-8.4h0.7l-4,9.2H120L116,14.1z"/>
	<path class="st1" d="M126.5,14.1h0.6l3.7,5.4l3.7-5.4h0.6v9.1h-0.7v-7.9l-3.6,5.2h-0.1l-3.6-5.2v7.9h-0.6V14.1z"/>
	<path class="st1" d="M137.1,16.6h0.7l2,5.8l2-5.9h0.5l2,5.9l2-5.8h0.7l-2.4,6.7H144l-2-5.7l-2,5.7h-0.5L137.1,16.6z"/>
	<path class="st1" d="M148,21.3L148,21.3c0-1.4,1.2-2.2,2.9-2.2c0.9,0,1.6,0.1,2.2,0.3v-0.3c0-1.3-0.8-2-2.2-2
		c-0.8,0-1.5,0.2-2.1,0.5l-0.2-0.6c0.7-0.3,1.4-0.6,2.4-0.6c0.9,0,1.6,0.2,2.1,0.7c0.4,0.4,0.7,1.1,0.7,1.9v4.1h-0.6v-1.1
		c-0.5,0.6-1.3,1.3-2.5,1.3C149.4,23.4,148,22.7,148,21.3z M153.2,20.8V20c-0.6-0.1-1.3-0.3-2.2-0.3c-1.4,0-2.2,0.6-2.2,1.5v0
		c0,1,0.9,1.5,1.9,1.5C152,22.8,153.2,22,153.2,20.8z"/>
	<path class="st1" d="M156.1,16.6h0.6v1.9c0.5-1.2,1.6-2,2.9-2v0.7h-0.1c-1.5,0-2.9,1.2-2.9,3.3v2.7h-0.6V16.6z"/>
	<path class="st1" d="M160.5,19.9L160.5,19.9c0-2,1.4-3.5,3.1-3.5c1.9,0,3,1.5,3,3.5c0,0.1,0,0.2,0,0.3h-5.5
		c0.1,1.7,1.3,2.6,2.6,2.6c1,0,1.7-0.5,2.3-1l0.4,0.4c-0.7,0.7-1.5,1.2-2.7,1.2C162,23.4,160.5,22,160.5,19.9z M166,19.6
		c-0.1-1.3-0.9-2.6-2.4-2.6c-1.3,0-2.3,1.1-2.4,2.6H166z"/>
	<path class="st1" d="M167.9,24.3c0.6-0.3,0.8-0.6,0.7-1.1h-0.4v-1.1h0.9v1c0,0.8-0.3,1.2-1.1,1.5L167.9,24.3z"/>
	<path class="st1" d="M175.5,14.1h0.7v9.1h-0.7V14.1z"/>
	<path class="st1" d="M178.8,16.6h0.6v1.2c0.4-0.8,1.2-1.4,2.4-1.4c1.7,0,2.7,1.1,2.7,2.7v4.1h-0.6v-3.9c0-1.4-0.8-2.3-2.1-2.3
		c-1.3,0-2.3,1-2.3,2.4v3.8h-0.6V16.6z"/>
	<path class="st1" d="M186.4,20L186.4,20c0-1.9,1.5-3.5,3.4-3.5c1.2,0,2,0.6,2.7,1.2l-0.5,0.5c-0.6-0.6-1.2-1.1-2.2-1.1
		c-1.5,0-2.7,1.3-2.7,2.8v0c0,1.6,1.2,2.9,2.7,2.9c0.9,0,1.7-0.5,2.2-1.1l0.4,0.4c-0.7,0.8-1.5,1.3-2.7,1.3
		C187.8,23.4,186.4,21.8,186.4,20z"/>
	<path class="st1" d="M194.1,22.1h0.9v1.1h-0.9V22.1z"/>
	<path class="st1" d="M204.7,14.1h0.7l4.2,9.2h-0.7l-1.2-2.5h-5.4l-1.2,2.5h-0.7L204.7,14.1z M207.4,20.1l-2.4-5.3l-2.4,5.3H207.4z"
		/>
	<path class="st1" d="M211.5,13.8h0.6v9.5h-0.6V13.8z"/>
	<path class="st1" d="M214.7,13.8h0.6v9.5h-0.6V13.8z"/>
	<path class="st1" d="M221.8,16.6h0.6v1.9c0.5-1.2,1.6-2,2.9-2v0.7h-0.1c-1.5,0-2.9,1.2-2.9,3.3v2.7h-0.6V16.6z"/>
	<path class="st1" d="M227,14h0.8v0.9H227V14z M227.1,16.6h0.6v6.6h-0.6V16.6z"/>
	<path class="st1" d="M230.1,24.3l0.4-0.5c0.8,0.6,1.7,0.9,2.7,0.9c1.5,0,2.6-0.9,2.6-2.6v-1c-0.6,0.8-1.5,1.5-2.8,1.5
		c-1.6,0-3.2-1.2-3.2-3.1v0c0-1.9,1.6-3.1,3.2-3.1c1.3,0,2.2,0.7,2.8,1.5v-1.3h0.6v5.6c0,1-0.3,1.7-0.8,2.2
		c-0.6,0.6-1.4,0.9-2.4,0.9C232,25.3,231,25,230.1,24.3z M235.8,19.6L235.8,19.6c0-1.6-1.4-2.5-2.7-2.5c-1.4,0-2.6,1-2.6,2.5v0
		c0,1.5,1.2,2.5,2.6,2.5C234.4,22.1,235.8,21.1,235.8,19.6z"/>
	<path class="st1" d="M238.8,13.8h0.6v4.1c0.4-0.8,1.2-1.4,2.4-1.4c1.7,0,2.7,1.1,2.7,2.7v4.1h-0.6v-3.9c0-1.4-0.8-2.3-2.1-2.3
		c-1.3,0-2.3,1-2.3,2.4v3.8h-0.6V13.8z"/>
	<path class="st1" d="M247.1,21.5v-4.3h-1v-0.6h1v-2.1h0.6v2.1h2.3v0.6h-2.3v4.3c0,0.9,0.6,1.3,1.3,1.3c0.3,0,0.6-0.1,1-0.2v0.6
		c-0.3,0.2-0.7,0.2-1.1,0.2C247.9,23.4,247.1,22.8,247.1,21.5z"/>
	<path class="st1" d="M251.4,22.4l0.4-0.5c0.7,0.6,1.5,0.9,2.4,0.9c0.9,0,1.6-0.5,1.6-1.3v0c0-0.8-0.8-1.1-1.8-1.3
		c-1.1-0.3-2.3-0.6-2.3-1.8v0c0-1.1,0.9-1.8,2.2-1.8c0.8,0,1.7,0.3,2.4,0.7l-0.3,0.5c-0.6-0.4-1.3-0.7-2-0.7c-0.9,0-1.5,0.5-1.5,1.2
		v0c0,0.7,0.9,1,1.8,1.3c1.1,0.3,2.2,0.7,2.2,1.9v0c0,1.2-1,1.9-2.3,1.9C253.1,23.4,252.1,23,251.4,22.4z"/>
	<path class="st1" d="M262.3,16.6h0.6v1.9c0.5-1.2,1.6-2,2.9-2v0.7h-0.1c-1.5,0-2.9,1.2-2.9,3.3v2.7h-0.6V16.6z"/>
	<path class="st1" d="M266.7,19.9L266.7,19.9c0-2,1.4-3.5,3.1-3.5c1.9,0,3,1.5,3,3.5c0,0.1,0,0.2,0,0.3h-5.5
		c0.1,1.7,1.3,2.6,2.6,2.6c1,0,1.7-0.5,2.3-1l0.4,0.4c-0.7,0.7-1.5,1.2-2.7,1.2C268.2,23.4,266.7,22,266.7,19.9z M272.2,19.6
		c-0.1-1.3-0.9-2.6-2.4-2.6c-1.3,0-2.3,1.1-2.4,2.6H272.2z"/>
	<path class="st1" d="M274.2,22.4l0.4-0.5c0.7,0.6,1.5,0.9,2.4,0.9c0.9,0,1.6-0.5,1.6-1.3v0c0-0.8-0.8-1.1-1.8-1.3
		c-1.1-0.3-2.3-0.6-2.3-1.8v0c0-1.1,0.9-1.8,2.2-1.8c0.8,0,1.7,0.3,2.4,0.7l-0.3,0.5c-0.6-0.4-1.3-0.7-2-0.7c-0.9,0-1.5,0.5-1.5,1.2
		v0c0,0.7,0.9,1,1.8,1.3c1.1,0.3,2.2,0.7,2.2,1.9v0c0,1.2-1,1.9-2.3,1.9C276,23.4,274.9,23,274.2,22.4z"/>
	<path class="st1" d="M280.8,19.9L280.8,19.9c0-2,1.4-3.5,3.1-3.5c1.9,0,3,1.5,3,3.5c0,0.1,0,0.2,0,0.3h-5.5
		c0.1,1.7,1.3,2.6,2.6,2.6c1,0,1.7-0.5,2.3-1l0.4,0.4c-0.7,0.7-1.5,1.2-2.7,1.2C282.3,23.4,280.8,22,280.8,19.9z M286.3,19.6
		c-0.1-1.3-0.9-2.6-2.4-2.6c-1.3,0-2.3,1.1-2.4,2.6H286.3z"/>
	<path class="st1" d="M288.8,16.6h0.6v1.9c0.5-1.2,1.6-2,2.9-2v0.7h-0.1c-1.5,0-2.9,1.2-2.9,3.3v2.7h-0.6V16.6z"/>
	<path class="st1" d="M293.4,16.6h0.7l2.5,5.9l2.5-5.9h0.7l-3,6.7h-0.5L293.4,16.6z"/>
	<path class="st1" d="M300.8,19.9L300.8,19.9c0-2,1.4-3.5,3.1-3.5c1.9,0,3,1.5,3,3.5c0,0.1,0,0.2,0,0.3h-5.5
		c0.1,1.7,1.3,2.6,2.6,2.6c1,0,1.7-0.5,2.3-1l0.4,0.4c-0.7,0.7-1.5,1.2-2.7,1.2C302.3,23.4,300.8,22,300.8,19.9z M306.3,19.6
		c-0.1-1.3-0.9-2.6-2.4-2.6c-1.3,0-2.3,1.1-2.4,2.6H306.3z"/>
	<path class="st1" d="M308.4,20L308.4,20c0-2.2,1.6-3.5,3.2-3.5c1.3,0,2.2,0.8,2.7,1.6v-4.3h0.6v9.5h-0.6v-1.5
		c-0.6,0.9-1.4,1.6-2.7,1.6C310,23.4,308.4,22.1,308.4,20z M314.4,19.9L314.4,19.9c0-1.7-1.3-2.9-2.7-2.9c-1.4,0-2.6,1.1-2.6,2.8v0
		c0,1.7,1.2,2.9,2.6,2.9C313,22.8,314.4,21.6,314.4,19.9z"/>
	<path class="st1" d="M317.2,22.1h0.9v1.1h-0.9V22.1z"/>
</g>
</svg>
