<!-- Generator: Adobe Illustrator 19.2.0, SVG Export Plug-In  -->
<svg version="1.1"
	 xmlns="http://www.w3.org/2000/svg" xmlns:xlink="http://www.w3.org/1999/xlink" xmlns:a="http://ns.adobe.com/AdobeSVGViewerExtensions/3.0/"
	 x="0px" y="0px" width="68.9px" height="37.3px" viewBox="0 0 68.9 37.3" style="enable-background:new 0 0 68.9 37.3;"
	 xml:space="preserve">
<style type="text/css">
	.st0{fill:#BCBEC0;}
	.st1{fill:#231F20;}
</style>
<defs>
</defs>
<g>
	<rect y="10" class="st0" width="68.9" height="27.2"/>
	<polygon class="st0" points="27.2,10 34.4,0 41.7,10 	"/>
	<g>
		<path class="st1" d="M16.4,16.3h1.5v12.1h7.5v1.4h-9V16.3z"/>
		<path class="st1" d="M27.1,24.9L27.1,24.9c0-2.9,2-5.2,4.7-5.2c2.9,0,4.6,2.3,4.6,5.2c0,0.2,0,0.3,0,0.5h-7.8
			c0.2,2.2,1.7,3.4,3.5,3.4c1.4,0,2.3-0.6,3.1-1.4l0.9,0.8c-1,1.1-2.2,1.9-4.1,1.9C29.4,30,27.1,27.9,27.1,24.9z M35,24.3
			c-0.2-1.8-1.2-3.4-3.1-3.4c-1.7,0-3,1.4-3.2,3.4H35z"/>
		<path class="st1" d="M38.3,26.9L38.3,26.9c0-2.1,1.7-3.2,4.2-3.2c1.3,0,2.2,0.2,3,0.4v-0.3c0-1.8-1.1-2.7-2.9-2.7
			c-1.2,0-2.1,0.3-3,0.7l-0.4-1.2c1.1-0.5,2.2-0.8,3.6-0.8c1.4,0,2.5,0.4,3.2,1.1c0.7,0.7,1,1.6,1,2.9v6.1h-1.4v-1.5
			C44.9,29.2,43.7,30,42,30C40.2,30,38.3,29,38.3,26.9z M45.6,26.1v-1c-0.7-0.2-1.7-0.4-2.9-0.4c-1.9,0-2.9,0.8-2.9,2.1v0
			c0,1.2,1.1,2,2.5,2C44.1,28.8,45.6,27.7,45.6,26.1z"/>
		<path class="st1" d="M50.6,21.2h-1.4v-1.3h1.4V19c0-1.1,0.3-2,0.9-2.6c0.5-0.5,1.2-0.8,2.1-0.8c0.7,0,1.1,0.1,1.6,0.3v1.3
			c-0.5-0.2-0.9-0.3-1.4-0.3c-1.1,0-1.7,0.7-1.7,2.1v0.8h3.1v1.3h-3.1v8.6h-1.5V21.2z"/>
	</g>
</g>
</svg>
