<!-- Generator: Adobe Illustrator 19.2.0, SVG Export Plug-In  -->
<svg version="1.1"
	 xmlns="http://www.w3.org/2000/svg" xmlns:xlink="http://www.w3.org/1999/xlink" xmlns:a="http://ns.adobe.com/AdobeSVGViewerExtensions/3.0/"
	 x="0px" y="0px" width="396.4px" height="217.2px" viewBox="0 0 396.4 217.2" style="enable-background:new 0 0 396.4 217.2;"
	 xml:space="preserve">
<style type="text/css">
	.st0{fill:#A7A9AC;}
</style>
<defs>
</defs>
<rect x="221.4" y="-23.1" transform="matrix(0.8202 -0.5721 0.5721 0.8202 -22.2725 146.51)" class="st0" width="1" height="263.6"/>
<rect x="191.6" y="-9.6" transform="matrix(0.9046 -0.4263 0.4263 0.9046 -23.1225 91.167)" class="st0" width="1" height="213.7"/>
<rect x="-13.5" y="108.3" transform="matrix(0.3739 -0.9275 0.9275 0.3739 -36.4543 163.6178)" class="st0" width="232.8" height="1"/>
<rect x="-47.9" y="96.6" transform="matrix(0.6016 -0.7988 0.7988 0.6016 -48.3396 97.2478)" class="st0" width="242.3" height="1"/>
<rect x="228.5" y="109" transform="matrix(0.4181 -0.9084 0.9084 0.4181 102.2862 378.5944)" class="st0" width="236.2" height="1"/>
<rect x="192.2" y="97.2" transform="matrix(0.6344 -0.773 0.773 0.6344 40.1815 280.4214)" class="st0" width="248.8" height="1"/>
<rect x="27.9" y="108.7" transform="matrix(0.8421 -0.5393 0.5393 0.8421 -23.0131 139.7608)" class="st0" width="398.7" height="1"/>
<rect x="-21.7" y="97.2" transform="matrix(0.8993 -0.4374 0.4374 0.8993 -22.8092 96.4299)" class="st0" width="439.4" height="1"/>
</svg>
