<!-- Generator: Adobe Illustrator 19.2.0, SVG Export Plug-In  -->
<svg version="1.1"
	 xmlns="http://www.w3.org/2000/svg" xmlns:xlink="http://www.w3.org/1999/xlink" xmlns:a="http://ns.adobe.com/AdobeSVGViewerExtensions/3.0/"
	 x="0px" y="0px" width="898.2px" height="216.1px" viewBox="0 0 898.2 216.1" style="enable-background:new 0 0 898.2 216.1;"
	 xml:space="preserve">
<style type="text/css">
	.st0{fill:#A7A9AC;}
</style>
<defs>
</defs>
<rect x="152.3" y="96.5" transform="matrix(0.1465 -0.9892 0.9892 0.1465 116.6875 329.167)" class="st0" width="193.5" height="1"/>
<rect x="279.1" y="0" transform="matrix(0.9886 -0.1505 0.1505 0.9886 -13.13 43.3013)" class="st0" width="1" height="216.8"/>
<rect x="117.1" y="-55.2" transform="matrix(0.633 -0.7741 0.7741 0.633 -31.4117 126.3865)" class="st0" width="1" height="303"/>
<rect x="148.1" y="-73.7" transform="matrix(0.5883 -0.8086 0.8086 0.5883 -26.4963 164.7954)" class="st0" width="1" height="364.3"/>
<rect x="265.8" y="107.5" transform="matrix(0.8545 -0.5195 0.5195 0.8545 12.7261 261.438)" class="st0" width="414.4" height="1"/>
<rect x="213.9" y="96.2" transform="matrix(0.9082 -0.4185 0.4185 0.9082 9.292750e-002 193.8979)" class="st0" width="456.4" height="1"/>
<rect x="277.5" y="108.2" transform="matrix(0.9422 -0.3349 0.3349 0.9422 -1.914 206.2135)" class="st0" width="639" height="1"/>
<rect x="221.6" y="96.9" transform="matrix(0.9613 -0.2755 0.2755 0.9613 -4.9217 159.7379)" class="st0" width="689.1" height="1"/>
</svg>
