<!-- Generator: Adobe Illustrator 19.2.0, SVG Export Plug-In  -->
<svg version="1.1"
	 xmlns="http://www.w3.org/2000/svg" xmlns:xlink="http://www.w3.org/1999/xlink" xmlns:a="http://ns.adobe.com/AdobeSVGViewerExtensions/3.0/"
	 x="0px" y="0px" width="925.5px" height="215.1px" viewBox="0 0 925.5 215.1" style="enable-background:new 0 0 925.5 215.1;"
	 xml:space="preserve">
<style type="text/css">
	.st0{fill:#A7A9AC;}
</style>
<defs>
</defs>
<g>
	<rect x="-28.1" y="95.9" transform="matrix(0.8352 -0.55 0.55 0.8352 -29.1398 95.5553)" class="st0" width="346" height="1"/>
	<rect x="18.3" y="107.5" transform="matrix(0.7316 -0.6818 0.6818 0.7316 -26.6911 148.204)" class="st0" width="313" height="1"/>
</g>
<g>
	
		<rect x="-83.1" y="95.7" transform="matrix(0.1342 -0.9909 0.9909 0.1342 -83.6312 96.5861)" class="st0" width="193.1" height="1"/>
	<rect x="43" y="-0.9" transform="matrix(0.9875 -0.1574 0.1574 0.9875 -16.3955 8.1875)" class="st0" width="1" height="217"/>
</g>
<rect x="43.6" y="106.9" transform="matrix(0.9445 -0.3287 0.3287 0.9445 -14.8027 127.2108)" class="st0" width="650.7" height="1"/>
<rect x="-12.7" y="95.5" transform="matrix(0.9621 -0.2725 0.2725 0.9621 -13.3447 95.8447)" class="st0" width="702.1" height="1"/>
<rect x="47.7" y="107.7" transform="matrix(0.9709 -0.2393 0.2393 0.9709 -11.5707 121.1248)" class="st0" width="890.7" height="1"/>
<rect x="-9.1" y="96.1" transform="matrix(0.9796 -0.2012 0.2012 0.9796 -9.9706 95.1208)" class="st0" width="944.1" height="1"/>
</svg>
