<!-- Generator: Adobe Illustrator 19.2.0, SVG Export Plug-In  -->
<svg version="1.1"
	 xmlns="http://www.w3.org/2000/svg" xmlns:xlink="http://www.w3.org/1999/xlink" xmlns:a="http://ns.adobe.com/AdobeSVGViewerExtensions/3.0/"
	 x="0px" y="0px" width="223.1px" height="493.5px" viewBox="0 0 223.1 493.5" style="enable-background:new 0 0 223.1 493.5;"
	 xml:space="preserve">
<style type="text/css">
	.st0{fill:#0094D2;}
	.st1{fill:#F1F1F2;stroke:#0094D2;stroke-width:2;stroke-miterlimit:10;}
	.st2{fill:#FFFFFF;}
	.st3{fill:#476277;}
	.st4{fill:#35495E;}
	.st5{fill:#BCC1C6;}
	.st6{fill:#2C3E50;}
	.st7{fill:#93A3A4;}
	.st8{fill:#3B96D2;}
	.st9{fill:#457093;}
	.st10{opacity:0.9;fill:#47B2D7;}
	.st11{fill:#006990;}
</style>
<defs>
</defs>
<polygon class="st0" points="8,0.4 0,10.9 0,435.2 8,443.2 "/>
<rect x="8.7" y="1" class="st1" width="213.3" height="441.4"/>
<g>
	<rect x="9.3" y="461" class="st0" width="213.3" height="32.5"/>
	<g>
		<path class="st2" d="M29.7,471.9H32l3.8,5.9l3.8-5.9h2.3v12.4h-2.2v-8.9l-3.9,5.9h-0.1l-3.9-5.8v8.9h-2.1V471.9z"/>
		<path class="st2" d="M49.5,471.8h2l5.5,12.5h-2.3l-1.3-3h-5.9l-1.3,3H44L49.5,471.8z M52.6,479.4l-2.1-5l-2.1,5H52.6z"/>
		<path class="st2" d="M59.1,471.9h2l6.7,8.6v-8.6h2.1v12.4h-1.8l-6.8-8.8v8.8h-2.1V471.9z"/>
		<path class="st2" d="M77.5,471.8h2l5.5,12.5h-2.3l-1.3-3h-5.9l-1.3,3h-2.2L77.5,471.8z M80.7,479.4l-2.1-5l-2.1,5H80.7z"/>
		<path class="st2" d="M85.8,478.2L85.8,478.2c0-3.5,2.7-6.5,6.4-6.5c2.2,0,3.5,0.6,4.8,1.7l-1.4,1.7c-1-0.8-1.9-1.3-3.5-1.3
			c-2.3,0-4,2-4,4.4v0c0,2.6,1.7,4.4,4.2,4.4c1.2,0,2.2-0.4,3-0.9v-2.3h-3.2v-1.9h5.3v5.2c-1.2,1-3,1.9-5.2,1.9
			C88.4,484.5,85.8,481.8,85.8,478.2z"/>
		<path class="st2" d="M100.3,471.9h9.2v2h-7v3.2h6.2v2h-6.2v3.3h7.1v2h-9.3V471.9z"/>
		<path class="st2" d="M112.2,471.9h2.3l3.8,5.9l3.8-5.9h2.3v12.4h-2.2v-8.9l-3.9,5.9h-0.1l-3.9-5.8v8.9h-2.1V471.9z"/>
		<path class="st2" d="M127.6,471.9h9.2v2h-7v3.2h6.2v2h-6.2v3.3h7.1v2h-9.3V471.9z"/>
		<path class="st2" d="M139.5,471.9h2l6.7,8.6v-8.6h2.1v12.4h-1.8l-6.8-8.8v8.8h-2.1V471.9z"/>
		<path class="st2" d="M156.6,473.9h-3.9v-2h10.1v2h-3.9v10.4h-2.2V473.9z"/>
		<path class="st2" d="M170.4,471.9h4.9c2.9,0,4.7,1.7,4.7,4.2v0c0,2.8-2.2,4.2-5,4.2h-2.5v4h-2.2V471.9z M175.1,478.4
			c1.7,0,2.7-0.9,2.7-2.2v0c0-1.5-1-2.2-2.7-2.2h-2.5v4.5H175.1z"/>
		<path class="st2" d="M181.7,478.2L181.7,478.2c0-3.5,2.7-6.5,6.5-6.5c3.8,0,6.5,2.9,6.5,6.4v0c0,3.5-2.7,6.4-6.5,6.4
			S181.7,481.7,181.7,478.2z M192.4,478.2L192.4,478.2c0-2.4-1.8-4.5-4.2-4.5s-4.2,2-4.2,4.4v0c0,2.4,1.8,4.4,4.2,4.4
			C190.6,482.5,192.4,480.6,192.4,478.2z"/>
		<path class="st2" d="M197.3,471.9h4.6c3.9,0,6.6,2.7,6.6,6.2v0c0,3.5-2.7,6.2-6.6,6.2h-4.6V471.9z M199.5,473.9v8.4h2.4
			c2.6,0,4.3-1.8,4.3-4.2v0c0-2.4-1.7-4.2-4.3-4.2H199.5z"/>
	</g>
</g>
<g>
	<g>
		<g>
			<g>
				<rect x="32.8" y="185.1" class="st3" width="164.1" height="37.2"/>
			</g>
			<rect x="36.7" y="190.2" class="st4" width="155.7" height="27.1"/>
			<g>
				<g>
					<ellipse class="st5" cx="114.8" cy="203.7" rx="5.2" ry="5.2"/>
					<ellipse class="st6" cx="114.8" cy="203.7" rx="3.8" ry="3.8"/>
				</g>
				<g>
					<rect x="47.7" y="192.7" class="st7" width="53.3" height="10.4"/>
					<rect x="47.7" y="204.5" class="st7" width="53.3" height="10.4"/>
				</g>
				<g>
					<rect x="128.7" y="192.7" class="st7" width="53.3" height="10.4"/>
					<rect x="128.7" y="204.5" class="st7" width="53.3" height="10.4"/>
				</g>
			</g>
			<g>
				<rect x="37.7" y="201.9" class="st5" width="8.7" height="3.5"/>
				<rect x="38.2" y="202.3" class="st6" width="7.6" height="2.7"/>
			</g>
			<ellipse class="st8" cx="187.3" cy="203.7" rx="2" ry="2"/>
		</g>
		<g>
			<g>
				<rect x="32.8" y="222.3" class="st3" width="164.1" height="37.2"/>
			</g>
			<rect x="36.7" y="227.3" class="st4" width="155.7" height="27.1"/>
			<g>
				<g>
					<ellipse class="st5" cx="114.8" cy="240.9" rx="5.2" ry="5.2"/>
					<ellipse class="st6" cx="114.8" cy="240.9" rx="3.8" ry="3.8"/>
				</g>
				<g>
					<rect x="47.7" y="229.8" class="st7" width="53.3" height="10.4"/>
					<rect x="47.7" y="241.6" class="st7" width="53.3" height="10.4"/>
				</g>
				<g>
					<rect x="128.7" y="229.8" class="st7" width="53.3" height="10.4"/>
					<rect x="128.7" y="241.6" class="st7" width="53.3" height="10.4"/>
				</g>
			</g>
			<g>
				<rect x="37.7" y="239.1" class="st5" width="8.7" height="3.5"/>
				<rect x="38.2" y="239.5" class="st6" width="7.6" height="2.7"/>
			</g>
			<ellipse class="st8" cx="187.3" cy="240.9" rx="2" ry="2"/>
		</g>
		<g>
			<g>
				<rect x="32.8" y="259.4" class="st3" width="164.1" height="37.2"/>
			</g>
			<rect x="36.7" y="264.5" class="st4" width="155.7" height="27.1"/>
			<g>
				<g>
					<ellipse class="st5" cx="114.8" cy="278" rx="5.2" ry="5.2"/>
					<ellipse class="st6" cx="114.8" cy="278" rx="3.8" ry="3.8"/>
				</g>
				<g>
					<rect x="47.7" y="267" class="st7" width="53.3" height="10.4"/>
					<rect x="47.7" y="278.8" class="st7" width="53.3" height="10.4"/>
				</g>
				<g>
					<rect x="128.7" y="267" class="st7" width="53.3" height="10.4"/>
					<rect x="128.7" y="278.8" class="st7" width="53.3" height="10.4"/>
				</g>
			</g>
			<g>
				<rect x="37.7" y="276.3" class="st5" width="8.7" height="3.5"/>
				<rect x="38.2" y="276.7" class="st6" width="7.6" height="2.7"/>
			</g>
			<ellipse class="st8" cx="187.3" cy="278" rx="2" ry="2"/>
		</g>
		<g>
			<g>
				<rect x="32.8" y="296.6" class="st3" width="164.1" height="37.2"/>
			</g>
			<rect x="36.7" y="301.6" class="st4" width="155.7" height="27.1"/>
			<g>
				<g>
					<ellipse class="st5" cx="114.8" cy="315.2" rx="5.2" ry="5.2"/>
					<ellipse class="st6" cx="114.8" cy="315.2" rx="3.8" ry="3.8"/>
				</g>
				<g>
					<rect x="47.7" y="304.2" class="st7" width="53.3" height="10.4"/>
					<rect x="47.7" y="315.9" class="st7" width="53.3" height="10.4"/>
				</g>
				<g>
					<rect x="128.7" y="304.2" class="st7" width="53.3" height="10.4"/>
					<rect x="128.7" y="315.9" class="st7" width="53.3" height="10.4"/>
				</g>
			</g>
			<g>
				<rect x="37.7" y="313.4" class="st5" width="8.7" height="3.5"/>
				<rect x="38.2" y="313.8" class="st6" width="7.6" height="2.7"/>
			</g>
			<ellipse class="st8" cx="187.3" cy="315.2" rx="2" ry="2"/>
		</g>
	</g>
	<g>
		<g>
			<path class="st9" d="M120.7,350.1l0.8-1.9c0.2-0.5,0.7-0.9,1.2-0.9h29.9c0.5,0,1,0.3,1.2,0.9l0.8,1.9H120.7z"/>
			<path class="st10" d="M152,358.7h-28.9c-2.2,0-4-1.8-4-4v-2.2c0-2.2,1.8-4,4-4H152c2.2,0,4,1.8,4,4v2.2
				C156,356.9,154.2,358.7,152,358.7z"/>
			<path class="st10" d="M152,371h-28.9c-2.2,0-4-1.8-4-4v-2.2c0-2.2,1.8-4,4-4H152c2.2,0,4,1.8,4,4v2.2
				C156,369.2,154.2,371,152,371z"/>
			<path class="st10" d="M152,383.5h-28.9c-2.2,0-4-1.8-4-4v-2.2c0-2.2,1.8-4,4-4H152c2.2,0,4,1.8,4,4v2.2
				C156,381.7,154.2,383.5,152,383.5z"/>
			<rect x="120.7" y="358.3" class="st9" width="33.9" height="2.7"/>
			<rect x="120.7" y="370.8" class="st9" width="33.9" height="2.7"/>
			<path class="st9" d="M120.7,383l0.8,1.9c0.2,0.5,0.7,0.9,1.2,0.9h29.9c0.5,0,1-0.3,1.2-0.9l0.8-1.9H120.7z"/>
		</g>
		<g>
			<path class="st9" d="M164.9,350.1l0.8-1.9c0.2-0.5,0.7-0.9,1.2-0.9h29.9c0.5,0,1,0.3,1.2,0.9l0.8,1.9H164.9z"/>
			<path class="st10" d="M196.2,358.7h-28.9c-2.2,0-4-1.8-4-4v-2.2c0-2.2,1.8-4,4-4h28.9c2.2,0,4,1.8,4,4v2.2
				C200.2,356.9,198.4,358.7,196.2,358.7z"/>
			<path class="st10" d="M196.2,371h-28.9c-2.2,0-4-1.8-4-4v-2.2c0-2.2,1.8-4,4-4h28.9c2.2,0,4,1.8,4,4v2.2
				C200.2,369.2,198.4,371,196.2,371z"/>
			<path class="st10" d="M196.2,383.5h-28.9c-2.2,0-4-1.8-4-4v-2.2c0-2.2,1.8-4,4-4h28.9c2.2,0,4,1.8,4,4v2.2
				C200.2,381.7,198.4,383.5,196.2,383.5z"/>
			<rect x="164.9" y="358.3" class="st9" width="33.9" height="2.7"/>
			<rect x="164.9" y="370.8" class="st9" width="33.9" height="2.7"/>
			<path class="st9" d="M164.9,383l0.8,1.9c0.2,0.5,0.7,0.9,1.2,0.9h29.9c0.5,0,1-0.3,1.2-0.9l0.8-1.9H164.9z"/>
		</g>
		<g>
			<path class="st9" d="M76.5,349.7l0.8-1.9c0.2-0.5,0.7-0.9,1.2-0.9h29.9c0.5,0,1,0.3,1.2,0.9l0.8,1.9H76.5z"/>
			<path class="st10" d="M107.8,358.4H79c-2.2,0-4-1.8-4-4v-2.2c0-2.2,1.8-4,4-4h28.9c2.2,0,4,1.8,4,4v2.2
				C111.8,356.6,110,358.4,107.8,358.4z"/>
			<path class="st10" d="M107.8,370.7H79c-2.2,0-4-1.8-4-4v-2.2c0-2.2,1.8-4,4-4h28.9c2.2,0,4,1.8,4,4v2.2
				C111.8,368.9,110,370.7,107.8,370.7z"/>
			<path class="st10" d="M107.8,383.1H79c-2.2,0-4-1.8-4-4v-2.2c0-2.2,1.8-4,4-4h28.9c2.2,0,4,1.8,4,4v2.2
				C111.8,381.3,110,383.1,107.8,383.1z"/>
			<rect x="76.5" y="357.9" class="st9" width="33.9" height="2.7"/>
			<rect x="76.5" y="370.5" class="st9" width="33.9" height="2.7"/>
			<path class="st9" d="M76.5,382.7l0.8,1.9c0.2,0.5,0.7,0.9,1.2,0.9h29.9c0.5,0,1-0.3,1.2-0.9l0.8-1.9H76.5z"/>
		</g>
		<g>
			<path class="st9" d="M32.3,350.1l0.8-1.9c0.2-0.5,0.7-0.9,1.2-0.9h29.9c0.5,0,1,0.3,1.2,0.9l0.8,1.9H32.3z"/>
			<path class="st10" d="M63.6,358.7H34.8c-2.2,0-4-1.8-4-4v-2.2c0-2.2,1.8-4,4-4h28.9c2.2,0,4,1.8,4,4v2.2
				C67.6,356.9,65.8,358.7,63.6,358.7z"/>
			<path class="st10" d="M63.6,371H34.8c-2.2,0-4-1.8-4-4v-2.2c0-2.2,1.8-4,4-4h28.9c2.2,0,4,1.8,4,4v2.2
				C67.6,369.2,65.8,371,63.6,371z"/>
			<path class="st10" d="M63.6,383.4H34.8c-2.2,0-4-1.8-4-4v-2.2c0-2.2,1.8-4,4-4h28.9c2.2,0,4,1.8,4,4v2.2
				C67.6,381.6,65.8,383.4,63.6,383.4z"/>
			<rect x="32.3" y="358.2" class="st9" width="33.9" height="2.7"/>
			<rect x="32.3" y="370.8" class="st9" width="33.9" height="2.7"/>
			<path class="st9" d="M32.3,383l0.8,1.9c0.2,0.5,0.7,0.9,1.2,0.9h29.9c0.5,0,1-0.3,1.2-0.9l0.8-1.9H32.3z"/>
		</g>
		<rect x="35.8" y="397" class="st11" width="163.3" height="28.7"/>
		<g>
			<path class="st2" d="M66.5,404h2.4l3.7,9.5l3.7-9.5h2.3l-5.1,12.5h-1.9L66.5,404z"/>
			<path class="st2" d="M80.2,403.6h2.3v2h-2.3V403.6z M80.3,407.1h2.1v9.4h-2.1V407.1z"/>
			<path class="st2" d="M85.2,407.1h2.1v2.1c0.6-1.4,1.7-2.4,3.3-2.3v2.3h-0.1c-1.9,0-3.2,1.2-3.2,3.7v3.6h-2.1V407.1z"/>
			<path class="st2" d="M93,413.8v-4.9h-1.2v-1.8H93v-2.6h2.1v2.6h2.5v1.8h-2.5v4.6c0,0.8,0.4,1.2,1.1,1.2c0.5,0,0.9-0.1,1.3-0.3
				v1.8c-0.5,0.3-1.1,0.5-1.9,0.5C94.1,416.6,93,415.9,93,413.8z"/>
			<path class="st2" d="M99.6,413v-6h2.1v5.3c0,1.5,0.7,2.3,2,2.3c1.2,0,2.1-0.9,2.1-2.3v-5.3h2.1v9.4h-2.1V415
				c-0.6,0.9-1.5,1.7-2.9,1.7C100.9,416.6,99.6,415.2,99.6,413z"/>
			<path class="st2" d="M110.1,413.7L110.1,413.7c0-2.1,1.6-3.1,3.8-3.1c1,0,1.8,0.2,2.5,0.4v-0.2c0-1.3-0.8-2-2.3-2
				c-1,0-1.8,0.2-2.7,0.6l-0.6-1.7c1-0.5,2-0.8,3.5-0.8c1.4,0,2.4,0.4,3.1,1c0.7,0.7,1,1.7,1,2.9v5.6h-2.1v-1.2
				c-0.6,0.8-1.6,1.4-3,1.4C111.6,416.6,110.1,415.6,110.1,413.7z M116.4,413.1v-0.6c-0.5-0.2-1.3-0.4-2.1-0.4
				c-1.4,0-2.2,0.6-2.2,1.6v0c0,0.9,0.8,1.4,1.8,1.4C115.4,415.1,116.4,414.2,116.4,413.1z"/>
			<path class="st2" d="M121.1,403.5h2.1v13h-2.1V403.5z"/>
			<path class="st2" d="M130.8,414.6l1.3-1.6c1.2,1,2.4,1.6,3.9,1.6c1.3,0,2.2-0.6,2.2-1.6v0c0-0.9-0.5-1.4-2.8-1.9
				c-2.6-0.6-4.1-1.4-4.1-3.7v0c0-2.1,1.8-3.6,4.2-3.6c1.8,0,3.2,0.6,4.5,1.6l-1.2,1.7c-1.1-0.8-2.2-1.3-3.3-1.3c-1.3,0-2,0.7-2,1.5
				v0c0,1,0.6,1.4,2.9,2c2.6,0.6,3.9,1.6,3.9,3.6v0c0,2.3-1.8,3.7-4.4,3.7C134,416.6,132.2,416,130.8,414.6z"/>
			<path class="st2" d="M147,403.9h2l5.4,12.5h-2.3l-1.3-3H145l-1.3,3h-2.2L147,403.9z M150.1,411.5l-2.1-5l-2.1,5H150.1z"/>
			<path class="st2" d="M156.5,404h2l6.6,8.6V404h2.1v12.4h-1.8l-6.8-8.8v8.8h-2.1V404z"/>
		</g>
	</g>
</g>
</svg>
