<!-- Generator: Adobe Illustrator 19.1.0, SVG Export Plug-In  -->
<svg version="1.1"
	 xmlns="http://www.w3.org/2000/svg" xmlns:xlink="http://www.w3.org/1999/xlink" xmlns:a="http://ns.adobe.com/AdobeSVGViewerExtensions/3.0/"
	 x="0px" y="0px" width="43.6px" height="43.6px" viewBox="0 0 43.6 43.6"
	 style="overflow:scroll;enable-background:new 0 0 43.6 43.6;" xml:space="preserve">
<style type="text/css">
	.st0{fill:#FFFFFF;}
</style>
<defs>
</defs>
<g>
	<path class="st0" d="M27.5,12c1.4,1.5,2.6,2.7,4.1,4.4c2-2.1,3.9-4.2,6.2-6.7c1.9,2.1,3.8,4.1,5.7,6.2c0-5.4,0-10.5,0-15.7
		c-5.2,0-10.4,0-15.5,0c-0.1,0.1-0.2,0.3-0.3,0.4c2,1.8,4.1,3.6,6.4,5.6C31.6,8.4,29.5,10.3,27.5,12z"/>
	<path class="st0" d="M0,27.6c2,1.9,4.1,3.9,6.3,6c1.9-2.1,3.8-4.3,5.8-6.4c1.6,1.6,2.8,2.7,4.2,4.1c-2.2,2-4.3,3.9-6.4,5.9
		c2.2,2.3,4.2,4.4,6.1,6.5c-5.3,0-10.7,0-16,0C0,38.3,0,32.9,0,27.6z"/>
	<path class="st0" d="M0,0c5.2,0,10.4,0,15.6,0c0.1,0.1,0.2,0.3,0.2,0.4c-2,1.8-4.1,3.6-6.4,5.7c2.6,2.3,4.7,4.2,6.8,6.2
		c-1.5,1.3-2.7,2.4-4,3.6C10.5,14,8.5,12,6.5,9.8C4.2,12.1,2.1,14,0,16C0,10.7,0,5.3,0,0z"/>
	<path class="st0" d="M27.6,43.6c1.9-2,3.9-4.1,5.9-6.2c-2.1-2-4.1-3.9-6.2-5.8c1.5-1.5,2.7-2.7,4-4.1c1.8,2,3.7,4.1,5.7,6.3
		c2.1-2.3,4-4.3,5.8-6.2c0.2,0.1,0.4,0.2,0.7,0.3c0,5.2,0,10.5,0,15.7C38.3,43.6,32.9,43.6,27.6,43.6z"/>
	<path class="st0" d="M27.5,12c2-1.8,4.1-3.6,6.6-5.9c-2.3-2-4.4-3.8-6.4-5.6c0.1-0.1,0.2-0.3,0.3-0.4c5.1,0,10.3,0,15.5,0
		c0,5.2,0,10.3,0,15.7c-1.9-2.1-3.7-4.1-5.7-6.2c-2.3,2.5-4.2,4.6-6.2,6.7C30.1,14.8,28.9,13.5,27.5,12z"/>
</g>
</svg>
