<!-- Generator: Adobe Illustrator 19.2.0, SVG Export Plug-In  -->
<svg version="1.1"
	 xmlns="http://www.w3.org/2000/svg" xmlns:xlink="http://www.w3.org/1999/xlink" xmlns:a="http://ns.adobe.com/AdobeSVGViewerExtensions/3.0/"
	 x="0px" y="0px" width="78.7px" height="35.7px" viewBox="0 0 78.7 35.7" style="enable-background:new 0 0 78.7 35.7;"
	 xml:space="preserve">
<style type="text/css">
	.st0{fill:#BCBEC0;}
	.st1{fill:#231F20;}
</style>
<defs>
</defs>
<g>
	<rect y="9.3" class="st0" width="78.7" height="26.4"/>
	<polygon class="st0" points="32.2,9.5 39.3,0 46.5,9.5 	"/>
	<g>
		<path class="st1" d="M13.8,26.9l0.9-1.1c1.4,1.3,2.7,1.9,4.6,1.9c1.8,0,3-1,3-2.3v0c0-1.3-0.7-2-3.5-2.6c-3.1-0.7-4.5-1.7-4.5-3.9
			v0c0-2.1,1.9-3.7,4.4-3.7c2,0,3.4,0.6,4.7,1.7L22.6,18c-1.3-1-2.5-1.5-3.9-1.5c-1.7,0-2.9,1-2.9,2.2v0c0,1.3,0.7,2,3.7,2.6
			c3,0.7,4.4,1.8,4.4,3.8v0c0,2.3-1.9,3.8-4.6,3.8C17.1,29,15.4,28.3,13.8,26.9z"/>
		<path class="st1" d="M26.7,18.9h1.5v2c0.8-1.2,2-2.2,3.8-2.2c2.4,0,4.7,1.9,4.7,5.2v0c0,3.2-2.3,5.2-4.7,5.2c-1.8,0-3-1-3.8-2.1v5
			h-1.5V18.9z M35.2,23.9L35.2,23.9c0-2.4-1.6-3.9-3.5-3.9c-1.8,0-3.6,1.6-3.6,3.8v0c0,2.3,1.7,3.8,3.6,3.8
			C33.6,27.7,35.2,26.3,35.2,23.9z"/>
		<path class="st1" d="M39.5,15.1h1.7v1.6h-1.7V15.1z M39.6,18.9h1.5v9.9h-1.5V18.9z"/>
		<path class="st1" d="M44.5,18.9H46v1.7c0.7-1.1,1.7-1.9,3.4-1.9c2.4,0,3.8,1.6,3.8,4v6.2h-1.5V23c0-1.8-1-3-2.7-3
			c-1.7,0-3,1.3-3,3.1v5.7h-1.5V18.9z"/>
		<path class="st1" d="M55.8,23.9L55.8,23.9c0-2.9,2-5.2,4.8-5.2c2.9,0,4.6,2.3,4.6,5.2c0,0.2,0,0.3,0,0.5h-7.9
			c0.2,2.2,1.7,3.4,3.5,3.4c1.4,0,2.3-0.6,3.1-1.4l0.9,0.8c-1,1.1-2.2,1.9-4.1,1.9C58,29.1,55.8,27,55.8,23.9z M63.7,23.3
			c-0.2-1.8-1.2-3.4-3.2-3.4c-1.7,0-3,1.4-3.2,3.4H63.7z"/>
	</g>
</g>
</svg>
