<!-- Generator: Adobe Illustrator 19.2.0, SVG Export Plug-In  -->
<svg version="1.1"
	 xmlns="http://www.w3.org/2000/svg" xmlns:xlink="http://www.w3.org/1999/xlink" xmlns:a="http://ns.adobe.com/AdobeSVGViewerExtensions/3.0/"
	 x="0px" y="0px" width="101.1px" height="100.2px" viewBox="0 0 101.1 100.2" style="enable-background:new 0 0 101.1 100.2;"
	 xml:space="preserve">
<style type="text/css">
	.st0{fill:#006990;}
	.st1{fill:#BBC0C5;}
	.st2{fill:#687F8F;}
	.st3{opacity:0.1;clip-path:url(#SVGID_2_);}
	.st4{fill:#99CCE7;}
	.st5{fill:#99CBE4;}
	.st6{fill:#0F3535;}
	.st7{fill:#4DA747;}
	.st8{fill:#0C9046;}
	.st9{fill:#2C97D3;}
	.st10{fill:#138585;}
	.st11{fill:#232657;}
	.st12{fill:#3A7F3D;}
	.st13{fill:#408740;}
	.st14{fill:#8EC03F;}
	.st15{fill:#72C5A0;}
	.st16{fill:#2E9CD7;}
	.st17{fill:#1575B1;}
	.st18{fill:#C3D6A2;}
	.st19{fill:#517034;}
	.st20{fill:#1C4725;}
	.st21{fill:#93CA87;}
	.st22{fill:#5E9441;}
	.st23{fill:#6CBEEA;}
	.st24{fill:#3E73B5;}
	.st25{clip-path:url(#SVGID_2_);fill:#E6E9E7;}
	.st26{opacity:0.1;clip-path:url(#SVGID_4_);}
	.st27{clip-path:url(#SVGID_4_);fill:#E6E9E7;}
</style>
<defs>
</defs>
<rect class="st0" width="101.1" height="100.2"/>
<g>
	<circle class="st1" cx="51.1" cy="50.7" r="48.5"/>
	<circle class="st2" cx="51.1" cy="50.7" r="44.8"/>
	<g>
		<defs>
			<circle id="SVGID_1_" cx="51.1" cy="50.7" r="44.8"/>
		</defs>
		<clipPath id="SVGID_2_">
			<use xlink:href="#SVGID_1_"  style="overflow:visible;"/>
		</clipPath>
		<g class="st3">
			<polygon class="st4" points="2.7,34.8 2.7,18.9 18.6,18.9 			"/>
			<polygon class="st5" points="18.6,18.9 18.6,3 2.7,3 			"/>
			<polygon class="st6" points="82.2,18.9 82.2,34.8 66.3,34.8 			"/>
			<polygon class="st7" points="66.3,3 82.2,3 82.2,18.9 			"/>
			<polygon class="st8" points="66.3,3 66.3,18.9 82.2,18.9 			"/>
			<polygon class="st9" points="66.3,3 66.3,18.9 50.4,18.9 			"/>
			<polygon class="st10" points="66.3,34.8 50.4,34.8 50.4,18.9 			"/>
			<polygon class="st11" points="34.5,34.8 50.4,34.8 50.4,18.9 			"/>
			<polygon class="st12" points="66.3,34.8 66.3,18.9 82.2,18.9 			"/>
			<polygon class="st13" points="98.1,3 82.2,3 82.2,18.9 			"/>
			<polygon class="st14" points="98.1,3 98.1,18.9 82.2,18.9 			"/>
			<polygon class="st15" points="98.1,34.8 98.1,18.9 82.2,18.9 			"/>
			<polygon class="st7" points="82.2,18.9 82.2,34.8 98.1,34.8 			"/>
			<polygon class="st16" points="34.5,3 50.4,3 50.4,18.9 			"/>
			<polygon class="st17" points="34.5,34.8 34.5,18.9 18.6,18.9 			"/>
			<polygon class="st18" points="66.3,34.8 50.4,34.8 50.4,50.7 			"/>
			<polygon class="st19" points="66.3,34.8 66.3,50.7 82.2,50.7 			"/>
			<polygon class="st20" points="82.2,50.7 82.2,34.8 66.3,34.8 			"/>
			<polygon class="st21" points="98.1,34.8 98.1,50.7 82.2,50.7 			"/>
			<polygon class="st22" points="82.2,50.7 82.2,34.8 98.1,34.8 			"/>
			<polygon class="st23" points="34.5,34.8 18.6,34.8 18.6,50.7 			"/>
			<polygon class="st24" points="34.5,34.8 34.5,50.7 50.4,50.7 			"/>
		</g>
		<g class="st3">
			<polygon class="st4" points="2.7,82.5 2.7,66.6 18.6,66.6 			"/>
			<polygon class="st5" points="18.6,66.6 18.6,50.7 2.7,50.7 			"/>
			<polygon class="st6" points="82.2,66.6 82.2,82.5 66.2,82.5 			"/>
			<polygon class="st7" points="66.3,50.7 82.2,50.7 82.2,66.6 			"/>
			<polygon class="st8" points="66.3,50.7 66.3,66.6 82.2,66.6 			"/>
			<polygon class="st9" points="66.3,50.7 66.3,66.6 50.4,66.6 			"/>
			<polygon class="st10" points="66.3,82.5 50.3,82.5 50.3,66.6 			"/>
			<polygon class="st11" points="34.4,82.5 50.4,82.5 50.4,66.6 			"/>
			<polygon class="st12" points="66.3,82.5 66.3,66.6 82.2,66.6 			"/>
			<polygon class="st13" points="98.1,50.7 82.2,50.7 82.2,66.6 			"/>
			<polygon class="st14" points="98.1,50.7 98.1,66.6 82.2,66.6 			"/>
			<polygon class="st15" points="98.1,82.5 98.1,66.6 82.2,66.6 			"/>
			<polygon class="st7" points="82.2,66.6 82.2,82.5 98.1,82.5 			"/>
			<polygon class="st16" points="34.4,50.7 50.4,50.7 50.4,66.6 			"/>
			<polygon class="st17" points="34.4,82.5 34.4,66.6 18.5,66.6 			"/>
			<polygon class="st18" points="66.3,82.5 50.3,82.5 50.3,98.4 			"/>
			<polygon class="st19" points="66.3,82.5 66.3,98.4 82.2,98.4 			"/>
			<polygon class="st20" points="82.2,98.4 82.2,82.5 66.3,82.5 			"/>
			<polygon class="st21" points="98.1,82.5 98.1,98.4 82.2,98.4 			"/>
			<polygon class="st22" points="82.2,98.4 82.2,82.5 98.1,82.5 			"/>
			<polygon class="st23" points="34.4,82.5 18.5,82.5 18.5,98.4 			"/>
			<polygon class="st24" points="34.5,82.5 34.5,98.4 50.4,98.4 			"/>
		</g>
		<polygon class="st25" points="84.7,51.9 76.2,45.8 76.2,49.4 52.6,49.4 52.6,25.6 56,25.6 50.3,17.1 44.2,25.6 47.8,25.6 
			47.8,49.4 24,49.4 24,45.8 15.5,51.9 24,57.6 24,54.2 47.8,54.2 47.8,77.8 44.2,77.8 50.3,86.3 56,77.8 52.6,77.8 52.6,54.2 
			76.2,54.2 76.2,57.6 		"/>
	</g>
</g>
</svg>
