<!-- Generator: Adobe Illustrator 19.2.0, SVG Export Plug-In  -->
<svg version="1.1"
	 xmlns="http://www.w3.org/2000/svg" xmlns:xlink="http://www.w3.org/1999/xlink" xmlns:a="http://ns.adobe.com/AdobeSVGViewerExtensions/3.0/"
	 x="0px" y="0px" width="141.2px" height="109.1px" viewBox="0 0 141.2 109.1" style="enable-background:new 0 0 141.2 109.1;"
	 xml:space="preserve">
<style type="text/css">
	.st0{fill:#677F90;}
	.st1{fill:#BCC1C6;}
	.st2{opacity:0.1;}
	.st3{fill:#9ACDE9;}
	.st4{fill:#99CCE6;}
	.st5{fill:#0F3535;}
	.st6{fill:#4DA847;}
	.st7{fill:#0A9046;}
	.st8{fill:#2A98D4;}
	.st9{fill:#158686;}
	.st10{fill:#232658;}
	.st11{fill:#3A7E3D;}
	.st12{fill:#408740;}
	.st13{fill:#90C13F;}
	.st14{fill:#72C5A0;}
	.st15{fill:#2D9ED9;}
	.st16{fill:#1575B1;}
	.st17{fill:#C3D6A2;}
	.st18{fill:#517034;}
	.st19{fill:#1B4724;}
	.st20{fill:#94CB88;}
	.st21{fill:#5E9541;}
	.st22{fill:#6BBFEB;}
	.st23{fill:#3D73B6;}
	.st24{fill:#E7EAE8;}
</style>
<defs>
</defs>
<g>
	<g>
		<g>
			<g>
				<g>
					<g>
						<g>
							<rect x="1.3" y="1.3" class="st0" width="82.7" height="83.4"/>
							<g>
								<g>
									<g>
										<g>
											<path class="st1" d="M82.7,2.7v80.7H2.6V2.7H82.7 M85.4,0h-2.6H2.6H0v2.7v80.7V86h2.6h80.1h2.6v-2.7V2.7V0L85.4,0z"/>
										</g>
									</g>
								</g>
							</g>
						</g>
					</g>
				</g>
			</g>
		</g>
		<g class="st2">
			<polygon class="st3" points="2.5,29.7 2.5,16.3 15.9,16.3 			"/>
			<polygon class="st4" points="15.9,16.3 15.9,2.8 2.5,2.8 			"/>
			<polygon class="st5" points="69.2,16.3 69.2,29.7 55.9,29.7 			"/>
			<polygon class="st6" points="55.9,2.8 69.2,2.8 69.2,16.3 			"/>
			<polygon class="st7" points="55.9,2.8 55.9,16.3 69.2,16.3 			"/>
			<polygon class="st8" points="55.9,2.8 55.9,16.3 42.5,16.3 			"/>
			<polygon class="st9" points="55.9,29.7 42.5,29.7 42.5,16.3 			"/>
			<polygon class="st10" points="29.2,29.7 42.5,29.7 42.5,16.3 			"/>
			<polygon class="st11" points="55.9,29.7 55.9,16.3 69.2,16.3 			"/>
			<polygon class="st12" points="82.6,2.8 69.2,2.8 69.2,16.3 			"/>
			<polygon class="st13" points="82.6,2.8 82.6,16.3 69.2,16.3 			"/>
			<polygon class="st14" points="82.6,29.7 82.6,16.3 69.2,16.3 			"/>
			<polygon class="st6" points="69.2,16.3 69.2,29.7 82.6,29.7 			"/>
			<polygon class="st15" points="29.2,2.8 42.5,2.8 42.5,16.3 			"/>
			<polygon class="st16" points="29.2,29.7 29.2,16.3 15.8,16.3 			"/>
			<polygon class="st17" points="55.9,29.7 42.5,29.7 42.5,43.1 			"/>
			<polygon class="st18" points="55.9,29.7 55.9,43.1 69.2,43.1 			"/>
			<polygon class="st19" points="69.2,43.2 69.2,29.7 55.9,29.7 			"/>
			<polygon class="st20" points="82.6,29.7 82.6,43.1 69.2,43.1 			"/>
			<polygon class="st21" points="69.2,43.2 69.2,29.7 82.6,29.7 			"/>
			<polygon class="st22" points="29.2,29.7 15.8,29.7 15.8,43.1 			"/>
			<polygon class="st23" points="29.2,29.7 29.2,43.1 42.5,43.1 			"/>
		</g>
		<g class="st2">
			<polygon class="st3" points="2.5,70.1 2.5,56.6 15.8,56.6 			"/>
			<polygon class="st4" points="15.8,56.6 15.8,43.1 2.5,43.1 			"/>
			<polygon class="st5" points="69.2,56.6 69.2,70.1 55.8,70.1 			"/>
			<polygon class="st6" points="55.8,43.1 69.2,43.1 69.2,56.6 			"/>
			<polygon class="st7" points="55.8,43.1 55.8,56.6 69.2,56.6 			"/>
			<polygon class="st8" points="55.8,43.1 55.8,56.6 42.5,56.6 			"/>
			<polygon class="st9" points="55.8,70.1 42.5,70.1 42.5,56.6 			"/>
			<polygon class="st10" points="29.1,70.1 42.5,70.1 42.5,56.6 			"/>
			<polygon class="st11" points="55.8,70.1 55.8,56.6 69.2,56.6 			"/>
			<polygon class="st12" points="82.5,43.1 69.2,43.1 69.2,56.6 			"/>
			<polygon class="st13" points="82.5,43.1 82.5,56.6 69.2,56.6 			"/>
			<polygon class="st14" points="82.5,70.1 82.5,56.6 69.2,56.6 			"/>
			<polygon class="st6" points="69.2,56.6 69.2,70.1 82.5,70.1 			"/>
			<polygon class="st15" points="29.1,43.1 42.5,43.1 42.5,56.6 			"/>
			<polygon class="st16" points="29.1,70.1 29.1,56.6 15.8,56.6 			"/>
			<polygon class="st17" points="55.8,70 42.5,70 42.5,83.5 			"/>
			<polygon class="st18" points="55.8,70 55.8,83.5 69.2,83.5 			"/>
			<polygon class="st19" points="69.2,83.5 69.2,70.1 55.8,70.1 			"/>
			<polygon class="st20" points="82.5,70 82.5,83.5 69.2,83.5 			"/>
			<polygon class="st21" points="69.2,83.5 69.2,70.1 82.5,70.1 			"/>
			<polygon class="st22" points="29.1,70 15.8,70 15.8,83.5 			"/>
			<polygon class="st23" points="29.1,70 29.1,83.5 42.5,83.5 			"/>
		</g>
	</g>
	<g>
		<polygon class="st24" points="69.8,15.1 62.7,9.9 62.7,13 15.5,13 15.5,17.1 62.7,17.1 62.7,20 		"/>
		<polygon class="st24" points="15.5,33.8 22.6,28.7 22.6,31.8 69.8,31.8 69.8,35.8 22.6,35.8 22.6,38.7 		"/>
		<polygon class="st24" points="69.8,52.5 62.7,47.4 62.7,50.5 15.5,50.5 15.5,54.5 62.7,54.5 62.7,57.4 		"/>
		<polygon class="st24" points="15.5,71.2 22.6,66.1 22.6,69.2 69.8,69.2 69.8,73.2 22.6,73.2 22.6,76.1 		"/>
	</g>
</g>
<g>
	<g>
		<g>
			<g>
				<g>
					<g>
						<g>
							<rect x="57.2" y="24.4" class="st0" width="82.7" height="83.4"/>
							<g>
								<g>
									<g>
										<g>
											<path class="st1" d="M138.6,25.7v80.7H58.5V25.7H138.6 M141.2,23.1h-2.6H58.5h-2.6v2.7v80.7v2.7h2.6h80.1h2.6v-2.7V25.7
												V23.1L141.2,23.1z"/>
										</g>
									</g>
								</g>
							</g>
						</g>
					</g>
				</g>
			</g>
		</g>
		<g class="st2">
			<polygon class="st3" points="58.4,52.8 58.4,39.3 71.8,39.3 			"/>
			<polygon class="st4" points="71.8,39.3 71.8,25.8 58.4,25.8 			"/>
			<polygon class="st5" points="125.1,39.3 125.1,52.8 111.7,52.8 			"/>
			<polygon class="st6" points="111.7,25.9 125.1,25.9 125.1,39.3 			"/>
			<polygon class="st7" points="111.7,25.9 111.7,39.3 125.1,39.3 			"/>
			<polygon class="st8" points="111.7,25.9 111.7,39.3 98.4,39.3 			"/>
			<polygon class="st9" points="111.7,52.8 98.4,52.8 98.4,39.3 			"/>
			<polygon class="st10" points="85,52.8 98.4,52.8 98.4,39.3 			"/>
			<polygon class="st11" points="111.7,52.8 111.7,39.3 125.1,39.3 			"/>
			<polygon class="st12" points="138.4,25.9 125.1,25.9 125.1,39.3 			"/>
			<polygon class="st13" points="138.4,25.9 138.4,39.3 125.1,39.3 			"/>
			<polygon class="st14" points="138.4,52.8 138.4,39.3 125.1,39.3 			"/>
			<polygon class="st6" points="125.1,39.3 125.1,52.8 138.4,52.8 			"/>
			<polygon class="st15" points="85.1,25.9 98.4,25.9 98.4,39.3 			"/>
			<polygon class="st16" points="85,52.8 85,39.3 71.7,39.3 			"/>
			<polygon class="st17" points="111.7,52.7 98.4,52.7 98.4,66.2 			"/>
			<polygon class="st18" points="111.7,52.7 111.7,66.2 125.1,66.2 			"/>
			<polygon class="st19" points="125.1,66.2 125.1,52.8 111.7,52.8 			"/>
			<polygon class="st20" points="138.4,52.7 138.4,66.2 125.1,66.2 			"/>
			<polygon class="st21" points="125.1,66.2 125.1,52.8 138.4,52.8 			"/>
			<polygon class="st22" points="85,52.7 71.7,52.7 71.7,66.2 			"/>
			<polygon class="st23" points="85.1,52.7 85.1,66.2 98.4,66.2 			"/>
		</g>
		<g class="st2">
			<polygon class="st3" points="58.4,93.1 58.4,79.7 71.7,79.7 			"/>
			<polygon class="st4" points="71.7,79.7 71.7,66.2 58.4,66.2 			"/>
			<polygon class="st5" points="125,79.7 125,93.1 111.7,93.1 			"/>
			<polygon class="st6" points="111.7,66.2 125.1,66.2 125.1,79.7 			"/>
			<polygon class="st7" points="111.7,66.2 111.7,79.7 125.1,79.7 			"/>
			<polygon class="st8" points="111.7,66.2 111.7,79.7 98.4,79.7 			"/>
			<polygon class="st9" points="111.7,93.1 98.4,93.1 98.4,79.7 			"/>
			<polygon class="st10" points="85,93.1 98.4,93.1 98.4,79.7 			"/>
			<polygon class="st11" points="111.7,93.1 111.7,79.7 125.1,79.7 			"/>
			<polygon class="st12" points="138.4,66.2 125.1,66.2 125.1,79.7 			"/>
			<polygon class="st13" points="138.4,66.2 138.4,79.7 125.1,79.7 			"/>
			<polygon class="st14" points="138.4,93.1 138.4,79.7 125.1,79.7 			"/>
			<polygon class="st6" points="125.1,79.7 125.1,93.1 138.4,93.1 			"/>
			<polygon class="st15" points="85,66.2 98.4,66.2 98.4,79.7 			"/>
			<polygon class="st16" points="85,93.1 85,79.7 71.7,79.7 			"/>
			<polygon class="st17" points="111.7,93.1 98.4,93.1 98.4,106.5 			"/>
			<polygon class="st18" points="111.7,93.1 111.7,106.5 125.1,106.5 			"/>
			<polygon class="st19" points="125.1,106.6 125.1,93.1 111.7,93.1 			"/>
			<polygon class="st20" points="138.4,93.1 138.4,106.5 125.1,106.5 			"/>
			<polygon class="st21" points="125,106.6 125,93.1 138.4,93.1 			"/>
			<polygon class="st22" points="85,93.1 71.7,93.1 71.7,106.5 			"/>
			<polygon class="st23" points="85,93.1 85,106.5 98.4,106.5 			"/>
		</g>
	</g>
	<g>
		<polygon class="st24" points="125.7,38.2 118.6,33 118.6,36.1 71.4,36.1 71.4,40.1 118.6,40.1 118.6,43 		"/>
		<polygon class="st24" points="71.4,56.9 78.5,51.7 78.5,54.8 125.7,54.8 125.7,58.8 78.5,58.8 78.5,61.7 		"/>
		<polygon class="st24" points="125.7,75.6 118.6,70.4 118.6,73.5 71.4,73.5 71.4,77.5 118.6,77.5 118.6,80.4 		"/>
		<polygon class="st24" points="71.4,94.3 78.5,89.1 78.5,92.2 125.7,92.2 125.7,96.2 78.5,96.2 78.5,99.2 		"/>
	</g>
</g>
</svg>
