<!-- Generator: Adobe Illustrator 19.2.0, SVG Export Plug-In  -->
<svg version="1.1"
	 xmlns="http://www.w3.org/2000/svg" xmlns:xlink="http://www.w3.org/1999/xlink" xmlns:a="http://ns.adobe.com/AdobeSVGViewerExtensions/3.0/"
	 x="0px" y="0px" width="101.1px" height="100.2px" viewBox="0 0 101.1 100.2" style="enable-background:new 0 0 101.1 100.2;"
	 xml:space="preserve">
<style type="text/css">
	.st0{fill:#D9541E;}
	.st1{fill:#BBC0C5;}
	.st2{fill:#687F8F;}
	.st3{opacity:0.1;clip-path:url(#SVGID_2_);}
	.st4{fill:#99CCE7;}
	.st5{fill:#99CBE4;}
	.st6{fill:#0F3535;}
	.st7{fill:#4DA747;}
	.st8{fill:#0C9046;}
	.st9{fill:#2C97D3;}
	.st10{fill:#138585;}
	.st11{fill:#232657;}
	.st12{fill:#3A7F3D;}
	.st13{fill:#408740;}
	.st14{fill:#8EC03F;}
	.st15{fill:#72C5A0;}
	.st16{fill:#2E9CD7;}
	.st17{fill:#1575B1;}
	.st18{fill:#C3D6A2;}
	.st19{fill:#517034;}
	.st20{fill:#1C4725;}
	.st21{fill:#93CA87;}
	.st22{fill:#5E9441;}
	.st23{fill:#6CBEEA;}
	.st24{fill:#3E73B5;}
	.st25{clip-path:url(#SVGID_2_);fill:#E6E9E7;}
	.st26{opacity:0.1;clip-path:url(#SVGID_4_);}
	.st27{clip-path:url(#SVGID_4_);fill:#E6E9E7;}
</style>
<defs>
</defs>
<rect class="st0" width="101.1" height="100.2"/>
<g>
	<circle class="st1" cx="51.8" cy="50.7" r="48.5"/>
	<circle class="st2" cx="51.8" cy="50.7" r="44.8"/>
	<g>
		<defs>
			<circle id="SVGID_1_" cx="51.8" cy="50.7" r="44.8"/>
		</defs>
		<clipPath id="SVGID_2_">
			<use xlink:href="#SVGID_1_"  style="overflow:visible;"/>
		</clipPath>
		<g class="st3">
			<polygon class="st4" points="3.4,34.8 3.4,18.9 19.4,18.9 			"/>
			<polygon class="st5" points="19.4,18.9 19.4,3 3.4,3 			"/>
			<polygon class="st6" points="82.9,18.9 82.9,34.8 67,34.8 			"/>
			<polygon class="st7" points="67,3 82.9,3 82.9,18.9 			"/>
			<polygon class="st8" points="67,3 67,18.9 82.9,18.9 			"/>
			<polygon class="st9" points="67,3 67,18.9 51.1,18.9 			"/>
			<polygon class="st10" points="67,34.8 51.1,34.8 51.1,18.9 			"/>
			<polygon class="st11" points="35.2,34.8 51.1,34.8 51.1,18.9 			"/>
			<polygon class="st12" points="67,34.8 67,18.9 82.9,18.9 			"/>
			<polygon class="st13" points="98.8,3 82.9,3 82.9,18.9 			"/>
			<polygon class="st14" points="98.8,3 98.8,18.9 82.9,18.9 			"/>
			<polygon class="st15" points="98.8,34.8 98.8,18.9 82.9,18.9 			"/>
			<polygon class="st7" points="82.9,18.9 82.9,34.8 98.8,34.8 			"/>
			<polygon class="st16" points="35.2,3 51.1,3 51.1,18.9 			"/>
			<polygon class="st17" points="35.2,34.8 35.2,18.9 19.3,18.9 			"/>
			<polygon class="st18" points="67,34.8 51.1,34.8 51.1,50.7 			"/>
			<polygon class="st19" points="67,34.8 67,50.7 82.9,50.7 			"/>
			<polygon class="st20" points="82.9,50.7 82.9,34.8 67,34.8 			"/>
			<polygon class="st21" points="98.8,34.8 98.8,50.7 82.9,50.7 			"/>
			<polygon class="st22" points="82.9,50.7 82.9,34.8 98.8,34.8 			"/>
			<polygon class="st23" points="35.2,34.8 19.3,34.8 19.3,50.7 			"/>
			<polygon class="st24" points="35.2,34.8 35.2,50.7 51.1,50.7 			"/>
		</g>
		<g class="st3">
			<polygon class="st4" points="3.4,82.5 3.4,66.6 19.3,66.6 			"/>
			<polygon class="st5" points="19.3,66.6 19.3,50.7 3.4,50.7 			"/>
			<polygon class="st6" points="82.9,66.6 82.9,82.5 67,82.5 			"/>
			<polygon class="st7" points="67,50.7 82.9,50.7 82.9,66.6 			"/>
			<polygon class="st8" points="67,50.7 67,66.6 82.9,66.6 			"/>
			<polygon class="st9" points="67,50.7 67,66.6 51.1,66.6 			"/>
			<polygon class="st10" points="67,82.5 51.1,82.5 51.1,66.6 			"/>
			<polygon class="st11" points="35.2,82.5 51.1,82.5 51.1,66.6 			"/>
			<polygon class="st12" points="67,82.5 67,66.6 82.9,66.6 			"/>
			<polygon class="st13" points="98.8,50.7 82.9,50.7 82.9,66.6 			"/>
			<polygon class="st14" points="98.8,50.7 98.8,66.6 82.9,66.6 			"/>
			<polygon class="st15" points="98.8,82.5 98.8,66.6 82.9,66.6 			"/>
			<polygon class="st7" points="82.9,66.6 82.9,82.5 98.8,82.5 			"/>
			<polygon class="st16" points="35.2,50.7 51.1,50.7 51.1,66.6 			"/>
			<polygon class="st17" points="35.2,82.5 35.2,66.6 19.2,66.6 			"/>
			<polygon class="st18" points="67,82.5 51.1,82.5 51.1,98.4 			"/>
			<polygon class="st19" points="67,82.5 67,98.4 82.9,98.4 			"/>
			<polygon class="st20" points="82.9,98.4 82.9,82.5 67,82.5 			"/>
			<polygon class="st21" points="98.8,82.5 98.8,98.4 82.9,98.4 			"/>
			<polygon class="st22" points="82.9,98.4 82.9,82.5 98.8,82.5 			"/>
			<polygon class="st23" points="35.2,82.5 19.2,82.5 19.2,98.4 			"/>
			<polygon class="st24" points="35.2,82.5 35.2,98.4 51.1,98.4 			"/>
		</g>
		<polygon class="st25" points="85.4,51.9 76.9,45.8 76.9,49.4 53.3,49.4 53.3,25.6 56.7,25.6 51,17.1 44.9,25.6 48.5,25.6 
			48.5,49.4 24.7,49.4 24.7,45.8 16.2,51.9 24.7,57.6 24.7,54.2 48.5,54.2 48.5,77.8 44.9,77.8 51,86.3 56.7,77.8 53.3,77.8 
			53.3,54.2 76.9,54.2 76.9,57.6 		"/>
	</g>
</g>
</svg>
