<!-- Generator: Adobe Illustrator 19.2.0, SVG Export Plug-In  -->
<svg version="1.1"
	 xmlns="http://www.w3.org/2000/svg" xmlns:xlink="http://www.w3.org/1999/xlink" xmlns:a="http://ns.adobe.com/AdobeSVGViewerExtensions/3.0/"
	 x="0px" y="0px" width="1474.5px" height="104.5px" viewBox="0 0 1474.5 104.5" style="enable-background:new 0 0 1474.5 104.5;"
	 xml:space="preserve">
<style type="text/css">
	.st0{fill:#6D6F70;}
</style>
<defs>
</defs>
<path class="st0" d="M1473.5,104.5h-4v-2h4V104.5z M1465.5,104.5h-4v-2h4V104.5z M1457.5,104.5h-4v-2h4V104.5z M1449.5,104.5h-4v-2
	h4V104.5z M1441.5,104.5h-4v-2h4V104.5z M1433.5,104.5h-4v-2h4V104.5z M1425.5,104.5h-4v-2h4V104.5z M1417.5,104.5h-4v-2h4V104.5z
	 M1409.5,104.5h-4v-2h4V104.5z M1401.5,104.5h-4v-2h4V104.5z M1393.5,104.5h-4v-2h4V104.5z M1385.5,104.5h-4v-2h4V104.5z
	 M1377.5,104.5h-4v-2h4V104.5z M1369.5,104.5h-4v-2h4V104.5z M1361.5,104.5h-4v-2h4V104.5z M1353.5,104.5h-4v-2h4V104.5z
	 M1345.5,104.5h-4v-2h4V104.5z M1337.5,104.5h-4v-2h4V104.5z M1329.5,104.5h-4v-2h4V104.5z M1321.5,104.5h-4v-2h4V104.5z
	 M1313.5,104.5h-4v-2h4V104.5z M1305.5,104.5h-4v-2h4V104.5z M1297.5,104.5h-4v-2h4V104.5z M1289.5,104.5h-4v-2h4V104.5z
	 M1281.5,104.5h-4v-2h4V104.5z M1273.5,104.5h-4v-2h4V104.5z M1265.5,104.5h-4v-2h4V104.5z M1257.5,104.5h-4v-2h4V104.5z
	 M1249.5,104.5h-4v-2h4V104.5z M1241.5,104.5h-4v-2h4V104.5z M1233.5,104.5h-4v-2h4V104.5z M1225.5,104.5h-4v-2h4V104.5z
	 M1217.5,104.5h-4v-2h4V104.5z M1209.5,104.5h-4v-2h4V104.5z M1201.5,104.5h-4v-2h4V104.5z M1193.5,104.5h-4v-2h4V104.5z
	 M1185.5,104.5h-4v-2h4V104.5z M1177.5,104.5h-4v-2h4V104.5z M1169.5,104.5h-4v-2h4V104.5z M1161.5,104.5h-4v-2h4V104.5z
	 M1153.5,104.5h-4v-2h4V104.5z M1145.5,104.5h-4v-2h4V104.5z M1137.5,104.5h-4v-2h4V104.5z M1129.5,104.5h-4v-2h4V104.5z
	 M1121.5,104.5h-4v-2h4V104.5z M1113.5,104.5h-4v-2h4V104.5z M1105.5,104.5h-4v-2h4V104.5z M1097.5,104.5h-4v-2h4V104.5z
	 M1089.5,104.5h-4v-2h4V104.5z M1081.5,104.5h-4v-2h4V104.5z M1073.5,104.5h-4v-2h4V104.5z M1065.5,104.5h-4v-2h4V104.5z
	 M1057.5,104.5h-4v-2h4V104.5z M1049.5,104.5h-4v-2h4V104.5z M1041.5,104.5h-4v-2h4V104.5z M1033.5,104.5h-4v-2h4V104.5z
	 M1025.5,104.5h-4v-2h4V104.5z M1017.5,104.5h-4v-2h4V104.5z M1009.5,104.5h-4v-2h4V104.5z M1001.5,104.5h-4v-2h4V104.5z
	 M993.5,104.5h-4v-2h4V104.5z M985.5,104.5h-4v-2h4V104.5z M977.5,104.5h-4v-2h4V104.5z M969.5,104.5h-4v-2h4V104.5z M961.5,104.5
	h-4v-2h4V104.5z M953.5,104.5h-4v-2h4V104.5z M945.5,104.5h-4v-2h4V104.5z M937.5,104.5h-4v-2h4V104.5z M929.5,104.5h-4v-2h4V104.5z
	 M921.5,104.5h-4v-2h4V104.5z M913.5,104.5h-4v-2h4V104.5z M905.5,104.5h-4v-2h4V104.5z M897.5,104.5h-4v-2h4V104.5z M889.5,104.5
	h-4v-2h4V104.5z M881.5,104.5h-4v-2h4V104.5z M873.5,104.5h-4v-2h4V104.5z M865.5,104.5h-4v-2h4V104.5z M857.5,104.5h-4v-2h4V104.5z
	 M849.5,104.5h-4v-2h4V104.5z M841.5,104.5h-4v-2h4V104.5z M833.5,104.5h-4v-2h4V104.5z M825.5,104.5h-4v-2h4V104.5z M817.5,104.5
	h-4v-2h4V104.5z M809.5,104.5h-4v-2h4V104.5z M801.5,104.5h-4v-2h4V104.5z M793.5,104.5h-4v-2h4V104.5z M785.5,104.5h-4v-2h4V104.5z
	 M777.5,104.5h-4v-2h4V104.5z M769.5,104.5h-4v-2h4V104.5z M761.5,104.5h-4v-2h4V104.5z M753.5,104.5h-4v-2h4V104.5z M745.5,104.5
	h-4v-2h4V104.5z M737.5,104.5h-4v-2h4V104.5z M729.5,104.5h-4v-2h4V104.5z M721.5,104.5h-4v-2h4V104.5z M713.5,104.5h-4v-2h4V104.5z
	 M705.5,104.5h-4v-2h4V104.5z M697.5,104.5h-4v-2h4V104.5z M689.5,104.5h-4v-2h4V104.5z M681.5,104.5h-4v-2h4V104.5z M673.5,104.5
	h-4v-2h4V104.5z M665.5,104.5h-4v-2h4V104.5z M657.5,104.5h-4v-2h4V104.5z M649.5,104.5h-4v-2h4V104.5z M641.5,104.5h-4v-2h4V104.5z
	 M633.5,104.5h-4v-2h4V104.5z M625.5,104.5h-4v-2h4V104.5z M617.5,104.5h-4v-2h4V104.5z M609.5,104.5h-4v-2h4V104.5z M601.5,104.5
	h-4v-2h4V104.5z M593.5,104.5h-4v-2h4V104.5z M585.5,104.5h-4v-2h4V104.5z M577.5,104.5h-4v-2h4V104.5z M569.5,104.5h-4v-2h4V104.5z
	 M561.5,104.5h-4v-2h4V104.5z M553.5,104.5h-4v-2h4V104.5z M545.5,104.5h-4v-2h4V104.5z M537.5,104.5h-4v-2h4V104.5z M529.5,104.5
	h-4v-2h4V104.5z M521.5,104.5h-4v-2h4V104.5z M513.5,104.5h-4v-2h4V104.5z M505.5,104.5h-4v-2h4V104.5z M497.5,104.5h-4v-2h4V104.5z
	 M489.5,104.5h-4v-2h4V104.5z M481.5,104.5h-4v-2h4V104.5z M473.5,104.5h-4v-2h4V104.5z M465.5,104.5h-4v-2h4V104.5z M457.5,104.5
	h-4v-2h4V104.5z M449.5,104.5h-4v-2h4V104.5z M441.5,104.5h-4v-2h4V104.5z M433.5,104.5h-4v-2h4V104.5z M425.5,104.5h-4v-2h4V104.5z
	 M417.5,104.5h-4v-2h4V104.5z M409.5,104.5h-4v-2h4V104.5z M401.5,104.5h-4v-2h4V104.5z M393.5,104.5h-4v-2h4V104.5z M385.5,104.5
	h-4v-2h4V104.5z M377.5,104.5h-4v-2h4V104.5z M369.5,104.5h-4v-2h4V104.5z M361.5,104.5h-4v-2h4V104.5z M353.5,104.5h-4v-2h4V104.5z
	 M345.5,104.5h-4v-2h4V104.5z M337.5,104.5h-4v-2h4V104.5z M329.5,104.5h-4v-2h4V104.5z M321.5,104.5h-4v-2h4V104.5z M313.5,104.5
	h-4v-2h4V104.5z M305.5,104.5h-4v-2h4V104.5z M297.5,104.5h-4v-2h4V104.5z M289.5,104.5h-4v-2h4V104.5z M281.5,104.5h-4v-2h4V104.5z
	 M273.5,104.5h-4v-2h4V104.5z M265.5,104.5h-4v-2h4V104.5z M257.5,104.5h-4v-2h4V104.5z M249.5,104.5h-4v-2h4V104.5z M241.5,104.5
	h-4v-2h4V104.5z M233.5,104.5h-4v-2h4V104.5z M225.5,104.5h-4v-2h4V104.5z M217.5,104.5h-4v-2h4V104.5z M209.5,104.5h-4v-2h4V104.5z
	 M201.5,104.5h-4v-2h4V104.5z M193.5,104.5h-4v-2h4V104.5z M185.5,104.5h-4v-2h4V104.5z M177.5,104.5h-4v-2h4V104.5z M169.5,104.5
	h-4v-2h4V104.5z M161.5,104.5h-4v-2h4V104.5z M153.5,104.5h-4v-2h4V104.5z M145.5,104.5h-4v-2h4V104.5z M137.5,104.5h-4v-2h4V104.5z
	 M129.5,104.5h-4v-2h4V104.5z M121.5,104.5h-4v-2h4V104.5z M113.5,104.5h-4v-2h4V104.5z M105.5,104.5h-4v-2h4V104.5z M97.5,104.5h-4
	v-2h4V104.5z M89.5,104.5h-4v-2h4V104.5z M81.5,104.5h-4v-2h4V104.5z M73.5,104.5h-4v-2h4V104.5z M65.5,104.5h-4v-2h4V104.5z
	 M57.5,104.5h-4v-2h4V104.5z M49.5,104.5h-4v-2h4V104.5z M41.5,104.5h-4v-2h4V104.5z M33.5,104.5h-4v-2h4V104.5z M25.5,104.5h-4v-2
	h4V104.5z M17.5,104.5h-4v-2h4V104.5z M9.5,104.5h-4v-2h4V104.5z M1.5,104.5H0v-4.5h2v3.5H1.5V104.5z M1474.5,101.4h-2v-4h2V101.4z
	 M2,96.1H0v-4h2V96.1z M1474.5,93.4h-2v-4h2V93.4z M2,88.1H0v-4h2V88.1z M1474.5,85.4h-2v-4h2V85.4z M2,80.1H0v-4h2V80.1z
	 M1474.5,77.4h-2v-4h2V77.4z M2,72.1H0v-4h2V72.1z M1474.5,69.4h-2v-4h2V69.4z M2,64.1H0v-4h2V64.1z M1474.5,61.4h-2v-4h2V61.4z
	 M2,56.1H0v-4h2V56.1z M1474.5,53.4h-2v-4h2V53.4z M2,48.1H0v-4h2V48.1z M1474.5,45.4h-2v-4h2V45.4z M2,40.1H0v-4h2V40.1z
	 M1474.5,37.4h-2v-4h2V37.4z M2,32.1H0v-4h2V32.1z M1474.5,29.4h-2v-4h2V29.4z M2,24.1H0v-4h2V24.1z M1474.5,21.4h-2v-4h2V21.4z
	 M2,16.1H0v-4h2V16.1z M1474.5,13.4h-2v-4h2V13.4z M2,8.1H0v-4h2V8.1z M1474.5,5.4h-2v-4h2V5.4z M1469.9,2h-4V0h4V2z M1461.9,2h-4V0
	h4V2z M1453.9,2h-4V0h4V2z M1445.9,2h-4V0h4V2z M1437.9,2h-4V0h4V2z M1429.9,2h-4V0h4V2z M1421.9,2h-4V0h4V2z M1413.9,2h-4V0h4V2z
	 M1405.9,2h-4V0h4V2z M1397.9,2h-4V0h4V2z M1389.9,2h-4V0h4V2z M1381.9,2h-4V0h4V2z M1373.9,2h-4V0h4V2z M1365.9,2h-4V0h4V2z
	 M1357.9,2h-4V0h4V2z M1349.9,2h-4V0h4V2z M1341.9,2h-4V0h4V2z M1333.9,2h-4V0h4V2z M1325.9,2h-4V0h4V2z M1317.9,2h-4V0h4V2z
	 M1309.9,2h-4V0h4V2z M1301.9,2h-4V0h4V2z M1293.9,2h-4V0h4V2z M1285.9,2h-4V0h4V2z M1277.9,2h-4V0h4V2z M1269.9,2h-4V0h4V2z
	 M1261.9,2h-4V0h4V2z M1253.9,2h-4V0h4V2z M1245.9,2h-4V0h4V2z M1237.9,2h-4V0h4V2z M1229.9,2h-4V0h4V2z M1221.9,2h-4V0h4V2z
	 M1213.9,2h-4V0h4V2z M1205.9,2h-4V0h4V2z M1197.9,2h-4V0h4V2z M1189.9,2h-4V0h4V2z M1181.9,2h-4V0h4V2z M1173.9,2h-4V0h4V2z
	 M1165.9,2h-4V0h4V2z M1157.9,2h-4V0h4V2z M1149.9,2h-4V0h4V2z M1141.9,2h-4V0h4V2z M1133.9,2h-4V0h4V2z M1125.9,2h-4V0h4V2z
	 M1117.9,2h-4V0h4V2z M1109.9,2h-4V0h4V2z M1101.9,2h-4V0h4V2z M1093.9,2h-4V0h4V2z M1085.9,2h-4V0h4V2z M1077.9,2h-4V0h4V2z
	 M1069.9,2h-4V0h4V2z M1061.9,2h-4V0h4V2z M1053.9,2h-4V0h4V2z M1045.9,2h-4V0h4V2z M1037.9,2h-4V0h4V2z M1029.9,2h-4V0h4V2z
	 M1021.9,2h-4V0h4V2z M1013.9,2h-4V0h4V2z M1005.9,2h-4V0h4V2z M997.9,2h-4V0h4V2z M989.9,2h-4V0h4V2z M981.9,2h-4V0h4V2z M973.9,2
	h-4V0h4V2z M965.9,2h-4V0h4V2z M957.9,2h-4V0h4V2z M949.9,2h-4V0h4V2z M941.9,2h-4V0h4V2z M933.9,2h-4V0h4V2z M925.9,2h-4V0h4V2z
	 M917.9,2h-4V0h4V2z M909.9,2h-4V0h4V2z M901.9,2h-4V0h4V2z M893.9,2h-4V0h4V2z M885.9,2h-4V0h4V2z M877.9,2h-4V0h4V2z M869.9,2h-4
	V0h4V2z M861.9,2h-4V0h4V2z M853.9,2h-4V0h4V2z M845.9,2h-4V0h4V2z M837.9,2h-4V0h4V2z M829.9,2h-4V0h4V2z M821.9,2h-4V0h4V2z
	 M813.9,2h-4V0h4V2z M805.9,2h-4V0h4V2z M797.9,2h-4V0h4V2z M789.9,2h-4V0h4V2z M781.9,2h-4V0h4V2z M773.9,2h-4V0h4V2z M765.9,2h-4
	V0h4V2z M757.9,2h-4V0h4V2z M749.9,2h-4V0h4V2z M741.9,2h-4V0h4V2z M733.9,2h-4V0h4V2z M725.9,2h-4V0h4V2z M717.9,2h-4V0h4V2z
	 M709.9,2h-4V0h4V2z M701.9,2h-4V0h4V2z M693.9,2h-4V0h4V2z M685.9,2h-4V0h4V2z M677.9,2h-4V0h4V2z M669.9,2h-4V0h4V2z M661.9,2h-4
	V0h4V2z M653.9,2h-4V0h4V2z M645.9,2h-4V0h4V2z M637.9,2h-4V0h4V2z M629.9,2h-4V0h4V2z M621.9,2h-4V0h4V2z M613.9,2h-4V0h4V2z
	 M605.9,2h-4V0h4V2z M597.9,2h-4V0h4V2z M589.9,2h-4V0h4V2z M581.9,2h-4V0h4V2z M573.9,2h-4V0h4V2z M565.9,2h-4V0h4V2z M557.9,2h-4
	V0h4V2z M549.9,2h-4V0h4V2z M541.9,2h-4V0h4V2z M533.9,2h-4V0h4V2z M525.9,2h-4V0h4V2z M517.9,2h-4V0h4V2z M509.9,2h-4V0h4V2z
	 M501.9,2h-4V0h4V2z M493.9,2h-4V0h4V2z M485.9,2h-4V0h4V2z M477.9,2h-4V0h4V2z M469.9,2h-4V0h4V2z M461.9,2h-4V0h4V2z M453.9,2h-4
	V0h4V2z M445.9,2h-4V0h4V2z M437.9,2h-4V0h4V2z M429.9,2h-4V0h4V2z M421.9,2h-4V0h4V2z M413.9,2h-4V0h4V2z M405.9,2h-4V0h4V2z
	 M397.9,2h-4V0h4V2z M389.9,2h-4V0h4V2z M381.9,2h-4V0h4V2z M373.9,2h-4V0h4V2z M365.9,2h-4V0h4V2z M357.9,2h-4V0h4V2z M349.9,2h-4
	V0h4V2z M341.9,2h-4V0h4V2z M333.9,2h-4V0h4V2z M325.9,2h-4V0h4V2z M317.9,2h-4V0h4V2z M309.9,2h-4V0h4V2z M301.9,2h-4V0h4V2z
	 M293.9,2h-4V0h4V2z M285.9,2h-4V0h4V2z M277.9,2h-4V0h4V2z M269.9,2h-4V0h4V2z M261.9,2h-4V0h4V2z M253.9,2h-4V0h4V2z M245.9,2h-4
	V0h4V2z M237.9,2h-4V0h4V2z M229.9,2h-4V0h4V2z M221.9,2h-4V0h4V2z M213.9,2h-4V0h4V2z M205.9,2h-4V0h4V2z M197.9,2h-4V0h4V2z
	 M189.9,2h-4V0h4V2z M181.9,2h-4V0h4V2z M173.9,2h-4V0h4V2z M165.9,2h-4V0h4V2z M157.9,2h-4V0h4V2z M149.9,2h-4V0h4V2z M141.9,2h-4
	V0h4V2z M133.9,2h-4V0h4V2z M125.9,2h-4V0h4V2z M117.9,2h-4V0h4V2z M109.9,2h-4V0h4V2z M101.9,2h-4V0h4V2z M93.9,2h-4V0h4V2z
	 M85.9,2h-4V0h4V2z M77.9,2h-4V0h4V2z M69.9,2h-4V0h4V2z M61.9,2h-4V0h4V2z M53.9,2h-4V0h4V2z M45.9,2h-4V0h4V2z M37.9,2h-4V0h4V2z
	 M29.9,2h-4V0h4V2z M21.9,2h-4V0h4V2z M13.9,2h-4V0h4V2z M5.9,2h-4V0h4V2z"/>
</svg>
