<!-- Generator: Adobe Illustrator 19.2.0, SVG Export Plug-In  -->
<svg version="1.1"
	 xmlns="http://www.w3.org/2000/svg" xmlns:xlink="http://www.w3.org/1999/xlink" xmlns:a="http://ns.adobe.com/AdobeSVGViewerExtensions/3.0/"
	 x="0px" y="0px" width="182px" height="42.3px" viewBox="0 0 182 42.3" style="enable-background:new 0 0 182 42.3;"
	 xml:space="preserve">
<style type="text/css">
	.st0{fill:#FFFFFF;}
</style>
<defs>
</defs>
<g>
	<path class="st0" d="M8.3,42.3h165.3c4.6,0,8.3-3.8,8.3-8.3V8.3c0-4.6-3.8-8.3-8.3-8.3H8.3C3.8,0,0,3.8,0,8.3v25.6
		C0,38.5,3.8,42.3,8.3,42.3z"/>
	<g>
		<g>
			<path d="M47.3,9.2h1.6v9.1h-1.6V9.2z"/>
			<path d="M51.1,11.5h1.6v1.1c0.4-0.6,1.1-1.2,2.1-1.2c1.5,0,2.4,1,2.4,2.6v4.4h-1.6v-3.9c0-1.1-0.5-1.7-1.5-1.7
				c-0.9,0-1.5,0.6-1.5,1.7v3.9h-1.6V11.5z"/>
			<path d="M59.5,16.5v-3.6h-0.9v-1.4h0.9V9.6h1.6v1.9h1.8v1.4h-1.8v3.4c0,0.6,0.3,0.9,0.8,0.9c0.4,0,0.7-0.1,1-0.2v1.3
				c-0.4,0.2-0.8,0.4-1.4,0.4C60.3,18.5,59.5,18,59.5,16.5z"/>
			<path d="M63.9,14.9L63.9,14.9c0-2,1.4-3.6,3.4-3.6c2.2,0,3.3,1.7,3.3,3.7c0,0.1,0,0.3,0,0.4h-5c0.2,1.1,1,1.7,2,1.7
				c0.8,0,1.3-0.3,1.9-0.8l0.9,0.8c-0.7,0.8-1.5,1.3-2.8,1.3C65.5,18.5,63.9,17.1,63.9,14.9z M69,14.4c-0.1-1-0.7-1.8-1.7-1.8
				c-1,0-1.6,0.7-1.8,1.8H69z"/>
			<path d="M72.2,11.5h1.6V13c0.4-1,1.2-1.7,2.4-1.7V13h-0.1c-1.4,0-2.3,0.9-2.3,2.7v2.6h-1.6V11.5z"/>
			<path d="M77.3,13.6h3.8v1.5h-3.8V13.6z"/>
			<path d="M83,9.2h3.6c2.1,0,3.5,1.2,3.5,3v0c0,2-1.6,3.1-3.6,3.1h-1.8v2.9H83V9.2z M86.5,14c1.2,0,2-0.7,2-1.6v0
				c0-1.1-0.8-1.6-2-1.6h-1.9V14H86.5z"/>
			<path d="M91.1,15L91.1,15c0-2,1.6-3.6,3.7-3.6c2.1,0,3.7,1.6,3.7,3.6v0c0,1.9-1.6,3.6-3.7,3.6C92.6,18.5,91.1,16.9,91.1,15z
				 M96.8,15L96.8,15c0-1.2-0.9-2.2-2.1-2.2c-1.3,0-2.1,1-2.1,2.2v0c0,1.2,0.9,2.2,2.1,2.2C96,17.1,96.8,16.1,96.8,15z"/>
			<path d="M99.7,14.9L99.7,14.9c0-2.3,1.5-3.6,3.2-3.6c1.1,0,1.8,0.6,2.3,1.2V8.9h1.6v9.5h-1.6v-1.1c-0.5,0.7-1.2,1.3-2.3,1.3
				C101.2,18.5,99.7,17.2,99.7,14.9z M105.2,14.9L105.2,14.9c0-1.4-0.9-2.2-2-2.2c-1.1,0-2,0.8-2,2.2v0c0,1.3,0.9,2.2,2,2.2
				C104.3,17.1,105.2,16.2,105.2,14.9z"/>
			<path d="M46.8,29.4L46.8,29.4c0-2.6,1.9-4.7,4.7-4.7c1.7,0,2.7,0.6,3.6,1.4l-1,1.2c-0.7-0.7-1.5-1.1-2.5-1.1c-1.7,0-3,1.4-3,3.2
				v0c0,1.8,1.3,3.2,3,3.2c1.1,0,1.8-0.4,2.6-1.2l1,1c-0.9,1-2,1.6-3.7,1.6C48.7,34.1,46.8,32,46.8,29.4z"/>
			<path d="M56.1,30.6L56.1,30.6c0-2,1.6-3.6,3.7-3.6c2.1,0,3.7,1.6,3.7,3.6v0c0,1.9-1.6,3.6-3.7,3.6C57.6,34.1,56.1,32.5,56.1,30.6
				z M61.8,30.6L61.8,30.6c0-1.2-0.9-2.2-2.1-2.2c-1.3,0-2.1,1-2.1,2.2v0c0,1.2,0.9,2.2,2.1,2.2C61,32.7,61.8,31.7,61.8,30.6z"/>
			<path d="M65,27.1h1.6v1c0.4-0.6,1-1.2,2.1-1.2c1,0,1.7,0.5,2.1,1.2c0.5-0.7,1.3-1.2,2.3-1.2c1.5,0,2.4,0.9,2.4,2.6v4.4h-1.6V30
				c0-1.1-0.5-1.7-1.4-1.7c-0.9,0-1.5,0.6-1.5,1.7v3.9h-1.6V30c0-1.1-0.5-1.7-1.4-1.7s-1.5,0.6-1.5,1.7v3.9H65V27.1z"/>
			<path d="M77.3,27.1h1.6v1c0.4-0.6,1-1.2,2.1-1.2c1,0,1.7,0.5,2.1,1.2c0.5-0.7,1.3-1.2,2.3-1.2c1.5,0,2.4,0.9,2.4,2.6v4.4h-1.6V30
				c0-1.1-0.5-1.7-1.4-1.7c-0.9,0-1.5,0.6-1.5,1.7v3.9h-1.6V30c0-1.1-0.5-1.7-1.4-1.7s-1.5,0.6-1.5,1.7v3.9h-1.6V27.1z"/>
			<path d="M89.6,31.5v-4.4h1.6V31c0,1.1,0.5,1.7,1.5,1.7c0.9,0,1.5-0.6,1.5-1.7v-3.9h1.6v6.9h-1.6v-1.1c-0.4,0.6-1.1,1.2-2.1,1.2
				C90.5,34.1,89.6,33.1,89.6,31.5z"/>
			<path d="M97.8,27.1h1.6v1.1c0.4-0.6,1.1-1.2,2.1-1.2c1.5,0,2.4,1,2.4,2.6v4.4h-1.6V30c0-1.1-0.5-1.7-1.5-1.7
				c-0.9,0-1.5,0.6-1.5,1.7v3.9h-1.6V27.1z"/>
			<path d="M105.8,24.5h1.7V26h-1.7V24.5z M105.9,27.1h1.6v6.9h-1.6V27.1z"/>
			<path d="M109.2,30.6L109.2,30.6c0-2,1.5-3.6,3.6-3.6c1.3,0,2.1,0.5,2.7,1.2l-1,1.1c-0.5-0.5-1-0.9-1.8-0.9c-1.1,0-2,1-2,2.2v0
				c0,1.2,0.8,2.2,2.1,2.2c0.7,0,1.3-0.3,1.8-0.8l0.9,0.9c-0.7,0.8-1.5,1.3-2.8,1.3C110.7,34.1,109.2,32.5,109.2,30.6z"/>
			<path d="M116.5,32L116.5,32c0-1.5,1.2-2.2,2.8-2.2c0.8,0,1.3,0.1,1.8,0.3v-0.2c0-1-0.6-1.5-1.7-1.5c-0.8,0-1.3,0.2-2,0.4
				l-0.4-1.2c0.8-0.3,1.5-0.6,2.6-0.6c1,0,1.8,0.3,2.3,0.8c0.5,0.5,0.7,1.2,0.7,2.1v4.1h-1.5v-0.9c-0.5,0.6-1.2,1-2.2,1
				C117.6,34.1,116.5,33.4,116.5,32z M121.2,31.5V31c-0.4-0.2-0.9-0.3-1.6-0.3c-1,0-1.6,0.4-1.6,1.1v0c0,0.7,0.6,1,1.3,1
				C120.4,32.9,121.2,32.3,121.2,31.5z"/>
			<path d="M124.8,32.1v-3.6H124v-1.4h0.9v-1.9h1.6v1.9h1.8v1.4h-1.8v3.4c0,0.6,0.3,0.9,0.8,0.9c0.4,0,0.7-0.1,1-0.2v1.3
				c-0.4,0.2-0.8,0.4-1.4,0.4C125.7,34.1,124.8,33.6,124.8,32.1z"/>
			<path d="M129.9,24.5h1.7V26h-1.7V24.5z M130,27.1h1.6v6.9H130V27.1z"/>
			<path d="M133.2,30.6L133.2,30.6c0-2,1.6-3.6,3.7-3.6c2.1,0,3.7,1.6,3.7,3.6v0c0,1.9-1.6,3.6-3.7,3.6
				C134.8,34.1,133.2,32.5,133.2,30.6z M138.9,30.6L138.9,30.6c0-1.2-0.9-2.2-2.1-2.2c-1.3,0-2.1,1-2.1,2.2v0c0,1.2,0.9,2.2,2.1,2.2
				C138.1,32.7,138.9,31.7,138.9,30.6z"/>
			<path d="M142.1,27.1h1.6v1.1c0.4-0.6,1.1-1.2,2.1-1.2c1.5,0,2.4,1,2.4,2.6v4.4h-1.6V30c0-1.1-0.5-1.7-1.5-1.7
				c-0.9,0-1.5,0.6-1.5,1.7v3.9h-1.6V27.1z"/>
		</g>
	</g>
</g>
</svg>
