<!-- Generator: Adobe Illustrator 19.2.0, SVG Export Plug-In  -->
<svg version="1.1"
	 xmlns="http://www.w3.org/2000/svg" xmlns:xlink="http://www.w3.org/1999/xlink" xmlns:a="http://ns.adobe.com/AdobeSVGViewerExtensions/3.0/"
	 x="0px" y="0px" width="182px" height="42.3px" viewBox="0 0 182 42.3" style="enable-background:new 0 0 182 42.3;"
	 xml:space="preserve">
<style type="text/css">
	.st0{fill:#FDB813;}
</style>
<defs>
</defs>
<g>
	<path class="st0" d="M8,42.3h166c4.4,0,8-3.6,8-8V8c0-4.4-3.6-8-8-8H8C3.6,0,0,3.6,0,8v26.3C0,38.7,3.6,42.3,8,42.3z"/>
	<g>
		<path d="M57.5,9.2h1.7l2.2,6.7l2.2-6.8H65l2.2,6.8l2.2-6.7H71l-3.2,9.2h-1.4l-2.2-6.5L62,18.4h-1.4L57.5,9.2z"/>
		<path d="M74.7,9.2h1.5l4,9.2h-1.7l-0.9-2.2h-4.3l-0.9,2.2h-1.6L74.7,9.2z M77,14.7l-1.6-3.6l-1.6,3.6H77z"/>
		<path d="M81.8,9.2h1.5l4.9,6.3V9.2h1.6v9.1h-1.3l-5-6.5v6.5h-1.6V9.2z"/>
		<path d="M96.4,8h1.4l-5.9,12h-1.4L96.4,8z"/>
		<path d="M98.8,9.2h1.7l2.8,4.3l2.8-4.3h1.7v9.1h-1.6v-6.5l-2.9,4.3h-0.1l-2.8-4.3v6.5h-1.6V9.2z"/>
		<path d="M110.1,9.2h3.6c2.1,0,3.5,1.2,3.5,3v0c0,2-1.6,3.1-3.6,3.1h-1.8v2.9h-1.6V9.2z M113.6,14c1.2,0,2-0.7,2-1.6v0
			c0-1.1-0.8-1.6-2-1.6h-1.9V14H113.6z"/>
		<path d="M118.8,9.2h1.6v7.6h4.8v1.5h-6.4V9.2z"/>
		<path d="M126.2,17l1-1.1c0.9,0.8,1.8,1.2,2.9,1.2c1,0,1.6-0.5,1.6-1.1v0c0-0.6-0.4-1-2.1-1.4c-1.9-0.5-3-1-3-2.7v0
			c0-1.6,1.3-2.6,3.1-2.6c1.3,0,2.4,0.4,3.3,1.1l-0.9,1.2c-0.8-0.6-1.6-0.9-2.5-0.9c-0.9,0-1.5,0.5-1.5,1.1v0c0,0.7,0.4,1,2.2,1.4
			c1.9,0.5,2.9,1.2,2.9,2.7v0c0,1.7-1.3,2.7-3.3,2.7C128.6,18.5,127.3,18,126.2,17z"/>
		<path d="M57.8,29.4L57.8,29.4c0-2.6,1.9-4.7,4.7-4.7c1.7,0,2.7,0.6,3.6,1.4l-1,1.2c-0.7-0.7-1.5-1.1-2.5-1.1c-1.7,0-3,1.4-3,3.2v0
			c0,1.8,1.3,3.2,3,3.2c1.1,0,1.8-0.4,2.6-1.2l1,1c-0.9,1-2,1.6-3.7,1.6C59.7,34.1,57.8,32,57.8,29.4z"/>
		<path d="M67.1,30.6L67.1,30.6c0-2,1.6-3.6,3.7-3.6c2.1,0,3.7,1.6,3.7,3.6v0c0,1.9-1.6,3.6-3.7,3.6C68.6,34.1,67.1,32.5,67.1,30.6z
			 M72.8,30.6L72.8,30.6c0-1.2-0.9-2.2-2.1-2.2c-1.3,0-2.1,1-2.1,2.2v0c0,1.2,0.9,2.2,2.1,2.2C72,32.7,72.8,31.7,72.8,30.6z"/>
		<path d="M76,27.1h1.6v1c0.4-0.6,1-1.2,2.1-1.2c1,0,1.7,0.5,2.1,1.2c0.5-0.7,1.3-1.2,2.3-1.2c1.5,0,2.4,0.9,2.4,2.6v4.4h-1.6V30
			c0-1.1-0.5-1.7-1.4-1.7c-0.9,0-1.5,0.6-1.5,1.7v3.9h-1.6V30c0-1.1-0.5-1.7-1.4-1.7s-1.5,0.6-1.5,1.7v3.9H76V27.1z"/>
		<path d="M88.3,27.1h1.6v1c0.4-0.6,1-1.2,2.1-1.2c1,0,1.7,0.5,2.1,1.2c0.5-0.7,1.3-1.2,2.3-1.2c1.5,0,2.4,0.9,2.4,2.6v4.4h-1.6V30
			c0-1.1-0.5-1.7-1.4-1.7c-0.9,0-1.5,0.6-1.5,1.7v3.9h-1.6V30c0-1.1-0.5-1.7-1.4-1.7s-1.5,0.6-1.5,1.7v3.9h-1.6V27.1z"/>
		<path d="M100.6,31.5v-4.4h1.6V31c0,1.1,0.5,1.7,1.5,1.7c0.9,0,1.5-0.6,1.5-1.7v-3.9h1.6v6.9h-1.6v-1.1c-0.4,0.6-1.1,1.2-2.1,1.2
			C101.5,34.1,100.6,33.1,100.6,31.5z"/>
		<path d="M108.8,27.1h1.6v1.1c0.4-0.6,1.1-1.2,2.1-1.2c1.5,0,2.4,1,2.4,2.6v4.4h-1.6V30c0-1.1-0.5-1.7-1.5-1.7
			c-0.9,0-1.5,0.6-1.5,1.7v3.9h-1.6V27.1z"/>
		<path d="M116.8,24.5h1.7V26h-1.7V24.5z M116.9,27.1h1.6v6.9h-1.6V27.1z"/>
		<path d="M120.2,30.6L120.2,30.6c0-2,1.5-3.6,3.6-3.6c1.3,0,2.1,0.5,2.7,1.2l-1,1.1c-0.5-0.5-1-0.9-1.8-0.9c-1.1,0-2,1-2,2.2v0
			c0,1.2,0.8,2.2,2.1,2.2c0.7,0,1.3-0.3,1.8-0.8l0.9,0.9c-0.7,0.8-1.5,1.3-2.8,1.3C121.7,34.1,120.2,32.5,120.2,30.6z"/>
		<path d="M127.5,32L127.5,32c0-1.5,1.2-2.2,2.8-2.2c0.8,0,1.3,0.1,1.8,0.3v-0.2c0-1-0.6-1.5-1.7-1.5c-0.8,0-1.3,0.2-2,0.4l-0.4-1.2
			c0.8-0.3,1.5-0.6,2.6-0.6c1,0,1.8,0.3,2.3,0.8c0.5,0.5,0.7,1.2,0.7,2.1v4.1h-1.5v-0.9c-0.5,0.6-1.2,1-2.2,1
			C128.6,34.1,127.5,33.4,127.5,32z M132.2,31.5V31c-0.4-0.2-0.9-0.3-1.6-0.3c-1,0-1.6,0.4-1.6,1.1v0c0,0.7,0.6,1,1.3,1
			C131.4,32.9,132.2,32.3,132.2,31.5z"/>
		<path d="M135.8,32.1v-3.6H135v-1.4h0.9v-1.9h1.6v1.9h1.8v1.4h-1.8v3.4c0,0.6,0.3,0.9,0.8,0.9c0.4,0,0.7-0.1,1-0.2v1.3
			c-0.4,0.2-0.8,0.4-1.4,0.4C136.7,34.1,135.8,33.6,135.8,32.1z"/>
		<path d="M140.9,24.5h1.7V26h-1.7V24.5z M141,27.1h1.6v6.9H141V27.1z"/>
		<path d="M144.2,30.6L144.2,30.6c0-2,1.6-3.6,3.7-3.6c2.1,0,3.7,1.6,3.7,3.6v0c0,1.9-1.6,3.6-3.7,3.6
			C145.8,34.1,144.2,32.5,144.2,30.6z M150,30.6L150,30.6c0-1.2-0.9-2.2-2.1-2.2c-1.3,0-2.1,1-2.1,2.2v0c0,1.2,0.9,2.2,2.1,2.2
			C149.1,32.7,150,31.7,150,30.6z"/>
		<path d="M153.1,27.1h1.6v1.1c0.4-0.6,1.1-1.2,2.1-1.2c1.5,0,2.4,1,2.4,2.6v4.4h-1.6V30c0-1.1-0.5-1.7-1.5-1.7
			c-0.9,0-1.5,0.6-1.5,1.7v3.9h-1.6V27.1z"/>
	</g>
</g>
</svg>
