<?xml version="1.0" encoding="utf-8"?>
<!-- Generator: Adobe Illustrator 19.1.0, SVG Export Plug-In . SVG Version: 6.00 Build 0)  -->
<svg version="1.1" id="Layer_1" xmlns="http://www.w3.org/2000/svg" xmlns:xlink="http://www.w3.org/1999/xlink" x="0px" y="0px"
	 viewBox="-154 57 301.1 680" style="enable-background:new -154 57 301.1 680;" xml:space="preserve">
<style type="text/css">
	.st0{fill:#949937;}
	.st1{fill:#F1F1F1;stroke:#949937;stroke-width:2;stroke-miterlimit:10;}
	.st2{enable-background:new    ;}
	.st3{fill:#FFFFFF;}
	.st4{fill:#687F8F;}
	.st5{fill:#BBC0C5;}
	.st6{opacity:0.1;}
	.st7{fill:#99CCE7;}
	.st8{fill:#99CBE4;}
	.st9{fill:#0F3535;}
	.st10{fill:#4DA747;}
	.st11{fill:#0C9046;}
	.st12{fill:#2C97D3;}
	.st13{fill:#138585;}
	.st14{fill:#232657;}
	.st15{fill:#3A7F3D;}
	.st16{fill:#408740;}
	.st17{fill:#8EC03F;}
	.st18{fill:#72C5A0;}
	.st19{fill:#2E9CD7;}
	.st20{fill:#1575B1;}
	.st21{fill:#C3D6A2;}
	.st22{fill:#517034;}
	.st23{fill:#1C4725;}
	.st24{fill:#93CA87;}
	.st25{fill:#5E9441;}
	.st26{fill:#6CBEEA;}
	.st27{fill:#3E73B5;}
	.st28{fill:#E6E9E7;}
	.st29{fill:#486377;}
	.st30{fill:#36495E;}
	.st31{fill:#2C3E50;}
	.st32{fill:#92A2A2;}
	.st33{fill:#3B95D1;}
	.st34{fill:#457092;}
	.st35{opacity:0.9;fill:#46B1D6;enable-background:new    ;}
	.st36{fill:url(#SVGID_1_);}
</style>
<polygon class="st0" points="-143.2,57.2 -154,71.4 -154,638.2 -143.2,649 "/>
<rect x="-142.2" y="58" class="st1" width="288" height="590"/>
<g>
	<rect x="-140.9" y="693" class="st0" width="288" height="44"/>
	<g class="st2">
		<path class="st3" d="M-26,705.1h12.5v2.6h-9.5v4.4h8.4v2.6h-8.4v4.5h9.6v2.6H-26V705.1z"/>
		<path class="st3" d="M-11.2,715.6L-11.2,715.6c0-4.2,2.9-6.6,5.9-6.6c2.1,0,3.4,1,4.3,2.2v-6.8h2.9v17.5H-1v-2.1
			c-0.9,1.3-2.3,2.4-4.3,2.4C-8.3,722.2-11.2,719.8-11.2,715.6z M-0.9,715.6L-0.9,715.6c0-2.5-1.7-4.1-3.7-4.1c-2,0-3.6,1.5-3.6,4.1
			v0c0,2.4,1.7,4.1,3.6,4.1C-2.7,719.6-0.9,718-0.9,715.6z"/>
		<path class="st3" d="M5.6,724.3l1.1-2.2c1.4,0.8,2.8,1.3,4.5,1.3c2.6,0,4-1.3,4-3.9v-1c-1.1,1.4-2.4,2.3-4.5,2.3
			c-3,0-5.8-2.2-5.8-5.9v0c0-3.7,2.8-6,5.8-6c2.1,0,3.5,1,4.4,2.2v-1.9H18v10.1c0,2.1-0.6,3.7-1.6,4.8c-1.2,1.2-2.9,1.7-5.2,1.7
			C9.1,725.8,7.2,725.3,5.6,724.3z M15.2,714.9L15.2,714.9c0-2.1-1.7-3.5-3.7-3.5c-2,0-3.6,1.4-3.6,3.5v0c0,2.1,1.6,3.5,3.6,3.5
			C13.5,718.4,15.2,717,15.2,714.9z"/>
		<path class="st3" d="M21,715.6L21,715.6c0-3.7,2.6-6.6,6.2-6.6c4,0,6.1,3.2,6.1,6.8c0,0.3,0,0.5,0,0.8h-9.3
			c0.3,2.1,1.8,3.2,3.6,3.2c1.4,0,2.4-0.5,3.4-1.5l1.7,1.5c-1.2,1.4-2.9,2.4-5.2,2.4C23.8,722.2,21,719.5,21,715.6z M30.4,714.7
			c-0.2-1.9-1.3-3.3-3.2-3.3c-1.8,0-3,1.4-3.3,3.3H30.4z"/>
	</g>
</g>
<g>
	<g>
		<g>
			<g>
				<g>
					<g>
						<g>
							<g>
								<g>
									<rect x="-93.7" y="96.8" class="st4" width="111.8" height="112.7"/>
									<g>
										<g>
											<g>
												<g>
													<path class="st5" d="M16.3,98.6v109.1H-91.9V98.6H16.3 M19.9,95h-3.6H-91.9h-3.6v3.6v109.1v3.6h3.6H16.4H20v-3.6V98.6
														V95H19.9z"/>
												</g>
											</g>
										</g>
									</g>
								</g>
							</g>
						</g>
					</g>
				</g>
				<g class="st6">
					<polygon class="st7" points="-92.1,135.2 -92.1,117 -74,117 					"/>
					<polygon class="st8" points="-74,117 -74,98.8 -92.1,98.8 					"/>
					<polygon class="st9" points="-1.9,117 -1.9,135.1 -20,135.1 					"/>
					<polygon class="st10" points="-20,98.8 -1.9,98.8 -1.9,117 					"/>
					<polygon class="st11" points="-20,98.8 -20,117 -1.9,117 					"/>
					<polygon class="st12" points="-19.9,98.8 -19.9,117 -38,117 					"/>
					<polygon class="st13" points="-20,135.2 -38,135.2 -38,117 					"/>
					<polygon class="st14" points="-56,135.2 -38,135.2 -38,117 					"/>
					<polygon class="st15" points="-19.9,135.1 -19.9,117 -1.9,117 					"/>
					<polygon class="st16" points="16.1,98.8 -1.9,98.8 -1.9,117 					"/>
					<polygon class="st17" points="16.1,98.8 16.1,117 -1.9,117 					"/>
					<polygon class="st18" points="16.1,135.1 16.1,117 -1.9,117 					"/>
					<polygon class="st10" points="-1.9,117 -1.9,135.2 16.1,135.2 					"/>
					<polygon class="st19" points="-56,98.8 -38,98.8 -38,117 					"/>
					<polygon class="st20" points="-56,135.2 -56,117 -74.1,117 					"/>
					<polygon class="st21" points="-20,135.1 -38,135.1 -38,153.3 					"/>
					<polygon class="st22" points="-19.9,135.1 -19.9,153.3 -1.9,153.3 					"/>
					<polygon class="st23" points="-1.9,153.3 -1.9,135.1 -20,135.1 					"/>
					<polygon class="st24" points="16.1,135.1 16.1,153.3 -1.9,153.3 					"/>
					<polygon class="st25" points="-1.9,153.3 -1.9,135.1 16.1,135.1 					"/>
					<polygon class="st26" points="-56,135.1 -74.1,135.1 -74.1,153.3 					"/>
					<polygon class="st27" points="-56,135.1 -56,153.3 -38,153.3 					"/>
				</g>
				<g class="st6">
					<polygon class="st7" points="-92.1,189.7 -92.1,171.5 -74.1,171.5 					"/>
					<polygon class="st8" points="-74.1,171.5 -74.1,153.3 -92.1,153.3 					"/>
					<polygon class="st9" points="-2,171.5 -2,189.7 -20,189.7 					"/>
					<polygon class="st10" points="-20,153.3 -2,153.3 -2,171.5 					"/>
					<polygon class="st11" points="-20,153.3 -20,171.5 -2,171.5 					"/>
					<polygon class="st12" points="-20,153.3 -20,171.5 -38,171.5 					"/>
					<polygon class="st13" points="-20,189.7 -38,189.7 -38,171.5 					"/>
					<polygon class="st14" points="-56.1,189.7 -38,189.7 -38,171.5 					"/>
					<polygon class="st15" points="-20,189.7 -20,171.5 -1.9,171.5 					"/>
					<polygon class="st16" points="16.1,153.3 -2,153.3 -2,171.5 					"/>
					<polygon class="st17" points="16.1,153.3 16.1,171.5 -2,171.5 					"/>
					<polygon class="st18" points="16.1,189.7 16.1,171.5 -2,171.5 					"/>
					<polygon class="st10" points="-2,171.5 -2,189.7 16.1,189.7 					"/>
					<polygon class="st19" points="-56.1,153.3 -38,153.3 -38,171.5 					"/>
					<polygon class="st20" points="-56.1,189.7 -56.1,171.5 -74.1,171.5 					"/>
					<polygon class="st21" points="-20,189.7 -38,189.7 -38,207.8 					"/>
					<polygon class="st22" points="-20,189.7 -20,207.9 -1.9,207.9 					"/>
					<polygon class="st23" points="-2,207.9 -2,189.7 -20,189.7 					"/>
					<polygon class="st24" points="16.1,189.7 16.1,207.9 -2,207.9 					"/>
					<polygon class="st25" points="-2,207.9 -2,189.7 16.1,189.7 					"/>
					<polygon class="st26" points="-56.1,189.7 -74.1,189.7 -74.1,207.8 					"/>
					<polygon class="st27" points="-56.1,189.7 -56.1,207.9 -38,207.9 					"/>
				</g>
			</g>
			<g>
				<polygon class="st28" points="-1.1,115.4 -10.7,108.4 -10.7,112.6 -74.5,112.6 -74.5,118 -10.7,118 -10.7,122 				"/>
				<polygon class="st28" points="-74.5,140.7 -64.9,133.7 -64.9,137.9 -1.1,137.9 -1.1,143.3 -64.9,143.3 -64.9,147.3 				"/>
				<polygon class="st28" points="-1.1,166 -10.7,159 -10.7,163.2 -74.5,163.2 -74.5,168.6 -10.7,168.6 -10.7,172.6 				"/>
				<polygon class="st28" points="-74.5,191.3 -64.9,184.3 -64.9,188.5 -1.1,188.5 -1.1,193.9 -64.9,193.9 -64.9,197.9 				"/>
			</g>
		</g>
		<g>
			<g>
				<g>
					<g>
						<g>
							<g>
								<g>
									<rect x="-18.2" y="127.9" class="st4" width="111.8" height="112.7"/>
									<g>
										<g>
											<g>
												<g>
													<path class="st5" d="M91.9,129.7v109.1H-16.4V129.7H91.9 M95.4,126.1h-6.6H-19.4H-20v3.6v109.1v3.6h3.6H91.9h3.6v-3.6
														V129.7v-3.6H95.4z"/>
												</g>
											</g>
										</g>
									</g>
								</g>
							</g>
						</g>
					</g>
				</g>
				<g class="st6">
					<polygon class="st7" points="-16.5,166.3 -16.5,148.1 1.5,148.1 					"/>
					<polygon class="st8" points="1.5,148.1 1.5,129.9 -16.5,129.9 					"/>
					<polygon class="st9" points="73.6,148.1 73.6,166.3 55.6,166.3 					"/>
					<polygon class="st10" points="55.6,129.9 73.6,129.9 73.6,148.1 					"/>
					<polygon class="st11" points="55.6,129.9 55.6,148.1 73.6,148.1 					"/>
					<polygon class="st12" points="55.6,129.9 55.6,148.1 37.5,148.1 					"/>
					<polygon class="st13" points="55.6,166.3 37.5,166.3 37.5,148.1 					"/>
					<polygon class="st14" points="19.5,166.3 37.5,166.3 37.5,148.1 					"/>
					<polygon class="st15" points="55.6,166.3 55.6,148.1 73.6,148.1 					"/>
					<polygon class="st16" points="91.7,129.9 73.6,129.9 73.6,148.1 					"/>
					<polygon class="st17" points="91.7,129.9 91.7,148.1 73.6,148.1 					"/>
					<polygon class="st18" points="91.7,166.3 91.7,148.1 73.6,148.1 					"/>
					<polygon class="st10" points="73.6,148.1 73.6,166.3 91.7,166.3 					"/>
					<polygon class="st19" points="19.5,129.9 37.5,129.9 37.5,148.1 					"/>
					<polygon class="st20" points="19.5,166.3 19.5,148.1 1.5,148.1 					"/>
					<polygon class="st21" points="55.6,166.3 37.5,166.3 37.5,184.5 					"/>
					<polygon class="st22" points="55.6,166.3 55.6,184.5 73.6,184.5 					"/>
					<polygon class="st23" points="73.6,184.5 73.6,166.3 55.6,166.3 					"/>
					<polygon class="st24" points="91.7,166.3 91.7,184.5 73.6,184.5 					"/>
					<polygon class="st25" points="73.6,184.5 73.6,166.3 91.7,166.3 					"/>
					<polygon class="st26" points="19.5,166.3 1.5,166.3 1.5,184.5 					"/>
					<polygon class="st27" points="19.5,166.3 19.5,184.5 37.6,184.5 					"/>
				</g>
				<g class="st6">
					<polygon class="st7" points="-16.6,220.9 -16.6,202.7 1.5,202.7 					"/>
					<polygon class="st8" points="1.5,202.7 1.5,184.5 -16.6,184.5 					"/>
					<polygon class="st9" points="73.6,202.7 73.6,220.9 55.5,220.9 					"/>
					<polygon class="st10" points="55.5,184.5 73.6,184.5 73.6,202.7 					"/>
					<polygon class="st11" points="55.5,184.5 55.5,202.7 73.6,202.7 					"/>
					<polygon class="st12" points="55.5,184.5 55.5,202.7 37.5,202.7 					"/>
					<polygon class="st13" points="55.5,220.9 37.5,220.9 37.5,202.7 					"/>
					<polygon class="st14" points="19.5,220.9 37.5,220.9 37.5,202.7 					"/>
					<polygon class="st15" points="55.5,220.8 55.5,202.7 73.6,202.7 					"/>
					<polygon class="st16" points="91.6,184.5 73.6,184.5 73.6,202.7 					"/>
					<polygon class="st17" points="91.6,184.5 91.6,202.7 73.6,202.7 					"/>
					<polygon class="st18" points="91.6,220.8 91.6,202.7 73.6,202.7 					"/>
					<polygon class="st10" points="73.6,202.7 73.6,220.9 91.6,220.9 					"/>
					<polygon class="st19" points="19.5,184.5 37.5,184.5 37.5,202.7 					"/>
					<polygon class="st20" points="19.5,220.9 19.5,202.7 1.4,202.7 					"/>
					<polygon class="st21" points="55.5,220.8 37.5,220.8 37.5,239 					"/>
					<polygon class="st22" points="55.5,220.8 55.5,239 73.6,239 					"/>
					<polygon class="st23" points="73.6,239 73.6,220.8 55.5,220.8 					"/>
					<polygon class="st24" points="91.6,220.8 91.6,239 73.6,239 					"/>
					<polygon class="st25" points="73.6,239 73.6,220.8 91.6,220.8 					"/>
					<polygon class="st26" points="19.5,220.8 1.4,220.8 1.4,239 					"/>
					<polygon class="st27" points="19.5,220.8 19.5,239 37.5,239 					"/>
				</g>
			</g>
			<g>
				<polygon class="st28" points="74.5,146.6 64.9,139.6 64.9,143.8 1,143.8 1,149.2 64.9,149.2 64.9,153.1 				"/>
				<polygon class="st28" points="1,171.8 10.6,164.9 10.6,169.1 74.5,169.1 74.5,174.5 10.6,174.5 10.6,178.4 				"/>
				<polygon class="st28" points="74.5,197.1 64.9,190.2 64.9,194.4 1,194.4 1,199.8 64.9,199.8 64.9,203.7 				"/>
				<polygon class="st28" points="1,222.4 10.6,215.5 10.6,219.7 74.5,219.7 74.5,225.1 10.6,225.1 10.6,229 				"/>
			</g>
		</g>
		<g>
			<g>
				<g>
					<rect x="-126.7" y="363.5" class="st29" width="175.5" height="39.7"/>
				</g>
				<rect x="-122.5" y="368.9" class="st30" width="166.6" height="29"/>
				<g>
					<g>
						<ellipse class="st5" cx="-39" cy="383.3" rx="5.6" ry="5.6"/>
						<ellipse class="st31" cx="-39" cy="383.3" rx="4" ry="4.1"/>
					</g>
					<g>
						<rect x="-110.8" y="371.6" class="st32" width="57" height="11.1"/>
						<rect x="-110.8" y="384.2" class="st32" width="57" height="11.1"/>
					</g>
					<g>
						<rect x="-24.2" y="371.6" class="st32" width="57" height="11.1"/>
						<rect x="-24.2" y="384.2" class="st32" width="57" height="11.1"/>
					</g>
				</g>
				<g>
					<rect x="-121.5" y="381.5" class="st5" width="9.3" height="3.8"/>
					<rect x="-120.9" y="381.9" class="st31" width="8.1" height="2.9"/>
				</g>
				<ellipse class="st33" cx="38.5" cy="383.3" rx="2.1" ry="2.1"/>
			</g>
			<g>
				<g>
					<rect x="-126.7" y="403.2" class="st29" width="175.5" height="39.7"/>
				</g>
				<rect x="-122.5" y="408.6" class="st30" width="166.6" height="29"/>
				<g>
					<g>
						<ellipse class="st5" cx="-39" cy="423.1" rx="5.6" ry="5.6"/>
						<ellipse class="st31" cx="-39" cy="423.1" rx="4" ry="4.1"/>
					</g>
					<g>
						<rect x="-110.8" y="411.3" class="st32" width="57" height="11.1"/>
						<rect x="-110.8" y="423.9" class="st32" width="57" height="11.1"/>
					</g>
					<g>
						<rect x="-24.2" y="411.3" class="st32" width="57" height="11.1"/>
						<rect x="-24.2" y="423.9" class="st32" width="57" height="11.1"/>
					</g>
				</g>
				<g>
					<rect x="-121.5" y="421.2" class="st5" width="9.3" height="3.8"/>
					<rect x="-120.9" y="421.6" class="st31" width="8.1" height="2.9"/>
				</g>
				<ellipse class="st33" cx="38.5" cy="423.1" rx="2.1" ry="2.1"/>
			</g>
			<g>
				<g>
					<rect x="-126.7" y="443" class="st29" width="175.5" height="39.7"/>
				</g>
				<rect x="-122.5" y="448.4" class="st30" width="166.6" height="29"/>
				<g>
					<g>
						<ellipse class="st5" cx="-39" cy="462.8" rx="5.6" ry="5.6"/>
						<ellipse class="st31" cx="-39" cy="462.8" rx="4" ry="4.1"/>
					</g>
					<g>
						<rect x="-110.8" y="451" class="st32" width="57" height="11.1"/>
						<rect x="-110.8" y="463.6" class="st32" width="57" height="11.1"/>
					</g>
					<g>
						<rect x="-24.2" y="451" class="st32" width="57" height="11.1"/>
						<rect x="-24.2" y="463.6" class="st32" width="57" height="11.1"/>
					</g>
				</g>
				<g>
					<rect x="-121.5" y="460.9" class="st5" width="9.3" height="3.8"/>
					<rect x="-120.9" y="461.4" class="st31" width="8.1" height="2.9"/>
				</g>
				<ellipse class="st33" cx="38.5" cy="462.8" rx="2.1" ry="2.1"/>
			</g>
			<g>
				<g>
					<path class="st34" d="M67.1,311.5l1.3-3.1c0.4-0.9,1.2-1.4,2-1.4h50c0.8,0,1.6,0.6,2,1.4l1.3,3.1H67.1z"/>
					<path class="st35" d="M122.2,325.9H68.6c-2.2,0-4-1.8-4-4v-9.1c0-2.2,1.8-4,4-4h53.6c2.2,0,4,1.8,4,4v9.1
						C126.2,324.1,124.4,325.9,122.2,325.9z"/>
					<path class="st35" d="M122.2,346.4H68.6c-2.2,0-4-1.8-4-4v-9.1c0-2.2,1.8-4,4-4h53.6c2.2,0,4,1.8,4,4v9.1
						C126.2,344.6,124.4,346.4,122.2,346.4z"/>
					<path class="st35" d="M122.2,367.3H68.6c-2.2,0-4-1.8-4-4v-9.1c0-2.2,1.8-4,4-4h53.6c2.2,0,4,1.8,4,4v9.1
						C126.2,365.5,124.4,367.3,122.2,367.3z"/>
					<rect x="67.1" y="325.1" class="st34" width="56.6" height="4.6"/>
					<rect x="67.1" y="346.1" class="st34" width="56.6" height="4.6"/>
					<path class="st34" d="M67.1,366.5l1.3,3.1c0.4,0.9,1.2,1.4,2,1.4h50c0.8,0,1.6-0.6,2-1.4l1.3-3.1H67.1z"/>
				</g>
				<g>
					<path class="st34" d="M67.1,390.9l1.3-3.1c0.4-0.9,1.2-1.4,2-1.4h50c0.8,0,1.6,0.6,2,1.4l1.3,3.1H67.1z"/>
					<path class="st35" d="M122.2,405.3H68.6c-2.2,0-4-1.8-4-4v-9.1c0-2.2,1.8-4,4-4h53.6c2.2,0,4,1.8,4,4v9.1
						C126.2,403.5,124.4,405.3,122.2,405.3z"/>
					<path class="st35" d="M122.2,425.9H68.6c-2.2,0-4-1.8-4-4v-9.1c0-2.2,1.8-4,4-4h53.6c2.2,0,4,1.8,4,4v9.1
						C126.2,424.1,124.4,425.9,122.2,425.9z"/>
					<path class="st35" d="M122.2,446.7H68.6c-2.2,0-4-1.8-4-4v-9.1c0-2.2,1.8-4,4-4h53.6c2.2,0,4,1.8,4,4v9.1
						C126.2,444.9,124.4,446.7,122.2,446.7z"/>
					<rect x="67.1" y="404.5" class="st34" width="56.6" height="4.6"/>
					<rect x="67.1" y="425.5" class="st34" width="56.6" height="4.6"/>
					<path class="st34" d="M67.1,445.9l1.3,3.1c0.4,0.9,1.2,1.4,2,1.4h50c0.8,0,1.6-0.6,2-1.4l1.3-3.1H67.1z"/>
				</g>
				<g>
					<path class="st34" d="M67.1,470.3l1.3-3.1c0.4-0.9,1.2-1.4,2-1.4h50c0.8,0,1.6,0.6,2,1.4l1.3,3.1H67.1z"/>
					<path class="st35" d="M122.2,484.7H68.6c-2.2,0-4-1.8-4-4v-9.1c0-2.2,1.8-4,4-4h53.6c2.2,0,4,1.8,4,4v9.1
						C126.2,482.9,124.4,484.7,122.2,484.7z"/>
					<path class="st35" d="M122.2,505.3H68.6c-2.2,0-4-1.8-4-4v-9.1c0-2.2,1.8-4,4-4h53.6c2.2,0,4,1.8,4,4v9.1
						C126.2,503.5,124.4,505.3,122.2,505.3z"/>
					<path class="st35" d="M122.2,526.1H68.6c-2.2,0-4-1.8-4-4V513c0-2.2,1.8-4,4-4h53.6c2.2,0,4,1.8,4,4v9.1
						C126.2,524.3,124.4,526.1,122.2,526.1z"/>
					<rect x="67.1" y="484" class="st34" width="56.6" height="4.6"/>
					<rect x="67.1" y="505" class="st34" width="56.6" height="4.6"/>
					<path class="st34" d="M67.1,525.4l1.3,3.1c0.4,0.9,1.2,1.4,2,1.4h50c0.8,0,1.6-0.6,2-1.4l1.3-3.1H67.1z"/>
				</g>
				
					<linearGradient id="SVGID_1_" gradientUnits="userSpaceOnUse" x1="96.3" y1="268.3" x2="96.3" y2="489" gradientTransform="matrix(1 0 0 -1 0 796)">
					<stop  offset="0" style="stop-color:#486378;stop-opacity:0"/>
					<stop  offset="0.1281" style="stop-color:#486378"/>
					<stop  offset="0.8818" style="stop-color:#486378"/>
					<stop  offset="1" style="stop-color:#486378;stop-opacity:0"/>
				</linearGradient>
				<rect x="76.9" y="307" class="st36" width="38.8" height="220.7"/>
				<g class="st2">
					<path class="st3" d="M88.4,474.1v-3.2l12.9-5l-12.9-5v-3.2l16.9,6.9v2.6L88.4,474.1z"/>
					<path class="st3" d="M87.8,455.6v-3.1h2.8v3.1H87.8z M92.5,455.5v-2.9h12.7v2.9H92.5z"/>
					<path class="st3" d="M92.5,448.8V446h2.9c-1.9-0.8-3.2-2.2-3.1-4.5h3.1v0.2c0,2.5,1.7,4.3,5,4.3h4.8v2.9H92.5z"/>
					<path class="st3" d="M101.7,438.4H95v1.6h-2.5v-1.6h-3.5v-2.9h3.5v-3.4H95v3.4h6.2c1.1,0,1.6-0.6,1.6-1.5
						c0-0.6-0.1-1.2-0.4-1.8h2.4c0.4,0.7,0.6,1.5,0.6,2.6C105.4,436.9,104.5,438.4,101.7,438.4z"/>
					<path class="st3" d="M100.6,429.4h-8.1v-2.9h7.2c2,0,3.1-1,3.1-2.7c0-1.7-1.2-2.8-3.1-2.8h-7.2v-2.9h12.7v2.9h-2
						c1.2,0.8,2.2,2,2.2,3.9C105.5,427.7,103.6,429.4,100.6,429.4z"/>
					<path class="st3" d="M101.6,415.3L101.6,415.3c-2.8,0-4.1-2.1-4.1-5.2c0-1.4,0.2-2.4,0.5-3.4h-0.3c-1.8,0-2.8,1.1-2.8,3.1
						c0,1.4,0.3,2.5,0.8,3.6l-2.3,0.8c-0.6-1.4-1-2.7-1-4.7c0-1.9,0.5-3.3,1.4-4.2c0.9-0.9,2.3-1.4,3.9-1.4h7.5v2.8h-1.6
						c1,0.9,1.8,2.2,1.8,4.1C105.5,413.2,104.1,415.3,101.6,415.3z M100.7,406.7h-0.9c-0.3,0.7-0.5,1.7-0.5,2.9c0,1.9,0.8,3,2.1,3h0
						c1.2,0,1.9-1.1,1.9-2.5C103.4,408.1,102.3,406.7,100.7,406.7z"/>
					<path class="st3" d="M87.7,400.3v-2.9h17.5v2.9H87.7z"/>
					<path class="st3" d="M102.8,387.3l-2.1-1.8c1.4-1.6,2.2-3.2,2.2-5.3c0-1.8-0.9-3-2.1-3h0c-1.2,0-1.8,0.7-2.6,3.8
						c-0.9,3.5-1.9,5.5-5,5.5h0c-2.9,0-4.9-2.4-4.9-5.7c0-2.4,0.7-4.4,2.1-6l2.2,1.6c-1.1,1.5-1.7,3-1.7,4.5c0,1.7,0.9,2.7,2,2.7h0
						c1.3,0,1.9-0.8,2.6-4c0.9-3.5,2.1-5.3,4.9-5.3h0c3.1,0,5,2.5,5,6C105.5,382.9,104.6,385.3,102.8,387.3z"/>
					<path class="st3" d="M88.3,365.4v-2.7l16.9-7.3v3.1l-4.1,1.7v7.9l4.1,1.7v3L88.3,365.4z M98.5,361.2l-6.7,2.9l6.7,2.9V361.2z"
						/>
					<path class="st3" d="M88.4,352.5v-2.7l11.6-8.9H88.4V338h16.8v2.5l-12,9.2h12v2.9H88.4z"/>
				</g>
			</g>
		</g>
	</g>
</g>
</svg>
