<?xml version="1.0" encoding="utf-8"?>
<!-- Generator: Adobe Illustrator 19.1.0, SVG Export Plug-In . SVG Version: 6.00 Build 0)  -->
<svg version="1.1" id="Layer_1" xmlns="http://www.w3.org/2000/svg" xmlns:xlink="http://www.w3.org/1999/xlink" x="0px" y="0px"
	 viewBox="335 -178.2 1281.1 1148.2" style="enable-background:new 335 -178.2 1281.1 1148.2;" xml:space="preserve">
<style type="text/css">
	.st0{fill:#E6E7E8;stroke:#939837;stroke-miterlimit:10;}
	.st1{fill:none;stroke:#929497;stroke-width:5;stroke-miterlimit:10;}
	.st2{fill:#387C2C;}
	.st3{fill:#FFFFFF;}
	.st4{fill:#98D7E8;stroke:#FFFFFF;stroke-width:2;stroke-miterlimit:10;}
	.st5{fill:#231F20;}
	.st6{fill:#BBC0C5;}
	.st7{fill:#687F8F;}
	.st8{opacity:0.1;clip-path:url(#SVGID_2_);}
	.st9{fill:#99CCE7;}
	.st10{fill:#99CBE4;}
	.st11{fill:#0F3535;}
	.st12{fill:#4DA747;}
	.st13{fill:#0C9046;}
	.st14{fill:#2C97D3;}
	.st15{fill:#138585;}
	.st16{fill:#232657;}
	.st17{fill:#3A7F3D;}
	.st18{fill:#408740;}
	.st19{fill:#8EC03F;}
	.st20{fill:#72C5A0;}
	.st21{fill:#2E9CD7;}
	.st22{fill:#1575B1;}
	.st23{fill:#C3D6A2;}
	.st24{fill:#517034;}
	.st25{fill:#1C4725;}
	.st26{fill:#93CA87;}
	.st27{fill:#5E9441;}
	.st28{fill:#6CBEEA;}
	.st29{fill:#3E73B5;}
	.st30{opacity:0.1;clip-path:url(#SVGID_4_);}
	.st31{clip-path:url(#SVGID_6_);fill:#E6E9E7;}
	.st32{fill:none;stroke:#929497;stroke-width:3;stroke-miterlimit:10;}
	.st33{fill:#0094D2;stroke:#FFFFFF;stroke-miterlimit:10;}
	.st34{fill:#6DB33F;stroke:#FFFFFF;stroke-miterlimit:10;}
	.st35{fill:#F1F2F2;}
	.st36{fill:#486377;stroke:#FFFFFF;stroke-miterlimit:10;}
	.st37{fill:#36495E;}
	.st38{fill:#2C3E50;}
	.st39{fill:#92A2A2;}
	.st40{fill:#3B95D1;}
	.st41{fill:#6D6E70;stroke:#FFFFFF;stroke-miterlimit:10;}
	.st42{fill:#36495E;stroke:#FFFFFF;stroke-miterlimit:10;}
	.st43{fill:#5E6A7B;}
	.st44{fill:#6B7788;}
	.st45{fill:#B8B8B9;}
	.st46{fill:#D0D1D1;}
	.st47{fill:#58595B;stroke:#FFFFFF;stroke-miterlimit:10;}
	.st48{fill:#A6A8AB;}
	.st49{fill:#D0D2D3;}
	.st50{fill:#3F556D;}
	.st51{fill:#4A637C;}
	.st52{fill:#B8BABC;}
	.st53{font-family:'Gotham-Bold';}
	.st54{font-size:8.4838px;}
	.st55{fill:#1795D2;}
	.st56{fill:#98D7E8;}
	.st57{fill:none;stroke:#FFFFFF;stroke-width:3;stroke-miterlimit:10;}
	.st58{fill:#F1F1F2;}
	.st59{fill:none;stroke:#939598;stroke-width:3;stroke-miterlimit:10;}
	.st60{fill:#939598;}
	.st61{fill:#929837;}
</style>
<g>
	<g>
		<g>
			<rect x="335.6" y="-177.7" class="st0" width="1280" height="964.9"/>
			<rect x="335.6" y="-177.7" class="st0" width="1280" height="964.9"/>
		</g>
		<line class="st1" x1="920.1" y1="226.3" x2="996.1" y2="226.3"/>
		<line class="st1" x1="886.6" y1="-42" x2="886.6" y2="326"/>
		<path class="st2" d="M1515,244.5h-498.3c-2.1,0-3.9-1.7-3.9-3.9v-26.1c0-2.1,1.7-3.9,3.9-3.9H1515c2.1,0,3.9,1.7,3.9,3.9v26.1
			C1518.9,242.7,1517.2,244.5,1515,244.5z"/>
		<g>
			<path class="st3" d="M1190.6,227L1190.6,227c0-3.6,2.7-6.6,6.5-6.6c2.3,0,3.7,0.8,4.9,2l-1.4,1.6c-1-0.9-2.1-1.6-3.5-1.6
				c-2.4,0-4.2,2-4.2,4.4l0,0c0,2.5,1.7,4.5,4.2,4.5c1.5,0,2.5-0.6,3.6-1.6l1.4,1.4c-1.3,1.4-2.8,2.2-5.1,2.2
				C1193.4,233.5,1190.6,230.6,1190.6,227z"/>
			<path class="st3" d="M1203.5,228.6L1203.5,228.6c0-2.8,2.2-5,5.1-5s5.1,2.2,5.1,4.9l0,0c0,2.7-2.2,5-5.1,5
				S1203.5,231.3,1203.5,228.6z M1211.5,228.6L1211.5,228.6c0-1.7-1.2-3.1-2.9-3.1s-2.9,1.4-2.9,3l0,0c0,1.7,1.2,3,2.9,3
				C1210.4,231.6,1211.5,230.2,1211.5,228.6z"/>
			<path class="st3" d="M1215.9,223.7h2.2v1.4c0.6-0.8,1.4-1.6,2.9-1.6c1.4,0,2.3,0.7,2.8,1.7c0.8-1,1.8-1.7,3.2-1.7
				c2.1,0,3.3,1.3,3.3,3.6v6.1h-2.2v-5.4c0-1.5-0.7-2.3-1.9-2.3c-1.2,0-2,0.8-2,2.4v5.4h-2.2v-5.5c0-1.5-0.7-2.3-1.9-2.3
				s-2,0.9-2,2.4v5.4h-2.2L1215.9,223.7L1215.9,223.7z"/>
			<path class="st3" d="M1233,223.7h2.2v1.6c0.7-1,1.7-1.8,3.2-1.8c2.2,0,4.4,1.8,4.4,4.9l0,0c0,3.2-2.2,4.9-4.4,4.9
				c-1.6,0-2.6-0.8-3.2-1.7v4.4h-2.2V223.7z M1240.6,228.5L1240.6,228.5c0-1.9-1.2-3.1-2.7-3.1s-2.8,1.2-2.8,3l0,0
				c0,1.8,1.3,3,2.8,3C1239.4,231.6,1240.6,230.4,1240.6,228.5z"/>
			<path class="st3" d="M1244.9,229.8v-6h2.2v5.4c0,1.5,0.7,2.3,2,2.3s2.1-0.9,2.1-2.3v-5.4h2.2v9.5h-2.2v-1.5
				c-0.6,0.9-1.5,1.7-3,1.7C1246.2,233.5,1244.9,232,1244.9,229.8z"/>
			<path class="st3" d="M1256.7,230.6v-5h-1.2v-1.9h1.2v-2.6h2.2v2.6h2.6v1.9h-2.6v4.7c0,0.8,0.4,1.2,1.2,1.2c0.5,0,0.9-0.1,1.3-0.3
				v1.8c-0.5,0.3-1.1,0.5-2,0.5C1257.8,233.4,1256.7,232.7,1256.7,230.6z"/>
			<path class="st3" d="M1262.8,228.5L1262.8,228.5c0-2.8,1.9-5,4.6-5c3,0,4.6,2.4,4.6,5.1c0,0.2,0,0.4,0,0.6h-7
				c0.2,1.5,1.3,2.4,2.7,2.4c1.1,0,1.8-0.4,2.6-1.1l1.3,1.1c-0.9,1.1-2.1,1.8-3.9,1.8C1264.9,233.5,1262.8,231.5,1262.8,228.5z
				 M1269.9,227.8c-0.1-1.4-1-2.5-2.4-2.5c-1.3,0-2.3,1-2.5,2.5H1269.9z"/>
			<path class="st3" d="M1283,222.7h-4v-2.1h10.2v2.1h-4v10.6h-2.2V222.7z"/>
			<path class="st3" d="M1290,223.7h2.2v2.1c0.6-1.4,1.7-2.4,3.4-2.3v2.3h-0.1c-1.9,0-3.2,1.2-3.2,3.8v3.6h-2.3V223.7z"/>
			<path class="st3" d="M1296.3,230.5L1296.3,230.5c0-2.1,1.6-3.1,3.9-3.1c1.1,0,1.8,0.2,2.6,0.4v-0.2c0-1.4-0.8-2.1-2.4-2.1
				c-1.1,0-1.9,0.2-2.7,0.6l-0.6-1.7c1-0.5,2.1-0.8,3.6-0.8c1.4,0,2.5,0.4,3.2,1.1c0.7,0.7,1,1.7,1,2.9v5.6h-2.1V232
				c-0.6,0.8-1.6,1.4-3.1,1.4C1297.9,233.5,1296.3,232.4,1296.3,230.5z M1302.8,229.8v-0.6c-0.6-0.2-1.3-0.4-2.2-0.4
				c-1.4,0-2.2,0.6-2.2,1.6l0,0c0,0.9,0.8,1.4,1.9,1.4C1301.8,231.9,1302.8,231,1302.8,229.8z"/>
			<path class="st3" d="M1307.5,223.7h2.2v1.5c0.6-0.9,1.5-1.7,3-1.7c2.1,0,3.4,1.4,3.4,3.6v6.1h-2.2v-5.4c0-1.5-0.7-2.3-2-2.3
				s-2.1,0.9-2.1,2.4v5.4h-2.2v-9.6H1307.5z"/>
			<path class="st3" d="M1317.9,232l1-1.5c1,0.8,2.1,1.2,3.1,1.2c0.9,0,1.5-0.4,1.5-1l0,0c0-0.7-1-1-2.1-1.3c-1.4-0.4-3-1-3-2.8l0,0
				c0-1.8,1.5-2.9,3.4-2.9c1.2,0,2.5,0.4,3.5,1.1l-0.9,1.5c-0.9-0.6-1.9-0.9-2.7-0.9c-0.8,0-1.3,0.4-1.3,0.9l0,0c0,0.7,1,1,2.1,1.3
				c1.4,0.4,3,1.1,3,2.8l0,0c0,2-1.5,3-3.5,3C1320.6,233.4,1319.1,232.9,1317.9,232z"/>
			<path class="st3" d="M1327.7,223.7h2.2v1.6c0.7-1,1.7-1.8,3.2-1.8c2.2,0,4.4,1.8,4.4,4.9l0,0c0,3.2-2.2,4.9-4.4,4.9
				c-1.6,0-2.6-0.8-3.2-1.7v4.4h-2.2V223.7z M1335.3,228.5L1335.3,228.5c0-1.9-1.2-3.1-2.7-3.1s-2.8,1.2-2.8,3l0,0
				c0,1.8,1.3,3,2.8,3C1334.1,231.6,1335.3,230.4,1335.3,228.5z"/>
			<path class="st3" d="M1339.3,228.6L1339.3,228.6c0-2.8,2.2-5,5.1-5s5.1,2.2,5.1,4.9l0,0c0,2.7-2.2,5-5.1,5
				C1341.4,233.5,1339.3,231.3,1339.3,228.6z M1347.2,228.6L1347.2,228.6c0-1.7-1.2-3.1-2.9-3.1c-1.7,0-2.9,1.4-2.9,3l0,0
				c0,1.7,1.2,3,2.9,3C1346.1,231.6,1347.2,230.2,1347.2,228.6z"/>
			<path class="st3" d="M1351.6,223.7h2.2v2.1c0.6-1.4,1.7-2.4,3.4-2.3v2.3h-0.1c-1.9,0-3.2,1.2-3.2,3.8v3.6h-2.2L1351.6,223.7
				L1351.6,223.7z"/>
			<path class="st3" d="M1359.5,230.6v-5h-1.2v-1.9h1.2v-2.6h2.2v2.6h2.6v1.9h-2.6v4.7c0,0.8,0.4,1.2,1.2,1.2c0.5,0,0.9-0.1,1.3-0.3
				v1.8c-0.5,0.3-1.1,0.5-2,0.5C1360.6,233.4,1359.5,232.7,1359.5,230.6z"/>
			<path class="st3" d="M1371.6,231.6l7.4-9h-7.2v-2h10.1v1.6l-7.5,9h7.5v2h-10.3V231.6z"/>
			<path class="st3" d="M1383.5,228.6L1383.5,228.6c0-2.8,2.2-5,5.1-5s5.1,2.2,5.1,4.9l0,0c0,2.7-2.2,5-5.1,5
				C1385.6,233.5,1383.5,231.3,1383.5,228.6z M1391.5,228.6L1391.5,228.6c0-1.7-1.2-3.1-2.9-3.1c-1.7,0-2.9,1.4-2.9,3l0,0
				c0,1.7,1.2,3,2.9,3C1390.3,231.6,1391.5,230.2,1391.5,228.6z"/>
			<path class="st3" d="M1395.9,223.7h2.2v1.5c0.6-0.9,1.5-1.7,3-1.7c2.1,0,3.4,1.4,3.4,3.6v6.1h-2.2v-5.4c0-1.5-0.7-2.3-2-2.3
				s-2.1,0.9-2.1,2.4v5.4h-2.2v-9.6H1395.9z"/>
			<path class="st3" d="M1406.5,228.5L1406.5,228.5c0-2.8,1.9-5,4.6-5c3,0,4.6,2.4,4.6,5.1c0,0.2,0,0.4,0,0.6h-7
				c0.2,1.5,1.3,2.4,2.7,2.4c1.1,0,1.8-0.4,2.6-1.1l1.3,1.1c-0.9,1.1-2.1,1.8-3.9,1.8C1408.6,233.5,1406.5,231.5,1406.5,228.5z
				 M1413.5,227.8c-0.1-1.4-1-2.5-2.4-2.5c-1.3,0-2.3,1-2.5,2.5H1413.5z"/>
		</g>
		<path class="st4" d="M1132.6,193.8H992.3c-2.2,0-4,1.8-4,4v56.6c0,2.2,1.8,4,4,4h140.3c2.2,0,4-1.8,4-4v-56.6
			C1136.6,195.6,1134.8,193.8,1132.6,193.8z"/>
		<g>
			<path class="st5" d="M1029,211.3h-3.8v-1.2h8.8v1.2h-3.8v10h-1.2V211.3z"/>
			<path class="st5" d="M1034.8,213.1h1.2v2.2c0.6-1.4,1.8-2.4,3.4-2.3v1.3h-0.1c-1.8,0-3.3,1.3-3.3,3.8v3.3h-1.2V213.1
				L1034.8,213.1z"/>
			<path class="st5" d="M1040.2,218.9L1040.2,218.9c0-1.8,1.4-2.7,3.5-2.7c1.1,0,1.8,0.1,2.5,0.4v-0.3c0-1.5-0.9-2.3-2.5-2.3
				c-1,0-1.7,0.3-2.5,0.6l-0.4-1c0.9-0.4,1.8-0.7,3-0.7s2.1,0.3,2.7,0.9c0.6,0.6,0.8,1.4,0.8,2.4v5.1h-1.2v-1.2
				c-0.6,0.8-1.5,1.4-3,1.4C1041.8,221.5,1040.2,220.6,1040.2,218.9z M1046.3,218.3v-0.8c-0.6-0.2-1.4-0.4-2.4-0.4
				c-1.6,0-2.4,0.7-2.4,1.7l0,0c0,1,1,1.6,2.1,1.6C1045.1,220.5,1046.3,219.6,1046.3,218.3z"/>
			<path class="st5" d="M1050.1,213.1h1.2v1.4c0.5-0.9,1.4-1.6,2.8-1.6c2,0,3.2,1.3,3.2,3.3v5.1h-1.2v-4.8c0-1.5-0.8-2.5-2.3-2.5
				c-1.4,0-2.5,1-2.5,2.6v4.7h-1.2V213.1z"/>
			<path class="st5" d="M1059.3,220.3l0.6-0.9c0.9,0.7,1.9,1.1,2.9,1.1s1.7-0.5,1.7-1.3l0,0c0-0.8-1-1.2-2.1-1.5
				c-1.3-0.4-2.7-0.8-2.7-2.3l0,0c0-1.4,1.2-2.4,2.8-2.4c1,0,2.1,0.4,3,0.9l-0.6,0.9c-0.8-0.5-1.6-0.8-2.4-0.8c-1,0-1.6,0.5-1.6,1.2
				l0,0c0,0.8,1,1.1,2.1,1.4c1.3,0.4,2.7,0.9,2.7,2.4l0,0c0,1.6-1.3,2.5-2.9,2.5C1061.5,221.5,1060.2,221,1059.3,220.3z"/>
			<path class="st5" d="M1068,213.1h1.2v1.7c0.7-1,1.6-1.8,3.2-1.8c2,0,4,1.6,4,4.3l0,0c0,2.7-2,4.3-4,4.3c-1.5,0-2.5-0.8-3.2-1.8
				v4.1h-1.2V213.1z M1075,217.2L1075,217.2c0-2-1.3-3.2-2.9-3.2c-1.5,0-3,1.3-3,3.2l0,0c0,1.9,1.5,3.2,3,3.2
				C1073.7,220.4,1075,219.2,1075,217.2z"/>
			<path class="st5" d="M1078.1,217.2L1078.1,217.2c0-2.4,1.8-4.4,4.3-4.4s4.3,2,4.3,4.3l0,0c0,2.3-1.8,4.3-4.3,4.3
				C1079.9,221.5,1078.1,219.6,1078.1,217.2z M1085.4,217.2L1085.4,217.2c0-1.8-1.3-3.3-3.1-3.3s-3,1.5-3,3.2l0,0
				c0,1.8,1.3,3.2,3.1,3.2C1084.2,220.4,1085.4,219,1085.4,217.2z"/>
			<path class="st5" d="M1088.9,213.1h1.2v2.2c0.6-1.4,1.8-2.4,3.4-2.3v1.3h-0.1c-1.8,0-3.3,1.3-3.3,3.8v3.3h-1.2V213.1
				L1088.9,213.1z"/>
			<path class="st5" d="M1095.8,219.1v-5h-1.2V213h1.2v-2.5h1.2v2.5h2.6v1.1h-2.6v4.8c0,1,0.6,1.4,1.4,1.4c0.4,0,0.8-0.1,1.2-0.3
				v1.1c-0.4,0.2-0.9,0.4-1.5,0.4C1096.8,221.5,1095.8,220.8,1095.8,219.1z"/>
			<path class="st5" d="M1006.3,229.3h1.3v10h6.3v1.2h-7.6V229.3z"/>
			<path class="st5" d="M1015.3,236.4L1015.3,236.4c0-2.4,1.8-4.4,4.3-4.4s4.3,2,4.3,4.3l0,0c0,2.3-1.8,4.3-4.3,4.3
				C1017.1,240.7,1015.3,238.8,1015.3,236.4z M1022.6,236.4L1022.6,236.4c0-1.8-1.3-3.3-3.1-3.3s-3,1.5-3,3.2l0,0
				c0,1.8,1.3,3.2,3.1,3.2C1021.4,239.6,1022.6,238.2,1022.6,236.4z"/>
			<path class="st5" d="M1026,242l0.6-1c0.9,0.7,2,1.1,3.2,1.1c1.8,0,3-1,3-2.9v-1c-0.7,1-1.7,1.7-3.2,1.7c-2,0-3.9-1.5-3.9-3.9l0,0
				c0-2.4,1.9-3.9,3.9-3.9c1.6,0,2.6,0.8,3.2,1.7v-1.5h1.2v6.8c0,1.3-0.4,2.3-1.1,2.9c-0.7,0.7-1.8,1.1-3.2,1.1
				C1028.4,243.1,1027.1,242.7,1026,242z M1032.8,236L1032.8,236c0-1.7-1.5-2.8-3-2.8c-1.6,0-2.9,1.1-2.9,2.8l0,0
				c0,1.7,1.3,2.8,2.9,2.8C1031.3,238.8,1032.8,237.7,1032.8,236z"/>
			<path class="st5" d="M1036.8,229.1h1.4v1.4h-1.4V229.1z M1036.9,232.3h1.2v8.3h-1.2V232.3z"/>
			<path class="st5" d="M1040.4,236.4L1040.4,236.4c0-2.4,1.8-4.4,4.2-4.4c1.6,0,2.5,0.7,3.3,1.5l-0.8,0.9c-0.7-0.7-1.4-1.2-2.5-1.2
				c-1.7,0-3,1.4-3,3.2l0,0c0,1.8,1.3,3.2,3,3.2c1.1,0,1.9-0.5,2.5-1.2l0.8,0.7c-0.8,0.9-1.8,1.6-3.4,1.6
				C1042.3,240.7,1040.4,238.8,1040.4,236.4z"/>
			<path class="st5" d="M1049.5,238.1L1049.5,238.1c0-1.8,1.4-2.7,3.5-2.7c1.1,0,1.8,0.1,2.5,0.4v-0.3c0-1.5-0.9-2.3-2.5-2.3
				c-1,0-1.7,0.3-2.5,0.6l-0.4-1c0.9-0.4,1.8-0.7,3-0.7s2.1,0.3,2.7,0.9c0.6,0.6,0.8,1.4,0.8,2.4v5.1h-1.2v-1.2
				c-0.6,0.8-1.5,1.4-3,1.4C1051,240.7,1049.5,239.8,1049.5,238.1z M1055.6,237.5v-0.8c-0.6-0.2-1.4-0.4-2.4-0.4
				c-1.6,0-2.4,0.7-2.4,1.7l0,0c0,1,1,1.6,2.1,1.6C1054.3,239.7,1055.6,238.8,1055.6,237.5z"/>
			<path class="st5" d="M1059.5,228.8h1.2v11.7h-1.2V228.8z"/>
			<path class="st5" d="M1067.8,238.9l0.8-0.9c1.2,1.1,2.3,1.6,3.8,1.6s2.5-0.8,2.5-1.9l0,0c0-1-0.6-1.6-2.9-2.1
				c-2.6-0.6-3.8-1.4-3.8-3.2l0,0c0-1.8,1.6-3.1,3.7-3.1c1.6,0,2.8,0.5,3.9,1.4l-0.7,1c-1-0.8-2.1-1.2-3.2-1.2
				c-1.5,0-2.4,0.8-2.4,1.8l0,0c0,1.1,0.6,1.6,3,2.2c2.5,0.5,3.6,1.5,3.6,3.2l0,0c0,1.9-1.6,3.2-3.8,3.2
				C1070.6,240.7,1069.2,240.1,1067.8,238.9z"/>
			<path class="st5" d="M1077.7,232.3h1.3l2.2,6.6l2.2-6.7h1l2.2,6.7l2.2-6.6h1.3l-2.9,8.3h-1.1l-2.2-6.5l-2.2,6.5h-1.1
				L1077.7,232.3z"/>
			<path class="st5" d="M1092.3,229.1h1.4v1.4h-1.4V229.1z M1092.3,232.3h1.2v8.3h-1.2V232.3z"/>
			<path class="st5" d="M1096.9,238.3v-5h-1.2v-1.1h1.2v-2.4h1.2v2.5h2.6v1.1h-2.6v4.8c0,1,0.6,1.4,1.4,1.4c0.4,0,0.8-0.1,1.2-0.3
				v1.1c-0.4,0.2-0.9,0.4-1.5,0.4C1097.9,240.7,1096.9,240,1096.9,238.3z"/>
			<path class="st5" d="M1102.1,236.4L1102.1,236.4c0-2.4,1.8-4.4,4.2-4.4c1.6,0,2.5,0.7,3.3,1.5l-0.8,0.9c-0.7-0.7-1.4-1.2-2.5-1.2
				c-1.7,0-3,1.4-3,3.2l0,0c0,1.8,1.3,3.2,3,3.2c1.1,0,1.9-0.5,2.5-1.2l0.8,0.7c-0.8,0.9-1.8,1.6-3.4,1.6
				C1104,240.7,1102.1,238.8,1102.1,236.4z"/>
			<path class="st5" d="M1111.8,228.8h1.2v4.8c0.5-0.9,1.4-1.6,2.8-1.6c2,0,3.2,1.3,3.2,3.3v5.1h-1.2v-4.8c0-1.5-0.8-2.5-2.3-2.5
				c-1.4,0-2.5,1-2.5,2.6v4.7h-1.2V228.8z"/>
		</g>
		<g>
			<g>
				<circle class="st6" cx="884.6" cy="226.3" r="53.5"/>
				<circle class="st7" cx="884.6" cy="226.3" r="49.5"/>
				<g>
					<g>
						<g>
							<defs>
								<circle id="SVGID_1_" cx="884.6" cy="226.3" r="49.5"/>
							</defs>
							<clipPath id="SVGID_2_">
								<use xlink:href="#SVGID_1_"  style="overflow:visible;"/>
							</clipPath>
							<g class="st8">
								<polygon class="st9" points="831.2,208.7 831.2,191.2 848.8,191.2 								"/>
								<polygon class="st10" points="848.8,191.2 848.8,173.6 831.2,173.6 								"/>
								<polygon class="st11" points="919,191.2 919,208.7 901.4,208.7 								"/>
								<polygon class="st12" points="901.4,173.6 919,173.6 919,191.2 								"/>
								<polygon class="st13" points="901.4,173.6 901.4,191.2 919,191.2 								"/>
								<polygon class="st14" points="901.4,173.6 901.4,191.2 883.9,191.2 								"/>
								<polygon class="st15" points="901.4,208.7 883.9,208.7 883.9,191.2 								"/>
								<polygon class="st16" points="866.3,208.7 883.9,208.7 883.9,191.2 								"/>
								<polygon class="st17" points="901.4,208.7 901.4,191.2 919,191.2 								"/>
								<polygon class="st18" points="936.6,173.6 919,173.6 919,191.2 								"/>
								<polygon class="st19" points="936.6,173.6 936.6,191.2 919,191.2 								"/>
								<polygon class="st20" points="936.6,208.7 936.6,191.2 919,191.2 								"/>
								<polygon class="st12" points="919,191.2 919,208.7 936.6,208.7 								"/>
								<polygon class="st21" points="866.3,173.6 883.9,173.6 883.9,191.2 								"/>
								<polygon class="st22" points="866.3,208.7 866.3,191.2 848.7,191.2 								"/>
								<polygon class="st23" points="901.4,208.7 883.9,208.7 883.9,226.3 								"/>
								<polygon class="st24" points="901.4,208.7 901.4,226.3 919,226.3 								"/>
								<polygon class="st25" points="919,226.3 919,208.7 901.4,208.7 								"/>
								<polygon class="st26" points="936.6,208.7 936.6,226.3 919,226.3 								"/>
								<polygon class="st27" points="919,226.3 919,208.7 936.5,208.7 								"/>
								<polygon class="st28" points="866.3,208.7 848.7,208.7 848.7,226.3 								"/>
								<polygon class="st29" points="866.3,208.7 866.3,226.3 883.9,226.3 								"/>
							</g>
						</g>
					</g>
					<g>
						<g>
							<defs>
								<circle id="SVGID_3_" cx="884.6" cy="226.3" r="49.5"/>
							</defs>
							<clipPath id="SVGID_4_">
								<use xlink:href="#SVGID_3_"  style="overflow:visible;"/>
							</clipPath>
							<g class="st30">
								<polygon class="st9" points="831.2,261.4 831.2,243.8 848.7,243.8 								"/>
								<polygon class="st10" points="848.7,243.8 848.7,226.3 831.2,226.3 								"/>
								<polygon class="st11" points="918.9,243.8 918.9,261.4 901.4,261.4 								"/>
								<polygon class="st12" points="901.4,226.3 918.9,226.3 918.9,243.8 								"/>
								<polygon class="st13" points="901.4,226.3 901.4,243.8 918.9,243.8 								"/>
								<polygon class="st14" points="901.4,226.3 901.4,243.8 883.8,243.8 								"/>
								<polygon class="st15" points="901.4,261.4 883.8,261.4 883.8,243.8 								"/>
								<polygon class="st16" points="866.2,261.4 883.8,261.4 883.8,243.8 								"/>
								<polygon class="st17" points="901.4,261.4 901.4,243.8 919,243.8 								"/>
								<polygon class="st18" points="936.5,226.3 918.9,226.3 918.9,243.8 								"/>
								<polygon class="st19" points="936.5,226.3 936.5,243.8 918.9,243.8 								"/>
								<polygon class="st20" points="936.5,261.4 936.5,243.8 918.9,243.8 								"/>
								<polygon class="st12" points="918.9,243.8 918.9,261.4 936.5,261.4 								"/>
								<polygon class="st21" points="866.2,226.3 883.8,226.3 883.8,243.8 								"/>
								<polygon class="st22" points="866.2,261.4 866.2,243.8 848.7,243.8 								"/>
								<polygon class="st23" points="901.4,261.4 883.8,261.4 883.8,278.9 								"/>
								<polygon class="st24" points="901.4,261.4 901.4,278.9 919,278.9 								"/>
								<polygon class="st25" points="918.9,279 918.9,261.4 901.4,261.4 								"/>
								<polygon class="st26" points="936.5,261.4 936.5,278.9 918.9,278.9 								"/>
								<polygon class="st27" points="918.9,279 918.9,261.4 936.5,261.4 								"/>
								<polygon class="st28" points="866.2,261.4 848.7,261.4 848.7,278.9 								"/>
								<polygon class="st29" points="866.3,261.4 866.3,278.9 883.8,278.9 								"/>
							</g>
						</g>
					</g>
					<g>
						<g>
							<defs>
								<circle id="SVGID_5_" cx="884.6" cy="226.3" r="49.5"/>
							</defs>
							<clipPath id="SVGID_6_">
								<use xlink:href="#SVGID_5_"  style="overflow:visible;"/>
							</clipPath>
							<polygon class="st31" points="921.7,227.6 912.4,220.8 912.4,224.9 886.3,224.9 886.3,198.5 890.1,198.5 883.7,189.2 
								877,198.5 881,198.5 881,224.9 854.7,224.9 854.7,220.8 845.3,227.6 854.7,233.9 854.7,230.1 881,230.1 881,256.2 877,256.2 
								883.7,265.6 890.1,256.2 886.3,256.2 886.3,230.1 912.4,230.1 912.4,233.9 							"/>
						</g>
					</g>
				</g>
			</g>
		</g>
		<polyline class="st32" points="523.8,224 641.1,224 641.1,325.4 		"/>
		<polyline class="st32" points="523.8,134.8 672.8,134.8 672.8,325.4 		"/>
		<polyline class="st32" points="523.8,45.7 704.5,45.7 704.5,325.4 		"/>
		<g>
			<path class="st33" d="M1512.5,722h-1074c-3.5,0-6.3-2.8-6.3-6.3V535.6c0-3.5,2.8-6.3,6.3-6.3h1074c3.5,0,6.3,2.8,6.3,6.3v180.2
				C1518.8,719.2,1515.9,722,1512.5,722z"/>
			<rect x="432.2" y="402.3" class="st34" width="1086.5" height="55.3"/>
			<g>
				<g>
					<path class="st35" d="M904.5,418.9h2.2l7.1,9.2v-9.2h2.3v13.3h-2l-7.3-9.4v9.4h-2.3V418.9z"/>
					<path class="st35" d="M918.5,430.2l1.4-1.7c1.3,1.1,2.6,1.7,4.2,1.7c1.4,0,2.3-0.7,2.3-1.7l0,0c0-0.9-0.5-1.5-3-2
						c-2.8-0.7-4.4-1.5-4.4-4l0,0c0-2.3,1.9-3.8,4.5-3.8c1.9,0,3.5,0.6,4.8,1.7l-1.3,1.8c-1.2-0.9-2.4-1.4-3.6-1.4
						c-1.4,0-2.2,0.7-2.2,1.6l0,0c0,1,0.6,1.5,3.2,2.1c2.8,0.7,4.2,1.7,4.2,3.9l0,0c0,2.5-2,4-4.7,4
						C922.1,432.3,920.1,431.6,918.5,430.2z"/>
					<path class="st35" d="M942.3,418.9l-4.6,6.5l4.8,6.8h-2.7l-3.5-5.1l-3.5,5.1h-2.7l4.8-6.7l-4.6-6.5h2.7l3.3,4.8l3.3-4.8
						L942.3,418.9L942.3,418.9z"/>
					<path class="st35" d="M950.8,424.1h-1.3v-1.9h1.3v-0.7c0-1.1,0.3-1.9,0.8-2.5s1.3-0.8,2.3-0.8c0.8,0,1.3,0.1,1.9,0.3v1.9
						c-0.5-0.2-0.9-0.2-1.3-0.2c-0.9,0-1.3,0.5-1.3,1.5v0.5h2.7v1.9h-2.6v8H951v-8L950.8,424.1L950.8,424.1z"/>
					<path class="st35" d="M956.7,427.2L956.7,427.2c0-2.9,2.3-5.3,5.3-5.3s5.3,2.3,5.3,5.2l0,0c0,2.8-2.3,5.2-5.4,5.2
						C959,432.3,956.7,430,956.7,427.2z M965.1,427.2L965.1,427.2c0-1.8-1.3-3.3-3.1-3.3s-3,1.4-3,3.2l0,0c0,1.7,1.3,3.2,3,3.2
						C963.9,430.3,965.1,428.9,965.1,427.2z"/>
					<path class="st35" d="M969.7,422.1h2.3v2.3c0.6-1.5,1.8-2.5,3.5-2.4v2.4h-0.1c-2,0-3.4,1.3-3.4,4v3.8h-2.3V422.1z"/>
					<path class="st35" d="M982.2,422.1h2.5l2.7,7.3l2.7-7.3h2.4l-4.1,10.1h-2.1L982.2,422.1z"/>
					<path class="st35" d="M993.8,430.2l1.4-1.7c1.3,1.1,2.6,1.7,4.2,1.7c1.4,0,2.3-0.7,2.3-1.7l0,0c0-0.9-0.5-1.5-3-2
						c-2.8-0.7-4.4-1.5-4.4-4l0,0c0-2.3,1.9-3.8,4.5-3.8c1.9,0,3.5,0.6,4.8,1.7l-1.2,1.8c-1.2-0.9-2.4-1.4-3.6-1.4
						c-1.4,0-2.2,0.7-2.2,1.6l0,0c0,1,0.6,1.5,3.2,2.1c2.8,0.7,4.2,1.7,4.2,3.9l0,0c0,2.5-2,4-4.7,4
						C997.3,432.3,995.4,431.6,993.8,430.2z"/>
					<path class="st35" d="M1006.6,422.1h2.3v1.7c0.7-1,1.8-1.9,3.4-1.9c2.3,0,4.6,1.9,4.6,5.2l0,0c0,3.3-2.3,5.2-4.6,5.2
						c-1.7,0-2.7-0.8-3.4-1.8v4.6h-2.3V422.1z M1014.6,427.1L1014.6,427.1c0-2-1.3-3.2-2.9-3.2s-2.9,1.3-2.9,3.2l0,0
						c0,1.9,1.4,3.2,2.9,3.2C1013.3,430.3,1014.6,429.1,1014.6,427.1z"/>
					<path class="st35" d="M1019.3,418.3h2.3v5.4c0.6-0.9,1.6-1.7,3.1-1.7c2.3,0,3.6,1.5,3.6,3.8v6.4h-2.3v-5.7
						c0-1.6-0.8-2.4-2.1-2.4c-1.3,0-2.3,0.9-2.3,2.5v5.6h-2.3L1019.3,418.3L1019.3,418.3z"/>
					<path class="st35" d="M1030.5,427.1L1030.5,427.1c0-2.9,2-5.2,4.9-5.2c3.2,0,4.8,2.5,4.8,5.4c0,0.2,0,0.4,0,0.6h-7.3
						c0.2,1.6,1.4,2.5,2.9,2.5c1.1,0,1.9-0.4,2.7-1.2l1.3,1.2c-0.9,1.1-2.3,1.9-4.1,1.9C1032.7,432.3,1030.5,430.2,1030.5,427.1z
						 M1037.9,426.4c-0.2-1.5-1-2.6-2.5-2.6c-1.4,0-2.4,1.1-2.6,2.6H1037.9z"/>
					<path class="st35" d="M1042.5,422.1h2.3v2.3c0.6-1.5,1.8-2.5,3.5-2.4v2.4h-0.1c-2,0-3.4,1.3-3.4,4v3.8h-2.3V422.1z"/>
					<path class="st35" d="M1049.4,427.1L1049.4,427.1c0-2.9,2-5.2,4.9-5.2c3.2,0,4.8,2.5,4.8,5.4c0,0.2,0,0.4,0,0.6h-7.3
						c0.2,1.6,1.4,2.5,2.9,2.5c1.1,0,1.9-0.4,2.7-1.2l1.3,1.2c-0.9,1.1-2.3,1.9-4.1,1.9C1051.6,432.3,1049.4,430.2,1049.4,427.1z
						 M1056.8,426.4c-0.2-1.5-1-2.6-2.5-2.6c-1.4,0-2.4,1.1-2.6,2.6H1056.8z"/>
				</g>
			</g>
			<g>
				<g>
					<g>
						<rect x="442.2" y="442.8" class="st36" width="264" height="59.3"/>
					</g>
					<rect x="448.5" y="450.9" class="st37" width="250.5" height="43.2"/>
					<g>
						<g>
							<circle class="st6" cx="574.2" cy="472.5" r="8.4"/>
							<circle class="st38" cx="574.2" cy="472.5" r="6.1"/>
						</g>
						<g>
							<rect x="466.2" y="454.9" class="st39" width="85.8" height="16.6"/>
							<rect x="466.2" y="473.7" class="st39" width="85.8" height="16.6"/>
						</g>
						<g>
							<rect x="596.4" y="454.9" class="st39" width="85.8" height="16.6"/>
							<rect x="596.4" y="473.7" class="st39" width="85.8" height="16.6"/>
						</g>
					</g>
					<g>
						<rect x="450.1" y="469.7" class="st6" width="13.9" height="5.6"/>
						<rect x="450.9" y="470.3" class="st38" width="12.2" height="4.4"/>
					</g>
					<circle class="st40" cx="690.8" cy="472.5" r="3.2"/>
				</g>
				<g>
					<g>
						<rect x="843.5" y="442.8" class="st36" width="264" height="59.3"/>
					</g>
					<rect x="849.8" y="450.9" class="st37" width="250.5" height="43.2"/>
					<g>
						<g>
							<circle class="st6" cx="975.5" cy="472.5" r="8.4"/>
							<circle class="st38" cx="975.5" cy="472.5" r="6.1"/>
						</g>
						<g>
							<rect x="867.5" y="454.9" class="st39" width="85.8" height="16.6"/>
							<rect x="867.5" y="473.7" class="st39" width="85.8" height="16.6"/>
						</g>
						<g>
							<rect x="997.7" y="454.9" class="st39" width="85.8" height="16.6"/>
							<rect x="997.7" y="473.7" class="st39" width="85.8" height="16.6"/>
						</g>
					</g>
					<g>
						<rect x="851.3" y="469.7" class="st6" width="13.9" height="5.6"/>
						<rect x="852.2" y="470.3" class="st38" width="12.2" height="4.4"/>
					</g>
					<circle class="st40" cx="1092" cy="472.5" r="3.2"/>
				</g>
				<g>
					<g>
						<rect x="1244.8" y="442.8" class="st36" width="264" height="59.3"/>
					</g>
					<rect x="1251.1" y="450.9" class="st37" width="250.5" height="43.2"/>
					<g>
						<g>
							<circle class="st6" cx="1376.8" cy="472.5" r="8.4"/>
							<circle class="st38" cx="1376.8" cy="472.5" r="6.1"/>
						</g>
						<g>
							<rect x="1268.8" y="454.9" class="st39" width="85.8" height="16.6"/>
							<rect x="1268.8" y="473.7" class="st39" width="85.8" height="16.6"/>
						</g>
						<g>
							<rect x="1399" y="454.9" class="st39" width="85.8" height="16.6"/>
							<rect x="1399" y="473.7" class="st39" width="85.8" height="16.6"/>
						</g>
					</g>
					<g>
						<rect x="1252.6" y="469.7" class="st6" width="13.9" height="5.6"/>
						<rect x="1253.5" y="470.3" class="st38" width="12.2" height="4.4"/>
					</g>
					<circle class="st40" cx="1493.3" cy="472.5" r="3.2"/>
				</g>
			</g>
			<line class="st32" x1="490.6" y1="374.7" x2="490.6" y2="441.9"/>
			<line class="st32" x1="511.6" y1="374.7" x2="511.6" y2="441.9"/>
			<line class="st32" x1="870" y1="374.7" x2="870" y2="441.9"/>
			<line class="st32" x1="891" y1="374.7" x2="891" y2="441.9"/>
			<line class="st32" x1="1438.2" y1="374.7" x2="1438.2" y2="441.9"/>
			<line class="st32" x1="1459.2" y1="374.7" x2="1459.2" y2="441.9"/>
			<rect x="432.2" y="326" class="st41" width="1086.5" height="51.3"/>
			<g>
				<path class="st3" d="M853.5,345.9h2.6l4,10.2l4-10.2h2.5l-5.5,13.3H859L853.5,345.9z"/>
				<path class="st3" d="M868.2,345.4h2.5v2.2h-2.5V345.4z M868.3,349.1h2.3v10h-2.3V349.1z"/>
				<path class="st3" d="M873.6,349.1h2.3v2.3c0.6-1.5,1.8-2.5,3.5-2.4v2.4h-0.1c-2,0-3.4,1.3-3.4,4v3.8h-2.3V349.1z"/>
				<path class="st3" d="M881.9,356.3V351h-1.3v-2h1.3v-2.7h2.3v2.7h2.7v2h-2.7v4.9c0,0.9,0.5,1.2,1.2,1.2c0.5,0,1-0.1,1.4-0.3v1.9
					c-0.6,0.3-1.2,0.5-2.1,0.5C883.1,359.3,881.9,358.5,881.9,356.3z"/>
				<path class="st3" d="M889.1,355.5v-6.4h2.3v5.7c0,1.6,0.8,2.4,2.1,2.4s2.3-0.9,2.3-2.5v-5.6h2.3v10h-2.3v-1.6
					c-0.6,0.9-1.6,1.8-3.1,1.8C890.4,359.3,889.1,357.8,889.1,355.5z"/>
				<path class="st3" d="M900.3,356.2L900.3,356.2c0-2.2,1.7-3.3,4.1-3.3c1.1,0,1.9,0.2,2.7,0.4v-0.2c0-1.4-0.9-2.2-2.5-2.2
					c-1.1,0-2,0.2-2.9,0.6l-0.6-1.8c1.1-0.5,2.2-0.8,3.8-0.8c1.5,0,2.6,0.4,3.3,1.1s1.1,1.8,1.1,3.1v5.9h-2.2v-1.3
					c-0.7,0.8-1.7,1.5-3.3,1.5C902,359.3,900.3,358.2,900.3,356.2z M907.2,355.5v-0.7c-0.6-0.2-1.4-0.4-2.3-0.4
					c-1.5,0-2.3,0.6-2.3,1.7l0,0c0,1,0.9,1.5,2,1.5C906,357.7,907.2,356.8,907.2,355.5z"/>
				<path class="st3" d="M912.2,345.3h2.3v13.8h-2.3V345.3z"/>
				<path class="st3" d="M923.4,345.9h4.9c4.2,0,7,2.9,7,6.6l0,0c0,3.7-2.9,6.6-7,6.6h-4.9V345.9z M925.8,348v9h2.6
					c2.8,0,4.6-1.9,4.6-4.5l0,0c0-2.6-1.8-4.5-4.6-4.5H925.8z"/>
				<path class="st3" d="M938,345.4h2.5v2.2H938V345.4z M938.1,349.1h2.3v10h-2.3V349.1z"/>
				<path class="st3" d="M942.6,357.8l1-1.6c1.1,0.8,2.3,1.2,3.3,1.2s1.6-0.4,1.6-1.1l0,0c0-0.8-1.1-1-2.2-1.4
					c-1.5-0.4-3.1-1-3.1-2.9l0,0c0-1.9,1.6-3,3.6-3c1.3,0,2.6,0.4,3.7,1.1l-0.9,1.6c-1-0.6-2-0.9-2.8-0.9c-0.9,0-1.4,0.4-1.4,1l0,0
					c0,0.7,1.1,1,2.3,1.4c1.5,0.5,3.1,1.1,3.1,2.9l0,0c0,2.1-1.6,3.1-3.7,3.1C945.4,359.3,943.8,358.8,942.6,357.8z"/>
				<path class="st3" d="M953.2,356.3V351h-1.3v-2h1.3v-2.7h2.3v2.7h2.7v2h-2.7v4.9c0,0.9,0.5,1.2,1.2,1.2c0.5,0,1-0.1,1.4-0.3v1.9
					c-0.6,0.3-1.2,0.5-2.1,0.5C954.4,359.3,953.2,358.5,953.2,356.3z"/>
				<path class="st3" d="M960.5,349.1h2.3v2.3c0.6-1.5,1.8-2.5,3.5-2.4v2.4h-0.1c-2,0-3.4,1.3-3.4,4v3.8h-2.3V349.1z"/>
				<path class="st3" d="M968.4,345.4h2.5v2.2h-2.5V345.4z M968.5,349.1h2.3v10h-2.3V349.1z"/>
				<path class="st3" d="M976,357.6v1.6h-2.3v-13.8h2.3v5.5c0.7-1,1.8-1.9,3.4-1.9c2.3,0,4.6,1.9,4.6,5.2l0,0c0,3.3-2.3,5.2-4.6,5.2
					C977.8,359.3,976.7,358.5,976,357.6z M981.7,354.1L981.7,354.1c0-2-1.3-3.2-2.9-3.2s-2.9,1.3-2.9,3.2l0,0c0,1.9,1.4,3.2,2.9,3.2
					C980.5,357.3,981.7,356.1,981.7,354.1z"/>
				<path class="st3" d="M986.3,355.5v-6.4h2.3v5.7c0,1.6,0.8,2.4,2.1,2.4s2.3-0.9,2.3-2.5v-5.6h2.3v10H993v-1.6
					c-0.6,0.9-1.6,1.8-3.1,1.8C987.6,359.3,986.3,357.8,986.3,355.5z"/>
				<path class="st3" d="M998.7,356.3V351h-1.3v-2h1.3v-2.7h2.3v2.7h2.7v2h-2.7v4.9c0,0.9,0.5,1.2,1.2,1.2c0.5,0,1-0.1,1.4-0.3v1.9
					c-0.6,0.3-1.2,0.5-2.1,0.5C999.9,359.3,998.7,358.5,998.7,356.3z"/>
				<path class="st3" d="M1005.1,354.2L1005.1,354.2c0-2.9,2-5.2,4.9-5.2c3.2,0,4.8,2.5,4.8,5.4c0,0.2,0,0.4,0,0.6h-7.3
					c0.2,1.6,1.4,2.5,2.9,2.5c1.1,0,1.9-0.4,2.7-1.2l1.3,1.2c-0.9,1.1-2.3,1.9-4.1,1.9C1007.4,359.3,1005.1,357.2,1005.1,354.2z
					 M1012.5,353.4c-0.2-1.5-1-2.6-2.5-2.6c-1.4,0-2.4,1.1-2.6,2.6H1012.5z"/>
				<path class="st3" d="M1016.6,354.1L1016.6,354.1c0-3.4,2.3-5.2,4.6-5.2c1.6,0,2.7,0.8,3.4,1.8v-5.4h2.3v13.8h-2.3v-1.7
					c-0.7,1-1.8,1.9-3.4,1.9C1018.9,359.3,1016.6,357.4,1016.6,354.1z M1024.7,354.1L1024.7,354.1c0-2-1.4-3.2-2.9-3.2
					c-1.6,0-2.9,1.2-2.9,3.2l0,0c0,1.9,1.3,3.2,2.9,3.2C1023.3,357.3,1024.7,356,1024.7,354.1z"/>
				<path class="st3" d="M1034.9,357.2l1.4-1.7c1.3,1.1,2.6,1.7,4.2,1.7c1.4,0,2.3-0.7,2.3-1.7l0,0c0-0.9-0.5-1.5-3-2
					c-2.8-0.7-4.4-1.5-4.4-4l0,0c0-2.3,1.9-3.8,4.5-3.8c1.9,0,3.5,0.6,4.8,1.7l-1.2,1.8c-1.2-0.9-2.4-1.4-3.6-1.4
					c-1.4,0-2.2,0.7-2.2,1.6l0,0c0,1,0.6,1.5,3.2,2.1c2.8,0.7,4.2,1.7,4.2,3.9l0,0c0,2.5-2,4-4.7,4
					C1038.4,359.3,1036.5,358.6,1034.9,357.2z"/>
				<path class="st3" d="M1046.6,349.1h2.3l2,6.9l2.2-6.9h2l2.2,6.9l2-6.9h2.3l-3.3,10.1h-2.1l-2.2-6.8l-2.3,6.8h-2L1046.6,349.1z"
					/>
				<path class="st3" d="M1063.8,345.4h2.5v2.2h-2.5V345.4z M1063.9,349.1h2.3v10h-2.3V349.1z"/>
				<path class="st3" d="M1069.7,356.3V351h-1.3v-2h1.3v-2.7h2.3v2.7h2.7v2h-2.7v4.9c0,0.9,0.5,1.2,1.2,1.2c0.5,0,1-0.1,1.4-0.3v1.9
					c-0.6,0.3-1.2,0.5-2.1,0.5C1070.8,359.3,1069.7,358.5,1069.7,356.3z"/>
				<path class="st3" d="M1076.1,354.2L1076.1,354.2c0-2.9,2.2-5.3,5.2-5.3c1.9,0,3,0.7,4,1.7l-1.4,1.5c-0.7-0.7-1.4-1.3-2.6-1.3
					c-1.7,0-2.9,1.4-2.9,3.2l0,0c0,1.8,1.2,3.2,3,3.2c1.1,0,1.9-0.5,2.6-1.2l1.4,1.4c-1,1.1-2.1,1.9-4.1,1.9
					C1078.3,359.3,1076.1,357,1076.1,354.2z"/>
				<path class="st3" d="M1087.5,345.3h2.3v5.4c0.6-0.9,1.6-1.7,3.1-1.7c2.3,0,3.6,1.5,3.6,3.8v6.4h-2.3v-5.7c0-1.6-0.8-2.4-2.1-2.4
					s-2.3,0.9-2.3,2.5v5.6h-2.3L1087.5,345.3L1087.5,345.3z"/>
			</g>
			<g>
				<g>
					<path class="st42" d="M558,698.6h-43c-1.7,0-3-1.3-3-3V633c0-1.7,1.3-3,3-3h43c1.7,0,3,1.3,3,3v62.6
						C561.1,697.2,559.7,698.6,558,698.6z"/>
					<path class="st43" d="M556.7,696.7h-40.3c-1.7,0-3-1.3-3-3v-58.9c0-1.7,1.3-3,3-3h40.3c1.7,0,3,1.3,3,3v58.9
						C559.7,695.3,558.3,696.7,556.7,696.7z"/>
					<path class="st44" d="M516.4,696.7c-1.7,0-3-1.3-3-3v-58.9c0-1.7,1.3-3,3-3h40.3c1.7,0,3,1.3,3,3"/>
					<path class="st45" d="M532.7,688.6h-12.2c-1.7,0-3-1.3-3-3v-13c0-1.3,1.6-2,2.6-1l13.8,14.6C534.7,687,534,688.6,532.7,688.6z"
						/>
					<circle class="st46" cx="536.5" cy="653.9" r="19.3"/>
					<circle class="st37" cx="536.5" cy="653.9" r="4.1"/>
					<circle class="st37" cx="516.6" cy="635.5" r="1.9"/>
					<circle class="st37" cx="555.8" cy="635.5" r="1.9"/>
					<circle class="st37" cx="516.6" cy="692.7" r="1.9"/>
					<circle class="st37" cx="555.8" cy="692.7" r="1.9"/>
					<path class="st37" d="M520.9,678.7l14-12.2c0.9-0.7,2.1,0.2,1.7,1.3l-7.7,16.9c-0.3,0.7-1.1,0.9-1.7,0.5l-6.3-4.7
						C520.3,680,520.3,679.1,520.9,678.7z"/>
					<g>
						<path class="st37" d="M554.6,680.3h-8.3c-0.7,0-1.3-0.6-1.3-1.3v-0.2c0-0.7,0.6-1.3,1.3-1.3h8.3c0.7,0,1.3,0.6,1.3,1.3v0.2
							C555.8,679.7,555.3,680.3,554.6,680.3z"/>
						<path class="st37" d="M554.6,684.4h-8.3c-0.7,0-1.3-0.6-1.3-1.3v-0.2c0-0.7,0.6-1.3,1.3-1.3h8.3c0.7,0,1.3,0.6,1.3,1.3v0.2
							C555.8,683.8,555.3,684.4,554.6,684.4z"/>
					</g>
				</g>
				<g>
					<path class="st42" d="M613.5,698.6h-43c-1.7,0-3-1.3-3-3V633c0-1.7,1.3-3,3-3h43c1.7,0,3,1.3,3,3v62.6
						C616.5,697.2,615.2,698.6,613.5,698.6z"/>
					<path class="st43" d="M612.2,696.7h-40.3c-1.7,0-3-1.3-3-3v-58.9c0-1.7,1.3-3,3-3h40.3c1.7,0,3,1.3,3,3v58.9
						C615.2,695.3,613.8,696.7,612.2,696.7z"/>
					<path class="st44" d="M571.9,696.7c-1.7,0-3-1.3-3-3v-58.9c0-1.7,1.3-3,3-3h40.3c1.7,0,3,1.3,3,3"/>
					<path class="st45" d="M588.2,688.6H576c-1.7,0-3-1.3-3-3v-13c0-1.3,1.6-2,2.6-1l13.8,14.6C590.1,687,589.5,688.6,588.2,688.6z"
						/>
					<circle class="st46" cx="592" cy="653.9" r="19.3"/>
					<circle class="st37" cx="592" cy="653.9" r="4.1"/>
					<circle class="st37" cx="572.1" cy="635.5" r="1.9"/>
					<circle class="st37" cx="611.3" cy="635.5" r="1.9"/>
					<circle class="st37" cx="572.1" cy="692.7" r="1.9"/>
					<circle class="st37" cx="611.3" cy="692.7" r="1.9"/>
					<path class="st37" d="M576.3,678.7l14-12.2c0.9-0.7,2.1,0.2,1.7,1.3l-7.7,16.9c-0.3,0.7-1.1,0.9-1.7,0.5l-6.3-4.7
						C575.8,680,575.8,679.1,576.3,678.7z"/>
					<g>
						<path class="st37" d="M610,680.3h-8.3c-0.7,0-1.3-0.6-1.3-1.3v-0.2c0-0.7,0.6-1.3,1.3-1.3h8.3c0.7,0,1.3,0.6,1.3,1.3v0.2
							C611.3,679.7,610.7,680.3,610,680.3z"/>
						<path class="st37" d="M610,684.4h-8.3c-0.7,0-1.3-0.6-1.3-1.3v-0.2c0-0.7,0.6-1.3,1.3-1.3h8.3c0.7,0,1.3,0.6,1.3,1.3v0.2
							C611.3,683.8,610.7,684.4,610,684.4z"/>
					</g>
				</g>
				<g>
					<g>
						<path class="st47" d="M570.2,552.6h40c1.5,0,2.8,1.3,2.8,2.8v58.3c0,1.5-1.3,2.8-2.8,2.8h-40c-1.5,0-2.8-1.3-2.8-2.8v-58.3
							C567.4,553.8,568.7,552.6,570.2,552.6z"/>
						<path class="st48" d="M571.5,554.4H609c1.5,0,2.8,1.3,2.8,2.8V612c0,1.5-1.3,2.8-2.8,2.8h-37.5c-1.5,0-2.8-1.3-2.8-2.8v-54.8
							C568.7,555.6,569.9,554.4,571.5,554.4z"/>
						<path class="st49" d="M611.8,562v49.9c0,1.5-1.3,2.8-2.8,2.8h-31.4c0,0-1.4-20,10.1-37.2C598.2,562,611.8,562,611.8,562z"/>
						<circle class="st37" cx="608.8" cy="611.4" r="1.8"/>
						<circle class="st37" cx="572.3" cy="611.4" r="1.8"/>
						<circle class="st37" cx="608.8" cy="558.1" r="1.8"/>
						<circle class="st37" cx="572.3" cy="558.1" r="1.8"/>
					</g>
					<g>
						<path class="st37" d="M604.2,604.4l-1.2-1c0.6-0.7,0.9-1.4,0.9-2.2c0-0.7-0.3-1.1-0.7-1.1l0,0c-0.4,0-0.6,0.3-0.9,1.5
							c-0.4,1.5-0.8,2.5-2.3,2.5l0,0c-1.3,0-2.2-1.1-2.2-2.6c0-1.1,0.3-2,0.9-2.8l1.2,0.8c-0.5,0.7-0.7,1.3-0.7,1.9
							c0,0.6,0.3,1,0.6,1l0,0c0.5,0,0.6-0.3,1-1.6c0.4-1.5,0.9-2.4,2.2-2.4l0,0c1.5,0,2.3,1.1,2.3,2.7
							C605.4,602.4,605,603.5,604.2,604.4z"/>
						<path class="st37" d="M604.2,597.7l-1.2-1c0.6-0.7,0.9-1.4,0.9-2.2c0-0.7-0.3-1.1-0.7-1.1l0,0c-0.4,0-0.6,0.3-0.9,1.5
							c-0.4,1.5-0.8,2.5-2.3,2.5l0,0c-1.3,0-2.2-1.1-2.2-2.6c0-1.1,0.3-2,0.9-2.8l1.2,0.8c-0.5,0.7-0.7,1.3-0.7,1.9
							c0,0.6,0.3,1,0.6,1l0,0c0.5,0,0.6-0.3,1-1.6c0.4-1.5,0.9-2.4,2.2-2.4l0,0c1.5,0,2.3,1.1,2.3,2.7
							C605.4,595.7,605,596.8,604.2,597.7z"/>
						<path class="st37" d="M597.9,590.4v-2.9c0-2.3,1.6-4,3.7-4l0,0c2.1,0,3.7,1.6,3.7,4v2.9H597.9z M599.3,588.8h4.5v-1.3
							c0-1.3-0.9-2.2-2.2-2.2l0,0c-1.3,0-2.2,0.9-2.2,2.2L599.3,588.8L599.3,588.8z"/>
					</g>
				</g>
				<g>
					<g>
						<g>
							<path class="st42" d="M559.4,581.8h-21.9c-0.9,0-1.7,0.7-1.7,1.7v9.1h-0.1l-3.1,3.1v5h3.1v4l-2.9,2.9v9h4.6l0,0h21.9
								c0.9,0,1.7-0.7,1.7-1.7v-31.5C561.1,582.5,560.3,581.8,559.4,581.8z"/>
							<path class="st50" d="M558.6,615.2h-20.3c-0.8,0-1.5-0.7-1.5-1.5v-28.9c0-0.8,0.7-1.5,1.5-1.5h20.3c0.8,0,1.5,0.7,1.5,1.5
								v28.9C560.1,614.5,559.5,615.2,558.6,615.2z"/>
						</g>
						<g>
							<rect x="538.4" y="584.3" class="st46" width="2.1" height="7.4"/>
							<rect x="541.1" y="584.3" class="st46" width="2.1" height="7.4"/>
							<rect x="538.6" y="612.2" class="st51" width="19.8" height="1.1"/>
							<rect x="543.8" y="584.3" class="st46" width="2.1" height="7.4"/>
							<rect x="546.5" y="584.3" class="st46" width="2.1" height="7.4"/>
							<rect x="549.2" y="584.3" class="st46" width="2.1" height="7.4"/>
							<rect x="551.9" y="584.3" class="st46" width="2.1" height="7.4"/>
							<rect x="554.6" y="584.3" class="st46" width="2.1" height="7.4"/>
							<rect x="557.3" y="584.3" class="st46" width="2.1" height="7.4"/>
						</g>
					</g>
					<g>
						<text transform="matrix(1 0 0 1 541.7418 603.0657)" class="st52 st53 st54">SD</text>
					</g>
				</g>
			</g>
			<g>
				<g>
					<path class="st42" d="M969,698.6h-43c-1.7,0-3-1.3-3-3V633c0-1.7,1.3-3,3-3h43c1.7,0,3,1.3,3,3v62.6
						C972.1,697.2,970.7,698.6,969,698.6z"/>
					<path class="st43" d="M967.7,696.7h-40.3c-1.7,0-3-1.3-3-3v-58.9c0-1.7,1.3-3,3-3h40.3c1.7,0,3,1.3,3,3v58.9
						C970.7,695.3,969.3,696.7,967.7,696.7z"/>
					<path class="st44" d="M927.4,696.7c-1.7,0-3-1.3-3-3v-58.9c0-1.7,1.3-3,3-3h40.3c1.7,0,3,1.3,3,3"/>
					<path class="st45" d="M943.7,688.6h-12.2c-1.7,0-3-1.3-3-3v-13c0-1.3,1.6-2,2.6-1l13.8,14.6C945.7,687,945,688.6,943.7,688.6z"
						/>
					<circle class="st46" cx="947.5" cy="653.9" r="19.3"/>
					<circle class="st37" cx="947.5" cy="653.9" r="4.1"/>
					<circle class="st37" cx="927.6" cy="635.5" r="1.9"/>
					<circle class="st37" cx="966.8" cy="635.5" r="1.9"/>
					<circle class="st37" cx="927.6" cy="692.7" r="1.9"/>
					<circle class="st37" cx="966.8" cy="692.7" r="1.9"/>
					<path class="st37" d="M931.9,678.7l14-12.2c0.9-0.7,2.1,0.2,1.7,1.3l-7.7,16.9c-0.3,0.7-1.1,0.9-1.7,0.5l-6.3-4.7
						C931.3,680,931.3,679.1,931.9,678.7z"/>
					<g>
						<path class="st37" d="M965.6,680.3h-8.3c-0.7,0-1.3-0.6-1.3-1.3v-0.2c0-0.7,0.6-1.3,1.3-1.3h8.3c0.7,0,1.3,0.6,1.3,1.3v0.2
							C966.8,679.7,966.3,680.3,965.6,680.3z"/>
						<path class="st37" d="M965.6,684.4h-8.3c-0.7,0-1.3-0.6-1.3-1.3v-0.2c0-0.7,0.6-1.3,1.3-1.3h8.3c0.7,0,1.3,0.6,1.3,1.3v0.2
							C966.8,683.8,966.3,684.4,965.6,684.4z"/>
					</g>
				</g>
				<g>
					<path class="st42" d="M1024.5,698.6h-43c-1.7,0-3-1.3-3-3V633c0-1.7,1.3-3,3-3h43c1.7,0,3,1.3,3,3v62.6
						C1027.5,697.2,1026.2,698.6,1024.5,698.6z"/>
					<path class="st43" d="M1023.2,696.7h-40.3c-1.7,0-3-1.3-3-3v-58.9c0-1.7,1.3-3,3-3h40.3c1.7,0,3,1.3,3,3v58.9
						C1026.2,695.3,1024.8,696.7,1023.2,696.7z"/>
					<path class="st44" d="M982.9,696.7c-1.7,0-3-1.3-3-3v-58.9c0-1.7,1.3-3,3-3h40.3c1.7,0,3,1.3,3,3"/>
					<path class="st45" d="M999.2,688.6H987c-1.7,0-3-1.3-3-3v-13c0-1.3,1.6-2,2.6-1l13.8,14.6C1001.1,687,1000.5,688.6,999.2,688.6
						z"/>
					<circle class="st46" cx="1003" cy="653.9" r="19.3"/>
					<circle class="st37" cx="1003" cy="653.9" r="4.1"/>
					<circle class="st37" cx="983.1" cy="635.5" r="1.9"/>
					<circle class="st37" cx="1022.3" cy="635.5" r="1.9"/>
					<circle class="st37" cx="983.1" cy="692.7" r="1.9"/>
					<circle class="st37" cx="1022.3" cy="692.7" r="1.9"/>
					<path class="st37" d="M987.3,678.7l14-12.2c0.9-0.7,2.1,0.2,1.7,1.3l-7.7,16.9c-0.3,0.7-1.1,0.9-1.7,0.5l-6.3-4.7
						C986.8,680,986.8,679.1,987.3,678.7z"/>
					<g>
						<path class="st37" d="M1021,680.3h-8.3c-0.7,0-1.3-0.6-1.3-1.3v-0.2c0-0.7,0.6-1.3,1.3-1.3h8.3c0.7,0,1.3,0.6,1.3,1.3v0.2
							C1022.3,679.7,1021.7,680.3,1021,680.3z"/>
						<path class="st37" d="M1021,684.4h-8.3c-0.7,0-1.3-0.6-1.3-1.3v-0.2c0-0.7,0.6-1.3,1.3-1.3h8.3c0.7,0,1.3,0.6,1.3,1.3v0.2
							C1022.3,683.8,1021.7,684.4,1021,684.4z"/>
					</g>
				</g>
				<g>
					<g>
						<path class="st47" d="M981.2,552.6h40c1.5,0,2.8,1.3,2.8,2.8v58.3c0,1.5-1.3,2.8-2.8,2.8h-40c-1.5,0-2.8-1.3-2.8-2.8v-58.3
							C978.4,553.8,979.7,552.6,981.2,552.6z"/>
						<path class="st48" d="M982.5,554.4h37.5c1.5,0,2.8,1.3,2.8,2.8V612c0,1.5-1.3,2.8-2.8,2.8h-37.5c-1.5,0-2.8-1.3-2.8-2.8v-54.8
							C979.7,555.6,980.9,554.4,982.5,554.4z"/>
						<path class="st49" d="M1022.8,562v49.9c0,1.5-1.3,2.8-2.8,2.8h-31.4c0,0-1.4-20,10.1-37.2C1009.2,562,1022.8,562,1022.8,562z"
							/>
						<circle class="st37" cx="1019.8" cy="611.4" r="1.8"/>
						<circle class="st37" cx="983.3" cy="611.4" r="1.8"/>
						<circle class="st37" cx="1019.8" cy="558.1" r="1.8"/>
						<circle class="st37" cx="983.3" cy="558.1" r="1.8"/>
					</g>
					<g>
						<path class="st37" d="M1015.2,604.4l-1.2-1c0.6-0.7,0.9-1.4,0.9-2.2c0-0.7-0.3-1.1-0.7-1.1l0,0c-0.4,0-0.6,0.3-0.9,1.5
							c-0.4,1.5-0.8,2.5-2.3,2.5l0,0c-1.3,0-2.2-1.1-2.2-2.6c0-1.1,0.3-2,0.9-2.8l1.2,0.8c-0.5,0.7-0.7,1.3-0.7,1.9
							c0,0.6,0.3,1,0.6,1l0,0c0.5,0,0.6-0.3,1-1.6c0.4-1.5,0.9-2.4,2.2-2.4l0,0c1.5,0,2.3,1.1,2.3,2.7
							C1016.4,602.4,1016,603.5,1015.2,604.4z"/>
						<path class="st37" d="M1015.2,597.7l-1.2-1c0.6-0.7,0.9-1.4,0.9-2.2c0-0.7-0.3-1.1-0.7-1.1l0,0c-0.4,0-0.6,0.3-0.9,1.5
							c-0.4,1.5-0.8,2.5-2.3,2.5l0,0c-1.3,0-2.2-1.1-2.2-2.6c0-1.1,0.3-2,0.9-2.8l1.2,0.8c-0.5,0.7-0.7,1.3-0.7,1.9
							c0,0.6,0.3,1,0.6,1l0,0c0.5,0,0.6-0.3,1-1.6c0.4-1.5,0.9-2.4,2.2-2.4l0,0c1.5,0,2.3,1.1,2.3,2.7
							C1016.4,595.7,1016,596.8,1015.2,597.7z"/>
						<path class="st37" d="M1008.9,590.4v-2.9c0-2.3,1.6-4,3.7-4l0,0c2.1,0,3.7,1.6,3.7,4v2.9H1008.9z M1010.3,588.8h4.5v-1.3
							c0-1.3-0.9-2.2-2.2-2.2l0,0c-1.3,0-2.2,0.9-2.2,2.2L1010.3,588.8L1010.3,588.8z"/>
					</g>
				</g>
				<g>
					<g>
						<g>
							<path class="st42" d="M970.4,581.8h-21.9c-0.9,0-1.7,0.7-1.7,1.7v9.1h-0.1l-3.1,3.1v5h3.1v4l-2.9,2.9v9h4.6l0,0h21.9
								c0.9,0,1.7-0.7,1.7-1.7v-31.5C972.1,582.5,971.3,581.8,970.4,581.8z"/>
							<path class="st50" d="M969.6,615.2h-20.3c-0.8,0-1.5-0.7-1.5-1.5v-28.9c0-0.8,0.7-1.5,1.5-1.5h20.3c0.8,0,1.5,0.7,1.5,1.5
								v28.9C971.1,614.5,970.5,615.2,969.6,615.2z"/>
						</g>
						<g>
							<rect x="949.4" y="584.3" class="st46" width="2.1" height="7.4"/>
							<rect x="952.1" y="584.3" class="st46" width="2.1" height="7.4"/>
							<rect x="949.6" y="612.2" class="st51" width="19.8" height="1.1"/>
							<rect x="954.8" y="584.3" class="st46" width="2.1" height="7.4"/>
							<rect x="957.5" y="584.3" class="st46" width="2.1" height="7.4"/>
							<rect x="960.2" y="584.3" class="st46" width="2.1" height="7.4"/>
							<rect x="962.9" y="584.3" class="st46" width="2.1" height="7.4"/>
							<rect x="965.6" y="584.3" class="st46" width="2.1" height="7.4"/>
							<rect x="968.3" y="584.3" class="st46" width="2.1" height="7.4"/>
						</g>
					</g>
					<g>
						<text transform="matrix(1 0 0 1 952.7418 603.0657)" class="st52 st53 st54">SD</text>
					</g>
				</g>
			</g>
			<g>
				<g>
					<path class="st42" d="M1381,698.6h-43c-1.7,0-3-1.3-3-3V633c0-1.7,1.3-3,3-3h43c1.7,0,3,1.3,3,3v62.6
						C1384.1,697.2,1382.7,698.6,1381,698.6z"/>
					<path class="st43" d="M1379.7,696.7h-40.3c-1.7,0-3-1.3-3-3v-58.9c0-1.7,1.3-3,3-3h40.3c1.7,0,3,1.3,3,3v58.9
						C1382.7,695.3,1381.3,696.7,1379.7,696.7z"/>
					<path class="st44" d="M1339.4,696.7c-1.7,0-3-1.3-3-3v-58.9c0-1.7,1.3-3,3-3h40.3c1.7,0,3,1.3,3,3"/>
					<path class="st45" d="M1355.7,688.6h-12.2c-1.7,0-3-1.3-3-3v-13c0-1.3,1.6-2,2.6-1l13.8,14.6
						C1357.7,687,1357,688.6,1355.7,688.6z"/>
					<circle class="st46" cx="1359.5" cy="653.9" r="19.3"/>
					<circle class="st37" cx="1359.5" cy="653.9" r="4.1"/>
					<circle class="st37" cx="1339.6" cy="635.5" r="1.9"/>
					<circle class="st37" cx="1378.8" cy="635.5" r="1.9"/>
					<circle class="st37" cx="1339.6" cy="692.7" r="1.9"/>
					<circle class="st37" cx="1378.8" cy="692.7" r="1.9"/>
					<path class="st37" d="M1343.9,678.7l14-12.2c0.9-0.7,2.1,0.2,1.7,1.3l-7.7,16.9c-0.3,0.7-1.1,0.9-1.7,0.5l-6.3-4.7
						C1343.3,680,1343.3,679.1,1343.9,678.7z"/>
					<g>
						<path class="st37" d="M1377.6,680.3h-8.3c-0.7,0-1.3-0.6-1.3-1.3v-0.2c0-0.7,0.6-1.3,1.3-1.3h8.3c0.7,0,1.3,0.6,1.3,1.3v0.2
							C1378.8,679.7,1378.3,680.3,1377.6,680.3z"/>
						<path class="st37" d="M1377.6,684.4h-8.3c-0.7,0-1.3-0.6-1.3-1.3v-0.2c0-0.7,0.6-1.3,1.3-1.3h8.3c0.7,0,1.3,0.6,1.3,1.3v0.2
							C1378.8,683.8,1378.3,684.4,1377.6,684.4z"/>
					</g>
				</g>
				<g>
					<path class="st42" d="M1436.5,698.6h-43c-1.7,0-3-1.3-3-3V633c0-1.7,1.3-3,3-3h43c1.7,0,3,1.3,3,3v62.6
						C1439.5,697.2,1438.2,698.6,1436.5,698.6z"/>
					<path class="st43" d="M1435.2,696.7h-40.3c-1.7,0-3-1.3-3-3v-58.9c0-1.7,1.3-3,3-3h40.3c1.7,0,3,1.3,3,3v58.9
						C1438.2,695.3,1436.8,696.7,1435.2,696.7z"/>
					<path class="st44" d="M1394.9,696.7c-1.7,0-3-1.3-3-3v-58.9c0-1.7,1.3-3,3-3h40.3c1.7,0,3,1.3,3,3"/>
					<path class="st45" d="M1411.2,688.6H1399c-1.7,0-3-1.3-3-3v-13c0-1.3,1.6-2,2.6-1l13.8,14.6
						C1413.1,687,1412.5,688.6,1411.2,688.6z"/>
					<circle class="st46" cx="1415" cy="653.9" r="19.3"/>
					<circle class="st37" cx="1415" cy="653.9" r="4.1"/>
					<circle class="st37" cx="1395.1" cy="635.5" r="1.9"/>
					<circle class="st37" cx="1434.3" cy="635.5" r="1.9"/>
					<circle class="st37" cx="1395.1" cy="692.7" r="1.9"/>
					<circle class="st37" cx="1434.3" cy="692.7" r="1.9"/>
					<path class="st37" d="M1399.3,678.7l14-12.2c0.9-0.7,2.1,0.2,1.7,1.3l-7.7,16.9c-0.3,0.7-1.1,0.9-1.7,0.5l-6.3-4.7
						C1398.8,680,1398.8,679.1,1399.3,678.7z"/>
					<g>
						<path class="st37" d="M1433,680.3h-8.3c-0.7,0-1.3-0.6-1.3-1.3v-0.2c0-0.7,0.6-1.3,1.3-1.3h8.3c0.7,0,1.3,0.6,1.3,1.3v0.2
							C1434.3,679.7,1433.7,680.3,1433,680.3z"/>
						<path class="st37" d="M1433,684.4h-8.3c-0.7,0-1.3-0.6-1.3-1.3v-0.2c0-0.7,0.6-1.3,1.3-1.3h8.3c0.7,0,1.3,0.6,1.3,1.3v0.2
							C1434.3,683.8,1433.7,684.4,1433,684.4z"/>
					</g>
				</g>
				<g>
					<g>
						<path class="st47" d="M1393.2,552.6h40c1.5,0,2.8,1.3,2.8,2.8v58.3c0,1.5-1.3,2.8-2.8,2.8h-40c-1.5,0-2.8-1.3-2.8-2.8v-58.3
							C1390.4,553.8,1391.7,552.6,1393.2,552.6z"/>
						<path class="st48" d="M1394.5,554.4h37.5c1.5,0,2.8,1.3,2.8,2.8V612c0,1.5-1.3,2.8-2.8,2.8h-37.5c-1.5,0-2.8-1.3-2.8-2.8
							v-54.8C1391.7,555.6,1392.9,554.4,1394.5,554.4z"/>
						<path class="st49" d="M1434.8,562v49.9c0,1.5-1.3,2.8-2.8,2.8h-31.4c0,0-1.4-20,10.1-37.2C1421.2,562,1434.8,562,1434.8,562z"
							/>
						<circle class="st37" cx="1431.8" cy="611.4" r="1.8"/>
						<circle class="st37" cx="1395.3" cy="611.4" r="1.8"/>
						<circle class="st37" cx="1431.8" cy="558.1" r="1.8"/>
						<circle class="st37" cx="1395.3" cy="558.1" r="1.8"/>
					</g>
					<g>
						<path class="st37" d="M1427.2,604.4l-1.2-1c0.6-0.7,0.9-1.4,0.9-2.2c0-0.7-0.3-1.1-0.7-1.1l0,0c-0.4,0-0.6,0.3-0.9,1.5
							c-0.4,1.5-0.8,2.5-2.3,2.5l0,0c-1.3,0-2.2-1.1-2.2-2.6c0-1.1,0.3-2,0.9-2.8l1.2,0.8c-0.5,0.7-0.7,1.3-0.7,1.9
							c0,0.6,0.3,1,0.6,1l0,0c0.5,0,0.6-0.3,1-1.6c0.4-1.5,0.9-2.4,2.2-2.4l0,0c1.5,0,2.3,1.1,2.3,2.7
							C1428.4,602.4,1428,603.5,1427.2,604.4z"/>
						<path class="st37" d="M1427.2,597.7l-1.2-1c0.6-0.7,0.9-1.4,0.9-2.2c0-0.7-0.3-1.1-0.7-1.1l0,0c-0.4,0-0.6,0.3-0.9,1.5
							c-0.4,1.5-0.8,2.5-2.3,2.5l0,0c-1.3,0-2.2-1.1-2.2-2.6c0-1.1,0.3-2,0.9-2.8l1.2,0.8c-0.5,0.7-0.7,1.3-0.7,1.9
							c0,0.6,0.3,1,0.6,1l0,0c0.5,0,0.6-0.3,1-1.6c0.4-1.5,0.9-2.4,2.2-2.4l0,0c1.5,0,2.3,1.1,2.3,2.7
							C1428.4,595.7,1428,596.8,1427.2,597.7z"/>
						<path class="st37" d="M1420.9,590.4v-2.9c0-2.3,1.6-4,3.7-4l0,0c2.1,0,3.7,1.6,3.7,4v2.9H1420.9z M1422.3,588.8h4.5v-1.3
							c0-1.3-0.9-2.2-2.2-2.2l0,0c-1.3,0-2.2,0.9-2.2,2.2v1.3H1422.3z"/>
					</g>
				</g>
				<g>
					<g>
						<g>
							<path class="st42" d="M1382.4,581.8h-21.9c-0.9,0-1.7,0.7-1.7,1.7v9.1h-0.1l-3.1,3.1v5h3.1v4l-2.9,2.9v9h4.6l0,0h21.9
								c0.9,0,1.7-0.7,1.7-1.7v-31.5C1384.1,582.5,1383.3,581.8,1382.4,581.8z"/>
							<path class="st50" d="M1381.6,615.2h-20.3c-0.8,0-1.5-0.7-1.5-1.5v-28.9c0-0.8,0.7-1.5,1.5-1.5h20.3c0.8,0,1.5,0.7,1.5,1.5
								v28.9C1383.1,614.5,1382.5,615.2,1381.6,615.2z"/>
						</g>
						<g>
							<rect x="1361.4" y="584.3" class="st46" width="2.1" height="7.4"/>
							<rect x="1364.1" y="584.3" class="st46" width="2.1" height="7.4"/>
							<rect x="1361.6" y="612.2" class="st51" width="19.8" height="1.1"/>
							<rect x="1366.8" y="584.3" class="st46" width="2.1" height="7.4"/>
							<rect x="1369.5" y="584.3" class="st46" width="2.1" height="7.4"/>
							<rect x="1372.2" y="584.3" class="st46" width="2.1" height="7.4"/>
							<rect x="1374.9" y="584.3" class="st46" width="2.1" height="7.4"/>
							<rect x="1377.6" y="584.3" class="st46" width="2.1" height="7.4"/>
							<rect x="1380.3" y="584.3" class="st46" width="2.1" height="7.4"/>
						</g>
					</g>
					<g>
						<text transform="matrix(1 0 0 1 1364.7418 603.0657)" class="st52 st53 st54">SD</text>
					</g>
				</g>
			</g>
		</g>
		<path class="st55" d="M537.4,16.8H436.3c-2.2,0-4,1.8-4,4v51.1c0,2.2,1.8,4,4,4h101.1c2.2,0,4-1.8,4-4V20.8
			C541.4,18.6,539.6,16.8,537.4,16.8z"/>
		<g>
			<path class="st3" d="M471.4,31.4h1.2l7.1,9v-9h1.2v11.2h-1l-7.2-9.2v9.2h-1.2V31.4H471.4z"/>
			<path class="st3" d="M483.3,41l0.8-0.9c1.2,1.1,2.3,1.6,3.8,1.6s2.5-0.8,2.5-1.9l0,0c0-1-0.6-1.6-2.9-2.1
				c-2.6-0.6-3.8-1.4-3.8-3.2l0,0c0-1.8,1.6-3.1,3.7-3.1c1.6,0,2.8,0.5,3.9,1.4l-0.7,1c-1-0.8-2.1-1.2-3.2-1.2
				c-1.5,0-2.4,0.8-2.4,1.8l0,0c0,1.1,0.6,1.6,3,2.2c2.5,0.5,3.6,1.5,3.6,3.2l0,0c0,1.9-1.6,3.2-3.8,3.2
				C486.1,42.8,484.6,42.2,483.3,41z"/>
			<path class="st3" d="M503,31.4l-4.1,5.5l4.3,5.7h-1.5l-3.6-4.8l-3.6,4.8H493l4.3-5.7l-4.1-5.5h1.5l3.4,4.6l3.4-4.6H503z"/>
			<path class="st3" d="M448.4,56.3L448.4,56.3c0-3.2,2.4-5.8,5.7-5.8c2,0,3.2,0.7,4.4,1.8l-0.9,0.9c-0.9-0.9-2-1.5-3.5-1.5
				c-2.5,0-4.3,2-4.3,4.6l0,0c0,2.6,1.9,4.6,4.3,4.6c1.5,0,2.5-0.6,3.6-1.6l0.8,0.8c-1.2,1.2-2.4,2-4.5,2
				C450.8,62,448.4,59.5,448.4,56.3z"/>
			<path class="st3" d="M459.8,57.8L459.8,57.8c0-2.4,1.8-4.4,4.3-4.4s4.3,2,4.3,4.3l0,0c0,2.3-1.8,4.3-4.3,4.3
				C461.6,62,459.8,60.1,459.8,57.8z M467.2,57.8L467.2,57.8c0-1.8-1.3-3.3-3.1-3.3c-1.8,0-3,1.5-3,3.2l0,0c0,1.8,1.3,3.2,3.1,3.2
				C465.9,60.9,467.2,59.5,467.2,57.8z"/>
			<path class="st3" d="M470.6,53.6h1.2V55c0.5-0.9,1.4-1.6,2.8-1.6c2,0,3.2,1.3,3.2,3.3v5.1h-1.2V57c0-1.5-0.8-2.5-2.3-2.5
				c-1.4,0-2.5,1-2.5,2.6v4.7h-1.2V53.6z"/>
			<path class="st3" d="M480.9,59.7v-5h-1.2v-1.1h1.2v-2.5h1.2v2.5h2.6v1.1h-2.6v4.8c0,1,0.6,1.4,1.4,1.4c0.4,0,0.8-0.1,1.2-0.3v1.1
				c-0.4,0.2-0.9,0.4-1.5,0.4C481.9,62,480.9,61.3,480.9,59.7z"/>
			<path class="st3" d="M487,53.6h1.2v2.2c0.6-1.4,1.8-2.4,3.4-2.3v1.3h-0.1c-1.8,0-3.3,1.3-3.3,3.8v3.3H487V53.6z"/>
			<path class="st3" d="M492.6,57.8L492.6,57.8c0-2.4,1.8-4.4,4.3-4.4s4.3,2,4.3,4.3l0,0c0,2.3-1.8,4.3-4.3,4.3
				C494.4,62,492.6,60.1,492.6,57.8z M499.9,57.8L499.9,57.8c0-1.8-1.3-3.3-3.1-3.3s-3,1.5-3,3.2l0,0c0,1.8,1.3,3.2,3.1,3.2
				S499.9,59.5,499.9,57.8z"/>
			<path class="st3" d="M503.5,50.2h1.2v11.7h-1.2V50.2z"/>
			<path class="st3" d="M507.7,50.2h1.2v11.7h-1.2V50.2z"/>
			<path class="st3" d="M511.3,57.7L511.3,57.7c0-2.4,1.7-4.3,4-4.3c2.4,0,3.9,2,3.9,4.4c0,0.2,0,0.3,0,0.4h-6.6
				c0.2,1.8,1.4,2.8,2.9,2.8c1.1,0,1.9-0.5,2.6-1.2l0.8,0.7c-0.8,0.9-1.8,1.6-3.4,1.6C513.2,62,511.3,60.3,511.3,57.7z M517.9,57.3
				c-0.1-1.5-1-2.8-2.6-2.8c-1.4,0-2.5,1.2-2.7,2.8H517.9z"/>
			<path class="st3" d="M521.3,53.6h1.2v2.2c0.6-1.4,1.8-2.4,3.4-2.3v1.3h-0.1c-1.8,0-3.3,1.3-3.3,3.8v3.3h-1.2L521.3,53.6
				L521.3,53.6z"/>
		</g>
		<path class="st55" d="M537.4,105.3H436.3c-2.2,0-4,1.8-4,4v51.1c0,2.2,1.8,4,4,4h101.1c2.2,0,4-1.8,4-4v-51.1
			C541.4,107.1,539.6,105.3,537.4,105.3z"/>
		<g>
			<path class="st3" d="M471.4,119.9h1.2l7.1,9v-9h1.2v11.2h-1l-7.2-9.2v9.2h-1.2v-11.2C471.5,119.9,471.4,119.9,471.4,119.9z"/>
			<path class="st3" d="M483.3,129.5l0.8-0.9c1.2,1.1,2.3,1.6,3.8,1.6s2.5-0.8,2.5-1.9l0,0c0-1-0.6-1.6-2.9-2.1
				c-2.6-0.6-3.8-1.4-3.8-3.2l0,0c0-1.8,1.6-3.1,3.7-3.1c1.6,0,2.8,0.5,3.9,1.4l-0.7,1c-1-0.8-2.1-1.2-3.2-1.2
				c-1.5,0-2.4,0.8-2.4,1.8l0,0c0,1.1,0.6,1.6,3,2.2c2.5,0.5,3.6,1.5,3.6,3.2l0,0c0,1.9-1.6,3.2-3.8,3.2
				C486.1,131.3,484.6,130.7,483.3,129.5z"/>
			<path class="st3" d="M503,119.9l-4.1,5.5l4.3,5.7h-1.5l-3.6-4.8l-3.6,4.8H493l4.3-5.7l-4.1-5.5h1.5l3.4,4.6l3.4-4.6
				C501.5,119.9,503,119.9,503,119.9z"/>
			<path class="st3" d="M448.4,144.7L448.4,144.7c0-3.2,2.4-5.8,5.7-5.8c2,0,3.2,0.7,4.4,1.8l-0.9,0.9c-0.9-0.9-2-1.5-3.5-1.5
				c-2.5,0-4.3,2-4.3,4.6l0,0c0,2.6,1.9,4.6,4.3,4.6c1.5,0,2.5-0.6,3.6-1.6l0.8,0.8c-1.2,1.2-2.4,2-4.5,2
				C450.8,150.5,448.4,147.9,448.4,144.7z"/>
			<path class="st3" d="M459.8,146.2L459.8,146.2c0-2.4,1.8-4.4,4.3-4.4s4.3,2,4.3,4.3l0,0c0,2.3-1.8,4.3-4.3,4.3
				C461.6,150.5,459.8,148.5,459.8,146.2z M467.2,146.2L467.2,146.2c0-1.8-1.3-3.3-3.1-3.3c-1.8,0-3,1.5-3,3.2l0,0
				c0,1.8,1.3,3.2,3.1,3.2C465.9,149.4,467.2,147.9,467.2,146.2z"/>
			<path class="st3" d="M470.6,142h1.2v1.4c0.5-0.9,1.4-1.6,2.8-1.6c2,0,3.2,1.3,3.2,3.3v5.1h-1.2v-4.8c0-1.5-0.8-2.5-2.3-2.5
				c-1.4,0-2.5,1-2.5,2.6v4.7h-1.2V142z"/>
			<path class="st3" d="M480.9,148.1v-5h-1.2V142h1.2v-2.5h1.2v2.5h2.6v1.1h-2.6v4.8c0,1,0.6,1.4,1.4,1.4c0.4,0,0.8-0.1,1.2-0.3v1.1
				c-0.4,0.2-0.9,0.4-1.5,0.4C481.9,150.4,480.9,149.8,480.9,148.1z"/>
			<path class="st3" d="M487,142h1.2v2.2c0.6-1.4,1.8-2.4,3.4-2.3v1.3h-0.1c-1.8,0-3.3,1.3-3.3,3.8v3.3H487V142z"/>
			<path class="st3" d="M492.6,146.2L492.6,146.2c0-2.4,1.8-4.4,4.3-4.4s4.3,2,4.3,4.3l0,0c0,2.3-1.8,4.3-4.3,4.3
				C494.4,150.5,492.6,148.5,492.6,146.2z M499.9,146.2L499.9,146.2c0-1.8-1.3-3.3-3.1-3.3s-3,1.5-3,3.2l0,0c0,1.8,1.3,3.2,3.1,3.2
				C498.7,149.4,499.9,147.9,499.9,146.2z"/>
			<path class="st3" d="M503.5,138.6h1.2v11.7h-1.2V138.6z"/>
			<path class="st3" d="M507.7,138.6h1.2v11.7h-1.2V138.6z"/>
			<path class="st3" d="M511.3,146.2L511.3,146.2c0-2.4,1.7-4.3,4-4.3c2.4,0,3.9,2,3.9,4.4c0,0.2,0,0.3,0,0.4h-6.6
				c0.2,1.8,1.4,2.8,2.9,2.8c1.1,0,1.9-0.5,2.6-1.2l0.8,0.7c-0.8,0.9-1.8,1.6-3.4,1.6C513.2,150.5,511.3,148.7,511.3,146.2z
				 M517.9,145.7c-0.1-1.5-1-2.8-2.6-2.8c-1.4,0-2.5,1.2-2.7,2.8H517.9z"/>
			<path class="st3" d="M521.3,142h1.2v2.2c0.6-1.4,1.8-2.4,3.4-2.3v1.3h-0.1c-1.8,0-3.3,1.3-3.3,3.8v3.3h-1.2L521.3,142L521.3,142z
				"/>
		</g>
		<path class="st55" d="M537.4,195.7H436.3c-2.2,0-4,1.8-4,4v51.1c0,2.2,1.8,4,4,4h101.1c2.2,0,4-1.8,4-4v-51.1
			C541.4,197.5,539.6,195.7,537.4,195.7z"/>
		<g>
			<path class="st3" d="M471.4,210.3h1.2l7.1,9v-9h1.2v11.2h-1l-7.2-9.2v9.2h-1.2v-11.2H471.4z"/>
			<path class="st3" d="M483.3,219.9l0.8-0.9c1.2,1.1,2.3,1.6,3.8,1.6s2.5-0.8,2.5-1.9l0,0c0-1-0.6-1.6-2.9-2.1
				c-2.6-0.6-3.8-1.4-3.8-3.2l0,0c0-1.8,1.6-3.1,3.7-3.1c1.6,0,2.8,0.5,3.9,1.4l-0.7,1c-1-0.8-2.1-1.2-3.2-1.2
				c-1.5,0-2.4,0.8-2.4,1.8l0,0c0,1.1,0.6,1.6,3,2.2c2.5,0.5,3.6,1.5,3.6,3.2l0,0c0,1.9-1.6,3.2-3.8,3.2
				C486.1,221.7,484.6,221.1,483.3,219.9z"/>
			<path class="st3" d="M503,210.3l-4.1,5.5l4.3,5.7h-1.5l-3.6-4.8l-3.6,4.8H493l4.3-5.7l-4.1-5.5h1.5l3.4,4.6l3.4-4.6H503z"/>
			<path class="st3" d="M448.4,235.2L448.4,235.2c0-3.2,2.4-5.8,5.7-5.8c2,0,3.2,0.7,4.4,1.8l-0.9,0.9c-0.9-0.9-2-1.5-3.5-1.5
				c-2.5,0-4.3,2-4.3,4.6l0,0c0,2.6,1.9,4.6,4.3,4.6c1.5,0,2.5-0.6,3.6-1.6l0.8,0.8c-1.2,1.2-2.4,2-4.5,2
				C450.8,240.9,448.4,238.4,448.4,235.2z"/>
			<path class="st3" d="M459.8,236.7L459.8,236.7c0-2.4,1.8-4.4,4.3-4.4s4.3,2,4.3,4.3l0,0c0,2.3-1.8,4.3-4.3,4.3
				C461.6,240.9,459.8,239,459.8,236.7z M467.2,236.7L467.2,236.7c0-1.8-1.3-3.3-3.1-3.3c-1.8,0-3,1.5-3,3.2l0,0
				c0,1.8,1.3,3.2,3.1,3.2C465.9,239.8,467.2,238.4,467.2,236.7z"/>
			<path class="st3" d="M470.6,232.5h1.2v1.4c0.5-0.9,1.4-1.6,2.8-1.6c2,0,3.2,1.3,3.2,3.3v5.1h-1.2v-4.8c0-1.5-0.8-2.5-2.3-2.5
				c-1.4,0-2.5,1-2.5,2.6v4.7h-1.2V232.5z"/>
			<path class="st3" d="M480.9,238.6v-5h-1.2v-1.1h1.2V230h1.2v2.5h2.6v1.1h-2.6v4.8c0,1,0.6,1.4,1.4,1.4c0.4,0,0.8-0.1,1.2-0.3v1.1
				c-0.4,0.2-0.9,0.4-1.5,0.4C481.9,240.9,480.9,240.2,480.9,238.6z"/>
			<path class="st3" d="M487,232.5h1.2v2.2c0.6-1.4,1.8-2.4,3.4-2.3v1.3h-0.1c-1.8,0-3.3,1.3-3.3,3.8v3.3H487V232.5z"/>
			<path class="st3" d="M492.6,236.7L492.6,236.7c0-2.4,1.8-4.4,4.3-4.4s4.3,2,4.3,4.3l0,0c0,2.3-1.8,4.3-4.3,4.3
				C494.4,240.9,492.6,239,492.6,236.7z M499.9,236.7L499.9,236.7c0-1.8-1.3-3.3-3.1-3.3s-3,1.5-3,3.2l0,0c0,1.8,1.3,3.2,3.1,3.2
				C498.7,239.8,499.9,238.4,499.9,236.7z"/>
			<path class="st3" d="M503.5,229.1h1.2v11.7h-1.2V229.1z"/>
			<path class="st3" d="M507.7,229.1h1.2v11.7h-1.2V229.1z"/>
			<path class="st3" d="M511.3,236.6L511.3,236.6c0-2.4,1.7-4.3,4-4.3c2.4,0,3.9,2,3.9,4.4c0,0.2,0,0.3,0,0.4h-6.6
				c0.2,1.8,1.4,2.8,2.9,2.8c1.1,0,1.9-0.5,2.6-1.2l0.8,0.7c-0.8,0.9-1.8,1.6-3.4,1.6C513.2,240.9,511.3,239.2,511.3,236.6z
				 M517.9,236.2c-0.1-1.5-1-2.8-2.6-2.8c-1.4,0-2.5,1.2-2.7,2.8H517.9z"/>
			<path class="st3" d="M521.3,232.5h1.2v2.2c0.6-1.4,1.8-2.4,3.4-2.3v1.3h-0.1c-1.8,0-3.3,1.3-3.3,3.8v3.3h-1.2L521.3,232.5
				L521.3,232.5z"/>
		</g>
		<g>
			
				<image style="overflow:visible;opacity:0.25;enable-background:new    ;" width="585" height="406" xlink:href="8C32A70F.png"  transform="matrix(0.4792 0 0 0.4765 734.8709 -130.5726)">
			</image>
			<g>
				<path class="st56" d="M809.7,29c0,0-38.8-6.6-35.1-51c0,0,6.3-37.6,49.5-35.7c0,0,1.7-52.9,60.2-55.4c0,0,42.5-0.3,52.8,39.4
					c0,0,61.4-12.2,66.4,51c0,0,2.8,42.6-46.3,51.7C957.2,29,809.7,29,809.7,29z"/>
				<path class="st57" d="M809.7,29c0,0-38.8-6.6-35.1-51c0,0,6.3-37.6,49.5-35.7c0,0,1.7-52.9,60.2-55.4c0,0,42.5-0.3,52.8,39.4
					c0,0,61.4-12.2,66.4,51c0,0,2.8,42.6-46.3,51.7C957.2,29,809.7,29,809.7,29z"/>
			</g>
		</g>
		<g>
			<g>
				<path class="st5" d="M819-26.6h5.3c3.2,0,5.3,1.7,5.3,4.5l0,0c0,3-2.5,4.6-5.5,4.6h-3.4v5H819V-26.6z M824-18.9
					c2.3,0,3.9-1.2,3.9-3.1l0,0c0-2-1.5-3.1-3.8-3.1h-3.6v6.2L824-18.9L824-18.9z"/>
				<path class="st5" d="M832-16.4v-6.5h1.6v6.1c0,1.9,1,3.1,2.9,3.1c1.8,0,3.1-1.3,3.1-3.3v-6h1.5v10.4h-1.5v-1.8
					c-0.7,1.1-1.8,2-3.6,2C833.5-12.2,832-13.9,832-16.4z"/>
				<path class="st5" d="M846.1-14.5v2h-1.6v-14.7h1.6v6.4c0.8-1.2,2.1-2.3,4-2.3c2.5,0,5,2,5,5.4l0,0c0,3.4-2.5,5.4-5,5.4
					C848.2-12.2,846.9-13.3,846.1-14.5z M853.5-17.6L853.5-17.6c0-2.5-1.7-4.1-3.7-4.1c-1.9,0-3.8,1.6-3.8,4l0,0c0,2.4,1.8,4,3.8,4
					C851.8-13.6,853.5-15.1,853.5-17.6z"/>
				<path class="st5" d="M858.1-27.2h1.6v14.7h-1.6V-27.2z"/>
				<path class="st5" d="M863.3-26.9h1.8v1.7h-1.8V-26.9z M863.4-22.9h1.6v10.4h-1.6V-22.9z"/>
				<path class="st5" d="M867.9-17.6L867.9-17.6c0-3,2.3-5.5,5.3-5.5c2,0,3.2,0.8,4.2,1.9l-1,1.1c-0.8-0.9-1.8-1.6-3.2-1.6
					c-2.1,0-3.7,1.8-3.7,4l0,0c0,2.3,1.7,4,3.8,4c1.3,0,2.4-0.7,3.2-1.6l1,0.9c-1,1.2-2.3,2-4.3,2C870.2-12.2,867.9-14.7,867.9-17.6
					z"/>
				<path class="st5" d="M886.4-26.6h1.5l8.9,11.3v-11.3h1.6v14.1H897l-9.1-11.6v11.6h-1.6L886.4-26.6L886.4-26.6z"/>
				<path class="st5" d="M901.4-17.6L901.4-17.6c0-3,2.1-5.5,5-5.5c3.1,0,4.9,2.5,4.9,5.5c0,0.2,0,0.3,0,0.5H903
					c0.2,2.3,1.8,3.5,3.7,3.5c1.4,0,2.4-0.6,3.3-1.5l1,0.9c-1,1.2-2.3,2-4.3,2C903.7-12.2,901.4-14.4,901.4-17.6z M909.6-18.2
					c-0.2-1.9-1.2-3.5-3.3-3.5c-1.8,0-3.2,1.5-3.4,3.5H909.6z"/>
				<path class="st5" d="M914.5-15.2v-6.3H913v-1.4h1.5V-26h1.6v3.1h3.3v1.4H916v6.1c0,1.3,0.7,1.7,1.8,1.7c0.5,0,1-0.1,1.5-0.4v1.3
					c-0.5,0.3-1.1,0.4-1.9,0.4C915.8-12.3,914.5-13.1,914.5-15.2z"/>
				<path class="st5" d="M921.2-22.9h1.7l2.7,8.4l2.8-8.4h1.3l2.8,8.4l2.7-8.4h1.6l-3.7,10.5h-1.3l-2.8-8.2l-2.8,8.2h-1.4
					L921.2-22.9z"/>
				<path class="st5" d="M938.3-17.6L938.3-17.6c0-3,2.3-5.5,5.4-5.5c3.1,0,5.4,2.5,5.4,5.4l0,0c0,2.9-2.3,5.4-5.5,5.4
					C940.6-12.2,938.3-14.7,938.3-17.6z M947.5-17.6L947.5-17.6c0-2.3-1.7-4.1-3.9-4.1c-2.3,0-3.8,1.8-3.8,4l0,0c0,2.2,1.7,4,3.8,4
					C946-13.6,947.5-15.4,947.5-17.6z"/>
				<path class="st5" d="M951.9-22.9h1.6v2.7c0.8-1.7,2.3-3,4.3-2.9v1.7h-0.1c-2.3,0-4.1,1.6-4.1,4.8v4.1H952L951.9-22.9
					C952-22.9,951.9-22.9,951.9-22.9z"/>
				<path class="st5" d="M960.1-27.2h1.6V-17l5.6-5.9h1.9l-4.4,4.5l4.5,5.9h-1.9l-3.7-4.9l-2.1,2.1v2.7H960L960.1-27.2L960.1-27.2z"
					/>
			</g>
		</g>
		<g>
			<rect x="1241.6" y="133.3" class="st58" width="233.8" height="39.9"/>
			<polygon class="st58" points="1373.5,172.6 1358.5,192.6 1343.6,172.6 			"/>
			<g>
				<path class="st5" d="M1253.3,156.6l0.8-0.9c1.2,1.1,2.3,1.6,3.8,1.6s2.5-0.8,2.5-1.9l0,0c0-1-0.6-1.6-2.9-2.1
					c-2.6-0.6-3.8-1.4-3.8-3.2l0,0c0-1.8,1.6-3.1,3.7-3.1c1.6,0,2.8,0.5,3.9,1.4l-0.7,1c-1-0.8-2.1-1.2-3.2-1.2
					c-1.5,0-2.4,0.8-2.4,1.8l0,0c0,1.1,0.6,1.6,3,2.2c2.5,0.5,3.6,1.5,3.6,3.2l0,0c0,1.9-1.6,3.2-3.8,3.2
					C1256.1,158.4,1254.6,157.8,1253.3,156.6z"/>
				<path class="st5" d="M1264,146.5h1.2v4.8c0.5-0.9,1.4-1.6,2.8-1.6c2,0,3.2,1.3,3.2,3.3v5.1h-1.2v-4.8c0-1.5-0.8-2.5-2.3-2.5
					c-1.4,0-2.5,1-2.5,2.6v4.7h-1.2V146.5z"/>
				<path class="st5" d="M1273.3,155.8L1273.3,155.8c0-1.8,1.4-2.7,3.5-2.7c1.1,0,1.8,0.1,2.5,0.4v-0.3c0-1.5-0.9-2.3-2.5-2.3
					c-1,0-1.7,0.3-2.5,0.6l-0.4-1c0.9-0.4,1.8-0.7,3-0.7s2.1,0.3,2.7,0.9s0.8,1.4,0.8,2.4v5.1h-1.2V157c-0.6,0.8-1.5,1.4-3,1.4
					C1274.8,158.4,1273.3,157.5,1273.3,155.8z M1279.4,155.2v-0.8c-0.6-0.2-1.4-0.4-2.4-0.4c-1.6,0-2.4,0.7-2.4,1.7l0,0
					c0,1,1,1.6,2.1,1.6C1278.1,157.4,1279.4,156.5,1279.4,155.2z"/>
				<path class="st5" d="M1283.2,150h1.2v2.2c0.6-1.4,1.8-2.4,3.4-2.3v1.3h-0.1c-1.8,0-3.3,1.3-3.3,3.8v3.3h-1.2V150L1283.2,150z"/>
				<path class="st5" d="M1288.8,154.1L1288.8,154.1c0-2.4,1.7-4.3,4-4.3c2.4,0,3.9,2,3.9,4.4c0,0.2,0,0.3,0,0.4h-6.7
					c0.2,1.8,1.4,2.8,2.9,2.8c1.1,0,1.9-0.5,2.6-1.2l0.8,0.7c-0.8,0.9-1.8,1.6-3.4,1.6C1290.6,158.4,1288.8,156.7,1288.8,154.1z
					 M1295.4,153.6c-0.1-1.5-1-2.8-2.6-2.8c-1.4,0-2.5,1.2-2.7,2.8H1295.4z"/>
				<path class="st5" d="M1298.3,154.1L1298.3,154.1c0-2.7,2-4.3,4-4.3c1.5,0,2.5,0.8,3.2,1.8v-5h1.2v11.7h-1.2v-1.7
					c-0.7,1-1.6,1.8-3.2,1.8C1300.3,158.4,1298.3,156.8,1298.3,154.1z M1305.5,154.1L1305.5,154.1c0-1.9-1.5-3.2-3-3.2
					c-1.6,0-2.9,1.2-2.9,3.2l0,0c0,2,1.4,3.2,2.9,3.2S1305.5,156,1305.5,154.1z"/>
				<path class="st5" d="M1313.5,150h1.3l2.2,6.6l2.2-6.7h1l2.2,6.7l2.2-6.6h1.3l-2.9,8.3h-1.1l-2.2-6.5l-2.2,6.5h-1.1L1313.5,150z"
					/>
				<path class="st5" d="M1328,146.8h1.4v1.4h-1.4V146.8z M1328.1,150h1.2v8.3h-1.2V150z"/>
				<path class="st5" d="M1332.6,156v-5h-1.2v-1.1h1.2v-2.5h1.2v2.5h2.6v1.1h-2.6v4.8c0,1,0.6,1.4,1.4,1.4c0.4,0,0.8-0.1,1.2-0.3
					v1.1c-0.4,0.2-0.9,0.4-1.5,0.4C1333.6,158.4,1332.6,157.7,1332.6,156z"/>
				<path class="st5" d="M1338.6,146.5h1.2v4.8c0.5-0.9,1.4-1.6,2.8-1.6c2,0,3.2,1.3,3.2,3.3v5.1h-1.2v-4.8c0-1.5-0.8-2.5-2.3-2.5
					c-1.4,0-2.5,1-2.5,2.6v4.7h-1.2V146.5z"/>
				<path class="st5" d="M1353,152.7L1353,152.7c0-3.2,2.4-5.8,5.7-5.8c2,0,3.2,0.7,4.4,1.8l-0.9,0.9c-0.9-0.9-2-1.5-3.5-1.5
					c-2.5,0-4.3,2-4.3,4.6l0,0c0,2.6,1.9,4.6,4.3,4.6c1.5,0,2.5-0.6,3.6-1.6l0.8,0.8c-1.2,1.2-2.4,2-4.5,2
					C1355.4,158.4,1353,155.9,1353,152.7z"/>
				<path class="st5" d="M1364.4,154.1L1364.4,154.1c0-2.4,1.8-4.4,4.3-4.4s4.3,2,4.3,4.3l0,0c0,2.3-1.8,4.3-4.3,4.3
					C1366.2,158.4,1364.4,156.5,1364.4,154.1z M1371.8,154.1L1371.8,154.1c0-1.8-1.3-3.3-3.1-3.3c-1.8,0-3,1.5-3,3.2l0,0
					c0,1.8,1.3,3.2,3.1,3.2C1370.5,157.3,1371.8,155.9,1371.8,154.1z"/>
				<path class="st5" d="M1375.3,150h1.2v1.4c0.5-0.8,1.3-1.6,2.7-1.6c1.3,0,2.2,0.7,2.7,1.6c0.6-0.9,1.5-1.6,2.9-1.6
					c1.9,0,3.1,1.3,3.1,3.3v5.1h-1.2v-4.8c0-1.6-0.8-2.5-2.1-2.5c-1.2,0-2.3,0.9-2.3,2.6v4.8h-1.2v-4.9c0-1.6-0.8-2.5-2.1-2.5
					s-2.3,1.1-2.3,2.6v4.7h-1.2V150H1375.3z"/>
				<path class="st5" d="M1390.5,150h1.2v1.7c0.7-1,1.6-1.8,3.2-1.8c2,0,4,1.6,4,4.3l0,0c0,2.7-2,4.3-4,4.3c-1.5,0-2.5-0.8-3.2-1.8
					v4.1h-1.2V150z M1397.6,154.1L1397.6,154.1c0-2-1.3-3.2-2.9-3.2c-1.5,0-3,1.3-3,3.2l0,0c0,1.9,1.5,3.2,3,3.2
					C1396.3,157.3,1397.6,156.1,1397.6,154.1z"/>
				<path class="st5" d="M1401,155.1V150h1.2v4.8c0,1.5,0.8,2.5,2.3,2.5c1.4,0,2.5-1,2.5-2.6V150h1.2v8.3h-1.2v-1.5
					c-0.6,0.9-1.4,1.6-2.8,1.6C1402.2,158.4,1401,157.1,1401,155.1z"/>
				<path class="st5" d="M1411.4,156v-5h-1.2v-1.1h1.2v-2.5h1.2v2.5h2.6v1.1h-2.6v4.8c0,1,0.6,1.4,1.4,1.4c0.4,0,0.8-0.1,1.2-0.3
					v1.1c-0.4,0.2-0.9,0.4-1.5,0.4C1412.4,158.4,1411.4,157.7,1411.4,156z"/>
				<path class="st5" d="M1416.7,154.1L1416.7,154.1c0-2.4,1.7-4.3,4-4.3c2.4,0,3.9,2,3.9,4.4c0,0.2,0,0.3,0,0.4h-6.6
					c0.2,1.8,1.4,2.8,2.9,2.8c1.1,0,1.9-0.5,2.6-1.2l0.8,0.7c-0.8,0.9-1.8,1.6-3.4,1.6C1418.5,158.4,1416.7,156.7,1416.7,154.1z
					 M1423.3,153.6c-0.1-1.5-1-2.8-2.6-2.8c-1.4,0-2.5,1.2-2.7,2.8H1423.3z"/>
				<path class="st5" d="M1431.7,147h4.2c2.5,0,4.2,1.3,4.2,3.6l0,0c0,2.4-2,3.7-4.4,3.7h-2.7v4h-1.3L1431.7,147L1431.7,147z
					 M1435.7,153.1c1.9,0,3.1-1,3.1-2.5l0,0c0-1.6-1.2-2.4-3-2.4h-2.8v4.9H1435.7z"/>
				<path class="st5" d="M1441.9,152.7L1441.9,152.7c0-3.1,2.3-5.8,5.7-5.8s5.7,2.7,5.7,5.8l0,0c0,3.1-2.3,5.8-5.7,5.8
					C1444.2,158.4,1441.9,155.7,1441.9,152.7z M1452,152.7L1452,152.7c0-2.6-1.9-4.7-4.4-4.7c-2.6,0-4.4,2-4.4,4.6l0,0
					c0,2.5,1.9,4.6,4.4,4.6C1450.2,157.3,1452,155.2,1452,152.7z"/>
				<path class="st5" d="M1456,147h3.9c3.5,0,6,2.4,6,5.6l0,0c0,3.2-2.4,5.6-6,5.6h-3.9V147z M1457.2,148.2v8.9h2.6
					c2.8,0,4.6-1.9,4.6-4.4l0,0c0-2.5-1.8-4.4-4.6-4.4h-2.6V148.2z"/>
			</g>
		</g>
		<g>
			<rect x="740.3" y="205.8" class="st58" width="75.2" height="46.7"/>
			<polygon class="st58" points="815.4,219.3 828.5,229.1 815.4,239 			"/>
			<g>
				<g>
					<path class="st5" d="M759.4,213.9h8.1v1.2h-6.8v3.8h6.1v1.2h-6.1v3.9h6.9v1.2h-8.2V213.9z"/>
					<path class="st5" d="M769.2,221L769.2,221c0-2.7,2-4.3,4-4.3c1.5,0,2.5,0.8,3.2,1.8v-5h1.2v11.7h-1.2v-1.7
						c-0.7,1-1.6,1.8-3.2,1.8C771.2,225.3,769.2,223.7,769.2,221z M776.4,221L776.4,221c0-1.9-1.5-3.2-3-3.2c-1.6,0-2.9,1.2-2.9,3.2
						l0,0c0,2,1.4,3.2,2.9,3.2C775,224.2,776.4,222.9,776.4,221z"/>
					<path class="st5" d="M780.3,226.6l0.6-1c0.9,0.7,2,1.1,3.2,1.1c1.8,0,3-1,3-2.9v-1c-0.7,1-1.7,1.7-3.2,1.7
						c-2,0-3.9-1.5-3.9-3.9l0,0c0-2.4,1.9-3.9,3.9-3.9c1.6,0,2.6,0.8,3.2,1.7v-1.5h1.2v6.8c0,1.3-0.4,2.3-1.1,2.9
						c-0.7,0.7-1.8,1.1-3.2,1.1C782.6,227.7,781.4,227.3,780.3,226.6z M787,220.6L787,220.6c0-1.7-1.5-2.8-3-2.8
						c-1.6,0-2.9,1.1-2.9,2.8l0,0c0,1.7,1.3,2.8,2.9,2.8C785.6,223.4,787,222.3,787,220.6z"/>
					<path class="st5" d="M790.5,221L790.5,221c0-2.4,1.7-4.3,4-4.3c2.4,0,3.9,2,3.9,4.4c0,0.2,0,0.3,0,0.4h-6.6
						c0.2,1.8,1.4,2.8,2.9,2.8c1.1,0,1.9-0.5,2.6-1.2l0.8,0.7c-0.8,0.9-1.8,1.6-3.4,1.6C792.3,225.3,790.5,223.6,790.5,221z
						 M797,220.5c-0.1-1.5-1-2.8-2.6-2.8c-1.4,0-2.5,1.2-2.7,2.8H797z"/>
					<path class="st5" d="M753.1,233.1h4.8c1.4,0,2.5,0.4,3.2,1.1c0.5,0.5,0.9,1.3,0.9,2.2l0,0c0,1.9-1.3,2.9-3,3.3l3.4,4.6h-1.6
						l-3.2-4.4h-3.2v4.4h-1.3L753.1,233.1L753.1,233.1z M757.8,238.8c1.7,0,2.9-0.9,2.9-2.3l0,0c0-1.4-1.1-2.2-2.9-2.2h-3.5v4.5
						H757.8z"/>
					<path class="st5" d="M763.8,240.2L763.8,240.2c0-2.4,1.8-4.4,4.3-4.4s4.3,2,4.3,4.3l0,0c0,2.3-1.8,4.3-4.3,4.3
						C765.6,244.5,763.8,242.6,763.8,240.2z M771.2,240.2L771.2,240.2c0-1.8-1.3-3.3-3.1-3.3s-3,1.5-3,3.2l0,0
						c0,1.8,1.3,3.2,3.1,3.2C769.9,243.4,771.2,242,771.2,240.2z"/>
					<path class="st5" d="M774.5,241.2v-5.1h1.2v4.8c0,1.5,0.8,2.5,2.3,2.5c1.4,0,2.5-1,2.5-2.6v-4.7h1.2v8.3h-1.2V243
						c-0.6,0.9-1.4,1.6-2.8,1.6C775.7,244.5,774.5,243.2,774.5,241.2z"/>
					<path class="st5" d="M785,242.1v-5h-1.2V236h1.2v-2.5h1.2v2.5h2.6v1.1h-2.6v4.8c0,1,0.6,1.4,1.4,1.4c0.4,0,0.8-0.1,1.2-0.3v1.1
						c-0.4,0.2-0.9,0.4-1.5,0.4C786,244.5,785,243.8,785,242.1z"/>
					<path class="st5" d="M790.2,240.2L790.2,240.2c0-2.4,1.7-4.3,4-4.3c2.4,0,3.9,2,3.9,4.4c0,0.2,0,0.3,0,0.4h-6.6
						c0.2,1.8,1.4,2.8,2.9,2.8c1.1,0,1.9-0.5,2.6-1.2l0.8,0.7c-0.8,0.9-1.8,1.6-3.4,1.6C792.1,244.5,790.2,242.8,790.2,240.2z
						 M796.8,239.7c-0.1-1.5-1-2.8-2.6-2.8c-1.4,0-2.5,1.2-2.7,2.8H796.8z"/>
					<path class="st5" d="M800.2,236.1h1.2v2.2c0.6-1.4,1.8-2.4,3.4-2.3v1.3h-0.1c-1.8,0-3.3,1.3-3.3,3.8v3.3h-1.2L800.2,236.1
						L800.2,236.1z"/>
				</g>
			</g>
		</g>
		<g>
			<g>
				<line class="st59" x1="1227.3" y1="196.1" x2="1502" y2="196.1"/>
				<g>
					<polygon class="st60" points="1494.5,206.1 1498.7,196.1 1494.5,186.1 1518.2,196.1 					"/>
				</g>
			</g>
		</g>
	</g>
	<rect x="335" y="787.3" class="st61" width="1281.1" height="182.7"/>
	<g>
		<path class="st3" d="M400.8,815.3h26.4v6.9h-18.8v7.1H425v6.9h-16.5v7.4h19v6.9h-26.7V815.3z"/>
		<path class="st3" d="M431.8,837L431.8,837c0-9.1,5.9-14,12.2-14c4,0,6.5,1.9,8.3,4v-13.2h7.6v36.5h-7.6v-3.9
			c-1.8,2.5-4.4,4.4-8.3,4.4C437.8,850.9,431.8,845.9,431.8,837z M452.5,837L452.5,837c0-4.6-3-7.5-6.5-7.5s-6.5,2.9-6.5,7.4v0.1
			c0,4.5,3,7.4,6.5,7.4S452.5,841.4,452.5,837z"/>
		<path class="st3" d="M466.9,855.7l2.6-5.7c2.8,1.6,5.5,2.5,9.1,2.5c5.2,0,7.7-2.5,7.7-7.3v-1.3c-2.3,2.7-4.7,4.4-8.8,4.4
			c-6.3,0-11.9-4.5-11.9-12.5v-0.1c0-8,5.8-12.5,11.9-12.5c4.2,0,6.6,1.8,8.7,4v-3.5h7.6v20.8c0,4.8-1.1,8.3-3.4,10.6
			c-2.5,2.5-6.3,3.6-11.5,3.6C474.4,858.5,470.3,857.5,466.9,855.7z M486.2,835.6L486.2,835.6c0-3.8-2.9-6.3-6.6-6.3
			s-6.5,2.5-6.5,6.2v0.1c0,3.7,2.8,6.2,6.5,6.2S486.2,839.3,486.2,835.6z"/>
		<path class="st3" d="M499.2,837.1L499.2,837.1c0-7.8,5.5-14.1,13.3-14.1c9,0,13.1,7,13.1,14.6c0,0.6,0,1.3-0.1,2h-18.7
			c0.8,3.5,3.2,5.3,6.6,5.3c2.5,0,4.4-0.8,6.5-2.8l4.4,3.9c-2.5,3.1-6.1,5-11,5C505.2,850.9,499.2,845.3,499.2,837.1z M518.1,834.8
			c-0.5-3.4-2.5-5.7-5.7-5.7c-3.1,0-5.2,2.3-5.8,5.7H518.1z"/>
		<path class="st3" d="M546.9,815.3h14.3c8.4,0,13.4,5,13.4,12.1v0.1c0,8.1-6.3,12.3-14.2,12.3h-5.9v10.5h-7.7v-35H546.9z
			 M560.7,833c3.9,0,6.1-2.3,6.1-5.3v-0.1c0-3.5-2.4-5.3-6.3-5.3h-6V833H560.7z"/>
		<path class="st3" d="M578.8,832.9L578.8,832.9c0-10.1,7.9-18.2,18.7-18.2s18.6,8.1,18.6,18v0.1c0,10-7.9,18.1-18.7,18.1
			S578.8,842.9,578.8,832.9z M608,832.9L608,832.9c0-6.1-4.4-11.1-10.6-11.1s-10.5,4.9-10.5,10.9v0.1c0,6,4.4,11,10.6,11
			C603.7,843.9,608,838.9,608,832.9z"/>
		<path class="st3" d="M622.8,815.3h13.7c11,0,18.6,7.5,18.6,17.4v0.1c0,9.9-7.6,17.5-18.6,17.5h-13.7V815.3z M630.5,822.3v21.1h6
			c6.3,0,10.5-4.3,10.5-10.5v-0.1c0-6.2-4.3-10.6-10.5-10.6L630.5,822.3L630.5,822.3z"/>
		<path class="st3" d="M399.8,891v-14.7h2.8v14.5c0,5.4,2.9,8.5,7.7,8.5c4.6,0,7.6-2.8,7.6-8.3v-14.7h2.8v14.4
			c0,7.3-4.2,11.2-10.5,11.2C404,901.9,399.8,898.1,399.8,891z"/>
		<path class="st3" d="M425.5,899.2l1.4-2c2,1.5,4.2,2.4,6.4,2.4c2.2,0,3.9-1.2,3.9-3v-0.1c0-1.9-2.2-2.6-4.6-3.3
			c-2.9-0.8-6.2-1.8-6.2-5.3v-0.1c0-3.2,2.7-5.3,6.3-5.3c2.3,0,4.8,0.8,6.7,2.1l-1.3,2.1c-1.7-1.1-3.7-1.8-5.5-1.8
			c-2.2,0-3.6,1.2-3.6,2.7v0.1c0,1.8,2.3,2.4,4.8,3.2c2.9,0.9,6,2,6,5.3v0.1c0,3.5-2.9,5.6-6.6,5.6
			C430.5,901.9,427.6,900.9,425.5,899.2z"/>
		<path class="st3" d="M443.8,892.3L443.8,892.3c0-5.4,3.8-9.8,8.9-9.8c5.5,0,8.7,4.4,8.7,9.8c0,0.4,0,0.6,0,0.9h-14.8
			c0.4,4,3.2,6.3,6.6,6.3c2.6,0,4.4-1,5.9-2.6l1.7,1.5c-1.9,2.1-4.1,3.5-7.7,3.5C448,902,443.8,898.1,443.8,892.3z M458.6,891.2
			c-0.3-3.4-2.2-6.3-5.9-6.3c-3.2,0-5.7,2.7-6,6.3H458.6z"/>
		<path class="st3" d="M465.2,892.3L465.2,892.3c0-6.2,4.4-9.8,8.9-9.8c3.5,0,5.7,1.9,7.1,4v-11.2h2.8v26.3h-2.8v-3.7
			c-1.5,2.2-3.7,4.1-7.1,4.1C469.6,901.9,465.2,898.4,465.2,892.3z M481.3,892.3L481.3,892.3c0-4.4-3.3-7.2-6.7-7.2
			c-3.6,0-6.6,2.7-6.6,7.2v0.1c0,4.4,3.1,7.2,6.6,7.2C478,899.5,481.3,896.5,481.3,892.3z"/>
		<path class="st3" d="M501.9,896.6v-11.2h-2.6V883h2.6v-5.6h2.8v5.6h5.9v2.4h-5.9v10.9c0,2.3,1.3,3.1,3.1,3.1
			c0.9,0,1.7-0.2,2.7-0.6v2.4c-1,0.5-2,0.8-3.3,0.8C504.2,901.9,501.9,900.4,501.9,896.6z"/>
		<path class="st3" d="M513.8,892.3L513.8,892.3c0-5.3,4.1-9.8,9.7-9.8c5.6,0,9.7,4.4,9.7,9.6v0.1c0,5.3-4.1,9.7-9.8,9.7
			C517.9,902,513.8,897.6,513.8,892.3z M530.4,892.3L530.4,892.3c0-4.1-3-7.3-6.9-7.3c-4,0-6.8,3.3-6.8,7.2v0.1c0,4,3,7.2,6.9,7.2
			C527.6,899.5,530.4,896.3,530.4,892.3z"/>
		<path class="st3" d="M549,882.9h2.8v3.7c1.5-2.2,3.7-4.1,7.1-4.1c4.5,0,8.9,3.5,8.9,9.6v0.1c0,6.1-4.4,9.7-8.9,9.7
			c-3.5,0-5.7-1.9-7.1-4v9.3H549V882.9z M565,892.3L565,892.3c0-4.5-3-7.3-6.6-7.3c-3.5,0-6.7,2.9-6.7,7.2v0.1
			c0,4.3,3.3,7.2,6.7,7.2C562,899.5,565,896.8,565,892.3z"/>
		<path class="st3" d="M572.9,882.9h2.8v4.9c1.4-3.1,4.1-5.3,7.6-5.2v3h-0.2c-4.1,0-7.4,2.9-7.4,8.5v7.4h-2.8L572.9,882.9
			L572.9,882.9z"/>
		<path class="st3" d="M585.6,892.3L585.6,892.3c0-5.3,4.1-9.8,9.7-9.8c5.6,0,9.7,4.4,9.7,9.6v0.1c0,5.3-4.1,9.7-9.8,9.7
			C589.6,902,585.6,897.6,585.6,892.3z M602.1,892.3L602.1,892.3c0-4.1-3-7.3-6.9-7.3c-4,0-6.8,3.3-6.8,7.2v0.1c0,4,3,7.2,6.9,7.2
			C599.3,899.5,602.1,896.3,602.1,892.3z"/>
		<path class="st3" d="M607.1,882.9h3.1l6.3,15.4l6.3-15.4h3l-8.1,18.8h-2.4L607.1,882.9z"/>
		<path class="st3" d="M630.1,875.8h3.2v3.1h-3.2V875.8z M630.3,882.9h2.8v18.6h-2.8V882.9z"/>
		<path class="st3" d="M638.4,892.3L638.4,892.3c0-6.2,4.4-9.8,8.9-9.8c3.5,0,5.7,1.9,7.1,4v-11.2h2.8v26.3h-2.8v-3.7
			c-1.5,2.2-3.7,4.1-7.1,4.1C642.8,901.9,638.4,898.4,638.4,892.3z M654.5,892.3L654.5,892.3c0-4.4-3.3-7.2-6.7-7.2
			c-3.6,0-6.6,2.7-6.6,7.2v0.1c0,4.4,3.1,7.2,6.6,7.2C651.3,899.5,654.5,896.5,654.5,892.3z"/>
		<path class="st3" d="M662.2,892.3L662.2,892.3c0-5.4,3.8-9.8,8.9-9.8c5.5,0,8.7,4.4,8.7,9.8c0,0.4,0,0.6,0,0.9H665
			c0.4,4,3.2,6.3,6.6,6.3c2.6,0,4.4-1,5.9-2.6l1.7,1.5c-1.9,2.1-4.1,3.5-7.7,3.5C666.4,902,662.2,898.1,662.2,892.3z M677,891.2
			c-0.3-3.4-2.2-6.3-5.9-6.3c-3.2,0-5.7,2.7-6,6.3H677z"/>
		<path class="st3" d="M695.5,882.9h2.8v3.2c1.2-2,3.2-3.6,6.4-3.6c4.5,0,7.1,3,7.1,7.5v11.6H709v-10.9c0-3.5-1.9-5.6-5.1-5.6
			c-3.2,0-5.6,2.3-5.6,5.8v10.7h-2.8L695.5,882.9L695.5,882.9z"/>
		<path class="st3" d="M716.5,892.3L716.5,892.3c0-5.4,3.8-9.8,8.9-9.8c5.5,0,8.7,4.4,8.7,9.8c0,0.4,0,0.6,0,0.9h-14.8
			c0.4,4,3.2,6.3,6.6,6.3c2.6,0,4.4-1,5.9-2.6l1.7,1.5c-1.9,2.1-4.1,3.5-7.7,3.5C720.7,902,716.5,898.1,716.5,892.3z M731.3,891.2
			c-0.3-3.4-2.2-6.3-5.9-6.3c-3.2,0-5.7,2.7-6,6.3H731.3z"/>
		<path class="st3" d="M740,896.6v-11.2h-2.6V883h2.6v-5.6h2.8v5.6h5.9v2.4h-5.9v10.9c0,2.3,1.3,3.1,3.1,3.1c0.9,0,1.7-0.2,2.7-0.6
			v2.4c-1,0.5-2,0.8-3.3,0.8C742.2,901.9,740,900.4,740,896.6z"/>
		<path class="st3" d="M752,882.9h3l4.9,14.9l5-15h2.3l5,15l4.9-14.9h2.9l-6.6,18.8H771l-5-14.7l-5,14.7h-2.4L752,882.9z"/>
		<path class="st3" d="M782.5,892.3L782.5,892.3c0-5.3,4.1-9.8,9.7-9.8c5.6,0,9.7,4.4,9.7,9.6v0.1c0,5.3-4.1,9.7-9.8,9.7
			C786.5,902,782.5,897.6,782.5,892.3z M799,892.3L799,892.3c0-4.1-3-7.3-6.9-7.3c-4,0-6.8,3.3-6.8,7.2v0.1c0,4,3,7.2,6.9,7.2
			C796.2,899.5,799,896.3,799,892.3z"/>
		<path class="st3" d="M806.9,882.9h2.8v4.9c1.4-3.1,4.1-5.3,7.6-5.2v3H817c-4.1,0-7.4,2.9-7.4,8.5v7.4h-2.8v-18.6H806.9z"/>
		<path class="st3" d="M821.5,875.3h2.8v18.1l10-10.5h3.5l-7.8,8l8.1,10.6h-3.3l-6.7-8.7l-3.8,3.8v4.9h-2.8V875.3z"/>
		<path class="st3" d="M842,875.8h3.2v3.1H842V875.8z M842.2,882.9h2.8v18.6h-2.8V882.9z"/>
		<path class="st3" d="M851.4,882.9h2.8v3.2c1.2-2,3.2-3.6,6.4-3.6c4.5,0,7.1,3,7.1,7.5v11.6h-2.8v-10.9c0-3.5-1.9-5.6-5.1-5.6
			c-3.2,0-5.6,2.3-5.6,5.8v10.7h-2.8L851.4,882.9L851.4,882.9z"/>
		<path class="st3" d="M873.4,904.8l1.3-2.2c2.1,1.5,4.5,2.4,7.2,2.4c4.1,0,6.8-2.3,6.8-6.6v-2.2c-1.6,2.2-3.9,3.9-7.3,3.9
			c-4.5,0-8.7-3.3-8.7-8.7v-0.1c0-5.4,4.3-8.8,8.7-8.8c3.5,0,5.8,1.7,7.3,3.7v-3.3h2.8v15.4c0,2.9-0.9,5.1-2.4,6.6
			c-1.7,1.7-4.1,2.5-7.1,2.5C878.7,907.4,875.9,906.5,873.4,904.8z M888.6,891.4L888.6,891.4c0-3.9-3.3-6.4-6.8-6.4
			s-6.4,2.4-6.4,6.3v0.1c0,3.7,3,6.3,6.4,6.3C885.3,897.7,888.6,895.1,888.6,891.4z"/>
		<path class="st3" d="M906.7,899.2l1.4-2c2,1.5,4.2,2.4,6.4,2.4s3.9-1.2,3.9-3v-0.1c0-1.9-2.2-2.6-4.6-3.3
			c-2.9-0.8-6.2-1.8-6.2-5.3v-0.1c0-3.2,2.7-5.3,6.3-5.3c2.3,0,4.8,0.8,6.7,2.1l-1.3,2.1c-1.7-1.1-3.7-1.8-5.5-1.8
			c-2.2,0-3.6,1.2-3.6,2.7v0.1c0,1.8,2.3,2.4,4.8,3.2c2.9,0.9,6,2,6,5.3v0.1c0,3.5-2.9,5.6-6.6,5.6
			C911.8,901.9,908.8,900.9,906.7,899.2z"/>
		<path class="st3" d="M925.1,892.3L925.1,892.3c0-5.4,3.8-9.8,8.9-9.8c5.5,0,8.7,4.4,8.7,9.8c0,0.4,0,0.6,0,0.9h-14.8
			c0.4,4,3.2,6.3,6.6,6.3c2.6,0,4.4-1,5.9-2.6l1.7,1.5c-1.9,2.1-4.1,3.5-7.7,3.5C929.2,902,925.1,898.1,925.1,892.3z M939.9,891.2
			c-0.3-3.4-2.2-6.3-5.9-6.3c-3.2,0-5.7,2.7-6,6.3H939.9z"/>
		<path class="st3" d="M947.5,882.9h2.8v4.9c1.4-3.1,4.1-5.3,7.6-5.2v3h-0.2c-4.1,0-7.4,2.9-7.4,8.5v7.4h-2.8L947.5,882.9
			L947.5,882.9z"/>
		<path class="st3" d="M960.3,882.9h3.1l6.3,15.4l6.3-15.4h3l-8.1,18.8h-2.4L960.3,882.9z"/>
		<path class="st3" d="M983.3,875.8h3.2v3.1h-3.2V875.8z M983.5,882.9h2.8v18.6h-2.8V882.9z"/>
		<path class="st3" d="M991.6,892.3L991.6,892.3c0-5.3,4.1-9.8,9.5-9.8c3.5,0,5.7,1.5,7.5,3.3l-1.8,1.9c-1.5-1.5-3.1-2.8-5.7-2.8
			c-3.8,0-6.7,3.2-6.7,7.2v0.1c0,4,3,7.2,6.8,7.2c2.4,0,4.2-1.2,5.7-2.8l1.8,1.7c-1.9,2.1-4.1,3.6-7.6,3.6
			C995.7,902,991.6,897.6,991.6,892.3z"/>
		<path class="st3" d="M1011.6,892.3L1011.6,892.3c0-5.4,3.8-9.8,8.9-9.8c5.5,0,8.7,4.4,8.7,9.8c0,0.4,0,0.6,0,0.9h-14.8
			c0.4,4,3.2,6.3,6.6,6.3c2.6,0,4.4-1,5.9-2.6l1.7,1.5c-1.9,2.1-4.1,3.5-7.7,3.5C1015.8,902,1011.6,898.1,1011.6,892.3z
			 M1026.4,891.2c-0.3-3.4-2.2-6.3-5.9-6.3c-3.2,0-5.7,2.7-6,6.3H1026.4z"/>
		<path class="st3" d="M1032.5,899.2l1.4-2c2,1.5,4.2,2.4,6.4,2.4c2.2,0,3.9-1.2,3.9-3v-0.1c0-1.9-2.2-2.6-4.6-3.3
			c-2.9-0.8-6.2-1.8-6.2-5.3v-0.1c0-3.2,2.7-5.3,6.3-5.3c2.3,0,4.8,0.8,6.7,2.1l-1.3,2.1c-1.7-1.1-3.7-1.8-5.5-1.8
			c-2.2,0-3.6,1.2-3.6,2.7v0.1c0,1.8,2.3,2.4,4.8,3.2c2.9,0.9,6,2,6,5.3v0.1c0,3.5-2.9,5.6-6.6,5.6
			C1037.5,901.9,1034.6,900.9,1032.5,899.2z"/>
		<path class="st3" d="M1063.7,896.6v-11.2h-2.6V883h2.6v-5.6h2.8v5.6h5.9v2.4h-5.9v10.9c0,2.3,1.3,3.1,3.1,3.1
			c0.9,0,1.7-0.2,2.7-0.6v2.4c-1,0.5-2,0.8-3.3,0.8C1066,901.9,1063.7,900.4,1063.7,896.6z"/>
		<path class="st3" d="M1075.6,892.3L1075.6,892.3c0-5.3,4.1-9.8,9.7-9.8s9.7,4.4,9.7,9.6v0.1c0,5.3-4.1,9.7-9.8,9.7
			C1079.7,902,1075.6,897.6,1075.6,892.3z M1092.2,892.3L1092.2,892.3c0-4.1-3-7.3-6.9-7.3c-4,0-6.8,3.3-6.8,7.2v0.1
			c0,4,3,7.2,6.9,7.2C1089.4,899.5,1092.2,896.3,1092.2,892.3z"/>
		<path class="st3" d="M1111.8,896.6v-11.2h-2.6V883h2.6v-5.6h2.8v5.6h5.9v2.4h-5.9v10.9c0,2.3,1.3,3.1,3.1,3.1
			c0.9,0,1.7-0.2,2.7-0.6v2.4c-1,0.5-2,0.8-3.3,0.8C1114.1,901.9,1111.8,900.4,1111.8,896.6z"/>
		<path class="st3" d="M1125.4,875.3h2.8v10.9c1.2-2,3.2-3.6,6.4-3.6c4.5,0,7.1,3,7.1,7.5v11.6h-2.8v-10.9c0-3.5-1.9-5.6-5.1-5.6
			s-5.6,2.3-5.6,5.8v10.7h-2.8V875.3z"/>
		<path class="st3" d="M1146.4,892.3L1146.4,892.3c0-5.4,3.8-9.8,8.9-9.8c5.5,0,8.7,4.4,8.7,9.8c0,0.4,0,0.6,0,0.9h-14.8
			c0.4,4,3.2,6.3,6.6,6.3c2.6,0,4.4-1,5.9-2.6l1.7,1.5c-1.9,2.1-4.1,3.5-7.7,3.5C1150.6,902,1146.4,898.1,1146.4,892.3z
			 M1161.2,891.2c-0.3-3.4-2.2-6.3-5.9-6.3c-3.2,0-5.7,2.7-6,6.3H1161.2z"/>
		<path class="st3" d="M1179,889L1179,889c0-7.2,5.3-13.1,12.7-13.1c4.6,0,7.3,1.6,9.8,4l-1.9,2.1c-2.1-2-4.5-3.5-7.9-3.5
			c-5.6,0-9.8,4.5-9.8,10.3v0.1c0,5.8,4.2,10.4,9.8,10.4c3.5,0,5.7-1.3,8.1-3.6l1.9,1.8c-2.6,2.7-5.5,4.4-10.1,4.4
			C1184.4,902,1179,896.3,1179,889z"/>
		<path class="st3" d="M1204.7,892.3L1204.7,892.3c0-5.3,4.1-9.8,9.7-9.8s9.7,4.4,9.7,9.6v0.1c0,5.3-4.1,9.7-9.8,9.7
			C1208.8,902,1204.7,897.6,1204.7,892.3z M1221.3,892.3L1221.3,892.3c0-4.1-3-7.3-6.9-7.3c-4,0-6.8,3.3-6.8,7.2v0.1
			c0,4,3,7.2,6.9,7.2C1218.5,899.5,1221.3,896.3,1221.3,892.3z"/>
		<path class="st3" d="M1229.1,882.9h2.8v3.1c1.2-1.8,2.9-3.5,6-3.5c3,0,5,1.6,6,3.7c1.3-2.1,3.3-3.7,6.6-3.7c4.3,0,6.9,2.9,6.9,7.5
			v11.5h-2.8v-10.9c0-3.6-1.8-5.6-4.8-5.6c-2.8,0-5.1,2.1-5.1,5.8v10.7h-2.8v-10.9c0-3.5-1.8-5.5-4.8-5.5s-5.2,2.4-5.2,5.9v10.6
			h-2.8L1229.1,882.9L1229.1,882.9z"/>
		<path class="st3" d="M1263.4,882.9h2.8v3.7c1.5-2.2,3.7-4.1,7.1-4.1c4.5,0,8.9,3.5,8.9,9.6v0.1c0,6.1-4.4,9.7-8.9,9.7
			c-3.5,0-5.7-1.9-7.1-4v9.3h-2.8V882.9z M1279.3,892.3L1279.3,892.3c0-4.5-3-7.3-6.6-7.3c-3.5,0-6.7,2.9-6.7,7.2v0.1
			c0,4.3,3.3,7.2,6.7,7.2C1276.4,899.5,1279.3,896.8,1279.3,892.3z"/>
		<path class="st3" d="M1287,894.5v-11.6h2.8v10.9c0,3.5,1.9,5.6,5.1,5.6s5.6-2.3,5.6-5.8v-10.7h2.7v18.6h-2.7v-3.2
			c-1.3,2-3.2,3.6-6.4,3.6C1289.6,901.9,1287,898.9,1287,894.5z"/>
		<path class="st3" d="M1310.4,896.6v-11.2h-2.6V883h2.6v-5.6h2.8v5.6h5.9v2.4h-5.9v10.9c0,2.3,1.3,3.1,3.1,3.1
			c0.9,0,1.7-0.2,2.7-0.6v2.4c-1,0.5-2,0.8-3.3,0.8C1312.7,901.9,1310.4,900.4,1310.4,896.6z"/>
		<path class="st3" d="M1322.3,892.3L1322.3,892.3c0-5.4,3.8-9.8,8.9-9.8c5.5,0,8.7,4.4,8.7,9.8c0,0.4,0,0.6,0,0.9h-14.8
			c0.4,4,3.2,6.3,6.6,6.3c2.6,0,4.4-1,5.9-2.6l1.7,1.5c-1.9,2.1-4.1,3.5-7.7,3.5C1326.5,902,1322.3,898.1,1322.3,892.3z
			 M1337.1,891.2c-0.3-3.4-2.2-6.3-5.9-6.3c-3.2,0-5.7,2.7-6,6.3H1337.1z"/>
		<path class="st3" d="M1356,876.4h9.4c5.7,0,9.4,3,9.4,8v0.1c0,5.4-4.5,8.2-9.9,8.2h-6.1v8.9h-2.8V876.4z M1365.1,890.1
			c4.2,0,6.9-2.2,6.9-5.5v-0.1c0-3.6-2.7-5.5-6.8-5.5h-6.4v11.1H1365.1z"/>
		<path class="st3" d="M1379,889L1379,889c0-7,5.2-13.1,12.9-13.1s12.8,6,12.8,13v0.1c0,6.9-5.2,13-12.9,13S1379,896,1379,889z
			 M1401.7,889L1401.7,889c0-5.8-4.2-10.5-9.9-10.5c-5.8,0-9.9,4.6-9.9,10.3v0.1c0,5.7,4.2,10.4,9.9,10.4
			C1397.6,899.4,1401.7,894.7,1401.7,889z"/>
		<path class="st3" d="M1410.7,876.4h8.7c7.9,0,13.4,5.4,13.4,12.5v0.1c0,7.1-5.5,12.6-13.4,12.6h-8.7V876.4z M1413.5,879v19.9h5.9
			c6.4,0,10.4-4.3,10.4-9.9l0,0c0-5.6-4.1-10-10.4-10H1413.5z"/>
		<path class="st3" d="M397.9,926.1h3.1l6.3,15.4l6.3-15.4h3l-8.1,18.8h-2.4L397.9,926.1z"/>
		<path class="st3" d="M420.9,919h3.2v3.1h-3.2V919z M421.1,926.1h2.8v18.6h-2.8V926.1z"/>
		<path class="st3" d="M430.3,926.1h2.8v4.9c1.4-3.1,4.1-5.3,7.6-5.2v3h-0.2c-4.1,0-7.4,2.9-7.4,8.5v7.4h-2.8V926.1z"/>
		<path class="st3" d="M445.8,939.8v-11.2h-2.6v-2.4h2.6v-5.6h2.8v5.6h5.9v2.4h-5.9v10.9c0,2.3,1.3,3.1,3.1,3.1
			c0.9,0,1.7-0.2,2.7-0.6v2.4c-1,0.5-2,0.8-3.3,0.8C448.1,945.1,445.8,943.6,445.8,939.8z"/>
		<path class="st3" d="M459.1,937.7v-11.6h2.8V937c0,3.5,1.9,5.6,5.1,5.6s5.6-2.3,5.6-5.8v-10.7h2.7v18.6h-2.7v-3.2
			c-1.3,2-3.2,3.6-6.4,3.6C461.8,945.1,459.1,942.1,459.1,937.7z"/>
		<path class="st3" d="M480.2,939.4L480.2,939.4c0-4,3.2-6.1,8-6.1c2.4,0,4.1,0.3,5.7,0.8v-0.6c0-3.3-2.1-5.1-5.5-5.1
			c-2.2,0-3.9,0.6-5.7,1.4l-0.8-2.3c2.1-0.9,4.1-1.5,6.8-1.5c2.6,0,4.6,0.7,6,2.1c1.3,1.3,1.9,3.1,1.9,5.4v11.4h-2.7v-2.8
			c-1.3,1.7-3.5,3.2-6.7,3.2C483.7,945.1,480.2,943.2,480.2,939.4z M493.9,937.9v-1.8c-1.4-0.4-3.2-0.8-5.5-0.8
			c-3.5,0-5.4,1.5-5.4,3.9v0.1c0,2.3,2.2,3.7,4.7,3.7C491.1,943,493.9,940.9,493.9,937.9z"/>
		<path class="st3" d="M502.7,918.5h2.8v26.3h-2.8V918.5z"/>
		<path class="st3" d="M522.7,926.1h2.8v3.1c1.2-1.8,2.9-3.5,6-3.5c3,0,5,1.6,6,3.7c1.3-2.1,3.3-3.7,6.6-3.7c4.3,0,6.9,2.9,6.9,7.5
			v11.5h-2.8v-10.9c0-3.6-1.8-5.6-4.8-5.6c-2.8,0-5.1,2.1-5.1,5.8v10.7h-2.8v-10.9c0-3.5-1.8-5.5-4.8-5.5s-5.2,2.4-5.2,5.9v10.6
			h-2.8L522.7,926.1L522.7,926.1z"/>
		<path class="st3" d="M555.5,939.4L555.5,939.4c0-4,3.2-6.1,8-6.1c2.4,0,4.1,0.3,5.7,0.8v-0.6c0-3.3-2.1-5.1-5.5-5.1
			c-2.2,0-3.9,0.6-5.7,1.4l-0.8-2.3c2.1-0.9,4.1-1.5,6.8-1.5c2.6,0,4.6,0.7,6,2.1c1.3,1.3,1.9,3.1,1.9,5.4v11.4h-2.7v-2.8
			c-1.3,1.7-3.5,3.2-6.7,3.2C559,945.1,555.5,943.2,555.5,939.4z M569.3,937.9v-1.8c-1.4-0.4-3.2-0.8-5.5-0.8
			c-3.5,0-5.4,1.5-5.4,3.9v0.1c0,2.3,2.2,3.7,4.7,3.7C566.4,943,569.3,940.9,569.3,937.9z"/>
		<path class="st3" d="M576.6,935.5L576.6,935.5c0-5.3,4.1-9.8,9.5-9.8c3.5,0,5.7,1.5,7.5,3.3l-1.8,1.9c-1.5-1.5-3.1-2.8-5.7-2.8
			c-3.8,0-6.7,3.2-6.7,7.2v0.1c0,4,3,7.2,6.8,7.2c2.4,0,4.2-1.2,5.7-2.8l1.8,1.7c-1.9,2.1-4.1,3.6-7.6,3.6
			C580.7,945.2,576.6,940.8,576.6,935.5z"/>
		<path class="st3" d="M598.3,918.5h2.8v10.9c1.2-2,3.2-3.6,6.4-3.6c4.5,0,7.1,3,7.1,7.5v11.6h-2.8V934c0-3.5-1.9-5.6-5.1-5.6
			c-3.2,0-5.6,2.3-5.6,5.8v10.7h-2.8L598.3,918.5L598.3,918.5z"/>
		<path class="st3" d="M620.6,919h3.2v3.1h-3.2V919z M620.8,926.1h2.8v18.6h-2.8V926.1z"/>
		<path class="st3" d="M630,926.1h2.8v3.2c1.2-2,3.2-3.6,6.4-3.6c4.5,0,7.1,3,7.1,7.5v11.6h-2.8v-10.9c0-3.5-1.9-5.6-5.1-5.6
			c-3.2,0-5.6,2.3-5.6,5.8v10.7H630V926.1z"/>
		<path class="st3" d="M651,935.5L651,935.5c0-5.4,3.8-9.8,8.9-9.8c5.5,0,8.7,4.4,8.7,9.8c0,0.4,0,0.6,0,0.9h-14.8
			c0.4,4,3.2,6.3,6.6,6.3c2.6,0,4.4-1,5.9-2.6l1.7,1.5c-1.9,2.1-4.1,3.5-7.7,3.5C655.2,945.2,651,941.3,651,935.5z M665.8,934.4
			c-0.3-3.4-2.2-6.3-5.9-6.3c-3.2,0-5.7,2.7-6,6.3H665.8z"/>
		<path class="st3" d="M671.9,942.4l1.4-2c2,1.5,4.2,2.4,6.4,2.4s3.9-1.2,3.9-3v-0.1c0-1.9-2.2-2.6-4.6-3.3
			c-2.9-0.8-6.2-1.8-6.2-5.3V931c0-3.2,2.7-5.3,6.3-5.3c2.3,0,4.8,0.8,6.7,2.1l-1.3,2.1c-1.7-1.1-3.7-1.8-5.5-1.8
			c-2.2,0-3.6,1.2-3.6,2.7v0.1c0,1.8,2.3,2.4,4.8,3.2c2.9,0.9,6,2,6,5.3v0.1c0,3.5-2.9,5.6-6.6,5.6C677,945.1,674,944.1,671.9,942.4
			z"/>
		<path class="st3" d="M691.1,941h3.3v3.8h-3.3V941z"/>
	</g>
</g>
</svg>
