<!-- Generator: Adobe Illustrator 19.1.0, SVG Export Plug-In  -->
<svg version="1.1"
	 xmlns="http://www.w3.org/2000/svg" xmlns:xlink="http://www.w3.org/1999/xlink" xmlns:a="http://ns.adobe.com/AdobeSVGViewerExtensions/3.0/"
	 x="0px" y="0px" width="1920px" height="8.3px" viewBox="0 0 1920 8.3"
	 style="overflow:scroll;enable-background:new 0 0 1920 8.3;" xml:space="preserve">
<style type="text/css">
	.st0{fill:#006990;}
	.st1{fill:#367C2B;}
	.st2{fill:#8ACDE2;}
	.st3{fill:#0D95D3;}
</style>
<defs>
</defs>
<g>
	<g>
		<polygon class="st0" points="0,8.3 0,0 55,0 67.8,8.3 		"/>
		<polygon class="st1" points="128.5,0 55,0 67.8,8.3 115.5,8.3 		"/>
		<polyline class="st2" points="183.4,8.3 183.4,0 128.5,0 115.5,8.3 183.4,8.3 		"/>
		<polygon class="st3" points="248.3,8.3 183.4,8.3 183.4,0 236.5,0 		"/>
		<polyline class="st0" points="316.3,0 316.3,8.3 316.3,0 236.2,0 248.3,8.3 316.3,8.3 		"/>
		<rect x="316.3" y="0" class="st1" width="67.9" height="8.3"/>
	</g>
	<g>
		<polygon class="st0" points="384.2,8.3 384.2,0 439.2,0 452,8.3 		"/>
		<polygon class="st1" points="512.7,0 439.2,0 452,8.3 499.7,8.3 		"/>
		<polyline class="st2" points="567.6,8.3 567.6,0 512.7,0 499.7,8.3 567.6,8.3 		"/>
		<polygon class="st3" points="632.4,8.3 567.6,8.3 567.6,0 620.7,0 		"/>
		<polyline class="st0" points="700.5,0 700.5,8.3 700.5,0 620.4,0 632.4,8.3 700.5,8.3 		"/>
		<rect x="700.5" y="0" class="st1" width="67.9" height="8.3"/>
	</g>
	<g>
		<polygon class="st0" points="767.4,8.3 767.4,0 822.4,0 835.2,8.3 		"/>
		<polygon class="st1" points="895.9,0 822.4,0 835.2,8.3 882.9,8.3 		"/>
		<polyline class="st2" points="950.8,8.3 950.8,0 895.9,0 882.9,8.3 950.8,8.3 		"/>
		<polygon class="st3" points="1015.6,8.3 950.8,8.3 950.8,0 1003.9,0 		"/>
		<polyline class="st0" points="1083.7,0 1083.7,8.3 1083.7,0 1003.6,0 1015.6,8.3 1083.7,8.3 		"/>
		<rect x="1083.7" y="0" class="st1" width="67.9" height="8.3"/>
	</g>
	<g>
		<polygon class="st0" points="1151.6,8.3 1151.6,0 1206.6,0 1219.4,8.3 		"/>
		<polygon class="st1" points="1280.1,0 1206.6,0 1219.4,8.3 1267.1,8.3 		"/>
		<polyline class="st2" points="1335,8.3 1335,0 1280.1,0 1267.1,8.3 1335,8.3 		"/>
		<polygon class="st3" points="1399.8,8.3 1335,8.3 1335,0 1388.1,0 		"/>
		<polyline class="st0" points="1467.8,0 1467.8,8.3 1467.8,0 1387.8,0 1399.8,8.3 1467.8,8.3 		"/>
		<rect x="1467.8" class="st1" width="67.9" height="8.3"/>
	</g>
	<g>
		<polygon class="st0" points="1535.8,8.3 1535.8,0 1590.8,0 1603.6,8.3 		"/>
		<polygon class="st1" points="1664.3,0 1590.8,0 1603.6,8.3 1651.3,8.3 		"/>
		<polyline class="st2" points="1719.2,8.3 1719.2,0 1664.3,0 1651.3,8.3 1719.2,8.3 		"/>
		<polygon class="st3" points="1784.1,8.3 1719.2,8.3 1719.2,0 1772.3,0 		"/>
		<polyline class="st0" points="1852.1,0 1852.1,8.3 1852.1,0 1772.1,0 1784.1,8.3 1852.1,8.3 		"/>
		<rect x="1852.1" y="0" class="st1" width="67.9" height="8.3"/>
	</g>
</g>
</svg>
