<!-- Generator: Adobe Illustrator 19.1.0, SVG Export Plug-In  -->
<svg version="1.1"
	 xmlns="http://www.w3.org/2000/svg" xmlns:xlink="http://www.w3.org/1999/xlink" xmlns:a="http://ns.adobe.com/AdobeSVGViewerExtensions/3.0/"
	 x="0px" y="0px" width="169.8px" height="25.9px" viewBox="0 0 169.8 25.9"
	 style="overflow:scroll;enable-background:new 0 0 169.8 25.9;" xml:space="preserve">
<style type="text/css">
	.st0{fill:#FFFFFF;}
</style>
<defs>
</defs>
<path class="st0" d="M166.2,3.4V2.6h0.6c0.3,0,0.5,0.1,0.5,0.4v0c0,0.3-0.2,0.4-0.5,0.4H166.2z M165.6,4.6c0,0.2,0.1,0.3,0.3,0.3
	c0.2,0,0.3-0.1,0.3-0.3V4h0.5l0.6,0.8c0.1,0.1,0.2,0.2,0.3,0.2c0.1,0,0.3-0.1,0.3-0.3c0-0.1,0-0.2-0.1-0.2l-0.4-0.5
	c0.3-0.1,0.6-0.4,0.6-0.9v0c0-0.3-0.1-0.5-0.3-0.7c-0.2-0.2-0.5-0.3-0.9-0.3h-1c-0.2,0-0.3,0.1-0.3,0.3V4.6z M169.2,3.5
	c0,1.3-1.1,2.5-2.5,2.5c-1.4,0-2.4-1.1-2.4-2.5v0c0-1.4,1.1-2.5,2.4-2.5C168.1,1,169.2,2.1,169.2,3.5L169.2,3.5z M163.7,3.5
	c0,1.7,1.3,3,3,3c1.7,0,3-1.4,3-3v0c0-1.7-1.3-3-3-3C165.1,0.5,163.7,1.8,163.7,3.5L163.7,3.5z M6.7,2.1C5.9,0.3,3.9-0.5,2,0.3
	C0.2,1.1-0.5,3.2,0.4,5l7.8,16.9c1.2,2.6,2.5,4,4.9,4c2.6,0,3.7-1.5,4.9-4c0,0,6.8-14.7,6.8-14.9c0.1-0.2,0.3-0.6,1-0.6
	c0.6,0,1.1,0.5,1.1,1.1v14.4c0,2.2,1.2,4,3.6,4c2.4,0,3.6-1.8,3.6-4V10c0-2.3,1.6-3.8,3.8-3.8c2.2,0,3.7,1.5,3.7,3.8v11.8
	c0,2.2,1.2,4,3.6,4c2.4,0,3.7-1.8,3.7-4V10c0-2.3,1.6-3.8,3.9-3.8c2.2,0,3.7,1.5,3.7,3.8v11.8c0,2.2,1.2,4,3.6,4
	c2.4,0,3.7-1.8,3.7-4V8.4c0-4.9-4-8.4-8.7-8.4c-4.8,0-7.8,3.3-7.8,3.3C45.6,1.2,43.4,0,39.7,0c-3.9,0-7.3,3.3-7.3,3.3
	C30.8,1.2,28.1,0,25.9,0c-3.5,0-6.2,1.5-7.9,5.4L13,17L6.7,2.1z M119.3,16.3c0,3.9-3.7,6.6-8.2,6.6c-3.3,0-6.1-1.8-6.1-4.9V18
	c0-3.1,2.6-5.1,7.1-5.1c3,0,5.4,0.5,7.2,1V16.3z M101.2,18.2c0,5,4.6,7.6,9.1,7.6c4.3,0,7.1-2,8.8-4.2V24c0,0.9,0.7,1.7,1.7,1.7
	c1,0,1.8-0.8,1.8-1.8V10.4c0-3.1-0.9-5.5-2.5-7.1c-1.8-1.8-4.4-2.7-7.9-2.7c-3.1,0-4.9,0.4-7.3,1.4c-0.7,0.3-1,0.8-1,1.5
	c0,0.9,0.8,1.6,1.6,1.6c0.2,0,0.4,0,0.7-0.1c1.8-0.8,3.2-1.1,5.7-1.1c4.6,0,7.3,2.3,7.3,6.7v0.9c-2.2-0.6-4.4-1-7.5-1
	C105.5,10.2,101.2,13,101.2,18.2L101.2,18.2z M144.4,11.8c0.5-4.7,3.6-8.3,7.8-8.3c4.8,0,7.3,3.8,7.7,8.3H144.4z M152.7,25.8
	c4.1,0,6.8-1.5,9.1-3.7c0.4-0.3,0.6-0.7,0.6-1.2c0-0.8-0.7-1.6-1.6-1.6c-0.4,0-0.8,0.2-1,0.4c-1.8,1.6-4,2.8-6.9,2.8
	c-4.3,0-7.9-3-8.5-8.2h17.4c0.9,0,1.7-0.7,1.7-1.7c0-6.4-4-12.3-11.1-12.3c-6.7,0-11.5,5.6-11.5,12.6v0.1
	C140.7,20.7,146.1,25.8,152.7,25.8 M127.1,2.3v21.4c0,1,0.8,1.8,1.8,1.8c1,0,1.8-0.8,1.8-1.8v-8.3c0-7.1,3.9-10.6,8.6-11.2
	c0.9-0.1,1.6-0.9,1.6-1.9c0-1-0.7-1.8-1.8-1.8c-2.6,0-6.6,1.9-8.4,6V2.3c0-1-0.8-1.9-1.9-1.9C127.9,0.5,127.1,1.3,127.1,2.3
	 M72.9,24L65.5,3.3c-0.1-0.3-0.2-0.7-0.2-1c0-0.9,0.8-1.7,1.8-1.7c1,0,1.6,0.6,1.8,1.5l6.2,17.8L81.3,2c0.3-0.8,0.9-1.5,1.8-1.5h0.2
	c1,0,1.6,0.6,1.9,1.5l6.2,17.9l6.2-17.9c0.2-0.8,0.8-1.4,1.8-1.4c1,0,1.8,0.8,1.8,1.7c0,0.3-0.1,0.7-0.2,1L93.4,24
	c-0.4,1.1-1.1,1.7-2,1.7h-0.1c-0.9,0-1.7-0.6-2-1.7L83.2,6.4L77.1,24c-0.3,1.1-1,1.7-2,1.7H75C74.1,25.6,73.3,25.1,72.9,24"/>
</svg>
