<!-- Generator: Adobe Illustrator 19.1.0, SVG Export Plug-In  -->
<svg version="1.1"
	 xmlns="http://www.w3.org/2000/svg" xmlns:xlink="http://www.w3.org/1999/xlink" xmlns:a="http://ns.adobe.com/AdobeSVGViewerExtensions/3.0/"
	 x="0px" y="0px" width="747.6px" height="53.5px" viewBox="0 0 747.6 53.5"
	 style="overflow:scroll;enable-background:new 0 0 747.6 53.5;" xml:space="preserve">
<style type="text/css">
	.st0{fill:#FFFFFF;}
</style>
<defs>
</defs>
<g>
	<path class="st0" d="M0,1.8h3.5l16.4,38.6L36.4,1.8h3.3L21.2,44.1h-2.8L0,1.8z"/>
	<path class="st0" d="M48.6,1.8h2.9l16.9,24.8L85.3,1.8h2.9v42h-3.1V7.3L68.5,31.5h-0.2L51.6,7.3v36.5h-3V1.8z"/>
	<path class="st0" d="M97.4,13.2h3.3l9.2,26.9l9.2-27h2.3l9.2,27l9.2-26.9h3.2L131.9,44h-2.5l-9.1-26.2L111.1,44h-2.5L97.4,13.2z"/>
	<path class="st0" d="M148,34.9v-0.1c0-6.4,5.5-10,13.4-10c4.3,0,7.2,0.5,10.1,1.3v-1.3c0-6.2-3.8-9.4-10.1-9.4
		c-3.7,0-6.8,1-9.6,2.5l-1.1-2.6c3.4-1.6,6.7-2.6,10.9-2.6c4.1,0,7.4,1.1,9.7,3.4c2,2,3.1,4.9,3.1,8.6v19.1h-2.9v-5.1
		c-2.1,2.9-5.9,5.8-11.7,5.8C154.1,44.5,148,41.3,148,34.9z M171.5,32.3v-3.5c-2.6-0.7-6-1.4-10.4-1.4c-6.5,0-10.1,2.9-10.1,7.1v0.1
		c0,4.4,4.2,7,8.9,7C166.2,41.8,171.5,37.9,171.5,32.3z"/>
	<path class="st0" d="M184.9,13.2h2.9v8.7c2.4-5.5,7.5-9.4,13.6-9.2V16h-0.3c-7.1,0-13.3,5.3-13.3,15.3v12.5h-2.9V13.2z"/>
	<path class="st0" d="M205.3,28.6v-0.1c0-8.9,6.2-16,14.5-16c8.6,0,14,7,14,16c0,0.5,0,0.7-0.1,1.2h-25.4c0.5,7.6,6,12.1,12,12.1
		c4.7,0,8-2.1,10.5-4.8l2,1.8c-3.1,3.4-6.8,5.8-12.7,5.8C212.3,44.5,205.3,38.1,205.3,28.6z M230.7,27.1c-0.4-6.2-4-11.9-11-11.9
		c-6.1,0-10.7,5.1-11.3,11.9H230.7z"/>
	<path class="st0" d="M257.5,1.8h3.5l16.4,38.6l16.5-38.6h3.3l-18.5,42.3H276L257.5,1.8z"/>
	<path class="st0" d="M298.7,34.9v-0.1c0-6.4,5.5-10,13.4-10c4.3,0,7.2,0.5,10.1,1.3v-1.3c0-6.2-3.8-9.4-10.1-9.4
		c-3.7,0-6.8,1-9.6,2.5l-1.1-2.6c3.4-1.6,6.7-2.6,10.9-2.6c4.1,0,7.4,1.1,9.7,3.4c2,2,3.1,4.9,3.1,8.6v19.1h-2.9v-5.1
		c-2.1,2.9-5.9,5.8-11.7,5.8C304.9,44.5,298.7,41.3,298.7,34.9z M322.3,32.3v-3.5c-2.6-0.7-6-1.4-10.4-1.4c-6.5,0-10.1,2.9-10.1,7.1
		v0.1c0,4.4,4.2,7,8.9,7C317,41.8,322.3,37.9,322.3,32.3z"/>
	<path class="st0" d="M336.1,0h2.9v43.8h-2.9V0z"/>
	<path class="st0" d="M350.7,1.2h3.7v4h-3.7V1.2z M351.1,13.2h2.9v30.6h-2.9V13.2z"/>
	<path class="st0" d="M363.6,28.6v-0.1c0-10,7.5-16,14.9-16c6.1,0,10.1,3.5,12.6,7.3V0h2.9v43.8h-2.9V37c-2.6,4-6.5,7.6-12.6,7.6
		C371.1,44.5,363.6,38.6,363.6,28.6z M391.3,28.6v-0.1c0-7.9-6.1-13.1-12.5-13.1c-6.7,0-12,4.9-12,13.1v0.1c0,8,5.6,13.2,12,13.2
		C385.1,41.7,391.3,36.4,391.3,28.6z"/>
	<path class="st0" d="M402.7,34.9v-0.1c0-6.4,5.5-10,13.4-10c4.3,0,7.2,0.5,10.1,1.3v-1.3c0-6.2-3.8-9.4-10.1-9.4
		c-3.7,0-6.8,1-9.6,2.5l-1.1-2.6c3.4-1.6,6.7-2.6,10.9-2.6c4.1,0,7.4,1.1,9.7,3.4c2,2,3.1,4.9,3.1,8.6v19.1h-2.9v-5.1
		c-2.1,2.9-5.9,5.8-11.7,5.8C408.8,44.5,402.7,41.3,402.7,34.9z M426.2,32.3v-3.5c-2.6-0.7-6-1.4-10.4-1.4c-6.5,0-10.1,2.9-10.1,7.1
		v0.1c0,4.4,4.2,7,8.9,7C420.9,41.8,426.2,37.9,426.2,32.3z"/>
	<path class="st0" d="M440.9,35.9v-20h-4.4v-2.7h4.4V3.4h2.9v9.8h10.7v2.7h-10.7v19.7c0,4.4,2.6,5.9,6.1,5.9c1.5,0,2.8-0.3,4.5-1.1
		v2.8c-1.6,0.7-3.1,1.1-5,1.1C444.8,44.3,440.9,41.8,440.9,35.9z"/>
	<path class="st0" d="M460.3,28.6v-0.1c0-8.9,6.2-16,14.5-16c8.6,0,14,7,14,16c0,0.5,0,0.7-0.1,1.2h-25.4c0.5,7.6,6,12.1,12,12.1
		c4.7,0,8-2.1,10.5-4.8l2,1.8c-3.1,3.4-6.8,5.8-12.7,5.8C467.3,44.5,460.3,38.1,460.3,28.6z M485.7,27.1c-0.4-6.2-4-11.9-11-11.9
		c-6.1,0-10.7,5.1-11.3,11.9H485.7z"/>
	<path class="st0" d="M495.5,28.6v-0.1c0-10,7.5-16,14.9-16c6.1,0,10.1,3.5,12.6,7.3V0h2.9v43.8H523V37c-2.6,4-6.5,7.6-12.6,7.6
		C503,44.5,495.5,38.6,495.5,28.6z M523.1,28.6v-0.1c0-7.9-6.1-13.1-12.5-13.1c-6.7,0-12,4.9-12,13.1v0.1c0,8,5.6,13.2,12,13.2
		C517,41.7,523.1,36.4,523.1,28.6z"/>
	<path class="st0" d="M555.7,1.8h14c13.2,0,22.3,9.1,22.3,20.9v0.1c0,11.8-9.1,21-22.3,21h-14V1.8z M558.8,4.7v36.2h10.9
		c11.7,0,19.1-8,19.1-18v-0.1c0-10-7.4-18.1-19.1-18.1H558.8z"/>
	<path class="st0" d="M599.9,28.6v-0.1c0-8.9,6.2-16,14.5-16c8.6,0,14,7,14,16c0,0.5,0,0.7-0.1,1.2H603c0.5,7.6,6,12.1,12,12.1
		c4.7,0,8-2.1,10.5-4.8l2,1.8c-3.1,3.4-6.8,5.8-12.7,5.8C606.8,44.5,599.9,38.1,599.9,28.6z M625.3,27.1c-0.4-6.2-4-11.9-11-11.9
		c-6.1,0-10.7,5.1-11.3,11.9H625.3z"/>
	<path class="st0" d="M634.4,40l1.7-2.3c3.4,2.6,7.1,4,11,4c4.1,0,7.4-2.3,7.4-5.8v-0.1c0-3.6-3.8-4.9-8.1-6.1
		c-5-1.4-10.5-2.9-10.5-8.4v-0.1c0-4.9,4.1-8.5,10.1-8.5c3.7,0,7.8,1.3,10.9,3.4l-1.6,2.5c-2.8-1.9-6.2-3.1-9.4-3.1
		c-4.2,0-7,2.3-7,5.3v0.1c0,3.4,4.1,4.7,8.5,5.9c4.9,1.4,10.1,3.2,10.1,8.6v0.1c0,5.5-4.7,8.9-10.6,8.9
		C642.5,44.4,637.6,42.6,634.4,40z"/>
	<path class="st0" d="M666.9,1.2h3.7v4h-3.7V1.2z M667.3,13.2h2.9v30.6h-2.9V13.2z"/>
	<path class="st0" d="M681.2,48.8l1.7-2.4c3.7,2.8,7.9,4.3,12.4,4.3c7,0,12-4,12-11.9v-4.4c-2.6,3.8-6.7,7.1-12.8,7.1
		c-7.4,0-14.7-5.6-14.7-14.4V27c0-8.8,7.3-14.5,14.7-14.5c6.1,0,10.3,3.2,12.8,6.8v-6.1h2.9v25.9c0,4.4-1.4,7.9-3.9,10.4
		c-2.6,2.6-6.6,4.1-11.1,4.1C690.1,53.5,685.4,52,681.2,48.8z M707.5,27.1v-0.1c0-7.1-6.3-11.6-12.7-11.6c-6.4,0-11.8,4.4-11.8,11.6
		V27c0,6.9,5.5,11.7,11.8,11.7C701.2,38.7,707.5,34,707.5,27.1z"/>
	<path class="st0" d="M721.4,13.2h2.9v5.7c2-3.6,5.5-6.4,11-6.4c7.7,0,12.2,5.3,12.2,12.6v18.7h-2.9V25.6c0-6.3-3.5-10.4-9.7-10.4
		c-6,0-10.6,4.6-10.6,10.9v17.7h-2.9V13.2z"/>
</g>
</svg>
