<?xml version="1.0" encoding="utf-8"?>
<!-- Generator: Adobe Illustrator 19.1.0, SVG Export Plug-In . SVG Version: 6.00 Build 0)  -->
<svg version="1.1" id="Layer_1" xmlns="http://www.w3.org/2000/svg" xmlns:xlink="http://www.w3.org/1999/xlink" x="0px" y="0px"
	 viewBox="-203 369.3 204.9 55.7" style="enable-background:new -203 369.3 204.9 55.7;" xml:space="preserve">
<style type="text/css">
	.st0{fill:#D85527;}
	.st1{fill:#FFFFFF;}
	.st2{enable-background:new    ;}
	.st3{fill:#231F20;}
</style>
<rect x="-203" y="420" class="st0" width="204.9" height="5"/>
<rect x="-52.8" y="369.3" class="st0" width="5" height="53.4"/>
<g>
	<rect x="-193.5" y="382" class="st1" width="130.4" height="25.8"/>
	<polygon class="st1" points="-119.6,407.4 -128.3,419 -137,407.4 	"/>
	<g class="st2">
		<path class="st3" d="M-185,388.5h8.1v1.2h-6.8v3.8h6.1v1.2h-6.1v3.9h6.9v1.2h-8.2V388.5z"/>
		<path class="st3" d="M-171.3,394.7l2.5-3.2h1.4l-3.1,4l3.3,4.2h-1.4l-2.6-3.4l-2.6,3.4h-1.4l3.2-4.2l-3.1-4.1h1.4L-171.3,394.7z"
			/>
		<path class="st3" d="M-164.9,397.5v-5h-1.2v-1.1h1.2v-2.5h1.2v2.5h2.6v1.1h-2.6v4.8c0,1,0.6,1.4,1.4,1.4c0.4,0,0.8-0.1,1.2-0.3
			v1.1c-0.4,0.2-0.9,0.4-1.5,0.4C-163.9,399.9-164.9,399.2-164.9,397.5z"/>
		<path class="st3" d="M-159.6,395.6L-159.6,395.6c0-2.4,1.7-4.3,4-4.3c2.4,0,3.9,2,3.9,4.4c0,0.2,0,0.3,0,0.4h-6.6
			c0.2,1.8,1.4,2.8,2.9,2.8c1.1,0,1.9-0.5,2.6-1.2l0.8,0.7c-0.8,0.9-1.8,1.6-3.4,1.6C-157.7,399.9-159.6,398.2-159.6,395.6z
			 M-153,395.1c-0.1-1.5-1-2.8-2.6-2.8c-1.4,0-2.5,1.2-2.7,2.8H-153z"/>
		<path class="st3" d="M-149.6,391.4h1.2v2.2c0.6-1.4,1.8-2.4,3.4-2.3v1.3h-0.1c-1.8,0-3.3,1.3-3.3,3.8v3.3h-1.2V391.4z"/>
		<path class="st3" d="M-143.1,391.4h1.2v1.4c0.5-0.9,1.4-1.6,2.8-1.6c2,0,3.2,1.3,3.2,3.3v5.1h-1.2v-4.8c0-1.5-0.8-2.5-2.3-2.5
			c-1.4,0-2.5,1-2.5,2.6v4.7h-1.2V391.4z"/>
		<path class="st3" d="M-133.9,397.3L-133.9,397.3c0-1.8,1.4-2.7,3.5-2.7c1.1,0,1.8,0.1,2.5,0.4v-0.3c0-1.5-0.9-2.3-2.5-2.3
			c-1,0-1.7,0.3-2.5,0.6l-0.4-1c0.9-0.4,1.8-0.7,3-0.7c1.2,0,2.1,0.3,2.7,0.9c0.6,0.6,0.8,1.4,0.8,2.4v5.1h-1.2v-1.2
			c-0.6,0.8-1.5,1.4-3,1.4C-132.3,399.9-133.9,399-133.9,397.3z M-127.8,396.7v-0.8c-0.6-0.2-1.4-0.4-2.4-0.4
			c-1.6,0-2.4,0.7-2.4,1.7v0c0,1,1,1.6,2.1,1.6C-129,398.9-127.8,398-127.8,396.7z"/>
		<path class="st3" d="M-123.9,388h1.2v11.7h-1.2V388z"/>
		<path class="st3" d="M-115.8,388.5h1.4l4,9.7l4-9.7h1.4l-4.8,11.3h-1.1L-115.8,388.5z"/>
		<path class="st3" d="M-102.8,388.5h1.3v10h6.3v1.2h-7.6V388.5z"/>
		<path class="st3" d="M-88.7,388.4h1.2l5.1,11.3h-1.4l-1.3-3h-6.1l-1.3,3h-1.3L-88.7,388.4z M-85.6,395.6l-2.5-5.7l-2.6,5.7H-85.6z
			"/>
		<path class="st3" d="M-80.2,388.5h1.2l7.1,9v-9h1.2v11.2h-1l-7.2-9.2v9.2h-1.2V388.5z"/>
	</g>
</g>
</svg>
