<!-- Generator: Adobe Illustrator 19.1.0, SVG Export Plug-In  -->
<svg version="1.1"
	 xmlns="http://www.w3.org/2000/svg" xmlns:xlink="http://www.w3.org/1999/xlink" xmlns:a="http://ns.adobe.com/AdobeSVGViewerExtensions/3.0/"
	 x="0px" y="0px" width="61px" height="61.9px" viewBox="0 0 61 61.9" style="overflow:scroll;enable-background:new 0 0 61 61.9;"
	 xml:space="preserve">
<style type="text/css">
	.st0{fill:#FFFFFF;}
	.st1{fill:#677F90;}
	.st2{fill:#BCC1C6;}
	.st3{opacity:0.1;}
	.st4{fill:#9ACDE9;}
	.st5{fill:#99CCE6;}
	.st6{fill:#0F3535;}
	.st7{fill:#4DA847;}
	.st8{fill:#0A9046;}
	.st9{fill:#2A98D4;}
	.st10{fill:#158686;}
	.st11{fill:#232658;}
	.st12{fill:#3A7E3D;}
	.st13{fill:#408740;}
	.st14{fill:#90C13F;}
	.st15{fill:#72C5A0;}
	.st16{fill:#2D9ED9;}
	.st17{fill:#1575B1;}
	.st18{fill:#C3D6A2;}
	.st19{fill:#517034;}
	.st20{fill:#1B4724;}
	.st21{fill:#94CB88;}
	.st22{fill:#5E9541;}
	.st23{fill:#6BBFEB;}
	.st24{fill:#3D73B6;}
	.st25{fill:#E7EAE8;}
</style>
<defs>
</defs>
<g>
	<rect class="st0" width="61" height="61.9"/>
	<g>
		<g>
			<g>
				<g>
					<g>
						<g>
							<g>
								<rect x="3" y="2.6" class="st1" width="55.6" height="55.6"/>
								<g>
									<g>
										<g>
											<g>
												<path class="st2" d="M57.7,3.5v53.8H3.9V3.5H57.7 M59.5,1.7h-1.8H3.9H2.1v1.8v53.8v1.8h1.8h53.8h1.8v-1.8V3.5V1.7
													L59.5,1.7z"/>
											</g>
										</g>
									</g>
								</g>
							</g>
						</g>
					</g>
				</g>
			</g>
			<g class="st3">
				<polygon class="st4" points="3.8,21.5 3.8,12.6 12.8,12.6 				"/>
				<polygon class="st5" points="12.8,12.6 12.8,3.6 3.8,3.6 				"/>
				<polygon class="st6" points="48.6,12.6 48.6,21.5 39.6,21.5 				"/>
				<polygon class="st7" points="39.6,3.6 48.6,3.6 48.6,12.6 				"/>
				<polygon class="st8" points="39.6,3.6 39.6,12.6 48.6,12.6 				"/>
				<polygon class="st9" points="39.6,3.6 39.6,12.6 30.7,12.6 				"/>
				<polygon class="st10" points="39.6,21.5 30.7,21.5 30.7,12.6 				"/>
				<polygon class="st11" points="21.7,21.5 30.7,21.5 30.7,12.6 				"/>
				<polygon class="st12" points="39.6,21.5 39.6,12.6 48.6,12.6 				"/>
				<polygon class="st13" points="57.6,3.6 48.6,3.6 48.6,12.6 				"/>
				<polygon class="st14" points="57.6,3.6 57.6,12.6 48.6,12.6 				"/>
				<polygon class="st15" points="57.6,21.5 57.6,12.6 48.6,12.6 				"/>
				<polygon class="st7" points="48.6,12.6 48.6,21.5 57.6,21.5 				"/>
				<polygon class="st16" points="21.7,3.6 30.7,3.6 30.7,12.6 				"/>
				<polygon class="st17" points="21.7,21.5 21.7,12.6 12.7,12.6 				"/>
				<polygon class="st18" points="39.6,21.5 30.7,21.5 30.7,30.5 				"/>
				<polygon class="st19" points="39.6,21.5 39.6,30.5 48.6,30.5 				"/>
				<polygon class="st20" points="48.6,30.5 48.6,21.5 39.6,21.5 				"/>
				<polygon class="st21" points="57.6,21.5 57.6,30.5 48.6,30.5 				"/>
				<polygon class="st22" points="48.6,30.5 48.6,21.5 57.6,21.5 				"/>
				<polygon class="st23" points="21.7,21.5 12.7,21.5 12.7,30.5 				"/>
				<polygon class="st24" points="21.7,21.5 21.7,30.5 30.7,30.5 				"/>
			</g>
			<g class="st3">
				<polygon class="st4" points="3.8,48.4 3.8,39.5 12.7,39.5 				"/>
				<polygon class="st5" points="12.7,39.4 12.7,30.5 3.8,30.5 				"/>
				<polygon class="st6" points="48.6,39.5 48.6,48.4 39.6,48.4 				"/>
				<polygon class="st7" points="39.6,30.5 48.6,30.5 48.6,39.5 				"/>
				<polygon class="st8" points="39.6,30.5 39.6,39.5 48.6,39.5 				"/>
				<polygon class="st9" points="39.6,30.5 39.6,39.5 30.6,39.5 				"/>
				<polygon class="st10" points="39.6,48.4 30.6,48.4 30.6,39.5 				"/>
				<polygon class="st11" points="21.7,48.4 30.6,48.4 30.6,39.5 				"/>
				<polygon class="st12" points="39.6,48.4 39.6,39.4 48.6,39.4 				"/>
				<polygon class="st13" points="57.6,30.5 48.6,30.5 48.6,39.5 				"/>
				<polygon class="st14" points="57.6,30.5 57.6,39.5 48.6,39.5 				"/>
				<polygon class="st15" points="57.6,48.4 57.6,39.4 48.6,39.4 				"/>
				<polygon class="st7" points="48.6,39.5 48.6,48.4 57.6,48.4 				"/>
				<polygon class="st16" points="21.7,30.5 30.6,30.5 30.6,39.5 				"/>
				<polygon class="st17" points="21.7,48.4 21.7,39.5 12.7,39.5 				"/>
				<polygon class="st18" points="39.6,48.4 30.6,48.4 30.6,57.4 				"/>
				<polygon class="st19" points="39.6,48.4 39.6,57.4 48.6,57.4 				"/>
				<polygon class="st20" points="48.6,57.4 48.6,48.4 39.6,48.4 				"/>
				<polygon class="st21" points="57.6,48.4 57.6,57.4 48.6,57.4 				"/>
				<polygon class="st22" points="48.6,57.4 48.6,48.4 57.5,48.4 				"/>
				<polygon class="st23" points="21.7,48.4 12.7,48.4 12.7,57.4 				"/>
				<polygon class="st24" points="21.7,48.4 21.7,57.4 30.7,57.4 				"/>
			</g>
		</g>
		<g>
			<polygon class="st25" points="33.5,30.1 28.8,26.7 28.8,28.7 12.5,28.7 12.5,31.4 28.8,31.4 28.8,33.3 			"/>
		</g>
		<g>
			<polygon class="st25" points="42.5,17.1 36.9,18.8 38.5,20.1 33.5,26.7 35.6,28.4 40.7,21.7 42.2,22.9 			"/>
		</g>
		<g>
			<polygon class="st25" points="48.7,30.7 44,27.2 44,29.3 35.6,29.3 35.6,32 44,32 44,33.9 			"/>
		</g>
		<g>
			<polygon class="st25" points="42.5,44.3 36.9,42.6 38.5,41.3 33.5,34.7 35.6,33 40.7,39.7 42.2,38.5 			"/>
		</g>
	</g>
</g>
</svg>
