<?xml version="1.0" encoding="utf-8"?>
<!-- Generator: Adobe Illustrator 19.1.0, SVG Export Plug-In . SVG Version: 6.00 Build 0)  -->
<svg version="1.1" id="Layer_1" xmlns="http://www.w3.org/2000/svg" xmlns:xlink="http://www.w3.org/1999/xlink" x="0px" y="0px"
	 viewBox="195 315.7 1001 162.3" style="enable-background:new 195 315.7 1001 162.3;" xml:space="preserve">
<style type="text/css">
	
		.st0{opacity:0.8;fill:#D0D2D3;stroke:#262261;stroke-width:2;stroke-miterlimit:10;stroke-dasharray:4,4;enable-background:new    ;}
	.st1{fill:#387C2C;}
	.st2{fill:none;}
	.st3{fill:#1D4077;}
	.st4{fill:#FFFFFF;}
	.st5{enable-background:new    ;}
	.st6{fill:#231F20;}
	.st7{fill:#677F90;}
	.st8{fill:#BCC1C6;}
	.st9{opacity:0.1;}
	.st10{fill:#9ACDE9;}
	.st11{fill:#99CCE6;}
	.st12{fill:#0F3535;}
	.st13{fill:#4DA847;}
	.st14{fill:#0A9046;}
	.st15{fill:#2A98D4;}
	.st16{fill:#158686;}
	.st17{fill:#232658;}
	.st18{fill:#3A7E3D;}
	.st19{fill:#408740;}
	.st20{fill:#90C13F;}
	.st21{fill:#72C5A0;}
	.st22{fill:#2D9ED9;}
	.st23{fill:#1575B1;}
	.st24{fill:#C3D6A2;}
	.st25{fill:#517034;}
	.st26{fill:#1B4724;}
	.st27{fill:#94CB88;}
	.st28{fill:#5E9541;}
	.st29{fill:#6BBFEB;}
	.st30{fill:#3D73B6;}
	.st31{fill:#E7EAE8;}
	.st32{fill:url(#SVGID_1_);stroke:#A7A8AB;stroke-width:1.9877;}
	.st33{opacity:0.2;fill:#FFFFFF;enable-background:new    ;}
	.st34{fill:url(#SVGID_2_);}
	.st35{fill:#2076BA;}
	.st36{fill:url(#SVGID_3_);stroke:#A7A8AB;stroke-width:1.9877;}
	.st37{fill:url(#SVGID_4_);}
	.st38{fill:#D85527;}
</style>
<rect x="196.1" y="316.8" class="st0" width="997.5" height="160.1"/>
<g>
	<path class="st1" d="M815.3,335.7H514.5c-6.3,0-5.2,5.1-5.2,11.2v20.2c0,6.3,0.1,11.2,6.2,11.2h299.8c6.3,0,5.2-5.1,5.2-11.2v-20.2
		C820.6,340.7,821.6,335.7,815.3,335.7z"/>
	<g>
		<line class="st2" x1="843" y1="392.1" x2="998.6" y2="392.1"/>
		<rect x="843" y="389.6" class="st3" width="155.6" height="5"/>
	</g>
	<g>
		<rect x="872.9" y="343.2" class="st4" width="113.6" height="27"/>
		<polygon class="st4" points="938.3,369.8 929.7,381.5 921,369.8 		"/>
		<g class="st5">
			<path class="st6" d="M879.8,351h1.4l4,9.7l4-9.7h1.4l-4.8,11.3h-1.1L879.8,351z"/>
			<path class="st6" d="M901.6,351l-4.1,5.5l4.3,5.7h-1.5l-3.6-4.8l-3.6,4.8h-1.5l4.3-5.7l-4.1-5.5h1.5l3.4,4.6l3.4-4.6H901.6z"/>
			<path class="st6" d="M904.1,351h1.3v10h6.3v1.2h-7.6V351z"/>
			<path class="st6" d="M918.1,350.9h1.2l5.1,11.3H923l-1.3-3h-6.1l-1.3,3H913L918.1,350.9z M921.3,358l-2.5-5.7l-2.6,5.7H921.3z"/>
			<path class="st6" d="M926.6,351h1.2l7.1,9v-9h1.2v11.2h-1l-7.2-9.2v9.2h-1.2L926.6,351L926.6,351z"/>
			<path class="st6" d="M943.3,360.6l0.8-0.9c1,0.9,2,1.5,3.2,1.5c1.6,0,2.7-1.1,2.7-2.5l0,0c0-1.4-1.2-2.4-2.8-2.4
				c-0.9,0-1.7,0.3-2.4,0.6l-0.8-0.6l0.3-5.5h6.5v1.2h-5.3l-0.2,3.6c0.7-0.3,1.3-0.5,2.2-0.5c2.2,0,3.9,1.3,3.9,3.4l0,0
				c0,2.2-1.7,3.7-4,3.7C945.7,362.3,944.3,361.6,943.3,360.6z"/>
			<path class="st6" d="M953.3,356.6L953.3,356.6c0-3.2,1.9-5.8,4.8-5.8s4.7,2.6,4.7,5.8l0,0c0,3.1-1.9,5.8-4.7,5.8
				C955.1,362.3,953.3,359.7,953.3,356.6z M961.4,356.6L961.4,356.6c0-2.5-1.3-4.7-3.4-4.7c-2.1,0-3.4,2.1-3.4,4.6l0,0
				c0,2.4,1.3,4.6,3.4,4.6C960.1,361.2,961.4,359,961.4,356.6z"/>
			<path class="st6" d="M964.7,356.6L964.7,356.6c0-3.2,1.9-5.8,4.8-5.8s4.7,2.6,4.7,5.8l0,0c0,3.1-1.9,5.8-4.7,5.8
				C966.5,362.3,964.7,359.7,964.7,356.6z M972.9,356.6L972.9,356.6c0-2.5-1.3-4.7-3.4-4.7c-2.1,0-3.4,2.1-3.4,4.6l0,0
				c0,2.4,1.3,4.6,3.4,4.6C971.6,361.2,972.9,359,972.9,356.6z"/>
			<path class="st6" d="M977.9,352.2l-2.1,0.7l-0.3-1l2.7-0.9h0.9v11.2h-1.2L977.9,352.2L977.9,352.2z"/>
		</g>
	</g>
	<g>
		<g>
			<g>
				<g>
					<g>
						<g>
							<g>
								<rect x="842.3" y="406.1" class="st7" width="54.5" height="54.5"/>
								<g>
									<g>
										<g>
											<g>
												<path class="st8" d="M895.9,406.9v52.7h-52.7v-52.7H895.9 M897.6,405.2h-1.7h-52.7h-1.8v1.7v52.7v1.7h1.7h52.7h1.7v-1.7
													v-52.7L897.6,405.2L897.6,405.2z"/>
											</g>
										</g>
									</g>
								</g>
							</g>
						</g>
					</g>
				</g>
			</g>
			<g class="st9">
				<polygon class="st10" points="843.1,424.6 843.1,415.8 851.8,415.8 				"/>
				<polygon class="st11" points="851.8,415.8 851.8,407 843.1,407 				"/>
				<polygon class="st12" points="887,415.8 887,424.6 878.2,424.6 				"/>
				<polygon class="st13" points="878.2,407 887,407 887,415.8 				"/>
				<polygon class="st14" points="878.2,407 878.2,415.8 887,415.8 				"/>
				<polygon class="st15" points="878.2,407 878.2,415.8 869.4,415.8 				"/>
				<polygon class="st16" points="878.2,424.6 869.4,424.6 869.4,415.8 				"/>
				<polygon class="st17" points="860.6,424.6 869.4,424.6 869.4,415.8 				"/>
				<polygon class="st18" points="878.2,424.6 878.2,415.8 887,415.8 				"/>
				<polygon class="st19" points="895.8,407 887,407 887,415.8 				"/>
				<polygon class="st20" points="895.8,407 895.8,415.8 887,415.8 				"/>
				<polygon class="st21" points="895.7,424.6 895.7,415.8 887,415.8 				"/>
				<polygon class="st13" points="887,415.8 887,424.6 895.7,424.6 				"/>
				<polygon class="st22" points="860.6,407 869.4,407 869.4,415.8 				"/>
				<polygon class="st23" points="860.6,424.6 860.6,415.8 851.8,415.8 				"/>
				<polygon class="st24" points="878.2,424.6 869.4,424.6 869.4,433.4 				"/>
				<polygon class="st25" points="878.2,424.6 878.2,433.4 887,433.4 				"/>
				<polygon class="st26" points="887,433.4 887,424.6 878.2,424.6 				"/>
				<polygon class="st27" points="895.7,424.6 895.7,433.4 887,433.4 				"/>
				<polygon class="st28" points="887,433.4 887,424.6 895.7,424.6 				"/>
				<polygon class="st29" points="860.6,424.6 851.8,424.6 851.8,433.4 				"/>
				<polygon class="st30" points="860.6,424.6 860.6,433.4 869.4,433.4 				"/>
			</g>
			<g class="st9">
				<polygon class="st10" points="843,451 843,442.2 851.8,442.2 				"/>
				<polygon class="st11" points="851.8,442.2 851.8,433.4 843,433.4 				"/>
				<polygon class="st12" points="886.9,442.2 886.9,451 878.1,451 				"/>
				<polygon class="st13" points="878.1,433.4 886.9,433.4 886.9,442.2 				"/>
				<polygon class="st14" points="878.1,433.4 878.1,442.2 886.9,442.2 				"/>
				<polygon class="st15" points="878.2,433.4 878.2,442.2 869.4,442.2 				"/>
				<polygon class="st16" points="878.1,451 869.4,451 869.4,442.2 				"/>
				<polygon class="st17" points="860.6,451 869.4,451 869.4,442.2 				"/>
				<polygon class="st18" points="878.2,451 878.2,442.2 886.9,442.2 				"/>
				<polygon class="st19" points="895.7,433.4 886.9,433.4 886.9,442.2 				"/>
				<polygon class="st20" points="895.7,433.4 895.7,442.2 886.9,442.2 				"/>
				<polygon class="st21" points="895.7,451 895.7,442.2 886.9,442.2 				"/>
				<polygon class="st13" points="886.9,442.2 886.9,451 895.7,451 				"/>
				<polygon class="st22" points="860.6,433.4 869.4,433.4 869.4,442.2 				"/>
				<polygon class="st23" points="860.6,451 860.6,442.2 851.8,442.2 				"/>
				<polygon class="st24" points="878.1,451 869.4,451 869.4,459.7 				"/>
				<polygon class="st25" points="878.2,451 878.2,459.7 886.9,459.7 				"/>
				<polygon class="st26" points="886.9,459.8 886.9,451 878.1,451 				"/>
				<polygon class="st27" points="895.7,451 895.7,459.7 886.9,459.7 				"/>
				<polygon class="st28" points="886.9,459.8 886.9,451 895.7,451 				"/>
				<polygon class="st29" points="860.6,451 851.8,451 851.8,459.7 				"/>
				<polygon class="st30" points="860.6,451 860.6,459.7 869.4,459.7 				"/>
			</g>
		</g>
		<g>
			<polygon class="st31" points="872.2,433 867.5,429.6 867.5,431.7 851.6,431.7 851.6,434.3 867.5,434.3 867.5,436.2 			"/>
		</g>
		<g>
			<polygon class="st31" points="881,420.3 875.5,422 877.1,423.2 872.1,429.7 874.2,431.3 879.2,424.8 880.7,425.9 			"/>
		</g>
		<g>
			<polygon class="st31" points="887.1,433.6 882.4,430.2 882.4,432.2 874.2,432.3 874.2,434.9 882.4,434.9 882.4,436.8 			"/>
		</g>
		<g>
			<polygon class="st31" points="881,446.9 875.5,445.2 877.1,444 872.1,437.5 874.2,435.9 879.2,442.4 880.7,441.3 			"/>
		</g>
	</g>
	<g>
		<g class="st5">
			<path class="st4" d="M536,357.1L536,357.1c0-4.3,3.2-7.7,7.7-7.7c2.7,0,4.4,0.9,5.7,2.3l-1.7,2c-1.2-1.1-2.4-1.9-4.1-1.9
				c-2.9,0-4.8,2.3-4.8,5.3l0,0c0,2.9,2.1,5.3,4.8,5.3c1.9,0,3.1-0.8,4.3-2l1.7,1.7c-1.5,1.7-3.2,2.5-6,2.5
				C539.2,364.7,536,361.4,536,357.1z"/>
			<path class="st4" d="M551.2,358.8L551.2,358.8c0-3.2,2.5-5.9,6-5.9s5.9,2.5,5.9,5.7l0,0c0,3.2-2.5,5.9-6,5.9
				C553.7,364.7,551.2,362,551.2,358.8z M560.5,358.8L560.5,358.8c0-2-1.3-3.6-3.5-3.6s-3.3,1.7-3.3,3.6l0,0c0,2,1.3,3.6,3.5,3.6
				C559.2,362.3,560.5,360.8,560.5,358.8z"/>
			<path class="st4" d="M565.7,353.2h2.5v1.7c0.8-1.1,1.7-2,3.5-2s2.7,0.8,3.3,2c0.9-1.2,2.1-2,3.7-2c2.4,0,4,1.5,4,4.3v7.1h-2.5
				v-6.4c0-1.9-0.8-2.7-2.3-2.7c-1.3,0-2.4,0.9-2.4,2.7v6.4H573v-6.4c0-1.7-0.9-2.7-2.3-2.7s-2.4,1.1-2.4,2.7v6.4h-2.5L565.7,353.2
				L565.7,353.2z"/>
			<path class="st4" d="M585.9,353.2h2.5v1.9c0.8-1.2,2-2.1,3.7-2.1c2.5,0,5.2,2.1,5.2,5.7l0,0c0,3.7-2.5,5.7-5.2,5.7
				c-1.9,0-3.1-0.9-3.7-2v5.2h-2.5V353.2z M594.8,358.8L594.8,358.8c0-2.3-1.5-3.6-3.2-3.6s-3.3,1.5-3.3,3.6l0,0
				c0,2.1,1.5,3.6,3.3,3.6C593.5,362.3,594.8,361,594.8,358.8z"/>
			<path class="st4" d="M600,360.4v-7.1h2.5v6.4c0,1.7,0.9,2.7,2.4,2.7s2.5-1.1,2.5-2.7v-6.4h2.5v11.2h-2.5v-1.7
				c-0.8,1.1-1.9,2-3.5,2C601.5,364.7,600,363,600,360.4z"/>
			<path class="st4" d="M613.8,361.4v-5.9h-1.3v-2.4h1.3V350h2.5v3.1h3.1v2.3h-3.1v5.5c0,1.1,0.4,1.3,1.3,1.3c0.7,0,1.1-0.1,1.7-0.4
				v2.1c-0.7,0.3-1.3,0.7-2.3,0.7C615.3,364.7,613.8,363.8,613.8,361.4z"/>
			<path class="st4" d="M621.1,358.8L621.1,358.8c0-3.2,2.3-5.9,5.5-5.9c3.6,0,5.3,2.7,5.3,6c0,0.3,0,0.4,0,0.8h-8.1
				c0.3,1.9,1.5,2.9,3.2,2.9c1.2,0,2.1-0.4,3.1-1.3l1.5,1.3c-1.1,1.2-2.5,2.1-4.5,2.1C623.7,364.7,621.1,362.3,621.1,358.8z
				 M629.4,358c-0.1-1.7-1.2-2.9-2.9-2.9c-1.5,0-2.7,1.2-2.9,2.9H629.4z"/>
			<path class="st4" d="M644.9,351.9h-4.7v-2.4h12.2v2.4h-4.8v12.4h-2.5v-12.4H644.9z"/>
			<path class="st4" d="M653.2,353.2h2.5v2.5c0.8-1.7,2-2.9,4-2.7v2.7l0,0c-2.3,0-3.7,1.5-3.7,4.4v4.3h-2.6v-11.2H653.2z"/>
			<path class="st4" d="M660.8,361.1L660.8,361.1c0-2.4,1.9-3.6,4.7-3.6c1.2,0,2.1,0.1,3.1,0.4v-0.3c0-1.7-0.9-2.4-2.7-2.4
				c-1.2,0-2.1,0.3-3.2,0.8l-0.7-2c1.2-0.7,2.4-0.9,4.3-0.9c1.7,0,2.9,0.4,3.7,1.2c0.8,0.8,1.2,2,1.2,3.5v6.7h-2.5V363
				c-0.8,0.9-2,1.7-3.6,1.7C662.5,364.7,660.8,363.4,660.8,361.1z M668.4,360.4v-0.8c-0.7-0.3-1.5-0.4-2.5-0.4
				c-1.7,0-2.5,0.8-2.5,1.9l0,0c0,1.1,0.9,1.7,2.1,1.7C667,362.8,668.4,361.8,668.4,360.4z"/>
			<path class="st4" d="M674,353.2h2.5v1.7c0.8-1.1,1.9-2,3.5-2c2.5,0,4,1.7,4,4.3v7.1h-2.6v-6.4c0-1.7-0.9-2.7-2.4-2.7
				s-2.5,1.1-2.5,2.7v6.4H674V353.2L674,353.2z"/>
			<path class="st4" d="M686.3,363l1.2-1.7c1.2,0.9,2.5,1.3,3.6,1.3s1.7-0.4,1.7-1.2l0,0c0-0.9-1.2-1.2-2.5-1.5
				c-1.7-0.4-3.5-1.2-3.5-3.3l0,0c0-2.1,1.9-3.5,4-3.5c1.3,0,2.9,0.4,4.1,1.2l-1.1,1.9c-1.1-0.7-2.3-1.1-3.2-1.1
				c-1.1,0-1.5,0.4-1.5,1.1l0,0c0,0.8,1.2,1.2,2.5,1.7c1.7,0.4,3.5,1.2,3.5,3.3l0,0c0,2.4-1.9,3.5-4.1,3.5
				C689.3,364.7,687.6,364,686.3,363z"/>
			<path class="st4" d="M697.7,353.2h2.5v1.9c0.8-1.2,2-2.1,3.7-2.1c2.5,0,5.2,2.1,5.2,5.7l0,0c0,3.7-2.5,5.7-5.2,5.7
				c-1.9,0-3.1-0.9-3.7-2v5.2h-2.5V353.2z M706.7,358.8L706.7,358.8c0-2.3-1.5-3.6-3.2-3.6s-3.3,1.5-3.3,3.6l0,0
				c0,2.1,1.5,3.6,3.3,3.6C705.3,362.3,706.7,361,706.7,358.8z"/>
			<path class="st4" d="M711.5,358.8L711.5,358.8c0-3.2,2.5-5.9,6-5.9s5.9,2.5,5.9,5.7l0,0c0,3.2-2.5,5.9-6,5.9
				C713.9,364.7,711.5,362,711.5,358.8z M720.8,358.8L720.8,358.8c0-2-1.3-3.6-3.5-3.6s-3.3,1.7-3.3,3.6l0,0c0,2,1.3,3.6,3.5,3.6
				C719.5,362.3,720.8,360.8,720.8,358.8z"/>
			<path class="st4" d="M726,353.2h2.5v2.5c0.8-1.7,2-2.9,4-2.7v2.7h-0.1c-2.3,0-3.7,1.5-3.7,4.4v4.3h-2.5v-11.2H726z"/>
			<path class="st4" d="M735.2,361.4v-5.9h-1.3v-2.4h1.3V350h2.5v3.1h3.1v2.3h-3.1v5.5c0,1.1,0.4,1.3,1.3,1.3c0.7,0,1.1-0.1,1.7-0.4
				v2.1c-0.7,0.3-1.3,0.7-2.3,0.7C736.6,364.7,735.2,363.8,735.2,361.4z"/>
			<path class="st4" d="M749.6,362.6l8.8-10.7h-8.5v-2.3h12v2l-8.8,10.7h8.8v2.3h-12.1v-2H749.6z"/>
			<path class="st4" d="M763.6,358.8L763.6,358.8c0-3.2,2.5-5.9,6-5.9s5.9,2.5,5.9,5.7l0,0c0,3.2-2.5,5.9-6,5.9
				C766.1,364.7,763.6,362,763.6,358.8z M773,358.8L773,358.8c0-2-1.3-3.6-3.5-3.6c-2.1,0-3.3,1.7-3.3,3.6l0,0c0,2,1.3,3.6,3.5,3.6
				C771.7,362.3,773,360.8,773,358.8z"/>
			<path class="st4" d="M778.2,353.2h2.5v1.7c0.8-1.1,1.9-2,3.5-2c2.5,0,4,1.7,4,4.3v7.1h-2.5v-6.4c0-1.7-0.9-2.7-2.4-2.7
				s-2.5,1.1-2.5,2.7v6.4h-2.5L778.2,353.2L778.2,353.2z"/>
			<path class="st4" d="M790.7,358.8L790.7,358.8c0-3.2,2.3-5.9,5.5-5.9c3.6,0,5.3,2.7,5.3,6c0,0.3,0,0.4,0,0.8h-8.1
				c0.3,1.9,1.5,2.9,3.2,2.9c1.2,0,2.1-0.4,3.1-1.3l1.5,1.3c-1.1,1.2-2.5,2.1-4.5,2.1C793.1,364.7,790.7,362.3,790.7,358.8z
				 M799,358c-0.1-1.7-1.2-2.9-2.9-2.9c-1.5,0-2.7,1.2-2.9,2.9H799z"/>
		</g>
	</g>
	<g>
		<g>
			
				<linearGradient id="SVGID_1_" gradientUnits="userSpaceOnUse" x1="928.075" y1="376.0816" x2="928.075" y2="429.2163" gradientTransform="matrix(1 0 0 1 0 10.4)">
				<stop  offset="0" style="stop-color:#FFFFFF"/>
				<stop  offset="0.3865" style="stop-color:#ECECEC"/>
				<stop  offset="1" style="stop-color:#C7C7C7"/>
			</linearGradient>
			<path class="st32" d="M948.7,448.7c0,0.9-0.7,1.6-1.6,1.6H909c-0.9,0-1.6-0.7-1.6-1.6v-38c0-0.9,0.7-1.6,1.6-1.6h38.1
				c0.9,0,1.6,0.7,1.6,1.6V448.7z"/>
			<path class="st33" d="M907.8,417.1V411c0-0.9,0.7-1.6,1.6-1.6h37.2c0.9,0,1.6,0.7,1.6,1.6v21.4L907.8,417.1z"/>
			
				<linearGradient id="SVGID_2_" gradientUnits="userSpaceOnUse" x1="928.075" y1="398.9536" x2="928.0751" y2="402.3219" gradientTransform="matrix(1 0 0 1 0 10.4)">
				<stop  offset="0" style="stop-color:#EAEAEA"/>
				<stop  offset="0.1969" style="stop-color:#E7E7E7"/>
				<stop  offset="0.3347" style="stop-color:#DEDEDE"/>
				<stop  offset="0.4545" style="stop-color:#CFCFCF"/>
				<stop  offset="0.5641" style="stop-color:#B9B9B9"/>
				<stop  offset="0.6667" style="stop-color:#9C9C9C"/>
				<stop  offset="0.7641" style="stop-color:#797979"/>
				<stop  offset="0.8574" style="stop-color:#505050"/>
				<stop  offset="0.9451" style="stop-color:#212121"/>
				<stop  offset="1" style="stop-color:#000000"/>
			</linearGradient>
			<path class="st34" d="M948.3,412.6V411c0-0.9-0.7-1.6-1.6-1.6h-37.3c-0.9,0-1.6,0.7-1.6,1.6v1.7c0,0,0.1-1.2,0.5-1.5
				c0,0-0.1-1.1,1.2-1.1s37.2,0,37.2,0s1-0.1,1.4,1.1L948.3,412.6z"/>
		</g>
		<g class="st5">
			<path class="st35" d="M917.5,423.7h2.6l2.8,7.5l2.8-7.5h2.5l-4.3,10.7h-2.1L917.5,423.7z"/>
			<path class="st35" d="M929.7,423.7h2.5l2.8,4.5l2.8-4.5h2.5v10.6H938v-6.9l-3,4.5h-0.1l-3-4.5v6.9h-2.3L929.7,423.7L929.7,423.7z
				"/>
		</g>
	</g>
	<g>
		<g>
			
				<linearGradient id="SVGID_3_" gradientUnits="userSpaceOnUse" x1="977.775" y1="376.4509" x2="977.775" y2="429.5856" gradientTransform="matrix(1 0 0 1 0 10.4)">
				<stop  offset="0" style="stop-color:#FFFFFF"/>
				<stop  offset="0.3865" style="stop-color:#ECECEC"/>
				<stop  offset="1" style="stop-color:#C7C7C7"/>
			</linearGradient>
			<path class="st36" d="M998.4,449.1c0,0.9-0.7,1.6-1.6,1.6h-38.1c-0.9,0-1.6-0.7-1.6-1.6V411c0-0.9,0.7-1.6,1.6-1.6h38.1
				c0.9,0,1.6,0.7,1.6,1.6V449.1z"/>
			<path class="st33" d="M957.5,417.5v-6.1c0-0.9,0.7-1.6,1.6-1.6h37.3c0.9,0,1.6,0.7,1.6,1.6v21.4L957.5,417.5z"/>
			
				<linearGradient id="SVGID_4_" gradientUnits="userSpaceOnUse" x1="977.825" y1="399.3229" x2="977.825" y2="402.6912" gradientTransform="matrix(1 0 0 1 0 10.4)">
				<stop  offset="0" style="stop-color:#EAEAEA"/>
				<stop  offset="0.1969" style="stop-color:#E7E7E7"/>
				<stop  offset="0.3347" style="stop-color:#DEDEDE"/>
				<stop  offset="0.4545" style="stop-color:#CFCFCF"/>
				<stop  offset="0.5641" style="stop-color:#B9B9B9"/>
				<stop  offset="0.6667" style="stop-color:#9C9C9C"/>
				<stop  offset="0.7641" style="stop-color:#797979"/>
				<stop  offset="0.8574" style="stop-color:#505050"/>
				<stop  offset="0.9451" style="stop-color:#212121"/>
				<stop  offset="1" style="stop-color:#000000"/>
			</linearGradient>
			<path class="st37" d="M998,413v-1.6c0-0.9-0.7-1.6-1.6-1.6h-37.2c-0.9,0-1.6,0.7-1.6,1.6v1.7c0,0,0.1-1.2,0.5-1.5
				c0,0-0.1-1.1,1.2-1.1s37.2,0,37.2,0s1-0.1,1.4,1.1L998,413z"/>
		</g>
		<g class="st5">
			<path class="st35" d="M967.2,424.1h2.6l2.8,7.5l2.8-7.5h2.5l-4.3,10.7h-2.2L967.2,424.1z"/>
			<path class="st35" d="M979.4,424.1h2.5l2.8,4.5l2.8-4.5h2.5v10.6h-2.3v-6.9l-3,4.5h-0.1l-3-4.5v6.9h-2.2V424.1z"/>
		</g>
	</g>
	<g>
		<line class="st2" x1="868.4" y1="408.2" x2="868.4" y2="390.3"/>
		<rect x="867.4" y="390.3" class="st3" width="2" height="17.9"/>
	</g>
	<g>
		<line class="st2" x1="927.4" y1="408.2" x2="927.4" y2="390.3"/>
		<rect x="926.4" y="390.3" class="st3" width="2" height="17.9"/>
	</g>
	<g>
		<line class="st2" x1="977.4" y1="408.2" x2="977.4" y2="390.3"/>
		<rect x="976.4" y="390.3" class="st3" width="2" height="17.9"/>
	</g>
</g>
<rect x="640.9" y="419.4" class="st38" width="4" height="2.1"/>
<rect x="632.9" y="419.4" class="st38" width="4" height="2.1"/>
<rect x="624.9" y="419.4" class="st38" width="4" height="2.1"/>
<rect x="616.9" y="419.4" class="st38" width="4" height="2.1"/>
<rect x="608.9" y="419.4" class="st38" width="4" height="2.1"/>
<rect x="600.9" y="419.4" class="st38" width="4" height="2.1"/>
<rect x="592.9" y="419.4" class="st38" width="4" height="2.1"/>
<rect x="584.9" y="419.4" class="st38" width="4" height="2.1"/>
<rect x="576.9" y="419.4" class="st38" width="4" height="2.1"/>
<rect x="568.9" y="419.4" class="st38" width="4" height="2.1"/>
<rect x="560.9" y="419.4" class="st38" width="4" height="2.1"/>
<rect x="552.9" y="419.4" class="st38" width="4" height="2.1"/>
<rect x="544.9" y="419.4" class="st38" width="4" height="2.1"/>
<rect x="536.9" y="419.4" class="st38" width="4" height="2.1"/>
<rect x="528.9" y="419.4" class="st38" width="4" height="2.1"/>
<rect x="520.9" y="419.4" class="st38" width="4" height="2.1"/>
<rect x="512.9" y="419.4" class="st38" width="4" height="2.1"/>
<rect x="504.9" y="419.4" class="st38" width="4" height="2.1"/>
<rect x="496.9" y="419.4" class="st38" width="4" height="2.1"/>
<rect x="488.9" y="419.4" class="st38" width="4" height="2.1"/>
<rect x="480.9" y="419.4" class="st38" width="4" height="2.1"/>
<rect x="472.9" y="419.4" class="st38" width="4" height="2.1"/>
<rect x="464.9" y="419.4" class="st38" width="4" height="2.1"/>
<rect x="456.9" y="419.4" class="st38" width="4" height="2.1"/>
<rect x="448.9" y="419.4" class="st38" width="4" height="2.1"/>
<rect x="440.9" y="419.4" class="st38" width="4" height="2.1"/>
<rect x="432.9" y="419.4" class="st38" width="4" height="2.1"/>
<rect x="424.9" y="419.4" class="st38" width="4" height="2.1"/>
<rect x="416.9" y="419.4" class="st38" width="4" height="2.1"/>
<rect x="408.9" y="419.4" class="st38" width="4" height="2.1"/>
<rect x="400.9" y="419.4" class="st38" width="4" height="2.1"/>
<rect x="392.9" y="419.4" class="st38" width="4" height="2.1"/>
<rect x="384.9" y="419.4" class="st38" width="4" height="2.1"/>
<rect x="376.9" y="419.4" class="st38" width="4" height="2.1"/>
<rect x="368.9" y="419.4" class="st38" width="4" height="2.1"/>
<rect x="360.9" y="419.4" class="st38" width="4" height="2.1"/>
<rect x="352.9" y="419.4" class="st38" width="4" height="2.1"/>
<rect x="344.9" y="419.4" class="st38" width="4" height="2.1"/>
<rect x="336.9" y="419.4" class="st38" width="4" height="2.1"/>
<rect x="840.9" y="419.4" class="st38" width="0.5" height="2.1"/>
<rect x="832.9" y="419.4" class="st38" width="4" height="2.1"/>
<rect x="824.9" y="419.4" class="st38" width="4" height="2.1"/>
<rect x="816.9" y="419.4" class="st38" width="4" height="2.1"/>
<rect x="808.9" y="419.4" class="st38" width="4" height="2.1"/>
<rect x="800.9" y="419.4" class="st38" width="4" height="2.1"/>
<rect x="792.9" y="419.4" class="st38" width="4" height="2.1"/>
<rect x="784.9" y="419.4" class="st38" width="4" height="2.1"/>
<rect x="776.9" y="419.4" class="st38" width="4" height="2.1"/>
<rect x="768.9" y="419.4" class="st38" width="4" height="2.1"/>
<rect x="760.9" y="419.4" class="st38" width="4" height="2.1"/>
<rect x="752.9" y="419.4" class="st38" width="4" height="2.1"/>
<rect x="744.9" y="419.4" class="st38" width="4" height="2.1"/>
<rect x="736.9" y="419.4" class="st38" width="4" height="2.1"/>
<rect x="728.9" y="419.4" class="st38" width="4" height="2.1"/>
<rect x="720.9" y="419.4" class="st38" width="4" height="2.1"/>
<rect x="712.9" y="419.4" class="st38" width="4" height="2.1"/>
<rect x="704.9" y="419.4" class="st38" width="4" height="2.1"/>
<rect x="696.9" y="419.4" class="st38" width="4" height="2.1"/>
<rect x="688.9" y="419.4" class="st38" width="4" height="2.1"/>
<rect x="680.9" y="419.4" class="st38" width="4" height="2.1"/>
<rect x="672.9" y="419.4" class="st38" width="4" height="2.1"/>
<rect x="664.9" y="419.4" class="st38" width="4" height="2.1"/>
<rect x="656.9" y="419.4" class="st38" width="4" height="2.1"/>
<rect x="648.9" y="419.4" class="st38" width="4" height="2.1"/>
<rect x="329.9" y="419.4" class="st38" width="4" height="2.1"/>
</svg>
