<!-- Generator: Adobe Illustrator 19.1.0, SVG Export Plug-In  -->
<svg version="1.1"
	 xmlns="http://www.w3.org/2000/svg" xmlns:xlink="http://www.w3.org/1999/xlink" xmlns:a="http://ns.adobe.com/AdobeSVGViewerExtensions/3.0/"
	 x="0px" y="0px" width="2px" height="293.4px" viewBox="0 0 2 293.4" style="overflow:scroll;enable-background:new 0 0 2 293.4;"
	 xml:space="preserve">
<style type="text/css">
	.st0{fill:#D85527;}
</style>
<defs>
</defs>
<path class="st0" d="M1.7,293.4H0V289h2v3.4H1.7V293.4z M2,284.8H0v-4.1h2V284.8z M2,276.6H0v-4.1h2V276.6z M2,268.3H0v-4.1h2V268.3
	z M2,260.1H0v-4.1h2V260.1z M2,251.8H0v-4.1h2V251.8z M2,243.6H0v-4.1h2V243.6z M2,235.3H0v-4.1h2V235.3z M2,227H0v-4.1h2V227z
	 M2,218.8H0v-4.1h2V218.8z M2,210.5H0v-4.1h2V210.5z M2,202.3H0v-4.1h2V202.3z M2,194H0v-4.1h2V194z M2,185.8H0v-4.1h2V185.8z
	 M2,177.5H0v-4.1h2V177.5z M2,169.3H0v-4.1h2V169.3z M2,161H0v-4.1h2V161z M2,152.7H0v-4.1h2V152.7z M2,144.5H0v-4.1h2V144.5z
	 M2,136.2H0v-4.1h2V136.2z M2,128H0v-4.1h2V128z M2,119.7H0v-4.1h2V119.7z M2,111.5H0v-4.1h2V111.5z M2,103.2H0v-4.1h2V103.2z
	 M2,94.9H0v-4.1h2V94.9z M2,86.7H0v-4.1h2V86.7z M2,78.4H0v-4.1h2V78.4z M2,70.2H0V66h2V70.2z M2,61.9H0v-4.1h2V61.9z M2,53.7H0
	v-4.1h2V53.7z M2,45.4H0v-4.1h2V45.4z M2,37.2H0V33h2V37.2z M2,28.9H0v-4.1h2V28.9z M2,20.6H0v-4.1h2V20.6z M2,12.4H0V8.3h2V12.4z
	 M2,4.1H0V0h2V4.1z"/>
</svg>
