<?xml version="1.0" encoding="utf-8"?>
<!-- Generator: Adobe Illustrator 19.1.0, SVG Export Plug-In . SVG Version: 6.00 Build 0)  -->
<svg version="1.1" id="Layer_1" xmlns="http://www.w3.org/2000/svg" xmlns:xlink="http://www.w3.org/1999/xlink" x="0px" y="0px"
	 viewBox="-154 56.7 302 680.3" style="enable-background:new -154 56.7 302 680.3;" xml:space="preserve">
<style type="text/css">
	.st0{fill:#0094D2;}
	.st1{fill:#F1F1F2;stroke:#0094D2;stroke-width:2;stroke-miterlimit:10;}
	.st2{enable-background:new    ;}
	.st3{fill:#FFFFFF;}
	.st4{fill:#677F90;}
	.st5{fill:#BCC1C6;}
	.st6{opacity:0.1;}
	.st7{fill:#9ACDE9;}
	.st8{fill:#99CCE6;}
	.st9{fill:#0F3535;}
	.st10{fill:#4DA847;}
	.st11{fill:#0A9046;}
	.st12{fill:#2A98D4;}
	.st13{fill:#158686;}
	.st14{fill:#232658;}
	.st15{fill:#3A7E3D;}
	.st16{fill:#408740;}
	.st17{fill:#90C13F;}
	.st18{fill:#72C5A0;}
	.st19{fill:#2D9ED9;}
	.st20{fill:#1575B1;}
	.st21{fill:#C3D6A2;}
	.st22{fill:#517034;}
	.st23{fill:#1B4724;}
	.st24{fill:#94CB88;}
	.st25{fill:#5E9541;}
	.st26{fill:#6BBFEB;}
	.st27{fill:#3D73B6;}
	.st28{fill:#E7EAE8;}
	.st29{fill:#476277;}
	.st30{fill:#35495E;}
	.st31{fill:#2C3E50;}
	.st32{fill:#93A3A4;}
	.st33{fill:#3B96D2;}
	.st34{fill:#457093;}
	.st35{opacity:0.9;fill:#47B2D7;enable-background:new    ;}
	.st36{fill:url(#SVGID_1_);}
</style>
<polygon class="st0" points="-143.2,56.9 -154,71.1 -154,637.9 -143.2,648.7 "/>
<rect x="-142.2" y="57.7" class="st1" width="288.4" height="590"/>
<g>
	<rect x="-140.4" y="693" class="st0" width="288.4" height="44"/>
	<g class="st2">
		<path class="st3" d="M-72.3,705.1h3.1l5.1,7.9l5.1-7.9h3.1v16.8h-3v-12l-5.3,7.9h-0.1l-5.3-7.9v12h-2.9V705.1z"/>
		<path class="st3" d="M-52.7,718.3L-52.7,718.3c0-2.8,2.1-4.1,5.2-4.1c1.4,0,2.4,0.2,3.4,0.5v-0.3c0-1.8-1.1-2.8-3.1-2.8
			c-1.4,0-2.5,0.3-3.6,0.8l-0.8-2.3c1.4-0.6,2.8-1,4.8-1c1.9,0,3.3,0.5,4.2,1.4c0.9,0.9,1.4,2.3,1.4,3.9v7.5h-2.8v-1.6
			c-0.9,1-2.2,1.8-4.1,1.8C-50.6,722.2-52.7,720.8-52.7,718.3z M-44,717.3v-0.9c-0.7-0.3-1.7-0.5-2.9-0.5c-1.9,0-3,0.8-3,2.1v0
			c0,1.2,1.1,1.9,2.5,1.9C-45.4,720.1-44,719-44,717.3z"/>
		<path class="st3" d="M-37.7,709.2h2.9v1.9c0.8-1.2,2-2.2,4-2.2c2.9,0,4.5,1.9,4.5,4.8v8.1h-2.9v-7.2c0-2-1-3.1-2.7-3.1
			c-1.7,0-2.9,1.2-2.9,3.1v7.2h-2.9V709.2z"/>
		<path class="st3" d="M-23.7,718.3L-23.7,718.3c0-2.8,2.1-4.1,5.2-4.1c1.4,0,2.4,0.2,3.4,0.5v-0.3c0-1.8-1.1-2.8-3.1-2.8
			c-1.4,0-2.5,0.3-3.6,0.8l-0.8-2.3c1.4-0.6,2.8-1,4.8-1c1.9,0,3.3,0.5,4.2,1.4c0.9,0.9,1.4,2.3,1.4,3.9v7.5h-2.8v-1.6
			c-0.9,1-2.2,1.8-4.1,1.8C-21.6,722.2-23.7,720.8-23.7,718.3z M-15,717.3v-0.9c-0.7-0.3-1.7-0.5-2.9-0.5c-1.9,0-3,0.8-3,2.1v0
			c0,1.2,1.1,1.9,2.5,1.9C-16.5,720.1-15,719-15,717.3z"/>
		<path class="st3" d="M-8.8,724.3l1.1-2.2c1.4,0.8,2.8,1.3,4.5,1.3c2.6,0,4-1.3,4-3.9v-1c-1.1,1.4-2.4,2.3-4.5,2.3
			c-3,0-5.8-2.2-5.8-5.9v0c0-3.7,2.8-6,5.8-6c2.1,0,3.5,1,4.4,2.2v-1.9h2.9v10.1c0,2.1-0.6,3.7-1.6,4.8c-1.2,1.2-2.9,1.7-5.2,1.7
			C-5.2,725.8-7.2,725.3-8.8,724.3z M0.8,714.9L0.8,714.9c0-2.1-1.7-3.5-3.7-3.5c-2,0-3.6,1.4-3.6,3.5v0c0,2.1,1.6,3.5,3.6,3.5
			C-0.9,718.4,0.8,717,0.8,714.9z"/>
		<path class="st3" d="M6.6,715.6L6.6,715.6c0-3.7,2.6-6.6,6.2-6.6c4,0,6.1,3.2,6.1,6.8c0,0.3,0,0.5,0,0.8H9.5
			c0.3,2.1,1.8,3.2,3.6,3.2c1.4,0,2.4-0.5,3.4-1.5l1.7,1.5c-1.2,1.4-2.9,2.4-5.2,2.4C9.5,722.2,6.6,719.5,6.6,715.6z M16,714.7
			c-0.2-1.9-1.3-3.3-3.2-3.3c-1.8,0-3,1.4-3.3,3.3H16z"/>
		<path class="st3" d="M21.8,709.2h2.9v1.9c0.8-1.1,1.9-2.2,3.9-2.2c1.8,0,3.1,0.9,3.8,2.2c1-1.3,2.4-2.2,4.3-2.2
			c2.8,0,4.4,1.8,4.4,4.8v8.1h-2.9v-7.2c0-2-0.9-3.1-2.6-3.1c-1.6,0-2.7,1.1-2.7,3.1v7.2H30v-7.2c0-2-1-3.1-2.6-3.1
			c-1.6,0-2.7,1.2-2.7,3.1v7.2h-2.9V709.2z"/>
		<path class="st3" d="M43.9,715.6L43.9,715.6c0-3.7,2.6-6.6,6.2-6.6c4,0,6.1,3.2,6.1,6.8c0,0.3,0,0.5,0,0.8h-9.3
			c0.3,2.1,1.8,3.2,3.6,3.2c1.4,0,2.4-0.5,3.4-1.5l1.7,1.5c-1.2,1.4-2.9,2.4-5.2,2.4C46.8,722.2,43.9,719.5,43.9,715.6z M53.3,714.7
			c-0.2-1.9-1.3-3.3-3.2-3.3c-1.8,0-3,1.4-3.3,3.3H53.3z"/>
		<path class="st3" d="M59.1,709.2H62v1.9c0.8-1.2,2-2.2,4-2.2c2.9,0,4.5,1.9,4.5,4.8v8.1h-2.9v-7.2c0-2-1-3.1-2.7-3.1
			c-1.7,0-2.9,1.2-2.9,3.1v7.2h-2.9V709.2z"/>
		<path class="st3" d="M74.6,718.4v-6.7H73v-2.5h1.6v-3.5h2.9v3.5h3.4v2.5h-3.4v6.2c0,1.1,0.6,1.6,1.6,1.6c0.6,0,1.2-0.1,1.8-0.4
			v2.4c-0.7,0.4-1.5,0.6-2.6,0.6C76.1,722.1,74.6,721.2,74.6,718.4z"/>
	</g>
</g>
<g>
	<g>
		<g>
			<g>
				<g>
					<g>
						<g>
							<rect x="-100.7" y="97.5" class="st4" width="111.8" height="112.7"/>
							<g>
								<g>
									<g>
										<g>
											<path class="st5" d="M9.3,99.3v109.1H-98.9V99.3H9.3 M12.9,95.7H9.3H-98.9h-3.6v3.6v109.1v3.6h3.6H9.4H13v-3.6V99.3v-3.6
												H12.9z"/>
										</g>
									</g>
								</g>
							</g>
						</g>
					</g>
				</g>
			</g>
		</g>
		<g class="st6">
			<polygon class="st7" points="-99.1,135.9 -99.1,117.7 -81,117.7 			"/>
			<polygon class="st8" points="-81,117.7 -81,99.5 -99.1,99.5 			"/>
			<polygon class="st9" points="-8.9,117.7 -8.9,135.8 -27,135.8 			"/>
			<polygon class="st10" points="-27,99.5 -8.9,99.5 -8.9,117.7 			"/>
			<polygon class="st11" points="-27,99.5 -27,117.7 -8.9,117.7 			"/>
			<polygon class="st12" points="-26.9,99.5 -26.9,117.7 -45,117.7 			"/>
			<polygon class="st13" points="-27,135.9 -45,135.9 -45,117.7 			"/>
			<polygon class="st14" points="-63,135.9 -45,135.9 -45,117.7 			"/>
			<polygon class="st15" points="-26.9,135.8 -26.9,117.7 -8.9,117.7 			"/>
			<polygon class="st16" points="9.1,99.5 -8.9,99.5 -8.9,117.7 			"/>
			<polygon class="st17" points="9.1,99.5 9.1,117.7 -8.9,117.7 			"/>
			<polygon class="st18" points="9.1,135.8 9.1,117.7 -8.9,117.7 			"/>
			<polygon class="st10" points="-8.9,117.7 -8.9,135.9 9.1,135.9 			"/>
			<polygon class="st19" points="-63,99.5 -45,99.5 -45,117.7 			"/>
			<polygon class="st20" points="-63,135.9 -63,117.7 -81.1,117.7 			"/>
			<polygon class="st21" points="-27,135.8 -45,135.8 -45,154 			"/>
			<polygon class="st22" points="-26.9,135.8 -26.9,154 -8.9,154 			"/>
			<polygon class="st23" points="-8.9,154 -8.9,135.8 -27,135.8 			"/>
			<polygon class="st24" points="9.1,135.8 9.1,154 -8.9,154 			"/>
			<polygon class="st25" points="-8.9,154 -8.9,135.8 9.1,135.8 			"/>
			<polygon class="st26" points="-63,135.8 -81.1,135.8 -81.1,154 			"/>
			<polygon class="st27" points="-63,135.8 -63,154 -45,154 			"/>
		</g>
		<g class="st6">
			<polygon class="st7" points="-99.1,190.4 -99.1,172.2 -81.1,172.2 			"/>
			<polygon class="st8" points="-81.1,172.2 -81.1,154 -99.1,154 			"/>
			<polygon class="st9" points="-9,172.2 -9,190.4 -27,190.4 			"/>
			<polygon class="st10" points="-27,154 -9,154 -9,172.2 			"/>
			<polygon class="st11" points="-27,154 -27,172.2 -9,172.2 			"/>
			<polygon class="st12" points="-27,154 -27,172.2 -45,172.2 			"/>
			<polygon class="st13" points="-27,190.4 -45,190.4 -45,172.2 			"/>
			<polygon class="st14" points="-63.1,190.4 -45,190.4 -45,172.2 			"/>
			<polygon class="st15" points="-27,190.4 -27,172.2 -8.9,172.2 			"/>
			<polygon class="st16" points="9.1,154 -9,154 -9,172.2 			"/>
			<polygon class="st17" points="9.1,154 9.1,172.2 -9,172.2 			"/>
			<polygon class="st18" points="9.1,190.4 9.1,172.2 -9,172.2 			"/>
			<polygon class="st10" points="-9,172.2 -9,190.4 9.1,190.4 			"/>
			<polygon class="st19" points="-63.1,154 -45,154 -45,172.2 			"/>
			<polygon class="st20" points="-63.1,190.4 -63.1,172.2 -81.1,172.2 			"/>
			<polygon class="st21" points="-27,190.4 -45,190.4 -45,208.5 			"/>
			<polygon class="st22" points="-27,190.4 -27,208.6 -8.9,208.6 			"/>
			<polygon class="st23" points="-9,208.6 -9,190.4 -27,190.4 			"/>
			<polygon class="st24" points="9.1,190.4 9.1,208.6 -9,208.6 			"/>
			<polygon class="st25" points="-9,208.6 -9,190.4 9.1,190.4 			"/>
			<polygon class="st26" points="-63.1,190.4 -81.1,190.4 -81.1,208.5 			"/>
			<polygon class="st27" points="-63.1,190.4 -63.1,208.6 -45,208.6 			"/>
		</g>
	</g>
	<g>
		<polygon class="st28" points="-8.1,116.1 -17.7,109.1 -17.7,113.3 -81.5,113.3 -81.5,118.7 -17.7,118.7 -17.7,122.7 		"/>
		<polygon class="st28" points="-81.5,141.4 -71.9,134.4 -71.9,138.6 -8.1,138.6 -8.1,144 -71.9,144 -71.9,148 		"/>
		<polygon class="st28" points="-8.1,166.7 -17.7,159.7 -17.7,163.9 -81.5,163.9 -81.5,169.3 -17.7,169.3 -17.7,173.3 		"/>
		<polygon class="st28" points="-81.5,192 -71.9,185 -71.9,189.2 -8.1,189.2 -8.1,194.6 -71.9,194.6 -71.9,198.6 		"/>
	</g>
</g>
<g>
	<g>
		<g>
			<g>
				<g>
					<g>
						<g>
							<rect x="-25.2" y="128.6" class="st4" width="111.8" height="112.7"/>
							<g>
								<g>
									<g>
										<g>
											<path class="st5" d="M84.9,130.4v109.1H-23.4V130.4H84.9 M88.4,126.8h-3.6H-23.4H-27v3.6v109.1v3.6h3.6H84.9h3.6v-3.6
												V130.4v-3.6H88.4z"/>
										</g>
									</g>
								</g>
							</g>
						</g>
					</g>
				</g>
			</g>
		</g>
		<g class="st6">
			<polygon class="st7" points="-23.5,167 -23.5,148.8 -5.5,148.8 			"/>
			<polygon class="st8" points="-5.5,148.8 -5.5,130.6 -23.5,130.6 			"/>
			<polygon class="st9" points="66.6,148.8 66.6,167 48.6,167 			"/>
			<polygon class="st10" points="48.6,130.6 66.6,130.6 66.6,148.8 			"/>
			<polygon class="st11" points="48.6,130.6 48.6,148.8 66.6,148.8 			"/>
			<polygon class="st12" points="48.6,130.6 48.6,148.8 30.5,148.8 			"/>
			<polygon class="st13" points="48.6,167 30.5,167 30.5,148.8 			"/>
			<polygon class="st14" points="12.5,167 30.5,167 30.5,148.8 			"/>
			<polygon class="st15" points="48.6,167 48.6,148.8 66.6,148.8 			"/>
			<polygon class="st16" points="84.7,130.6 66.6,130.6 66.6,148.8 			"/>
			<polygon class="st17" points="84.7,130.6 84.7,148.8 66.6,148.8 			"/>
			<polygon class="st18" points="84.7,167 84.7,148.8 66.6,148.8 			"/>
			<polygon class="st10" points="66.6,148.8 66.6,167 84.7,167 			"/>
			<polygon class="st19" points="12.5,130.6 30.5,130.6 30.5,148.8 			"/>
			<polygon class="st20" points="12.5,167 12.5,148.8 -5.5,148.8 			"/>
			<polygon class="st21" points="48.6,167 30.5,167 30.5,185.2 			"/>
			<polygon class="st22" points="48.6,167 48.6,185.2 66.6,185.2 			"/>
			<polygon class="st23" points="66.6,185.2 66.6,167 48.6,167 			"/>
			<polygon class="st24" points="84.7,167 84.7,185.2 66.6,185.2 			"/>
			<polygon class="st25" points="66.6,185.2 66.6,167 84.7,167 			"/>
			<polygon class="st26" points="12.5,167 -5.5,167 -5.5,185.2 			"/>
			<polygon class="st27" points="12.5,167 12.5,185.2 30.6,185.2 			"/>
		</g>
		<g class="st6">
			<polygon class="st7" points="-23.6,221.6 -23.6,203.4 -5.5,203.4 			"/>
			<polygon class="st8" points="-5.5,203.4 -5.5,185.2 -23.6,185.2 			"/>
			<polygon class="st9" points="66.6,203.4 66.6,221.6 48.5,221.6 			"/>
			<polygon class="st10" points="48.5,185.2 66.6,185.2 66.6,203.4 			"/>
			<polygon class="st11" points="48.5,185.2 48.5,203.4 66.6,203.4 			"/>
			<polygon class="st12" points="48.5,185.2 48.5,203.4 30.5,203.4 			"/>
			<polygon class="st13" points="48.5,221.6 30.5,221.6 30.5,203.4 			"/>
			<polygon class="st14" points="12.5,221.6 30.5,221.6 30.5,203.4 			"/>
			<polygon class="st15" points="48.5,221.5 48.5,203.4 66.6,203.4 			"/>
			<polygon class="st16" points="84.6,185.2 66.6,185.2 66.6,203.4 			"/>
			<polygon class="st17" points="84.6,185.2 84.6,203.4 66.6,203.4 			"/>
			<polygon class="st18" points="84.6,221.5 84.6,203.4 66.6,203.4 			"/>
			<polygon class="st10" points="66.6,203.4 66.6,221.6 84.6,221.6 			"/>
			<polygon class="st19" points="12.5,185.2 30.5,185.2 30.5,203.4 			"/>
			<polygon class="st20" points="12.5,221.6 12.5,203.4 -5.6,203.4 			"/>
			<polygon class="st21" points="48.5,221.5 30.5,221.5 30.5,239.7 			"/>
			<polygon class="st22" points="48.5,221.5 48.5,239.7 66.6,239.7 			"/>
			<polygon class="st23" points="66.6,239.7 66.6,221.5 48.5,221.5 			"/>
			<polygon class="st24" points="84.6,221.5 84.6,239.7 66.6,239.7 			"/>
			<polygon class="st25" points="66.6,239.7 66.6,221.5 84.6,221.5 			"/>
			<polygon class="st26" points="12.5,221.5 -5.6,221.5 -5.6,239.7 			"/>
			<polygon class="st27" points="12.5,221.5 12.5,239.7 30.5,239.7 			"/>
		</g>
	</g>
	<g>
		<polygon class="st28" points="67.5,147.3 57.9,140.3 57.9,144.5 -6,144.5 -6,149.9 57.9,149.9 57.9,153.8 		"/>
		<polygon class="st28" points="-6,172.5 3.6,165.6 3.6,169.8 67.5,169.8 67.5,175.2 3.6,175.2 3.6,179.1 		"/>
		<polygon class="st28" points="67.5,197.8 57.9,190.9 57.9,195.1 -6,195.1 -6,200.5 57.9,200.5 57.9,204.4 		"/>
		<polygon class="st28" points="-6,223.1 3.6,216.2 3.6,220.4 67.5,220.4 67.5,225.8 3.6,225.8 3.6,229.7 		"/>
	</g>
</g>
<g>
	<g>
		<rect x="-124.8" y="363.8" class="st29" width="175.5" height="39.7"/>
	</g>
	<rect x="-120.6" y="369.2" class="st30" width="166.6" height="29"/>
	<g>
		<g>
			<ellipse class="st5" cx="-37.1" cy="383.7" rx="5.6" ry="5.6"/>
			<ellipse class="st31" cx="-37.1" cy="383.7" rx="4" ry="4.1"/>
		</g>
		<g>
			<rect x="-108.9" y="371.9" class="st32" width="57" height="11.1"/>
			<rect x="-108.9" y="384.5" class="st32" width="57" height="11.1"/>
		</g>
		<g>
			<rect x="-22.3" y="371.9" class="st32" width="57" height="11.1"/>
			<rect x="-22.3" y="384.5" class="st32" width="57" height="11.1"/>
		</g>
	</g>
	<g>
		<rect x="-119.6" y="381.8" class="st5" width="9.3" height="3.8"/>
		<rect x="-119" y="382.2" class="st31" width="8.1" height="2.9"/>
	</g>
	<ellipse class="st33" cx="40.4" cy="383.7" rx="2.1" ry="2.1"/>
</g>
<g>
	<g>
		<rect x="-124.8" y="403.5" class="st29" width="175.5" height="39.7"/>
	</g>
	<rect x="-120.6" y="408.9" class="st30" width="166.6" height="29"/>
	<g>
		<g>
			<ellipse class="st5" cx="-37.1" cy="423.4" rx="5.6" ry="5.6"/>
			<ellipse class="st31" cx="-37.1" cy="423.4" rx="4" ry="4.1"/>
		</g>
		<g>
			<rect x="-108.9" y="411.6" class="st32" width="57" height="11.1"/>
			<rect x="-108.9" y="424.2" class="st32" width="57" height="11.1"/>
		</g>
		<g>
			<rect x="-22.3" y="411.6" class="st32" width="57" height="11.1"/>
			<rect x="-22.3" y="424.2" class="st32" width="57" height="11.1"/>
		</g>
	</g>
	<g>
		<rect x="-119.6" y="421.5" class="st5" width="9.3" height="3.8"/>
		<rect x="-119" y="421.9" class="st31" width="8.1" height="2.9"/>
	</g>
	<ellipse class="st33" cx="40.4" cy="423.4" rx="2.1" ry="2.1"/>
</g>
<g>
	<g>
		<rect x="-124.8" y="443.3" class="st29" width="175.5" height="39.7"/>
	</g>
	<rect x="-120.6" y="448.7" class="st30" width="166.6" height="29"/>
	<g>
		<g>
			<ellipse class="st5" cx="-37.1" cy="463.1" rx="5.6" ry="5.6"/>
			<ellipse class="st31" cx="-37.1" cy="463.1" rx="4" ry="4.1"/>
		</g>
		<g>
			<rect x="-108.9" y="451.4" class="st32" width="57" height="11.1"/>
			<rect x="-108.9" y="464" class="st32" width="57" height="11.1"/>
		</g>
		<g>
			<rect x="-22.3" y="451.4" class="st32" width="57" height="11.1"/>
			<rect x="-22.3" y="464" class="st32" width="57" height="11.1"/>
		</g>
	</g>
	<g>
		<rect x="-119.6" y="461.3" class="st5" width="9.3" height="3.8"/>
		<rect x="-119" y="461.7" class="st31" width="8.1" height="2.9"/>
	</g>
	<ellipse class="st33" cx="40.4" cy="463.1" rx="2.1" ry="2.1"/>
</g>
<g>
	<g>
		<rect x="-124.8" y="483" class="st29" width="175.5" height="39.7"/>
	</g>
	<rect x="-120.6" y="488.4" class="st30" width="166.6" height="29"/>
	<g>
		<g>
			<ellipse class="st5" cx="-37.1" cy="502.9" rx="5.6" ry="5.6"/>
			<ellipse class="st31" cx="-37.1" cy="502.9" rx="4" ry="4.1"/>
		</g>
		<g>
			<rect x="-108.9" y="491.1" class="st32" width="57" height="11.1"/>
			<rect x="-108.9" y="503.7" class="st32" width="57" height="11.1"/>
		</g>
		<g>
			<rect x="-22.3" y="491.1" class="st32" width="57" height="11.1"/>
			<rect x="-22.3" y="503.7" class="st32" width="57" height="11.1"/>
		</g>
	</g>
	<g>
		<rect x="-119.6" y="501" class="st5" width="9.3" height="3.8"/>
		<rect x="-119" y="501.4" class="st31" width="8.1" height="2.9"/>
	</g>
	<ellipse class="st33" cx="40.4" cy="502.9" rx="2.1" ry="2.1"/>
</g>
<g>
	<path class="st34" d="M66.7,336l1.3-3.1c0.4-0.9,1.2-1.4,2-1.4h50c0.8,0,1.6,0.6,2,1.4l1.3,3.1H66.7z"/>
	<path class="st35" d="M121.8,350.4H68.2c-2.2,0-4-1.8-4-4v-9.1c0-2.2,1.8-4,4-4h53.6c2.2,0,4,1.8,4,4v9.1
		C125.8,348.6,124,350.4,121.8,350.4z"/>
	<path class="st35" d="M121.8,371H68.2c-2.2,0-4-1.8-4-4v-9.1c0-2.2,1.8-4,4-4h53.6c2.2,0,4,1.8,4,4v9.1
		C125.8,369.2,124,371,121.8,371z"/>
	<path class="st35" d="M121.8,391.8H68.2c-2.2,0-4-1.8-4-4v-9.1c0-2.2,1.8-4,4-4h53.6c2.2,0,4,1.8,4,4v9.1
		C125.8,390,124,391.8,121.8,391.8z"/>
	<rect x="66.7" y="349.7" class="st34" width="56.6" height="4.6"/>
	<rect x="66.7" y="370.7" class="st34" width="56.6" height="4.6"/>
	<path class="st34" d="M66.7,391.1l1.3,3.1c0.4,0.9,1.2,1.4,2,1.4h50c0.8,0,1.6-0.6,2-1.4l1.3-3.1H66.7z"/>
</g>
<g>
	<path class="st34" d="M66.7,415.5l1.3-3.1c0.4-0.9,1.2-1.4,2-1.4h50c0.8,0,1.6,0.6,2,1.4l1.3,3.1H66.7z"/>
	<path class="st35" d="M121.8,429.9H68.2c-2.2,0-4-1.8-4-4v-9.1c0-2.2,1.8-4,4-4h53.6c2.2,0,4,1.8,4,4v9.1
		C125.8,428.1,124,429.9,121.8,429.9z"/>
	<path class="st35" d="M121.8,450.5H68.2c-2.2,0-4-1.8-4-4v-9.1c0-2.2,1.8-4,4-4h53.6c2.2,0,4,1.8,4,4v9.1
		C125.8,448.7,124,450.5,121.8,450.5z"/>
	<path class="st35" d="M121.8,471.3H68.2c-2.2,0-4-1.8-4-4v-9.1c0-2.2,1.8-4,4-4h53.6c2.2,0,4,1.8,4,4v9.1
		C125.8,469.5,124,471.3,121.8,471.3z"/>
	<rect x="66.7" y="429.1" class="st34" width="56.6" height="4.6"/>
	<rect x="66.7" y="450.1" class="st34" width="56.6" height="4.6"/>
	<path class="st34" d="M66.7,470.5l1.3,3.1c0.4,0.9,1.2,1.4,2,1.4h50c0.8,0,1.6-0.6,2-1.4l1.3-3.1H66.7z"/>
</g>
<g>
	<path class="st34" d="M66.7,494.9l1.3-3.1c0.4-0.9,1.2-1.4,2-1.4h50c0.8,0,1.6,0.6,2,1.4l1.3,3.1H66.7z"/>
	<path class="st35" d="M121.8,509.3H68.2c-2.2,0-4-1.8-4-4v-9.1c0-2.2,1.8-4,4-4h53.6c2.2,0,4,1.8,4,4v9.1
		C125.8,507.5,124,509.3,121.8,509.3z"/>
	<path class="st35" d="M121.8,529.9H68.2c-2.2,0-4-1.8-4-4v-9.1c0-2.2,1.8-4,4-4h53.6c2.2,0,4,1.8,4,4v9.1
		C125.8,528.1,124,529.9,121.8,529.9z"/>
	<path class="st35" d="M121.8,550.7H68.2c-2.2,0-4-1.8-4-4v-9.1c0-2.2,1.8-4,4-4h53.6c2.2,0,4,1.8,4,4v9.1
		C125.8,548.9,124,550.7,121.8,550.7z"/>
	<rect x="66.7" y="508.6" class="st34" width="56.6" height="4.6"/>
	<rect x="66.6" y="529.6" class="st34" width="56.6" height="4.6"/>
	<path class="st34" d="M66.6,549.9l1.3,3.1c0.4,0.9,1.2,1.4,2,1.4h50c0.8,0,1.6-0.6,2-1.4l1.3-3.1H66.6z"/>
</g>
<linearGradient id="SVGID_1_" gradientUnits="userSpaceOnUse" x1="95.9" y1="243.1" x2="95.9" y2="463.8" gradientTransform="matrix(1 0 0 -1 0 795.4)">
	<stop  offset="0" style="stop-color:#476378;stop-opacity:0"/>
	<stop  offset="0.1281" style="stop-color:#476378"/>
	<stop  offset="0.8818" style="stop-color:#476378"/>
	<stop  offset="1" style="stop-color:#476378;stop-opacity:0"/>
</linearGradient>
<rect x="76.5" y="331.6" class="st36" width="38.8" height="220.7"/>
<g class="st2">
	<path class="st3" d="M86,510.7v-3.2l12.9-5l-12.9-5v-3.2l16.9,6.9v2.6L86,510.7z"/>
	<path class="st3" d="M85.4,492.2v-3.1h2.8v3.1H85.4z M90.1,492.1v-2.9h12.7v2.9H90.1z"/>
	<path class="st3" d="M90.1,485.4v-2.9H93c-1.9-0.8-3.2-2.2-3.1-4.5H93v0.2c0,2.5,1.7,4.3,5,4.3h4.8v2.9H90.1z"/>
	<path class="st3" d="M99.3,475h-6.7v1.6h-2.5V475h-3.5v-2.9h3.5v-3.4h2.5v3.4h6.2c1.1,0,1.6-0.6,1.6-1.5c0-0.6-0.1-1.2-0.4-1.8h2.4
		c0.4,0.7,0.6,1.5,0.6,2.6C103,473.5,102.1,475,99.3,475z"/>
	<path class="st3" d="M98.2,465.9h-8.1v-2.9h7.2c2,0,3.1-1,3.1-2.7c0-1.7-1.2-2.8-3.1-2.8h-7.2v-2.9h12.7v2.9h-2
		c1.2,0.8,2.2,2,2.2,3.9C103.1,464.3,101.1,465.9,98.2,465.9z"/>
	<path class="st3" d="M99.2,451.9L99.2,451.9c-2.8,0-4.1-2.1-4.1-5.2c0-1.4,0.2-2.4,0.5-3.4h-0.3c-1.8,0-2.8,1.1-2.8,3.1
		c0,1.4,0.3,2.5,0.8,3.6l-2.3,0.8c-0.6-1.4-1-2.7-1-4.7c0-1.9,0.5-3.3,1.4-4.2c0.9-0.9,2.3-1.4,3.9-1.4h7.5v2.8h-1.6
		c1,0.9,1.8,2.2,1.8,4.1C103.1,449.8,101.7,451.9,99.2,451.9z M98.2,443.3h-0.9c-0.3,0.7-0.5,1.7-0.5,2.9c0,1.9,0.8,3,2.1,3h0
		c1.2,0,1.9-1.1,1.9-2.5C101,444.7,99.9,443.3,98.2,443.3z"/>
	<path class="st3" d="M85.3,436.9V434h17.5v2.9H85.3z"/>
	<path class="st3" d="M100.4,423.9l-2.1-1.8c1.4-1.6,2.2-3.2,2.2-5.3c0-1.8-0.9-3-2.1-3h0c-1.2,0-1.8,0.7-2.6,3.8
		c-0.9,3.5-1.9,5.5-5,5.5h0c-2.9,0-4.9-2.4-4.9-5.7c0-2.4,0.7-4.4,2.1-6l2.2,1.6c-1.1,1.5-1.7,3-1.7,4.5c0,1.7,0.9,2.7,2,2.7h0
		c1.3,0,1.9-0.8,2.6-4c0.9-3.5,2.1-5.3,4.9-5.3h0c3.1,0,5,2.5,5,6C103,419.5,102.2,421.9,100.4,423.9z"/>
	<path class="st3" d="M85.9,402v-2.7l16.9-7.3v3.1l-4.1,1.7v7.9l4.1,1.7v3L85.9,402z M96.1,397.8l-6.7,2.9l6.7,2.9V397.8z"/>
	<path class="st3" d="M86,389.1v-2.7l11.6-8.9H86v-2.9h16.8v2.5l-12,9.2h12v2.9H86z"/>
</g>
</svg>
