<?xml version="1.0" encoding="utf-8"?>
<!-- Generator: Adobe Illustrator 19.1.0, SVG Export Plug-In . SVG Version: 6.00 Build 0)  -->
<svg version="1.1" id="Layer_1" xmlns="http://www.w3.org/2000/svg" xmlns:xlink="http://www.w3.org/1999/xlink" x="0px" y="0px"
	 viewBox="175 316.8 962.5 154.7" style="enable-background:new 175 316.8 962.5 154.7;" xml:space="preserve">
<style type="text/css">
	
		.st0{opacity:0.8;fill:#D0D2D3;stroke:#262261;stroke-width:2;stroke-miterlimit:10;stroke-dasharray:4,4;enable-background:new    ;}
	.st1{fill:#FFFFFF;}
	.st2{fill:none;}
	.st3{fill:#1D4077;}
	.st4{enable-background:new    ;}
	.st5{fill:#231F20;}
	.st6{fill:#677F90;}
	.st7{fill:#BCC1C6;}
	.st8{opacity:0.1;}
	.st9{fill:#9ACDE9;}
	.st10{fill:#99CCE6;}
	.st11{fill:#0F3535;}
	.st12{fill:#4DA847;}
	.st13{fill:#0A9046;}
	.st14{fill:#2A98D4;}
	.st15{fill:#158686;}
	.st16{fill:#232658;}
	.st17{fill:#3A7E3D;}
	.st18{fill:#408740;}
	.st19{fill:#90C13F;}
	.st20{fill:#72C5A0;}
	.st21{fill:#2D9ED9;}
	.st22{fill:#1575B1;}
	.st23{fill:#C3D6A2;}
	.st24{fill:#517034;}
	.st25{fill:#1B4724;}
	.st26{fill:#94CB88;}
	.st27{fill:#5E9541;}
	.st28{fill:#6BBFEB;}
	.st29{fill:#3D73B6;}
	.st30{fill:#E7EAE8;}
	.st31{fill:url(#SVGID_1_);stroke:#A7A8AB;stroke-width:1.9877;}
	.st32{opacity:0.2;fill:#FFFFFF;enable-background:new    ;}
	.st33{fill:url(#SVGID_2_);}
	.st34{fill:#2276B8;}
	.st35{fill:url(#SVGID_3_);stroke:#A7A8AB;stroke-width:1.9877;}
	.st36{fill:url(#SVGID_4_);}
	.st37{fill:#D85527;}
</style>
<g>
	<rect x="177" y="321.6" class="st0" width="960.5" height="141.4"/>
	<g>
		<rect x="597" y="342.9" class="st1" width="200.2" height="32"/>
		<g>
			<line class="st2" x1="811.5" y1="382.9" x2="967.1" y2="382.9"/>
			<rect x="811.5" y="380.4" class="st3" width="155.6" height="5"/>
		</g>
		<g>
			<rect x="841.5" y="333.9" class="st1" width="113.6" height="27"/>
			<polygon class="st1" points="906.9,360.6 898.3,372.2 889.5,360.6 			"/>
			<g class="st4">
				<path class="st5" d="M848.4,341.7h1.4l4,9.7l4-9.7h1.4l-4.8,11.3h-1.1L848.4,341.7z"/>
				<path class="st5" d="M870.1,341.7l-4.1,5.5l4.3,5.7h-1.5l-3.6-4.8l-3.6,4.8h-1.5l4.3-5.7l-4.1-5.5h1.5l3.4,4.6l3.4-4.6H870.1z"
					/>
				<path class="st5" d="M872.6,341.7h1.3v10h6.3v1.2h-7.5L872.6,341.7L872.6,341.7z"/>
				<path class="st5" d="M886.6,341.7h1.2l5.1,11.3h-1.4l-1.3-3h-6.1l-1.3,3h-1.3L886.6,341.7z M889.9,348.8l-2.5-5.7l-2.6,5.7
					H889.9z"/>
				<path class="st5" d="M895.1,341.7h1.2l7.1,9v-9h1.2v11.2h-1l-7.2-9.2v9.2h-1.2L895.1,341.7L895.1,341.7z"/>
				<path class="st5" d="M911.9,351.3l0.8-0.9c1,0.9,2,1.5,3.2,1.5c1.6,0,2.7-1.1,2.7-2.5l0,0c0-1.4-1.2-2.4-2.8-2.4
					c-0.9,0-1.7,0.3-2.4,0.6l-0.8-0.6l0.3-5.5h6.5v1.2h-5.3l-0.2,3.6c0.7-0.3,1.3-0.5,2.2-0.5c2.2,0,3.9,1.3,3.9,3.4l0,0
					c0,2.2-1.7,3.7-4,3.7C914.3,353.1,912.9,352.4,911.9,351.3z"/>
				<path class="st5" d="M921.9,347.4L921.9,347.4c0-3.2,1.9-5.8,4.8-5.8s4.7,2.6,4.7,5.8l0,0c0,3.1-1.9,5.8-4.7,5.8
					C923.6,353.1,921.9,350.5,921.9,347.4z M930,347.4L930,347.4c0-2.5-1.3-4.7-3.4-4.7s-3.4,2.1-3.4,4.6l0,0c0,2.4,1.3,4.6,3.4,4.6
					C928.6,352,930,349.8,930,347.4z"/>
				<path class="st5" d="M933.3,347.4L933.3,347.4c0-3.2,1.9-5.8,4.8-5.8s4.7,2.6,4.7,5.8l0,0c0,3.1-1.9,5.8-4.7,5.8
					C935,353.1,933.3,350.5,933.3,347.4z M941.5,347.4L941.5,347.4c0-2.5-1.3-4.7-3.4-4.7s-3.4,2.1-3.4,4.6l0,0
					c0,2.4,1.3,4.6,3.4,4.6C940.1,352,941.5,349.8,941.5,347.4z"/>
				<path class="st5" d="M946.5,343l-2.1,0.7l-0.3-1l2.7-0.9h0.9v11.3h-1.2L946.5,343L946.5,343z"/>
			</g>
		</g>
		<g>
			<g>
				<g>
					<g>
						<g>
							<g>
								<g>
									<rect x="810.9" y="396.9" class="st6" width="54.5" height="54.5"/>
									<g>
										<g>
											<g>
												<g>
													<path class="st7" d="M864.5,397.7v52.8h-52.8v-52.7L864.5,397.7 M866.1,396h-1.7h-52.7h-1.8v1.7v52.8v1.7h1.7h52.7h1.7
														v-1.7v-52.7L866.1,396L866.1,396z"/>
												</g>
											</g>
										</g>
									</g>
								</g>
							</g>
						</g>
					</g>
				</g>
				<g class="st8">
					<polygon class="st9" points="811.7,415.4 811.7,406.6 820.4,406.6 					"/>
					<polygon class="st10" points="820.4,406.6 820.4,397.8 811.7,397.8 					"/>
					<polygon class="st11" points="855.5,406.6 855.5,415.4 846.7,415.4 					"/>
					<polygon class="st12" points="846.7,397.8 855.5,397.8 855.5,406.6 					"/>
					<polygon class="st13" points="846.7,397.8 846.7,406.6 855.5,406.6 					"/>
					<polygon class="st14" points="846.7,397.8 846.7,406.6 838,406.6 					"/>
					<polygon class="st15" points="846.7,415.4 838,415.4 838,406.6 					"/>
					<polygon class="st16" points="829.2,415.4 838,415.4 838,406.6 					"/>
					<polygon class="st17" points="846.7,415.4 846.7,406.6 855.5,406.6 					"/>
					<polygon class="st18" points="864.4,397.8 855.5,397.8 855.5,406.6 					"/>
					<polygon class="st19" points="864.4,397.8 864.4,406.6 855.5,406.6 					"/>
					<polygon class="st20" points="864.3,415.4 864.3,406.6 855.5,406.6 					"/>
					<polygon class="st12" points="855.5,406.6 855.5,415.4 864.3,415.4 					"/>
					<polygon class="st21" points="829.2,397.8 838,397.8 838,406.6 					"/>
					<polygon class="st22" points="829.2,415.4 829.2,406.6 820.4,406.6 					"/>
					<polygon class="st23" points="846.7,415.4 838,415.4 838,424.2 					"/>
					<polygon class="st24" points="846.7,415.4 846.7,424.2 855.5,424.2 					"/>
					<polygon class="st25" points="855.5,424.2 855.5,415.4 846.7,415.4 					"/>
					<polygon class="st26" points="864.3,415.4 864.3,424.2 855.5,424.2 					"/>
					<polygon class="st27" points="855.5,424.2 855.5,415.4 864.3,415.4 					"/>
					<polygon class="st28" points="829.2,415.4 820.4,415.4 820.4,424.2 					"/>
					<polygon class="st29" points="829.2,415.4 829.2,424.2 838,424.2 					"/>
				</g>
				<g class="st8">
					<polygon class="st9" points="811.5,441.7 811.5,433 820.4,433 					"/>
					<polygon class="st10" points="820.4,433 820.4,424.2 811.5,424.2 					"/>
					<polygon class="st11" points="855.5,433 855.5,441.7 846.7,441.7 					"/>
					<polygon class="st12" points="846.7,424.2 855.5,424.2 855.5,433 					"/>
					<polygon class="st13" points="846.7,424.2 846.7,433 855.5,433 					"/>
					<polygon class="st14" points="846.7,424.2 846.7,433 838,433 					"/>
					<polygon class="st15" points="846.7,441.8 838,441.8 838,433 					"/>
					<polygon class="st16" points="829.2,441.8 838,441.8 838,433 					"/>
					<polygon class="st17" points="846.7,441.7 846.7,433 855.5,433 					"/>
					<polygon class="st18" points="864.3,424.2 855.5,424.2 855.5,433 					"/>
					<polygon class="st19" points="864.3,424.2 864.3,433 855.5,433 					"/>
					<polygon class="st20" points="864.3,441.7 864.3,433 855.5,433 					"/>
					<polygon class="st12" points="855.5,433 855.5,441.8 864.3,441.8 					"/>
					<polygon class="st21" points="829.2,424.2 838,424.2 838,433 					"/>
					<polygon class="st22" points="829.2,441.7 829.2,433 820.4,433 					"/>
					<polygon class="st23" points="846.7,441.7 838,441.7 838,450.5 					"/>
					<polygon class="st24" points="846.7,441.7 846.7,450.5 855.5,450.5 					"/>
					<polygon class="st25" points="855.5,450.5 855.5,441.7 846.7,441.7 					"/>
					<polygon class="st26" points="864.3,441.7 864.3,450.5 855.5,450.5 					"/>
					<polygon class="st27" points="855.5,450.5 855.5,441.7 864.3,441.7 					"/>
					<polygon class="st28" points="829.2,441.7 820.4,441.7 820.4,450.5 					"/>
					<polygon class="st29" points="829.2,441.7 829.2,450.5 838,450.5 					"/>
				</g>
			</g>
			<g>
				<polygon class="st30" points="840.7,423.8 836,420.4 836,422.4 820.2,422.4 820.2,425.1 836,425.1 836,427 				"/>
			</g>
			<g>
				<polygon class="st30" points="849.5,411 844,412.7 845.7,414 840.7,420.5 842.7,422.1 847.7,415.5 849.2,416.7 				"/>
			</g>
			<g>
				<polygon class="st30" points="855.6,424.4 851,421 851,423 842.7,423 842.7,425.7 851,425.6 851,427.6 				"/>
			</g>
			<g>
				<polygon class="st30" points="849.5,437.7 844,436 845.7,434.8 840.7,428.3 842.7,426.7 847.7,433.2 849.2,432.1 				"/>
			</g>
		</g>
		<g>
			<g class="st4">
				<path class="st5" d="M607.5,358.1L607.5,358.1c0-2.8,2.1-5.1,5.1-5.1c1.8,0,2.9,0.6,3.8,1.5l-1.1,1.3c-0.8-0.7-1.6-1.2-2.7-1.2
					c-1.9,0-3.2,1.5-3.2,3.5l0,0c0,1.9,1.4,3.5,3.2,3.5c1.2,0,2-0.5,2.8-1.3l1.1,1.1c-1,1.1-2.1,1.7-4,1.7
					C609.5,363.1,607.5,360.9,607.5,358.1z"/>
				<path class="st5" d="M617.5,359.3L617.5,359.3c0-2.1,1.7-3.9,4-3.9s3.9,1.7,3.9,3.8l0,0c0,2.1-1.7,3.9-4,3.9
					C619.2,363.1,617.5,361.4,617.5,359.3z M623.7,359.3L623.7,359.3c0-1.3-0.9-2.4-2.3-2.4c-1.4,0-2.2,1.1-2.2,2.4l0,0
					c0,1.3,0.9,2.4,2.3,2.4C622.7,361.6,623.7,360.6,623.7,359.3z"/>
				<path class="st5" d="M627,355.5h1.7v1.1c0.5-0.7,1.1-1.3,2.3-1.3c1.1,0,1.8,0.5,2.2,1.3c0.6-0.8,1.4-1.3,2.5-1.3
					c1.6,0,2.6,1,2.6,2.8v4.7h-1.7v-4.2c0-1.2-0.5-1.8-1.5-1.8c-0.9,0-1.6,0.6-1.6,1.8v4.2h-1.7v-4.2c0-1.1-0.6-1.8-1.5-1.8
					s-1.6,0.7-1.6,1.8v4.2H627V355.5z"/>
				<path class="st5" d="M640.4,355.5h1.7v1.2c0.5-0.8,1.3-1.4,2.5-1.4c1.7,0,3.4,1.4,3.4,3.8l0,0c0,2.5-1.7,3.8-3.4,3.8
					c-1.2,0-2-0.6-2.5-1.3v3.4h-1.7V355.5z M646.2,359.3L646.2,359.3c0-1.5-1-2.4-2.1-2.4s-2.2,1-2.2,2.4l0,0c0,1.4,1,2.4,2.2,2.4
					C645.4,361.6,646.2,360.7,646.2,359.3z"/>
				<path class="st5" d="M649.7,360.2v-4.7h1.7v4.2c0,1.1,0.6,1.8,1.6,1.8s1.7-0.7,1.7-1.8v-4.2h1.7v7.4h-1.7v-1.1
					c-0.5,0.7-1.2,1.3-2.3,1.3C650.7,363.1,649.7,362,649.7,360.2z"/>
				<path class="st5" d="M658.7,360.9V357h-0.9v-1.5h0.9v-2h1.7v2h2v1.5h-2v3.6c0,0.7,0.3,0.9,0.9,0.9c0.4,0,0.7-0.1,1.1-0.3v1.4
					c-0.4,0.2-0.9,0.4-1.5,0.4C659.7,363.1,658.7,362.5,658.7,360.9z"/>
				<path class="st5" d="M663.5,359.3L663.5,359.3c0-2.1,1.5-3.9,3.6-3.9c2.4,0,3.5,1.8,3.5,4c0,0.2,0,0.3,0,0.5h-5.4
					c0.2,1.2,1,1.9,2.1,1.9c0.8,0,1.4-0.3,2-0.9l1,0.9c-0.7,0.8-1.7,1.4-3,1.4C665.2,363.1,663.5,361.5,663.5,359.3z M669,358.7
					c-0.1-1.1-0.8-1.9-1.9-1.9c-1,0-1.8,0.8-1.9,1.9H669z"/>
				<path class="st5" d="M679.2,354.7h-3.1v-1.6h8v1.6h-3.2v8.2h-1.7V354.7z"/>
				<path class="st5" d="M684.7,355.5h1.7v1.7c0.5-1.1,1.3-1.9,2.6-1.8v1.8l0,0c-1.5,0-2.5,1-2.5,2.9v2.8h-1.8V355.5L684.7,355.5z"
					/>
				<path class="st5" d="M689.7,360.8L689.7,360.8c0-1.6,1.2-2.4,3.1-2.4c0.8,0,1.4,0.1,2,0.3v-0.2c0-1.1-0.6-1.6-1.8-1.6
					c-0.8,0-1.4,0.2-2.1,0.5l-0.4-1.3c0.8-0.4,1.6-0.6,2.8-0.6c1.1,0,1.9,0.3,2.5,0.8c0.5,0.5,0.8,1.3,0.8,2.3v4.4h-1.7v-1
					c-0.5,0.6-1.3,1.1-2.4,1.1C690.9,363.1,689.7,362.3,689.7,360.8z M694.7,360.3v-0.5c-0.4-0.2-1-0.3-1.7-0.3
					c-1.1,0-1.7,0.5-1.7,1.2l0,0c0,0.7,0.6,1.1,1.4,1.1C693.9,361.9,694.7,361.2,694.7,360.3z"/>
				<path class="st5" d="M698.4,355.5h1.7v1.1c0.5-0.7,1.2-1.3,2.3-1.3c1.7,0,2.6,1.1,2.6,2.8v4.7h-1.7v-4.2c0-1.1-0.6-1.8-1.6-1.8
					s-1.7,0.7-1.7,1.8v4.2h-1.7v-7.3H698.4z"/>
				<path class="st5" d="M706.5,362l0.8-1.1c0.8,0.6,1.7,0.9,2.4,0.9s1.1-0.3,1.1-0.8l0,0c0-0.6-0.8-0.8-1.7-1
					c-1.1-0.3-2.3-0.8-2.3-2.2l0,0c0-1.4,1.2-2.3,2.6-2.3c0.9,0,1.9,0.3,2.7,0.8l-0.7,1.2c-0.7-0.4-1.5-0.7-2.1-0.7
					c-0.7,0-1,0.3-1,0.7l0,0c0,0.5,0.8,0.8,1.7,1.1c1.1,0.3,2.3,0.8,2.3,2.2l0,0c0,1.6-1.2,2.3-2.7,2.3
					C708.5,363.1,707.4,362.7,706.5,362z"/>
				<path class="st5" d="M714,355.5h1.7v1.2c0.5-0.8,1.3-1.4,2.5-1.4c1.7,0,3.4,1.4,3.4,3.8l0,0c0,2.5-1.7,3.8-3.4,3.8
					c-1.2,0-2-0.6-2.5-1.3v3.4H714V355.5z M720,359.3L720,359.3c0-1.5-1-2.4-2.1-2.4s-2.2,1-2.2,2.4l0,0c0,1.4,1,2.4,2.2,2.4
					C719,361.6,720,360.7,720,359.3z"/>
				<path class="st5" d="M723,359.3L723,359.3c0-2.1,1.7-3.9,4-3.9s3.9,1.7,3.9,3.8l0,0c0,2.1-1.7,3.9-4,3.9S723,361.4,723,359.3z
					 M729.2,359.3L729.2,359.3c0-1.3-0.9-2.4-2.3-2.4c-1.4,0-2.2,1.1-2.2,2.4l0,0c0,1.3,0.9,2.4,2.3,2.4
					C728.4,361.6,729.2,360.6,729.2,359.3z"/>
				<path class="st5" d="M732.7,355.5h1.7v1.7c0.5-1.1,1.3-1.9,2.6-1.8v1.8h-0.1c-1.5,0-2.5,1-2.5,2.9v2.8h-1.7V355.5z"/>
				<path class="st5" d="M738.7,360.9V357h-0.9v-1.5h0.9v-2h1.7v2h2v1.5h-2v3.6c0,0.7,0.3,0.9,0.9,0.9c0.4,0,0.7-0.1,1.1-0.3v1.4
					c-0.4,0.2-0.9,0.4-1.5,0.4C739.7,363.1,738.7,362.5,738.7,360.9z"/>
				<path class="st5" d="M748.2,361.7l5.8-7h-5.6v-1.5h7.9v1.3l-5.8,7h5.8v1.5h-8v-1.3H748.2z"/>
				<path class="st5" d="M757.5,359.3L757.5,359.3c0-2.1,1.7-3.9,4-3.9s3.9,1.7,3.9,3.8l0,0c0,2.1-1.7,3.9-4,3.9
					C759,363.1,757.5,361.4,757.5,359.3z M763.7,359.3L763.7,359.3c0-1.3-0.9-2.4-2.3-2.4c-1.4,0-2.2,1.1-2.2,2.4l0,0
					c0,1.3,0.9,2.4,2.3,2.4C762.7,361.6,763.7,360.6,763.7,359.3z"/>
				<path class="st5" d="M767,355.5h1.7v1.1c0.5-0.7,1.2-1.3,2.3-1.3c1.7,0,2.6,1.1,2.6,2.8v4.7h-1.7v-4.2c0-1.1-0.6-1.8-1.6-1.8
					s-1.7,0.7-1.7,1.8v4.2h-1.7L767,355.5L767,355.5z"/>
				<path class="st5" d="M775.4,359.3L775.4,359.3c0-2.1,1.5-3.9,3.6-3.9c2.4,0,3.5,1.8,3.5,4c0,0.2,0,0.3,0,0.5h-5.4
					c0.2,1.2,1,1.9,2.1,1.9c0.8,0,1.4-0.3,2-0.9l1,0.9c-0.7,0.8-1.7,1.4-3,1.4C777,363.1,775.4,361.5,775.4,359.3z M780.7,358.7
					c-0.1-1.1-0.8-1.9-1.9-1.9c-1,0-1.8,0.8-1.9,1.9H780.7z"/>
			</g>
		</g>
		<g>
			<line class="st2" x1="837" y1="399" x2="837" y2="381.1"/>
			<rect x="836" y="381.1" class="st3" width="2" height="17.9"/>
		</g>
		<g>
			<line class="st2" x1="896" y1="399" x2="896" y2="381.1"/>
			<rect x="895" y="381.1" class="st3" width="2" height="17.9"/>
		</g>
		<g>
			<line class="st2" x1="946" y1="399" x2="946" y2="381.1"/>
			<rect x="945" y="381.1" class="st3" width="2" height="17.9"/>
		</g>
		<g>
			<g>
				
					<linearGradient id="SVGID_1_" gradientUnits="userSpaceOnUse" x1="896.95" y1="371.2364" x2="896.95" y2="424.3711" gradientTransform="matrix(1 0 0 1 0 6)">
					<stop  offset="0" style="stop-color:#FFFFFF"/>
					<stop  offset="0.3865" style="stop-color:#ECECEC"/>
					<stop  offset="1" style="stop-color:#C7C7C7"/>
				</linearGradient>
				<path class="st31" d="M917.6,439.5c0,0.9-0.7,1.6-1.6,1.6h-38.1c-0.9,0-1.6-0.7-1.6-1.6v-38c0-0.9,0.7-1.6,1.6-1.6h38
					c0.9,0,1.6,0.7,1.6,1.6L917.6,439.5L917.6,439.5z"/>
				<path class="st32" d="M877.1,407.9v-6c0-0.9,0.7-1.6,1.6-1.6h36.4c0.9,0,1.6,0.7,1.6,1.6v21L877.1,407.9z"/>
				
					<linearGradient id="SVGID_2_" gradientUnits="userSpaceOnUse" x1="896.9499" y1="394.3427" x2="896.95" y2="397.6427" gradientTransform="matrix(1 0 0 1 0 6)">
					<stop  offset="0" style="stop-color:#EAEAEA"/>
					<stop  offset="0.1969" style="stop-color:#E7E7E7"/>
					<stop  offset="0.3347" style="stop-color:#DEDEDE"/>
					<stop  offset="0.4545" style="stop-color:#CFCFCF"/>
					<stop  offset="0.5641" style="stop-color:#B9B9B9"/>
					<stop  offset="0.6667" style="stop-color:#9C9C9C"/>
					<stop  offset="0.7641" style="stop-color:#797979"/>
					<stop  offset="0.8574" style="stop-color:#505050"/>
					<stop  offset="0.9451" style="stop-color:#212121"/>
					<stop  offset="1" style="stop-color:#000000"/>
				</linearGradient>
				<path class="st33" d="M916.8,403.5V402c0-0.9-0.7-1.6-1.6-1.6h-36.5c-0.9,0-1.6,0.7-1.6,1.6v1.7c0,0,0.1-1.2,0.5-1.5
					c0,0-0.1-1.1,1.2-1.1s36.4,0,36.4,0s1-0.1,1.4,1.1L916.8,403.5z"/>
			</g>
			<g class="st4">
				<path class="st34" d="M885.5,415.2h2.6l2.8,7.5l2.8-7.5h2.5l-4.3,10.7h-2.1L885.5,415.2z"/>
				<path class="st34" d="M897.8,415.2h2.5l2.8,4.5l2.8-4.5h2.5v10.6h-2.3v-6.9l-3,4.5H903l-3-4.5v6.9h-2.3L897.8,415.2L897.8,415.2
					z"/>
			</g>
		</g>
		<g>
			<g>
				
					<linearGradient id="SVGID_3_" gradientUnits="userSpaceOnUse" x1="946.3499" y1="371.2364" x2="946.35" y2="424.3711" gradientTransform="matrix(1 0 0 1 0 6)">
					<stop  offset="0" style="stop-color:#FFFFFF"/>
					<stop  offset="0.3865" style="stop-color:#ECECEC"/>
					<stop  offset="1" style="stop-color:#C7C7C7"/>
				</linearGradient>
				<path class="st35" d="M967,439.5c0,0.9-0.7,1.6-1.6,1.6h-38.1c-0.9,0-1.6-0.7-1.6-1.6v-38c0-0.9,0.7-1.6,1.6-1.6h38.1
					c0.9,0,1.6,0.7,1.6,1.6V439.5z"/>
				<path class="st32" d="M926.5,407.9v-6c0-0.9,0.7-1.6,1.6-1.6h36.4c0.9,0,1.6,0.7,1.6,1.6v21L926.5,407.9z"/>
				
					<linearGradient id="SVGID_4_" gradientUnits="userSpaceOnUse" x1="946.2499" y1="394.3427" x2="946.25" y2="397.6427" gradientTransform="matrix(1 0 0 1 0 6)">
					<stop  offset="0" style="stop-color:#EAEAEA"/>
					<stop  offset="0.1969" style="stop-color:#E7E7E7"/>
					<stop  offset="0.3347" style="stop-color:#DEDEDE"/>
					<stop  offset="0.4545" style="stop-color:#CFCFCF"/>
					<stop  offset="0.5641" style="stop-color:#B9B9B9"/>
					<stop  offset="0.6667" style="stop-color:#9C9C9C"/>
					<stop  offset="0.7641" style="stop-color:#797979"/>
					<stop  offset="0.8574" style="stop-color:#505050"/>
					<stop  offset="0.9451" style="stop-color:#212121"/>
					<stop  offset="1" style="stop-color:#000000"/>
				</linearGradient>
				<path class="st36" d="M966.1,403.5V402c0-0.9-0.7-1.6-1.6-1.6H928c-0.9,0-1.6,0.7-1.6,1.6v1.7c0,0,0.1-1.2,0.5-1.5
					c0,0-0.1-1.1,1.2-1.1s36.4,0,36.4,0s1-0.1,1.4,1.1L966.1,403.5z"/>
			</g>
			<g class="st4">
				<path class="st34" d="M935,415.1h2.6l2.8,7.5l2.8-7.5h2.5l-4.3,10.7h-2.1L935,415.1z"/>
				<path class="st34" d="M947.1,415.1h2.5l2.8,4.5l2.8-4.5h2.5v10.6h-2.3v-6.9l-3,4.5h-0.1l-3-4.5v6.9H947L947.1,415.1L947.1,415.1
					z"/>
			</g>
		</g>
	</g>
	<rect x="611.5" y="423.1" class="st37" width="4" height="2.1"/>
	<rect x="603.5" y="423.1" class="st37" width="4" height="2.1"/>
	<rect x="595.5" y="423.1" class="st37" width="4" height="2.1"/>
	<rect x="587.5" y="423.1" class="st37" width="4" height="2.1"/>
	<rect x="579.5" y="423.1" class="st37" width="4" height="2.1"/>
	<rect x="571.5" y="423.1" class="st37" width="4" height="2.1"/>
	<rect x="563.5" y="423.1" class="st37" width="4" height="2.1"/>
	<rect x="555.5" y="423.1" class="st37" width="4" height="2.1"/>
	<rect x="547.5" y="423.1" class="st37" width="4" height="2.1"/>
	<rect x="539.5" y="423.1" class="st37" width="4" height="2.1"/>
	<rect x="531.5" y="423.1" class="st37" width="4" height="2.1"/>
	<rect x="523.5" y="423.1" class="st37" width="4" height="2.1"/>
	<rect x="515.5" y="423.1" class="st37" width="4" height="2.1"/>
	<rect x="507.5" y="423.1" class="st37" width="4" height="2.1"/>
	<rect x="499.5" y="423.1" class="st37" width="4" height="2.1"/>
	<rect x="491.5" y="423.1" class="st37" width="4" height="2.1"/>
	<rect x="483.5" y="423.1" class="st37" width="4" height="2.1"/>
	<rect x="475.5" y="423.1" class="st37" width="4" height="2.1"/>
	<rect x="467.5" y="423.1" class="st37" width="4" height="2.1"/>
	<rect x="459.5" y="423.1" class="st37" width="4" height="2.1"/>
	<rect x="451.5" y="423.1" class="st37" width="4" height="2.1"/>
	<rect x="443.5" y="423.1" class="st37" width="4" height="2.1"/>
	<rect x="435.5" y="423.1" class="st37" width="4" height="2.1"/>
	<rect x="427.5" y="423.1" class="st37" width="4" height="2.1"/>
	<rect x="419.5" y="423.1" class="st37" width="4" height="2.1"/>
	<rect x="411.5" y="423.1" class="st37" width="4" height="2.1"/>
	<rect x="403.5" y="423.1" class="st37" width="4" height="2.1"/>
	<rect x="395.5" y="423.1" class="st37" width="4" height="2.1"/>
	<rect x="387.5" y="423.1" class="st37" width="4" height="2.1"/>
	<rect x="379.5" y="423.1" class="st37" width="4" height="2.1"/>
	<rect x="371.5" y="423.1" class="st37" width="4" height="2.1"/>
	<rect x="363.5" y="423.1" class="st37" width="4" height="2.1"/>
	<rect x="355.5" y="423.1" class="st37" width="4" height="2.1"/>
	<rect x="347.5" y="423.1" class="st37" width="4" height="2.1"/>
	<rect x="339.5" y="423.1" class="st37" width="4" height="2.1"/>
	<rect x="331.5" y="423.1" class="st37" width="4" height="2.1"/>
	<rect x="323.5" y="423.1" class="st37" width="4" height="2.1"/>
	<rect x="315.5" y="423.1" class="st37" width="4" height="2.1"/>
	<rect x="307.5" y="423.1" class="st37" width="4" height="2.1"/>
	<rect x="811.5" y="423.1" class="st37" width="0.5" height="2.1"/>
	<rect x="803.5" y="423.1" class="st37" width="4" height="2.1"/>
	<rect x="795.5" y="423.1" class="st37" width="4" height="2.1"/>
	<rect x="787.5" y="423.1" class="st37" width="4" height="2.1"/>
	<rect x="779.5" y="423.1" class="st37" width="4" height="2.1"/>
	<rect x="771.5" y="423.1" class="st37" width="4" height="2.1"/>
	<rect x="763.5" y="423.1" class="st37" width="4" height="2.1"/>
	<rect x="755.5" y="423.1" class="st37" width="4" height="2.1"/>
	<rect x="747.5" y="423.1" class="st37" width="4" height="2.1"/>
	<rect x="739.5" y="423.1" class="st37" width="4" height="2.1"/>
	<rect x="731.5" y="423.1" class="st37" width="4" height="2.1"/>
	<rect x="723.5" y="423.1" class="st37" width="4" height="2.1"/>
	<rect x="715.5" y="423.1" class="st37" width="4" height="2.1"/>
	<rect x="707.5" y="423.1" class="st37" width="4" height="2.1"/>
	<rect x="699.5" y="423.1" class="st37" width="4" height="2.1"/>
	<rect x="691.5" y="423.1" class="st37" width="4" height="2.1"/>
	<rect x="683.5" y="423.1" class="st37" width="4" height="2.1"/>
	<rect x="675.5" y="423.1" class="st37" width="4" height="2.1"/>
	<rect x="667.5" y="423.1" class="st37" width="4" height="2.1"/>
	<rect x="659.5" y="423.1" class="st37" width="4" height="2.1"/>
	<rect x="651.5" y="423.1" class="st37" width="4" height="2.1"/>
	<rect x="643.5" y="423.1" class="st37" width="4" height="2.1"/>
	<rect x="635.5" y="423.1" class="st37" width="4" height="2.1"/>
	<rect x="627.5" y="423.1" class="st37" width="4" height="2.1"/>
	<rect x="619.5" y="423.1" class="st37" width="4" height="2.1"/>
</g>
</svg>
