<?xml version="1.0" encoding="utf-8"?>
<!-- Generator: Adobe Illustrator 19.1.0, SVG Export Plug-In . SVG Version: 6.00 Build 0)  -->
<svg version="1.1" id="Layer_1" xmlns="http://www.w3.org/2000/svg" xmlns:xlink="http://www.w3.org/1999/xlink" x="0px" y="0px"
	 viewBox="7 57.1 625.2 679.9" style="enable-background:new 7 57.1 625.2 679.9;" xml:space="preserve">
<style type="text/css">
	.st0{fill:#1D4077;}
	.st1{fill:#F1F1F2;stroke:#1D4077;stroke-width:2;stroke-miterlimit:10;}
	.st2{enable-background:new    ;}
	.st3{fill:#FFFFFF;}
	.st4{fill:#457092;}
	.st5{opacity:0.9;fill:#46B1D6;enable-background:new    ;}
	.st6{fill:url(#SVGID_1_);}
	.st7{fill:#476277;}
	.st8{fill:#35495E;}
	.st9{fill:#BCC1C6;}
	.st10{fill:#2C3E50;}
	.st11{fill:#93A3A4;}
	.st12{fill:#3B96D2;}
	.st13{fill:url(#SVGID_2_);}
	.st14{fill:#677F90;}
	.st15{opacity:0.1;}
	.st16{fill:#9ACDE9;}
	.st17{fill:#99CCE6;}
	.st18{fill:#0F3535;}
	.st19{fill:#4DA847;}
	.st20{fill:#0A9046;}
	.st21{fill:#2A98D4;}
	.st22{fill:#158686;}
	.st23{fill:#232658;}
	.st24{fill:#3A7E3D;}
	.st25{fill:#408740;}
	.st26{fill:#90C13F;}
	.st27{fill:#72C5A0;}
	.st28{fill:#2D9ED9;}
	.st29{fill:#1575B1;}
	.st30{fill:#C3D6A2;}
	.st31{fill:#517034;}
	.st32{fill:#1B4724;}
	.st33{fill:#94CB88;}
	.st34{fill:#5E9541;}
	.st35{fill:#6BBFEB;}
	.st36{fill:#3D73B6;}
	.st37{fill:#E7EAE8;}
</style>
<polygon class="st0" points="337.8,57.3 327,71.5 327,638.3 337.8,649.1 "/>
<rect x="338.8" y="58.1" class="st1" width="292.4" height="590"/>
<polygon class="st0" points="17.8,57.3 7,71.5 7,638.3 17.8,649.1 "/>
<rect x="18.8" y="58.1" class="st1" width="292.4" height="590"/>
<g>
	<rect x="173.5" y="693" class="st0" width="293" height="44"/>
	<g class="st2">
		<path class="st3" d="M265.9,713.6L265.9,713.6c0-4.8,3.6-8.7,8.7-8.7c3.1,0,5,1.1,6.6,2.6l-1.9,2.2c-1.3-1.2-2.8-2.1-4.7-2.1
			c-3.2,0-5.5,2.6-5.5,5.9v0c0,3.3,2.3,6,5.5,6c2.1,0,3.4-0.8,4.8-2.2l1.9,1.9c-1.8,1.8-3.7,3-6.8,3
			C269.6,722.2,265.9,718.4,265.9,713.6z"/>
		<path class="st3" d="M283.1,715.7L283.1,715.7c0-3.7,2.9-6.7,6.8-6.7c3.9,0,6.7,3,6.7,6.6v0c0,3.6-2.9,6.6-6.8,6.6
			C286,722.2,283.1,719.3,283.1,715.7z M293.7,715.7L293.7,715.7c0-2.3-1.6-4.1-3.9-4.1c-2.3,0-3.8,1.8-3.8,4v0
			c0,2.2,1.6,4.1,3.9,4.1C292.2,719.7,293.7,717.9,293.7,715.7z"/>
		<path class="st3" d="M299.6,709.3h2.9v1.9c0.8-1.1,1.9-2.2,3.9-2.2c1.8,0,3.1,0.9,3.8,2.2c1-1.3,2.4-2.2,4.3-2.2
			c2.8,0,4.4,1.8,4.4,4.8v8.1H316v-7.2c0-2-0.9-3.1-2.6-3.1c-1.6,0-2.7,1.1-2.7,3.1v7.2h-2.9v-7.2c0-2-1-3.1-2.6-3.1
			c-1.6,0-2.7,1.2-2.7,3.1v7.2h-2.9V709.3z"/>
		<path class="st3" d="M322.4,709.3h2.9v2.1c0.9-1.3,2.3-2.4,4.3-2.4c3,0,5.9,2.4,5.9,6.6v0c0,4.2-2.9,6.6-5.9,6.6
			c-2.1,0-3.4-1.1-4.3-2.2v5.8h-2.9V709.3z M332.5,715.6L332.5,715.6c0-2.5-1.7-4.1-3.6-4.1s-3.7,1.6-3.7,4.1v0
			c0,2.4,1.7,4.1,3.7,4.1C330.9,719.7,332.5,718.1,332.5,715.6z"/>
		<path class="st3" d="M338.3,717.3v-8.1h2.9v7.2c0,2,1,3.1,2.7,3.1c1.7,0,2.9-1.2,2.9-3.1v-7.2h2.9v12.7h-2.9v-2
			c-0.8,1.2-2,2.2-4,2.2C340,722.2,338.3,720.3,338.3,717.3z"/>
		<path class="st3" d="M354,718.4v-6.7h-1.6v-2.5h1.6v-3.5h2.9v3.5h3.4v2.5h-3.4v6.2c0,1.1,0.6,1.6,1.6,1.6c0.6,0,1.2-0.1,1.8-0.4
			v2.4c-0.7,0.4-1.5,0.6-2.6,0.6C355.5,722.1,354,721.2,354,718.4z"/>
		<path class="st3" d="M362.2,715.6L362.2,715.6c0-3.7,2.6-6.6,6.2-6.6c4,0,6.1,3.2,6.1,6.8c0,0.3,0,0.5,0,0.8h-9.3
			c0.3,2.1,1.8,3.2,3.6,3.2c1.4,0,2.4-0.5,3.4-1.5l1.7,1.5c-1.2,1.4-2.9,2.4-5.2,2.4C365,722.2,362.2,719.6,362.2,715.6z
			 M371.6,714.7c-0.2-1.9-1.3-3.3-3.2-3.3c-1.8,0-3,1.4-3.3,3.3H371.6z"/>
	</g>
</g>
<g>
	<g>
		<g>
			<g>
				<path class="st4" d="M554.1,308.9l1.3-3.1c0.4-0.9,1.2-1.4,2-1.4h50c0.8,0,1.6,0.6,2,1.4l1.3,3.1H554.1z"/>
				<path class="st5" d="M609.3,323.3h-53.6c-2.2,0-4-1.8-4-4v-9.1c0-2.2,1.8-4,4-4h53.6c2.2,0,4,1.8,4,4v9.1
					C613.3,321.5,611.5,323.3,609.3,323.3z"/>
				<path class="st5" d="M609.3,343.9h-53.6c-2.2,0-4-1.8-4-4v-9.1c0-2.2,1.8-4,4-4h53.6c2.2,0,4,1.8,4,4v9.1
					C613.3,342.1,611.5,343.9,609.3,343.9z"/>
				<path class="st5" d="M609.3,364.8h-53.6c-2.2,0-4-1.8-4-4v-9.1c0-2.2,1.8-4,4-4h53.6c2.2,0,4,1.8,4,4v9.1
					C613.3,363,611.5,364.8,609.3,364.8z"/>
				<rect x="554.1" y="322.6" class="st4" width="56.6" height="4.6"/>
				<rect x="554.1" y="343.6" class="st4" width="56.6" height="4.6"/>
				<path class="st4" d="M554.1,364l1.3,3.1c0.4,0.9,1.2,1.4,2,1.4h50c0.8,0,1.6-0.6,2-1.4l1.3-3.1H554.1z"/>
			</g>
			<g>
				<path class="st4" d="M554.1,388.4l1.3-3.1c0.4-0.9,1.2-1.4,2-1.4h50c0.8,0,1.6,0.6,2,1.4l1.3,3.1H554.1z"/>
				<path class="st5" d="M609.3,402.8h-53.6c-2.2,0-4-1.8-4-4v-9.1c0-2.2,1.8-4,4-4h53.6c2.2,0,4,1.8,4,4v9.1
					C613.3,401,611.5,402.8,609.3,402.8z"/>
				<path class="st5" d="M609.3,423.4h-53.6c-2.2,0-4-1.8-4-4v-9.1c0-2.2,1.8-4,4-4h53.6c2.2,0,4,1.8,4,4v9.1
					C613.3,421.6,611.5,423.4,609.3,423.4z"/>
				<path class="st5" d="M609.3,444.2h-53.6c-2.2,0-4-1.8-4-4v-9.1c0-2.2,1.8-4,4-4h53.6c2.2,0,4,1.8,4,4v9.1
					C613.3,442.4,611.5,444.2,609.3,444.2z"/>
				<rect x="554.1" y="402" class="st4" width="56.6" height="4.6"/>
				<rect x="554.1" y="423" class="st4" width="56.6" height="4.6"/>
				<path class="st4" d="M554.1,443.4l1.3,3.1c0.4,0.9,1.2,1.4,2,1.4h50c0.8,0,1.6-0.6,2-1.4l1.3-3.1H554.1z"/>
			</g>
			<g>
				<path class="st4" d="M554.1,467.8l1.3-3.1c0.4-0.9,1.2-1.4,2-1.4h50c0.8,0,1.6,0.6,2,1.4l1.3,3.1H554.1z"/>
				<path class="st5" d="M609.2,482.2h-53.6c-2.2,0-4-1.8-4-4v-9.1c0-2.2,1.8-4,4-4h53.6c2.2,0,4,1.8,4,4v9.1
					C613.2,480.4,611.4,482.2,609.2,482.2z"/>
				<path class="st5" d="M609.2,502.8h-53.6c-2.2,0-4-1.8-4-4v-9.1c0-2.2,1.8-4,4-4h53.6c2.2,0,4,1.8,4,4v9.1
					C613.2,501,611.4,502.8,609.2,502.8z"/>
				<path class="st5" d="M609.2,523.6h-53.6c-2.2,0-4-1.8-4-4v-9.1c0-2.2,1.8-4,4-4h53.6c2.2,0,4,1.8,4,4v9.1
					C613.2,521.8,611.4,523.6,609.2,523.6z"/>
				<rect x="554.1" y="481.5" class="st4" width="56.6" height="4.6"/>
				<rect x="554.1" y="502.5" class="st4" width="56.6" height="4.6"/>
				<path class="st4" d="M554.1,522.9l1.3,3.1c0.4,0.9,1.2,1.4,2,1.4h50c0.8,0,1.6-0.6,2-1.4l1.3-3.1H554.1z"/>
			</g>
			
				<linearGradient id="SVGID_1_" gradientUnits="userSpaceOnUse" x1="583.4" y1="271" x2="583.4" y2="491.7" gradientTransform="matrix(1 0 0 -1 0 796.2)">
				<stop  offset="0" style="stop-color:#486378;stop-opacity:0"/>
				<stop  offset="0.1281" style="stop-color:#486378"/>
				<stop  offset="0.8818" style="stop-color:#486378"/>
				<stop  offset="1" style="stop-color:#486378;stop-opacity:0"/>
			</linearGradient>
			<rect x="564" y="304.5" class="st6" width="38.8" height="220.7"/>
			<g class="st2">
				<path class="st3" d="M575.5,476.6v-3.2l12.9-5l-12.9-5v-3.2l16.9,6.9v2.6L575.5,476.6z"/>
				<path class="st3" d="M574.9,458.1V455h2.8v3.1H574.9z M579.6,458v-2.9h12.7v2.9H579.6z"/>
				<path class="st3" d="M579.6,451.3v-2.9h2.9c-1.9-0.8-3.2-2.2-3.1-4.5h3.1v0.2c0,2.5,1.7,4.3,5,4.3h4.8v2.9H579.6z"/>
				<path class="st3" d="M588.8,440.9h-6.7v1.6h-2.5v-1.6h-3.5V438h3.5v-3.4h2.5v3.4h6.2c1.1,0,1.6-0.6,1.6-1.5
					c0-0.6-0.1-1.2-0.4-1.8h2.4c0.4,0.7,0.6,1.5,0.6,2.6C592.5,439.4,591.5,440.9,588.8,440.9z"/>
				<path class="st3" d="M587.7,431.9h-8.1V429h7.2c2,0,3.1-1,3.1-2.7c0-1.7-1.2-2.8-3.1-2.8h-7.2v-2.9h12.7v2.9h-2
					c1.2,0.8,2.2,2,2.2,3.9C592.5,430.2,590.6,431.9,587.7,431.9z"/>
				<path class="st3" d="M588.6,417.8L588.6,417.8c-2.8,0-4.1-2.1-4.1-5.2c0-1.4,0.2-2.4,0.5-3.4h-0.3c-1.8,0-2.8,1.1-2.8,3.1
					c0,1.4,0.3,2.5,0.8,3.6l-2.3,0.8c-0.6-1.4-1-2.7-1-4.7c0-1.9,0.5-3.3,1.4-4.2c0.9-0.9,2.3-1.4,3.9-1.4h7.5v2.8h-1.6
					c1,0.9,1.8,2.2,1.8,4.1C592.5,415.7,591.2,417.8,588.6,417.8z M587.7,409.2h-0.9c-0.3,0.7-0.5,1.7-0.5,2.9c0,1.9,0.8,3,2.1,3h0
					c1.2,0,1.9-1.1,1.9-2.5C590.4,410.6,589.3,409.2,587.7,409.2z"/>
				<path class="st3" d="M574.7,402.8v-2.9h17.5v2.9H574.7z"/>
				<path class="st3" d="M589.8,389.8l-2.1-1.8c1.4-1.6,2.2-3.2,2.2-5.3c0-1.8-0.9-3-2.1-3h0c-1.2,0-1.8,0.7-2.6,3.8
					c-0.9,3.5-1.9,5.5-5,5.5h0c-2.9,0-4.9-2.4-4.9-5.7c0-2.4,0.7-4.4,2.1-6l2.2,1.6c-1.1,1.5-1.7,3-1.7,4.5c0,1.7,0.9,2.7,2,2.7h0
					c1.3,0,1.9-0.8,2.6-4c0.9-3.5,2.1-5.3,4.9-5.3h0c3.1,0,5,2.5,5,6C592.5,385.4,591.6,387.8,589.8,389.8z"/>
				<path class="st3" d="M575.3,367.9v-2.7l16.9-7.3v3.1l-4.1,1.7v7.9l4.1,1.7v3L575.3,367.9z M585.6,363.7l-6.7,2.9l6.7,2.9V363.7z
					"/>
				<path class="st3" d="M575.5,355v-2.7l11.6-8.9h-11.6v-2.9h16.8v2.5l-12,9.2h12v2.9H575.5z"/>
			</g>
		</g>
		<g>
			<g>
				<g>
					<rect x="360.2" y="255.2" class="st7" width="175.2" height="39.7"/>
				</g>
				<rect x="364.3" y="260.6" class="st8" width="166.3" height="28.9"/>
				<g>
					<g>
						<ellipse class="st9" cx="447.8" cy="275" rx="5.6" ry="5.6"/>
						<ellipse class="st10" cx="447.8" cy="275" rx="4" ry="4.1"/>
					</g>
					<g>
						<rect x="376.1" y="263.3" class="st11" width="56.9" height="11.1"/>
						<rect x="376.1" y="275.8" class="st11" width="56.9" height="11.1"/>
					</g>
					<g>
						<rect x="462.5" y="263.3" class="st11" width="56.9" height="11.1"/>
						<rect x="462.5" y="275.8" class="st11" width="56.9" height="11.1"/>
					</g>
				</g>
				<g>
					<rect x="365.4" y="273.1" class="st9" width="9.2" height="3.8"/>
					<rect x="365.9" y="273.6" class="st10" width="8.1" height="2.9"/>
				</g>
				<ellipse class="st12" cx="525.1" cy="275" rx="2.1" ry="2.1"/>
			</g>
			<g>
				<g>
					<rect x="360.2" y="294.9" class="st7" width="175.2" height="39.7"/>
				</g>
				<rect x="364.3" y="300.3" class="st8" width="166.3" height="28.9"/>
				<g>
					<g>
						<ellipse class="st9" cx="447.8" cy="314.7" rx="5.6" ry="5.6"/>
						<ellipse class="st10" cx="447.8" cy="314.7" rx="4" ry="4.1"/>
					</g>
					<g>
						<rect x="376.1" y="302.9" class="st11" width="56.9" height="11.1"/>
						<rect x="376.1" y="315.5" class="st11" width="56.9" height="11.1"/>
					</g>
					<g>
						<rect x="462.5" y="302.9" class="st11" width="56.9" height="11.1"/>
						<rect x="462.5" y="315.5" class="st11" width="56.9" height="11.1"/>
					</g>
				</g>
				<g>
					<rect x="365.4" y="312.8" class="st9" width="9.2" height="3.8"/>
					<rect x="365.9" y="313.2" class="st10" width="8.1" height="2.9"/>
				</g>
				<ellipse class="st12" cx="525.1" cy="314.7" rx="2.1" ry="2.1"/>
			</g>
			<g>
				<g>
					<rect x="360.2" y="334.5" class="st7" width="175.2" height="39.7"/>
				</g>
				<rect x="364.3" y="339.9" class="st8" width="166.3" height="28.9"/>
				<g>
					<g>
						<ellipse class="st9" cx="447.8" cy="354.4" rx="5.6" ry="5.6"/>
						<ellipse class="st10" cx="447.8" cy="354.4" rx="4" ry="4.1"/>
					</g>
					<g>
						<rect x="376.1" y="342.6" class="st11" width="56.9" height="11.1"/>
						<rect x="376.1" y="355.2" class="st11" width="56.9" height="11.1"/>
					</g>
					<g>
						<rect x="462.5" y="342.6" class="st11" width="56.9" height="11.1"/>
						<rect x="462.5" y="355.2" class="st11" width="56.9" height="11.1"/>
					</g>
				</g>
				<g>
					<rect x="365.4" y="352.5" class="st9" width="9.2" height="3.8"/>
					<rect x="365.9" y="352.9" class="st10" width="8.1" height="2.9"/>
				</g>
				<ellipse class="st12" cx="525.1" cy="354.4" rx="2.1" ry="2.1"/>
			</g>
			<g>
				<g>
					<rect x="360.2" y="374.2" class="st7" width="175.2" height="39.7"/>
				</g>
				<rect x="364.3" y="379.6" class="st8" width="166.3" height="28.9"/>
				<g>
					<g>
						<ellipse class="st9" cx="447.8" cy="394.1" rx="5.6" ry="5.6"/>
						<ellipse class="st10" cx="447.8" cy="394.1" rx="4" ry="4.1"/>
					</g>
					<g>
						<rect x="376.1" y="382.3" class="st11" width="56.9" height="11.1"/>
						<rect x="376.1" y="394.9" class="st11" width="56.9" height="11.1"/>
					</g>
					<g>
						<rect x="462.5" y="382.3" class="st11" width="56.9" height="11.1"/>
						<rect x="462.5" y="394.9" class="st11" width="56.9" height="11.1"/>
					</g>
				</g>
				<g>
					<rect x="365.4" y="392.2" class="st9" width="9.2" height="3.8"/>
					<rect x="365.9" y="392.6" class="st10" width="8.1" height="2.9"/>
				</g>
				<ellipse class="st12" cx="525.1" cy="394.1" rx="2.1" ry="2.1"/>
			</g>
			<g>
				<g>
					<rect x="360.2" y="414.3" class="st7" width="175.2" height="39.7"/>
				</g>
				<rect x="364.3" y="419.7" class="st8" width="166.3" height="28.9"/>
				<g>
					<g>
						<ellipse class="st9" cx="447.8" cy="434.1" rx="5.6" ry="5.6"/>
						<ellipse class="st10" cx="447.8" cy="434.1" rx="4" ry="4.1"/>
					</g>
					<g>
						<rect x="376.1" y="422.4" class="st11" width="56.9" height="11.1"/>
						<rect x="376.1" y="435" class="st11" width="56.9" height="11.1"/>
					</g>
					<g>
						<rect x="462.5" y="422.4" class="st11" width="56.9" height="11.1"/>
						<rect x="462.5" y="435" class="st11" width="56.9" height="11.1"/>
					</g>
				</g>
				<g>
					<rect x="365.4" y="432.3" class="st9" width="9.2" height="3.8"/>
					<rect x="365.9" y="432.7" class="st10" width="8.1" height="2.9"/>
				</g>
				<ellipse class="st12" cx="525.1" cy="434.1" rx="2.1" ry="2.1"/>
			</g>
			<g>
				<g>
					<rect x="360.2" y="454" class="st7" width="175.2" height="39.7"/>
				</g>
				<rect x="364.3" y="459.4" class="st8" width="166.3" height="28.9"/>
				<g>
					<g>
						<ellipse class="st9" cx="447.8" cy="473.8" rx="5.6" ry="5.6"/>
						<ellipse class="st10" cx="447.8" cy="473.8" rx="4" ry="4.1"/>
					</g>
					<g>
						<rect x="376.1" y="462.1" class="st11" width="56.9" height="11.1"/>
						<rect x="376.1" y="474.6" class="st11" width="56.9" height="11.1"/>
					</g>
					<g>
						<rect x="462.5" y="462.1" class="st11" width="56.9" height="11.1"/>
						<rect x="462.5" y="474.6" class="st11" width="56.9" height="11.1"/>
					</g>
				</g>
				<g>
					<rect x="365.4" y="471.9" class="st9" width="9.2" height="3.8"/>
					<rect x="365.9" y="472.4" class="st10" width="8.1" height="2.9"/>
				</g>
				<ellipse class="st12" cx="525.1" cy="473.8" rx="2.1" ry="2.1"/>
			</g>
			<g>
				<g>
					<rect x="360.2" y="493.7" class="st7" width="175.2" height="39.7"/>
				</g>
				<rect x="364.3" y="499.1" class="st8" width="166.3" height="28.9"/>
				<g>
					<g>
						<ellipse class="st9" cx="447.8" cy="513.5" rx="5.6" ry="5.6"/>
						<ellipse class="st10" cx="447.8" cy="513.5" rx="4" ry="4.1"/>
					</g>
					<g>
						<rect x="376.1" y="501.7" class="st11" width="56.9" height="11.1"/>
						<rect x="376.1" y="514.3" class="st11" width="56.9" height="11.1"/>
					</g>
					<g>
						<rect x="462.5" y="501.7" class="st11" width="56.9" height="11.1"/>
						<rect x="462.5" y="514.3" class="st11" width="56.9" height="11.1"/>
					</g>
				</g>
				<g>
					<rect x="365.4" y="511.6" class="st9" width="9.2" height="3.8"/>
					<rect x="365.9" y="512" class="st10" width="8.1" height="2.9"/>
				</g>
				<ellipse class="st12" cx="525.1" cy="513.5" rx="2.1" ry="2.1"/>
			</g>
			<g>
				<g>
					<rect x="360.2" y="533.3" class="st7" width="175.2" height="39.7"/>
				</g>
				<rect x="364.3" y="538.7" class="st8" width="166.3" height="28.9"/>
				<g>
					<g>
						<ellipse class="st9" cx="447.8" cy="553.2" rx="5.6" ry="5.6"/>
						<ellipse class="st10" cx="447.8" cy="553.2" rx="4" ry="4.1"/>
					</g>
					<g>
						<rect x="376.1" y="541.4" class="st11" width="56.9" height="11.1"/>
						<rect x="376.1" y="554" class="st11" width="56.9" height="11.1"/>
					</g>
					<g>
						<rect x="462.5" y="541.4" class="st11" width="56.9" height="11.1"/>
						<rect x="462.5" y="554" class="st11" width="56.9" height="11.1"/>
					</g>
				</g>
				<g>
					<rect x="365.4" y="551.3" class="st9" width="9.2" height="3.8"/>
					<rect x="365.9" y="551.7" class="st10" width="8.1" height="2.9"/>
				</g>
				<ellipse class="st12" cx="525.1" cy="553.2" rx="2.1" ry="2.1"/>
			</g>
		</g>
		<g>
			<g>
				<path class="st4" d="M232.1,308.9l1.3-3.1c0.4-0.9,1.2-1.4,2-1.4h50c0.8,0,1.6,0.6,2,1.4l1.3,3.1H232.1z"/>
				<path class="st5" d="M287.3,323.3h-53.6c-2.2,0-4-1.8-4-4v-9.1c0-2.2,1.8-4,4-4h53.6c2.2,0,4,1.8,4,4v9.1
					C291.3,321.5,289.5,323.3,287.3,323.3z"/>
				<path class="st5" d="M287.3,343.9h-53.6c-2.2,0-4-1.8-4-4v-9.1c0-2.2,1.8-4,4-4h53.6c2.2,0,4,1.8,4,4v9.1
					C291.3,342.1,289.5,343.9,287.3,343.9z"/>
				<path class="st5" d="M287.3,364.8h-53.6c-2.2,0-4-1.8-4-4v-9.1c0-2.2,1.8-4,4-4h53.6c2.2,0,4,1.8,4,4v9.1
					C291.3,363,289.5,364.8,287.3,364.8z"/>
				<rect x="232.1" y="322.6" class="st4" width="56.6" height="4.6"/>
				<rect x="232.1" y="343.6" class="st4" width="56.6" height="4.6"/>
				<path class="st4" d="M232.1,364l1.3,3.1c0.4,0.9,1.2,1.4,2,1.4h50c0.8,0,1.6-0.6,2-1.4l1.3-3.1H232.1z"/>
			</g>
			<g>
				<path class="st4" d="M232.1,388.4l1.3-3.1c0.4-0.9,1.2-1.4,2-1.4h50c0.8,0,1.6,0.6,2,1.4l1.3,3.1H232.1z"/>
				<path class="st5" d="M287.3,402.8h-53.6c-2.2,0-4-1.8-4-4v-9.1c0-2.2,1.8-4,4-4h53.6c2.2,0,4,1.8,4,4v9.1
					C291.3,401,289.5,402.8,287.3,402.8z"/>
				<path class="st5" d="M287.3,423.4h-53.6c-2.2,0-4-1.8-4-4v-9.1c0-2.2,1.8-4,4-4h53.6c2.2,0,4,1.8,4,4v9.1
					C291.3,421.6,289.5,423.4,287.3,423.4z"/>
				<path class="st5" d="M287.3,444.2h-53.6c-2.2,0-4-1.8-4-4v-9.1c0-2.2,1.8-4,4-4h53.6c2.2,0,4,1.8,4,4v9.1
					C291.3,442.4,289.5,444.2,287.3,444.2z"/>
				<rect x="232.1" y="402" class="st4" width="56.6" height="4.6"/>
				<rect x="232.1" y="423" class="st4" width="56.6" height="4.6"/>
				<path class="st4" d="M232.1,443.4l1.3,3.1c0.4,0.9,1.2,1.4,2,1.4h50c0.8,0,1.6-0.6,2-1.4l1.3-3.1H232.1z"/>
			</g>
			<g>
				<path class="st4" d="M232.1,467.8l1.3-3.1c0.4-0.9,1.2-1.4,2-1.4h50c0.8,0,1.6,0.6,2,1.4l1.3,3.1H232.1z"/>
				<path class="st5" d="M287.2,482.2h-53.6c-2.2,0-4-1.8-4-4v-9.1c0-2.2,1.8-4,4-4h53.6c2.2,0,4,1.8,4,4v9.1
					C291.2,480.4,289.4,482.2,287.2,482.2z"/>
				<path class="st5" d="M287.2,502.8h-53.6c-2.2,0-4-1.8-4-4v-9.1c0-2.2,1.8-4,4-4h53.6c2.2,0,4,1.8,4,4v9.1
					C291.2,501,289.4,502.8,287.2,502.8z"/>
				<path class="st5" d="M287.2,523.6h-53.6c-2.2,0-4-1.8-4-4v-9.1c0-2.2,1.8-4,4-4h53.6c2.2,0,4,1.8,4,4v9.1
					C291.2,521.8,289.4,523.6,287.2,523.6z"/>
				<rect x="232.1" y="481.5" class="st4" width="56.6" height="4.6"/>
				<rect x="232.1" y="502.5" class="st4" width="56.6" height="4.6"/>
				<path class="st4" d="M232.1,522.9l1.3,3.1c0.4,0.9,1.2,1.4,2,1.4h50c0.8,0,1.6-0.6,2-1.4l1.3-3.1H232.1z"/>
			</g>
			
				<linearGradient id="SVGID_2_" gradientUnits="userSpaceOnUse" x1="261.4" y1="271" x2="261.4" y2="491.7" gradientTransform="matrix(1 0 0 -1 0 796.2)">
				<stop  offset="0" style="stop-color:#486378;stop-opacity:0"/>
				<stop  offset="0.1281" style="stop-color:#486378"/>
				<stop  offset="0.8818" style="stop-color:#486378"/>
				<stop  offset="1" style="stop-color:#486378;stop-opacity:0"/>
			</linearGradient>
			<rect x="242" y="304.5" class="st13" width="38.8" height="220.7"/>
			<g class="st2">
				<path class="st3" d="M253.5,476.6v-3.2l12.9-5l-12.9-5v-3.2l16.9,6.9v2.6L253.5,476.6z"/>
				<path class="st3" d="M252.9,458.1V455h2.8v3.1H252.9z M257.6,458v-2.9h12.7v2.9H257.6z"/>
				<path class="st3" d="M257.6,451.3v-2.9h2.9c-1.9-0.8-3.2-2.2-3.1-4.5h3.1v0.2c0,2.5,1.7,4.3,5,4.3h4.8v2.9H257.6z"/>
				<path class="st3" d="M266.8,440.9h-6.7v1.6h-2.5v-1.6h-3.5V438h3.5v-3.4h2.5v3.4h6.2c1.1,0,1.6-0.6,1.6-1.5
					c0-0.6-0.1-1.2-0.4-1.8h2.4c0.4,0.7,0.6,1.5,0.6,2.6C270.5,439.4,269.5,440.9,266.8,440.9z"/>
				<path class="st3" d="M265.7,431.9h-8.1V429h7.2c2,0,3.1-1,3.1-2.7c0-1.7-1.2-2.8-3.1-2.8h-7.2v-2.9h12.7v2.9h-2
					c1.2,0.8,2.2,2,2.2,3.9C270.5,430.2,268.6,431.9,265.7,431.9z"/>
				<path class="st3" d="M266.6,417.8L266.6,417.8c-2.8,0-4.1-2.1-4.1-5.2c0-1.4,0.2-2.4,0.5-3.4h-0.3c-1.8,0-2.8,1.1-2.8,3.1
					c0,1.4,0.3,2.5,0.8,3.6l-2.3,0.8c-0.6-1.4-1-2.7-1-4.7c0-1.9,0.5-3.3,1.4-4.2c0.9-0.9,2.3-1.4,3.9-1.4h7.5v2.8h-1.6
					c1,0.9,1.8,2.2,1.8,4.1C270.5,415.7,269.2,417.8,266.6,417.8z M265.7,409.2h-0.9c-0.3,0.7-0.5,1.7-0.5,2.9c0,1.9,0.8,3,2.1,3h0
					c1.2,0,1.9-1.1,1.9-2.5C268.4,410.6,267.3,409.2,265.7,409.2z"/>
				<path class="st3" d="M252.7,402.8v-2.9h17.5v2.9H252.7z"/>
				<path class="st3" d="M267.8,389.8l-2.1-1.8c1.4-1.6,2.2-3.2,2.2-5.3c0-1.8-0.9-3-2.1-3h0c-1.2,0-1.8,0.7-2.6,3.8
					c-0.9,3.5-1.9,5.5-5,5.5h0c-2.9,0-4.9-2.4-4.9-5.7c0-2.4,0.7-4.4,2.1-6l2.2,1.6c-1.1,1.5-1.7,3-1.7,4.5c0,1.7,0.9,2.7,2,2.7h0
					c1.3,0,1.9-0.8,2.6-4c0.9-3.5,2.1-5.3,4.9-5.3h0c3.1,0,5,2.5,5,6C270.5,385.4,269.6,387.8,267.8,389.8z"/>
				<path class="st3" d="M253.3,367.9v-2.7l16.9-7.3v3.1l-4.1,1.7v7.9l4.1,1.7v3L253.3,367.9z M263.6,363.7l-6.7,2.9l6.7,2.9V363.7z
					"/>
				<path class="st3" d="M253.5,355v-2.7l11.6-8.9h-11.6v-2.9h16.8v2.5l-12,9.2h12v2.9H253.5z"/>
			</g>
		</g>
		<g>
			<g>
				<g>
					<rect x="38.2" y="255.2" class="st7" width="175.2" height="39.7"/>
				</g>
				<rect x="42.3" y="260.6" class="st8" width="166.3" height="28.9"/>
				<g>
					<g>
						<ellipse class="st9" cx="125.8" cy="275" rx="5.6" ry="5.6"/>
						<ellipse class="st10" cx="125.8" cy="275" rx="4" ry="4.1"/>
					</g>
					<g>
						<rect x="54.1" y="263.3" class="st11" width="56.9" height="11.1"/>
						<rect x="54.1" y="275.8" class="st11" width="56.9" height="11.1"/>
					</g>
					<g>
						<rect x="140.5" y="263.3" class="st11" width="56.9" height="11.1"/>
						<rect x="140.5" y="275.8" class="st11" width="56.9" height="11.1"/>
					</g>
				</g>
				<g>
					<rect x="43.4" y="273.1" class="st9" width="9.2" height="3.8"/>
					<rect x="43.9" y="273.6" class="st10" width="8.1" height="2.9"/>
				</g>
				<ellipse class="st12" cx="203.1" cy="275" rx="2.1" ry="2.1"/>
			</g>
			<g>
				<g>
					<rect x="38.2" y="294.9" class="st7" width="175.2" height="39.7"/>
				</g>
				<rect x="42.3" y="300.3" class="st8" width="166.3" height="28.9"/>
				<g>
					<g>
						<ellipse class="st9" cx="125.8" cy="314.7" rx="5.6" ry="5.6"/>
						<ellipse class="st10" cx="125.8" cy="314.7" rx="4" ry="4.1"/>
					</g>
					<g>
						<rect x="54.1" y="302.9" class="st11" width="56.9" height="11.1"/>
						<rect x="54.1" y="315.5" class="st11" width="56.9" height="11.1"/>
					</g>
					<g>
						<rect x="140.5" y="302.9" class="st11" width="56.9" height="11.1"/>
						<rect x="140.5" y="315.5" class="st11" width="56.9" height="11.1"/>
					</g>
				</g>
				<g>
					<rect x="43.4" y="312.8" class="st9" width="9.2" height="3.8"/>
					<rect x="43.9" y="313.2" class="st10" width="8.1" height="2.9"/>
				</g>
				<ellipse class="st12" cx="203.1" cy="314.7" rx="2.1" ry="2.1"/>
			</g>
			<g>
				<g>
					<rect x="38.2" y="334.5" class="st7" width="175.2" height="39.7"/>
				</g>
				<rect x="42.3" y="339.9" class="st8" width="166.3" height="28.9"/>
				<g>
					<g>
						<ellipse class="st9" cx="125.8" cy="354.4" rx="5.6" ry="5.6"/>
						<ellipse class="st10" cx="125.8" cy="354.4" rx="4" ry="4.1"/>
					</g>
					<g>
						<rect x="54.1" y="342.6" class="st11" width="56.9" height="11.1"/>
						<rect x="54.1" y="355.2" class="st11" width="56.9" height="11.1"/>
					</g>
					<g>
						<rect x="140.5" y="342.6" class="st11" width="56.9" height="11.1"/>
						<rect x="140.5" y="355.2" class="st11" width="56.9" height="11.1"/>
					</g>
				</g>
				<g>
					<rect x="43.4" y="352.5" class="st9" width="9.2" height="3.8"/>
					<rect x="43.9" y="352.9" class="st10" width="8.1" height="2.9"/>
				</g>
				<ellipse class="st12" cx="203.1" cy="354.4" rx="2.1" ry="2.1"/>
			</g>
			<g>
				<g>
					<rect x="38.2" y="374.2" class="st7" width="175.2" height="39.7"/>
				</g>
				<rect x="42.3" y="379.6" class="st8" width="166.3" height="28.9"/>
				<g>
					<g>
						<ellipse class="st9" cx="125.8" cy="394.1" rx="5.6" ry="5.6"/>
						<ellipse class="st10" cx="125.8" cy="394.1" rx="4" ry="4.1"/>
					</g>
					<g>
						<rect x="54.1" y="382.3" class="st11" width="56.9" height="11.1"/>
						<rect x="54.1" y="394.9" class="st11" width="56.9" height="11.1"/>
					</g>
					<g>
						<rect x="140.5" y="382.3" class="st11" width="56.9" height="11.1"/>
						<rect x="140.5" y="394.9" class="st11" width="56.9" height="11.1"/>
					</g>
				</g>
				<g>
					<rect x="43.4" y="392.2" class="st9" width="9.2" height="3.8"/>
					<rect x="43.9" y="392.6" class="st10" width="8.1" height="2.9"/>
				</g>
				<ellipse class="st12" cx="203.1" cy="394.1" rx="2.1" ry="2.1"/>
			</g>
			<g>
				<g>
					<rect x="38.2" y="414.3" class="st7" width="175.2" height="39.7"/>
				</g>
				<rect x="42.3" y="419.7" class="st8" width="166.3" height="28.9"/>
				<g>
					<g>
						<ellipse class="st9" cx="125.8" cy="434.1" rx="5.6" ry="5.6"/>
						<ellipse class="st10" cx="125.8" cy="434.1" rx="4" ry="4.1"/>
					</g>
					<g>
						<rect x="54.1" y="422.4" class="st11" width="56.9" height="11.1"/>
						<rect x="54.1" y="435" class="st11" width="56.9" height="11.1"/>
					</g>
					<g>
						<rect x="140.5" y="422.4" class="st11" width="56.9" height="11.1"/>
						<rect x="140.5" y="435" class="st11" width="56.9" height="11.1"/>
					</g>
				</g>
				<g>
					<rect x="43.4" y="432.3" class="st9" width="9.2" height="3.8"/>
					<rect x="43.9" y="432.7" class="st10" width="8.1" height="2.9"/>
				</g>
				<ellipse class="st12" cx="203.1" cy="434.1" rx="2.1" ry="2.1"/>
			</g>
			<g>
				<g>
					<rect x="38.2" y="454" class="st7" width="175.2" height="39.7"/>
				</g>
				<rect x="42.3" y="459.4" class="st8" width="166.3" height="28.9"/>
				<g>
					<g>
						<ellipse class="st9" cx="125.8" cy="473.8" rx="5.6" ry="5.6"/>
						<ellipse class="st10" cx="125.8" cy="473.8" rx="4" ry="4.1"/>
					</g>
					<g>
						<rect x="54.1" y="462.1" class="st11" width="56.9" height="11.1"/>
						<rect x="54.1" y="474.6" class="st11" width="56.9" height="11.1"/>
					</g>
					<g>
						<rect x="140.5" y="462.1" class="st11" width="56.9" height="11.1"/>
						<rect x="140.5" y="474.6" class="st11" width="56.9" height="11.1"/>
					</g>
				</g>
				<g>
					<rect x="43.4" y="471.9" class="st9" width="9.2" height="3.8"/>
					<rect x="43.9" y="472.4" class="st10" width="8.1" height="2.9"/>
				</g>
				<ellipse class="st12" cx="203.1" cy="473.8" rx="2.1" ry="2.1"/>
			</g>
			<g>
				<g>
					<rect x="38.2" y="493.7" class="st7" width="175.2" height="39.7"/>
				</g>
				<rect x="42.3" y="499.1" class="st8" width="166.3" height="28.9"/>
				<g>
					<g>
						<ellipse class="st9" cx="125.8" cy="513.5" rx="5.6" ry="5.6"/>
						<ellipse class="st10" cx="125.8" cy="513.5" rx="4" ry="4.1"/>
					</g>
					<g>
						<rect x="54.1" y="501.7" class="st11" width="56.9" height="11.1"/>
						<rect x="54.1" y="514.3" class="st11" width="56.9" height="11.1"/>
					</g>
					<g>
						<rect x="140.5" y="501.7" class="st11" width="56.9" height="11.1"/>
						<rect x="140.5" y="514.3" class="st11" width="56.9" height="11.1"/>
					</g>
				</g>
				<g>
					<rect x="43.4" y="511.6" class="st9" width="9.2" height="3.8"/>
					<rect x="43.9" y="512" class="st10" width="8.1" height="2.9"/>
				</g>
				<ellipse class="st12" cx="203.1" cy="513.5" rx="2.1" ry="2.1"/>
			</g>
			<g>
				<g>
					<rect x="38.2" y="533.3" class="st7" width="175.2" height="39.7"/>
				</g>
				<rect x="42.3" y="538.7" class="st8" width="166.3" height="28.9"/>
				<g>
					<g>
						<ellipse class="st9" cx="125.8" cy="553.2" rx="5.6" ry="5.6"/>
						<ellipse class="st10" cx="125.8" cy="553.2" rx="4" ry="4.1"/>
					</g>
					<g>
						<rect x="54.1" y="541.4" class="st11" width="56.9" height="11.1"/>
						<rect x="54.1" y="554" class="st11" width="56.9" height="11.1"/>
					</g>
					<g>
						<rect x="140.5" y="541.4" class="st11" width="56.9" height="11.1"/>
						<rect x="140.5" y="554" class="st11" width="56.9" height="11.1"/>
					</g>
				</g>
				<g>
					<rect x="43.4" y="551.3" class="st9" width="9.2" height="3.8"/>
					<rect x="43.9" y="551.7" class="st10" width="8.1" height="2.9"/>
				</g>
				<ellipse class="st12" cx="203.1" cy="553.2" rx="2.1" ry="2.1"/>
			</g>
		</g>
		<g>
			<g>
				<g>
					<g>
						<g>
							<g>
								<g>
									<rect x="71.3" y="96.9" class="st14" width="111.8" height="112.7"/>
									<g>
										<g>
											<g>
												<g>
													<path class="st9" d="M181.3,98.7v109.1H73.1V98.7H181.3 M184.9,95.1h-3.6H73.1h-3.6v3.6v109.1v3.6h3.6h108.3h3.6v-3.6
														V98.7v-3.6H184.9z"/>
												</g>
											</g>
										</g>
									</g>
								</g>
							</g>
						</g>
					</g>
				</g>
				<g class="st15">
					<polygon class="st16" points="72.9,135.3 72.9,117.1 91,117.1 					"/>
					<polygon class="st17" points="91,117.1 91,98.9 72.9,98.9 					"/>
					<polygon class="st18" points="163.1,117.1 163.1,135.2 145,135.2 					"/>
					<polygon class="st19" points="145,98.9 163.1,98.9 163.1,117.1 					"/>
					<polygon class="st20" points="145,98.9 145,117.1 163.1,117.1 					"/>
					<polygon class="st21" points="145.1,98.9 145.1,117.1 127,117.1 					"/>
					<polygon class="st22" points="145,135.3 127,135.3 127,117.1 					"/>
					<polygon class="st23" points="109,135.3 127,135.3 127,117.1 					"/>
					<polygon class="st24" points="145.1,135.2 145.1,117.1 163.1,117.1 					"/>
					<polygon class="st25" points="181.1,98.9 163.1,98.9 163.1,117.1 					"/>
					<polygon class="st26" points="181.1,98.9 181.1,117.1 163.1,117.1 					"/>
					<polygon class="st27" points="181.1,135.2 181.1,117.1 163.1,117.1 					"/>
					<polygon class="st19" points="163.1,117.1 163.1,135.3 181.1,135.3 					"/>
					<polygon class="st28" points="109,98.9 127,98.9 127,117.1 					"/>
					<polygon class="st29" points="109,135.3 109,117.1 90.9,117.1 					"/>
					<polygon class="st30" points="145,135.2 127,135.2 127,153.4 					"/>
					<polygon class="st31" points="145.1,135.2 145.1,153.4 163.1,153.4 					"/>
					<polygon class="st32" points="163.1,153.4 163.1,135.2 145,135.2 					"/>
					<polygon class="st33" points="181.1,135.2 181.1,153.4 163.1,153.4 					"/>
					<polygon class="st34" points="163.1,153.4 163.1,135.2 181.1,135.2 					"/>
					<polygon class="st35" points="109,135.2 90.9,135.2 90.9,153.4 					"/>
					<polygon class="st36" points="109,135.2 109,153.4 127,153.4 					"/>
				</g>
				<g class="st15">
					<polygon class="st16" points="72.9,189.8 72.9,171.6 90.9,171.6 					"/>
					<polygon class="st17" points="90.9,171.6 90.9,153.4 72.9,153.4 					"/>
					<polygon class="st18" points="163,171.6 163,189.8 145,189.8 					"/>
					<polygon class="st19" points="145,153.4 163,153.4 163,171.6 					"/>
					<polygon class="st20" points="145,153.4 145,171.6 163,171.6 					"/>
					<polygon class="st21" points="145,153.4 145,171.6 127,171.6 					"/>
					<polygon class="st22" points="145,189.8 127,189.8 127,171.6 					"/>
					<polygon class="st23" points="108.9,189.8 127,189.8 127,171.6 					"/>
					<polygon class="st24" points="145,189.8 145,171.6 163.1,171.6 					"/>
					<polygon class="st25" points="181.1,153.4 163,153.4 163,171.6 					"/>
					<polygon class="st26" points="181.1,153.4 181.1,171.6 163,171.6 					"/>
					<polygon class="st27" points="181.1,189.8 181.1,171.6 163,171.6 					"/>
					<polygon class="st19" points="163,171.6 163,189.8 181.1,189.8 					"/>
					<polygon class="st28" points="108.9,153.4 127,153.4 127,171.6 					"/>
					<polygon class="st29" points="108.9,189.8 108.9,171.6 90.9,171.6 					"/>
					<polygon class="st30" points="145,189.8 127,189.8 127,207.9 					"/>
					<polygon class="st31" points="145,189.8 145,208 163.1,208 					"/>
					<polygon class="st32" points="163,208 163,189.8 145,189.8 					"/>
					<polygon class="st33" points="181.1,189.8 181.1,208 163,208 					"/>
					<polygon class="st34" points="163,208 163,189.8 181.1,189.8 					"/>
					<polygon class="st35" points="108.9,189.8 90.9,189.8 90.9,207.9 					"/>
					<polygon class="st36" points="108.9,189.8 108.9,208 127,208 					"/>
				</g>
			</g>
			<g>
				<polygon class="st37" points="163.9,115.5 154.3,108.5 154.3,112.7 90.5,112.7 90.5,118.1 154.3,118.1 154.3,122.1 				"/>
				<polygon class="st37" points="90.5,140.8 100.1,133.8 100.1,138 163.9,138 163.9,143.4 100.1,143.4 100.1,147.4 				"/>
				<polygon class="st37" points="163.9,166.1 154.3,159.1 154.3,163.3 90.5,163.3 90.5,168.7 154.3,168.7 154.3,172.7 				"/>
				<polygon class="st37" points="90.5,191.4 100.1,184.4 100.1,188.6 163.9,188.6 163.9,194 100.1,194 100.1,198 				"/>
			</g>
		</g>
		<g>
			<g>
				<g>
					<g>
						<g>
							<g>
								<g>
									<rect x="146.8" y="128" class="st14" width="111.8" height="112.7"/>
									<g>
										<g>
											<g>
												<g>
													<path class="st9" d="M256.9,129.8v109.1H148.6V129.8H256.9 M260.4,126.2h-3.6H148.6H145v3.6v109.1v3.6h3.6h108.3h3.6
														v-3.6V129.8v-3.6H260.4z"/>
												</g>
											</g>
										</g>
									</g>
								</g>
							</g>
						</g>
					</g>
				</g>
				<g class="st15">
					<polygon class="st16" points="148.5,166.4 148.5,148.2 166.5,148.2 					"/>
					<polygon class="st17" points="166.5,148.2 166.5,130 148.5,130 					"/>
					<polygon class="st18" points="238.6,148.2 238.6,166.4 220.6,166.4 					"/>
					<polygon class="st19" points="220.6,130 238.6,130 238.6,148.2 					"/>
					<polygon class="st20" points="220.6,130 220.6,148.2 238.6,148.2 					"/>
					<polygon class="st21" points="220.6,130 220.6,148.2 202.5,148.2 					"/>
					<polygon class="st22" points="220.6,166.4 202.5,166.4 202.5,148.2 					"/>
					<polygon class="st23" points="184.5,166.4 202.5,166.4 202.5,148.2 					"/>
					<polygon class="st24" points="220.6,166.4 220.6,148.2 238.6,148.2 					"/>
					<polygon class="st25" points="256.7,130 238.6,130 238.6,148.2 					"/>
					<polygon class="st26" points="256.7,130 256.7,148.2 238.6,148.2 					"/>
					<polygon class="st27" points="256.7,166.4 256.7,148.2 238.6,148.2 					"/>
					<polygon class="st19" points="238.6,148.2 238.6,166.4 256.7,166.4 					"/>
					<polygon class="st28" points="184.5,130 202.5,130 202.5,148.2 					"/>
					<polygon class="st29" points="184.5,166.4 184.5,148.2 166.5,148.2 					"/>
					<polygon class="st30" points="220.6,166.4 202.5,166.4 202.5,184.6 					"/>
					<polygon class="st31" points="220.6,166.4 220.6,184.6 238.6,184.6 					"/>
					<polygon class="st32" points="238.6,184.6 238.6,166.4 220.6,166.4 					"/>
					<polygon class="st33" points="256.7,166.4 256.7,184.6 238.6,184.6 					"/>
					<polygon class="st34" points="238.6,184.6 238.6,166.4 256.7,166.4 					"/>
					<polygon class="st35" points="184.5,166.4 166.5,166.4 166.5,184.6 					"/>
					<polygon class="st36" points="184.5,166.4 184.5,184.6 202.6,184.6 					"/>
				</g>
				<g class="st15">
					<polygon class="st16" points="148.4,221 148.4,202.8 166.5,202.8 					"/>
					<polygon class="st17" points="166.5,202.8 166.5,184.6 148.4,184.6 					"/>
					<polygon class="st18" points="238.6,202.8 238.6,221 220.5,221 					"/>
					<polygon class="st19" points="220.5,184.6 238.6,184.6 238.6,202.8 					"/>
					<polygon class="st20" points="220.5,184.6 220.5,202.8 238.6,202.8 					"/>
					<polygon class="st21" points="220.5,184.6 220.5,202.8 202.5,202.8 					"/>
					<polygon class="st22" points="220.5,221 202.5,221 202.5,202.8 					"/>
					<polygon class="st23" points="184.5,221 202.5,221 202.5,202.8 					"/>
					<polygon class="st24" points="220.5,220.9 220.5,202.8 238.6,202.8 					"/>
					<polygon class="st25" points="256.6,184.6 238.6,184.6 238.6,202.8 					"/>
					<polygon class="st26" points="256.6,184.6 256.6,202.8 238.6,202.8 					"/>
					<polygon class="st27" points="256.6,220.9 256.6,202.8 238.6,202.8 					"/>
					<polygon class="st19" points="238.6,202.8 238.6,221 256.6,221 					"/>
					<polygon class="st28" points="184.5,184.6 202.5,184.6 202.5,202.8 					"/>
					<polygon class="st29" points="184.5,221 184.5,202.8 166.4,202.8 					"/>
					<polygon class="st30" points="220.5,220.9 202.5,220.9 202.5,239.1 					"/>
					<polygon class="st31" points="220.5,220.9 220.5,239.1 238.6,239.1 					"/>
					<polygon class="st32" points="238.6,239.1 238.6,220.9 220.5,220.9 					"/>
					<polygon class="st33" points="256.6,220.9 256.6,239.1 238.6,239.1 					"/>
					<polygon class="st34" points="238.6,239.1 238.6,220.9 256.6,220.9 					"/>
					<polygon class="st35" points="184.5,220.9 166.4,220.9 166.4,239.1 					"/>
					<polygon class="st36" points="184.5,220.9 184.5,239.1 202.5,239.1 					"/>
				</g>
			</g>
			<g>
				<polygon class="st37" points="239.5,146.7 229.9,139.7 229.9,143.9 166,143.9 166,149.3 229.9,149.3 229.9,153.2 				"/>
				<polygon class="st37" points="166,171.9 175.6,165 175.6,169.2 239.5,169.2 239.5,174.6 175.6,174.6 175.6,178.5 				"/>
				<polygon class="st37" points="239.5,197.2 229.9,190.3 229.9,194.5 166,194.5 166,199.9 229.9,199.9 229.9,203.8 				"/>
				<polygon class="st37" points="166,222.5 175.6,215.6 175.6,219.8 239.5,219.8 239.5,225.2 175.6,225.2 175.6,229.1 				"/>
			</g>
		</g>
		<g>
			<g>
				<g>
					<g>
						<g>
							<g>
								<g>
									<rect x="393.3" y="96.9" class="st14" width="111.8" height="112.7"/>
									<g>
										<g>
											<g>
												<g>
													<path class="st9" d="M503.3,98.7v109.1H395.1V98.7H503.3 M506.9,95.1h-3.6H395.1h-3.6v3.6v109.1v3.6h3.6h108.3h3.6
														v-3.6V98.7v-3.6H506.9z"/>
												</g>
											</g>
										</g>
									</g>
								</g>
							</g>
						</g>
					</g>
				</g>
				<g class="st15">
					<polygon class="st16" points="394.9,135.3 394.9,117.1 413,117.1 					"/>
					<polygon class="st17" points="413,117.1 413,98.9 394.9,98.9 					"/>
					<polygon class="st18" points="485.1,117.1 485.1,135.2 467,135.2 					"/>
					<polygon class="st19" points="467,98.9 485.1,98.9 485.1,117.1 					"/>
					<polygon class="st20" points="467,98.9 467,117.1 485.1,117.1 					"/>
					<polygon class="st21" points="467.1,98.9 467.1,117.1 449,117.1 					"/>
					<polygon class="st22" points="467,135.3 449,135.3 449,117.1 					"/>
					<polygon class="st23" points="431,135.3 449,135.3 449,117.1 					"/>
					<polygon class="st24" points="467.1,135.2 467.1,117.1 485.1,117.1 					"/>
					<polygon class="st25" points="503.1,98.9 485.1,98.9 485.1,117.1 					"/>
					<polygon class="st26" points="503.1,98.9 503.1,117.1 485.1,117.1 					"/>
					<polygon class="st27" points="503.1,135.2 503.1,117.1 485.1,117.1 					"/>
					<polygon class="st19" points="485.1,117.1 485.1,135.3 503.1,135.3 					"/>
					<polygon class="st28" points="431,98.9 449,98.9 449,117.1 					"/>
					<polygon class="st29" points="431,135.3 431,117.1 412.9,117.1 					"/>
					<polygon class="st30" points="467,135.2 449,135.2 449,153.4 					"/>
					<polygon class="st31" points="467.1,135.2 467.1,153.4 485.1,153.4 					"/>
					<polygon class="st32" points="485.1,153.4 485.1,135.2 467,135.2 					"/>
					<polygon class="st33" points="503.1,135.2 503.1,153.4 485.1,153.4 					"/>
					<polygon class="st34" points="485.1,153.4 485.1,135.2 503.1,135.2 					"/>
					<polygon class="st35" points="431,135.2 412.9,135.2 412.9,153.4 					"/>
					<polygon class="st36" points="431,135.2 431,153.4 449,153.4 					"/>
				</g>
				<g class="st15">
					<polygon class="st16" points="394.9,189.8 394.9,171.6 412.9,171.6 					"/>
					<polygon class="st17" points="412.9,171.6 412.9,153.4 394.9,153.4 					"/>
					<polygon class="st18" points="485,171.6 485,189.8 467,189.8 					"/>
					<polygon class="st19" points="467,153.4 485,153.4 485,171.6 					"/>
					<polygon class="st20" points="467,153.4 467,171.6 485,171.6 					"/>
					<polygon class="st21" points="467,153.4 467,171.6 449,171.6 					"/>
					<polygon class="st22" points="467,189.8 449,189.8 449,171.6 					"/>
					<polygon class="st23" points="430.9,189.8 449,189.8 449,171.6 					"/>
					<polygon class="st24" points="467,189.8 467,171.6 485.1,171.6 					"/>
					<polygon class="st25" points="503.1,153.4 485,153.4 485,171.6 					"/>
					<polygon class="st26" points="503.1,153.4 503.1,171.6 485,171.6 					"/>
					<polygon class="st27" points="503.1,189.8 503.1,171.6 485,171.6 					"/>
					<polygon class="st19" points="485,171.6 485,189.8 503.1,189.8 					"/>
					<polygon class="st28" points="430.9,153.4 449,153.4 449,171.6 					"/>
					<polygon class="st29" points="430.9,189.8 430.9,171.6 412.9,171.6 					"/>
					<polygon class="st30" points="467,189.8 449,189.8 449,207.9 					"/>
					<polygon class="st31" points="467,189.8 467,208 485.1,208 					"/>
					<polygon class="st32" points="485,208 485,189.8 467,189.8 					"/>
					<polygon class="st33" points="503.1,189.8 503.1,208 485,208 					"/>
					<polygon class="st34" points="485,208 485,189.8 503.1,189.8 					"/>
					<polygon class="st35" points="430.9,189.8 412.9,189.8 412.9,207.9 					"/>
					<polygon class="st36" points="430.9,189.8 430.9,208 449,208 					"/>
				</g>
			</g>
			<g>
				<polygon class="st37" points="485.9,115.5 476.3,108.5 476.3,112.7 412.5,112.7 412.5,118.1 476.3,118.1 476.3,122.1 				"/>
				<polygon class="st37" points="412.5,140.8 422.1,133.8 422.1,138 485.9,138 485.9,143.4 422.1,143.4 422.1,147.4 				"/>
				<polygon class="st37" points="485.9,166.1 476.3,159.1 476.3,163.3 412.5,163.3 412.5,168.7 476.3,168.7 476.3,172.7 				"/>
				<polygon class="st37" points="412.5,191.4 422.1,184.4 422.1,188.6 485.9,188.6 485.9,194 422.1,194 422.1,198 				"/>
			</g>
		</g>
		<g>
			<g>
				<g>
					<g>
						<g>
							<g>
								<g>
									<rect x="468.8" y="128" class="st14" width="111.8" height="112.7"/>
									<g>
										<g>
											<g>
												<g>
													<path class="st9" d="M578.9,129.8v109.1H470.6V129.8H578.9 M582.4,126.2h-3.6H470.6H467v3.6v109.1v3.6h3.6h108.3h3.6
														v-3.6V129.8L582.4,126.2L582.4,126.2z"/>
												</g>
											</g>
										</g>
									</g>
								</g>
							</g>
						</g>
					</g>
				</g>
				<g class="st15">
					<polygon class="st16" points="470.5,166.4 470.5,148.2 488.5,148.2 					"/>
					<polygon class="st17" points="488.5,148.2 488.5,130 470.5,130 					"/>
					<polygon class="st18" points="560.6,148.2 560.6,166.4 542.6,166.4 					"/>
					<polygon class="st19" points="542.6,130 560.6,130 560.6,148.2 					"/>
					<polygon class="st20" points="542.6,130 542.6,148.2 560.6,148.2 					"/>
					<polygon class="st21" points="542.6,130 542.6,148.2 524.5,148.2 					"/>
					<polygon class="st22" points="542.6,166.4 524.5,166.4 524.5,148.2 					"/>
					<polygon class="st23" points="506.5,166.4 524.5,166.4 524.5,148.2 					"/>
					<polygon class="st24" points="542.6,166.4 542.6,148.2 560.6,148.2 					"/>
					<polygon class="st25" points="578.7,130 560.6,130 560.6,148.2 					"/>
					<polygon class="st26" points="578.7,130 578.7,148.2 560.6,148.2 					"/>
					<polygon class="st27" points="578.7,166.4 578.7,148.2 560.6,148.2 					"/>
					<polygon class="st19" points="560.6,148.2 560.6,166.4 578.7,166.4 					"/>
					<polygon class="st28" points="506.5,130 524.5,130 524.5,148.2 					"/>
					<polygon class="st29" points="506.5,166.4 506.5,148.2 488.5,148.2 					"/>
					<polygon class="st30" points="542.6,166.4 524.5,166.4 524.5,184.6 					"/>
					<polygon class="st31" points="542.6,166.4 542.6,184.6 560.6,184.6 					"/>
					<polygon class="st32" points="560.6,184.6 560.6,166.4 542.6,166.4 					"/>
					<polygon class="st33" points="578.7,166.4 578.7,184.6 560.6,184.6 					"/>
					<polygon class="st34" points="560.6,184.6 560.6,166.4 578.7,166.4 					"/>
					<polygon class="st35" points="506.5,166.4 488.5,166.4 488.5,184.6 					"/>
					<polygon class="st36" points="506.5,166.4 506.5,184.6 524.6,184.6 					"/>
				</g>
				<g class="st15">
					<polygon class="st16" points="470.4,221 470.4,202.8 488.5,202.8 					"/>
					<polygon class="st17" points="488.5,202.8 488.5,184.6 470.4,184.6 					"/>
					<polygon class="st18" points="560.6,202.8 560.6,221 542.5,221 					"/>
					<polygon class="st19" points="542.5,184.6 560.6,184.6 560.6,202.8 					"/>
					<polygon class="st20" points="542.5,184.6 542.5,202.8 560.6,202.8 					"/>
					<polygon class="st21" points="542.5,184.6 542.5,202.8 524.5,202.8 					"/>
					<polygon class="st22" points="542.5,221 524.5,221 524.5,202.8 					"/>
					<polygon class="st23" points="506.5,221 524.5,221 524.5,202.8 					"/>
					<polygon class="st24" points="542.5,220.9 542.5,202.8 560.6,202.8 					"/>
					<polygon class="st25" points="578.6,184.6 560.6,184.6 560.6,202.8 					"/>
					<polygon class="st26" points="578.6,184.6 578.6,202.8 560.6,202.8 					"/>
					<polygon class="st27" points="578.6,220.9 578.6,202.8 560.6,202.8 					"/>
					<polygon class="st19" points="560.6,202.8 560.6,221 578.6,221 					"/>
					<polygon class="st28" points="506.5,184.6 524.5,184.6 524.5,202.8 					"/>
					<polygon class="st29" points="506.5,221 506.5,202.8 488.4,202.8 					"/>
					<polygon class="st30" points="542.5,220.9 524.5,220.9 524.5,239.1 					"/>
					<polygon class="st31" points="542.5,220.9 542.5,239.1 560.6,239.1 					"/>
					<polygon class="st32" points="560.6,239.1 560.6,220.9 542.5,220.9 					"/>
					<polygon class="st33" points="578.6,220.9 578.6,239.1 560.6,239.1 					"/>
					<polygon class="st34" points="560.6,239.1 560.6,220.9 578.6,220.9 					"/>
					<polygon class="st35" points="506.5,220.9 488.4,220.9 488.4,239.1 					"/>
					<polygon class="st36" points="506.5,220.9 506.5,239.1 524.5,239.1 					"/>
				</g>
			</g>
			<g>
				<polygon class="st37" points="561.5,146.7 551.9,139.7 551.9,143.9 488,143.9 488,149.3 551.9,149.3 551.9,153.2 				"/>
				<polygon class="st37" points="488,171.9 497.6,165 497.6,169.2 561.5,169.2 561.5,174.6 497.6,174.6 497.6,178.5 				"/>
				<polygon class="st37" points="561.5,197.2 551.9,190.3 551.9,194.5 488,194.5 488,199.9 551.9,199.9 551.9,203.8 				"/>
				<polygon class="st37" points="488,222.5 497.6,215.6 497.6,219.8 561.5,219.8 561.5,225.2 497.6,225.2 497.6,229.1 				"/>
			</g>
		</g>
	</g>
</g>
</svg>
